<svg xmlns="http://www.w3.org/2000/svg" viewBox="0 0 172.89 292.46"><defs><style>.cls-1{fill:#fff;}</style></defs><title>bulb</title><g id="Layer_2" data-name="Layer 2"><g id="Layer_1-2" data-name="Layer 1"><path class="cls-1" d="M172.81,89.81a83.19,83.19,0,0,0-18.1-55.7,94.81,94.81,0,0,0-48.1-31.6c-18.9-5.4-40.7-1.6-58.2,6.7-37,17.5-57.6,59.9-44.4,99.4,4.2,12.6,10.9,24.2,15.8,36.5a122.84,122.84,0,0,1,8.8,36.3c2.4,26.7-1.3,53.6-5,80-.8,1.6-.3,4,2,4.3,1,.1,2,.3,3,.4-.3,2-.5,4-.8,6a3.21,3.21,0,0,0,.1,1.4,2.65,2.65,0,0,0,2.3,2.3,8.75,8.75,0,0,0,1.6.2c1.5,3.2,2.9,6.5,4.4,9.6,0,.1.1.2.2.3a2.49,2.49,0,0,0,2.1,1.5c11.3,1.7,22.6,3.4,33.9,5a2.41,2.41,0,0,0,2.4-.8c.1-.1.2-.1.3-.2,2.4-2.6,4.6-5.3,7-7.9a8.75,8.75,0,0,0,1.6.2,2.67,2.67,0,0,0,2.9-1.5,3.1,3.1,0,0,0,.6-1.3c.3-2,.6-4,1-6,1,.2,2,.3,3,.5,2.3.4,3.5-1.7,3.2-3.5,3.7-23.5,7.5-47.2,15.4-69.7,3.9-11.2,8.8-19.5,15.2-29.5s14.4-18.6,22.3-27.5C161.51,129.21,171.91,111.71,172.81,89.81ZM62.51,211.51c.3-23.2-.3-43.9-.9-67.1-.2-7.7,0-15.6-.4-23.4,7.6-1.3,15.2-5.7,21.1-11.2,3.6,6.3,8.5,11.7,13.9,14.8a26.17,26.17,0,0,0,5.6,2.3c-14.5,27.7-19.8,56.3-27.9,86.2C70.11,212.51,66.31,212,62.51,211.51Zm21.2,8.8q-25,3-50.1,6.6c.4-4.5.8-9.1,1-13.6C51,215.81,67.31,218,83.71,220.31Zm-54.1,40c.1-.8.2-1.5.3-2.3,20.7-3.1,41.5-5.6,62.2-8.1-1.1,6.4-2.2,12.8-3.2,19.2Q59.36,264.46,29.61,260.31Zm1.9-14.3c20.9-3.1,41.9-5.4,62.9-7.8-.4,1.9-.8,3.9-1.1,5.8-20.9,2.4-41.7,5-62.5,8C31,250,31.21,248,31.51,246Zm64.1-13.9c-21.1,2.5-42.3,4.8-63.4,7.9.3-2.3.5-4.7.8-7.1,21.4-3.2,42.8-5.8,64.3-8.4C96.71,227.11,96.11,229.61,95.61,232.11Zm-23.8,54.4c-10.3-1.5-20.5-3.1-30.8-4.6-.7-1.6-1.5-3.3-2.2-4.9l36.6,5.4C74.11,283.91,72.91,285.21,71.81,286.51Zm10.1-8.9c-16-2.4-32-4.7-48-7.1.2-1.2.3-2.4.5-3.6,16.1,2.2,32.1,4.6,48.1,7.2C82.31,275.21,82.11,276.41,81.91,277.61ZM140.51,144c-16.1,18-28.5,34-36.4,56.9-1.8,5.2-3.4,10.5-4.8,15.8-6.6-1-13.1-1.9-19.7-2.8,4.3-16,7.6-29.6,12.4-45.4a286.63,286.63,0,0,1,11.2-31c1.4-3.2,2.9-6.4,4.6-9.5,10.7,1.1,22.9-2.4,23.4-14.1.3-5.8-3.5-9.8-9.6-8.8-7.5,1.2-12.5,9-16,15a16.18,16.18,0,0,0-1,1.8,28.17,28.17,0,0,1-12.7-8.3,31.46,31.46,0,0,1-5.4-8.5,33.61,33.61,0,0,0,3.3-4.7c3.9-6.9,6.5-17.3,1.8-24.6-3.9-6-9.8-1.8-12.3,3.1-3.8,7.6-3.1,16.9.3,25.3-5.2,5.5-12.1,9.7-19,10.8-.1-.9-.2-1.8-.3-2.6-1-6.6-3.5-15.5-10-18.8-5-2.4-10.8,1.3-12.1,6.6-1.8,6.7,2.9,15.3,8.7,18.6a20.5,20.5,0,0,0,8.3,2.5c1.9,30.5,1.9,58.9,1.5,89.4-7.3-1-14.6-2.1-21.9-3.1.8-23.6-1.5-44.4-10.6-66.6-8.3-20.2-20.1-38.9-18.6-61.6a77.27,77.27,0,0,1,28-54.1c15.9-12.9,36.5-19.5,56.8-19.2,19.8.3,39.6,11.1,53.4,24.8a77.76,77.76,0,0,1,23.1,56.5C166.71,110.21,155.31,127.51,140.51,144Zm-29.8-21.2c2.9-4.5,12.1-16.9,14.6-10.2,2.4,6.4-9.2,9.8-13.4,10.1A4.87,4.87,0,0,1,110.71,122.81ZM83.41,94c-.5-3.7-.8-8.1.7-11.6,3.4-8,4.2,4.4,3.8,6.6a26.32,26.32,0,0,1-3.7,9.4C83.91,97,83.61,95.51,83.41,94Zm-28.6,21.3a5,5,0,0,1-1.2-.2,11.11,11.11,0,0,1-8.2-6c-1.9-3.8-2.4-13.6,4-8.5C53.31,103.71,54.41,110.11,54.81,115.31Z"/></g></g></svg>