<?xml version="1.0" encoding="utf-8"?>
<!-- Generator: Adobe Illustrator 22.1.0, SVG Export Plug-In . SVG Version: 6.00 Build 0)  -->
<svg version="1.1" id="objects" xmlns="http://www.w3.org/2000/svg" xmlns:xlink="http://www.w3.org/1999/xlink" x="0px" y="0px"
	 viewBox="0 0 184.2 195.4" style="enable-background:new 0 0 184.2 195.4;" xml:space="preserve">
<style type="text/css">
	.st0{fill:#806049;}
	.st1{fill:#268085;}
	.st2{fill:#F5D5C1;}
	.st3{opacity:0.2;enable-background:new    ;}
	.st4{fill:#80604A;}
	.st5{fill:#FFFFFF;}
	.st6{opacity:5.000000e-02;enable-background:new    ;}
</style>
<g>
	<path class="st0" d="M75.1,7c4.5-7.9,40.8-14.9,55.5,13.2c14.8,28.1,7.3,37.9,15.5,47.8s0.5,32.6-5.2,34.6s-3.4,9.9-0.6,13.2
		c11.8,14.4-5.3,38.7-50.8,38.5c-48.7-0.3-58.2-28.5-45.7-37.4c4.1-2.9,5.6-8.4,1.2-13.3c-4.5-4.9-14.7-23-5-37.9
		C49.7,51.1,41.2,7,75.1,7z"/>
	<path class="st1" d="M109.5,122.6c-0.4,0.6-35.6,1.1-35.9,1.7c-11.1,15.8-34.9,22.7-53.9,26.9C0.8,155.4,0.1,179.4,0,195.4h184.2
		c0-16-0.4-39.9-19.7-44.2C145.2,146.9,120,139.1,109.5,122.6z"/>
	<path class="st2" d="M73.6,88.9v30.3v14.9c9.2,18.9,25.9,19.4,36.9,0v-14.9V88.9C110.5,64.5,73.6,64.5,73.6,88.9z"/>
	<path class="st2" d="M140.8,67.8c-3.7-1.7-8.9,2.4-11.6,9.1c-2.7,6.7-2,13.5,1.7,15.1c3.7,1.7,8.9-2.4,11.6-9.1
		C145.2,76.3,144.4,69.5,140.8,67.8z"/>
	<path class="st2" d="M43.4,67.8c3.7-1.7,8.9,2.4,11.6,9.1s2,13.5-1.7,15.1c-3.7,1.7-8.9-2.4-11.6-9.1C39,76.3,39.7,69.5,43.4,67.8z
		"/>
	<path class="st3" d="M73.6,111.4v1.3c0,0,11.6,11.6,18.3,11.6s18.6-11.7,18.6-11.7v-1.1L73.6,111.4L73.6,111.4z"/>
	<path class="st2" d="M92.1,120.2c-11.5,0-35.7-18.9-43.2-46C41.3,46.9,55.6,7.7,92.1,7.7s50.7,39.2,43.2,66.5
		C127.8,101.3,103.6,120.2,92.1,120.2z"/>
	<path class="st4" d="M83.5,41.6C74.5,60.4,70.9,65.9,59,61c-11.9-5-9.6,8.9-7.5,18.8c-10.5-13.4-9.3-26.1-6-39
		C49.1,26.6,67.2,5.1,84.2,5.5c9.2-1,23.2,0.2,38.1,10.9c26,18.7,17.3,60.8,10.3,65.7c6.8-38.9-9.8-31-21.3-51.4
		C107.6,21.8,93.2,21.2,83.5,41.6z"/>
	<rect x="89.7" y="148.7" class="st5" width="3.8" height="46.7"/>
	<g>
		<polygon class="st5" points="73.6,124.3 60.4,136.3 77.2,162.3 91.6,148.6 		"/>
		<polygon class="st5" points="110.5,124.2 123.7,136.7 106.1,162.3 91.6,148.6 		"/>
	</g>
	<path class="st1" d="M112.1,88.4c0.4,0,0.7,0,1.1-0.1c10.5-0.9,13.1-5.6,14.2-11.5c1.3-6.5,1.4-8.8,3.1-9.4
		c1.2-0.4,1.5-1.9,1.5-3.6c0-1.7-0.1-1.9-2.1-2.6c-1.6-0.6-10.6-1.4-17.3-1V62c5.3-0.3,10.4,0.3,11.9,1.3c3.4,2.2,2.4,12.7-0.5,17.9
		c-2,3.6-7.2,5.5-11.9,5.5V88.4z M92.5,63.7C90.2,63.8,80.7,61,74,60.4c-0.5,0-1-0.1-1.5-0.1v1.8c5.5,0.2,11.1,1.5,13.1,4.4
		c3.2,4.8-2.5,16.5-7.7,19.1c-1.6,0.8-3.6,1.2-5.8,1.2v1.7c9.1,0,12.4-6.5,13.5-8.7c2.1-4.1,1.7-9.8,6.9-9.8s4.5,5.5,6.4,9.6
		c1,2.2,3.9,9,13.3,8.7v-1.7c-2.3,0-4.5-0.4-6.1-1.2c-5-2.6-10-14.3-6.5-19.1c2.1-2.9,7.7-4.2,13.1-4.5V60c-0.4,0-0.8,0.1-1.2,0.1
		C105.3,60.9,98,63.5,92.5,63.7z M72.6,60.3c-6.6-0.4-15.4,0.5-17.1,1c-2.1,0.7-2.2,0.9-2.3,2.6c-0.1,1.7,0.1,3.2,1.3,3.6
		c1.7,0.6,1.6,2.9,2.5,9.4c0.8,5.9,3.1,10.6,13.5,11.5c0.5,0,1,0.1,1.6,0.1v-1.7c-4.8,0-10.1-1.8-11.9-5.5
		c-2.5-5.2-2.9-15.7,0.6-17.9c1.5-0.9,6.5-1.6,11.7-1.4L72.6,60.3z"/>
	<polygon class="st6" points="73.6,124.3 91.6,148.6 110.5,124.2 110.5,123.7 91.6,147.9 73.6,123.7 	"/>
</g>
</svg>
