<?xml version="1.0" encoding="utf-8"?>
<!-- Generator: Adobe Illustrator 22.1.0, SVG Export Plug-In . SVG Version: 6.00 Build 0)  -->
<svg version="1.1" id="Objects" xmlns="http://www.w3.org/2000/svg" xmlns:xlink="http://www.w3.org/1999/xlink" x="0px" y="0px"
	 viewBox="0 0 102.1 123.3" style="enable-background:new 0 0 102.1 123.3;" xml:space="preserve">
<style type="text/css">
	.st0{fill:#71B8B0;}
	.st1{fill:#A0DED7;}
	.st2{fill:#ED5C1B;}
	.st3{fill:#FFFDFA;}
	.st4{fill:#FFAE00;}
</style>
<g>
	<g>
		<path class="st0" d="M1,62c-0.2,0.8-0.3,1.7-0.4,2.5c-0.1,0.8-0.2,1.7-0.3,2.5C0.1,68.7,0,70.4,0,72.2c0,1.8,0.1,3.5,0.3,5.2
			c0.1,0.9,0.2,1.7,0.3,2.5s0.3,1.7,0.4,2.5c0.2,0.8,0.4,1.6,0.6,2.5c0.4,1.6,0.9,3.2,1.5,4.8C3.4,90.5,3.7,91.2,4,92
			c0.3,0.8,0.7,1.5,1,2.3c0.2,0.4,0.4,0.7,0.5,1.1c0.4,0.7,0.8,1.5,1.2,2.2c1.2,2.1,2.6,4.2,4.1,6.1c0.8,1,1.5,1.9,2.4,2.8
			c0.5,0.6,1.1,1.2,1.7,1.8c0.6,0.6,1.2,1.1,1.8,1.7c2.7,2.5,5.7,4.6,8.9,6.5c0.7,0.4,1.4,0.8,2.2,1.2c1.5,0.7,3,1.4,4.5,2
			c0.8,0.3,1.5,0.6,2.3,0.9c5.1,1.7,10.6,2.7,16.3,2.7c3.9,0,7.7-0.4,11.3-1.3c1.7-0.4,3.4-0.9,5-1.4c0.8-0.3,1.6-0.6,2.3-0.9
			c1.5-0.6,3-1.3,4.5-2c0.7-0.4,1.5-0.8,2.2-1.2c3.2-1.8,6.2-4,8.9-6.5c0.6-0.5,1.2-1.1,1.8-1.7s1.1-1.2,1.7-1.8
			c0.8-0.9,1.6-1.8,2.4-2.8c1.2-1.5,2.3-3.1,3.3-4.8c0.3-0.4,0.5-0.9,0.8-1.3c0.4-0.7,0.8-1.4,1.2-2.2c0.2-0.4,0.4-0.7,0.6-1.1
			c0.4-0.7,0.7-1.5,1-2.3s0.6-1.5,0.9-2.3c0.6-1.6,1.1-3.2,1.5-4.8c0.2-0.8,0.4-1.6,0.6-2.5c0.2-0.8,0.3-1.7,0.5-2.5
			c0.1-0.8,0.2-1.7,0.3-2.5c0.2-1.7,0.3-3.4,0.3-5.2s-0.1-3.5-0.3-5.2c-0.1-0.9-0.2-1.7-0.3-2.5s-0.3-1.7-0.5-2.5s-0.4-1.6-0.6-2.5
			c-0.4-1.6-0.9-3.2-1.5-4.8c-0.1-0.4-0.3-0.8-0.4-1.2c-0.5-1.2-0.9-2.3-1.5-3.4c-0.2-0.4-0.4-0.7-0.5-1.1c-0.4-0.7-0.8-1.5-1.2-2.2
			c-1.2-2.1-2.6-4.2-4.1-6.1c-0.8-1-1.5-1.9-2.4-2.8c-0.5-0.6-1.1-1.2-1.7-1.8c-0.6-0.6-1.2-1.1-1.8-1.7c-1.2-1.1-2.4-2.1-3.6-3
			c-1.7-1.3-3.4-2.4-5.2-3.5c-0.7-0.4-1.4-0.8-2.2-1.2c-0.3-0.2-0.7-0.3-1-0.5c-0.4-0.2-0.8-0.4-1.2-0.6c-0.2-0.1-0.3-0.2-0.5-0.2
			c-0.6-0.3-1.2-0.5-1.8-0.7l0,0c-0.6-0.2-1.3-0.5-1.9-0.7c-0.1,0-0.3-0.1-0.4-0.1c-1.5-0.5-3-0.9-4.6-1.3c-0.5-0.1-1-0.2-1.5-0.3
			c-0.4-0.1-0.7-0.1-1.1-0.2c-2.7-0.5-5.4-0.8-8.2-0.8c-0.3,0-0.6,0-0.9,0c-0.5,0-1,0-1.6,0c-5.1,0.2-10.1,1.1-14.7,2.6
			c-0.8,0.3-1.6,0.6-2.3,0.9c-0.2,0.1-0.5,0.2-0.7,0.3c-0.5,0.2-1.1,0.4-1.6,0.7c-0.8,0.3-1.5,0.7-2.2,1.1c-0.7,0.4-1.5,0.8-2.2,1.2
			c-2.9,1.6-5.5,3.6-8,5.7c-0.3,0.3-0.6,0.5-0.9,0.8c-0.6,0.5-1.2,1.1-1.8,1.7c-0.6,0.6-1.1,1.2-1.7,1.8c-0.8,0.9-1.6,1.8-2.4,2.8
			c-1.5,1.9-2.9,4-4.1,6.1c-0.4,0.7-0.8,1.4-1.2,2.2c-0.2,0.4-0.4,0.7-0.5,1.1c-0.5,1.1-1,2.2-1.5,3.4c-0.2,0.4-0.3,0.8-0.4,1.2
			c-0.6,1.6-1.1,3.2-1.5,4.8C1.3,60.4,1.1,61.2,1,62z"/>
		<path class="st1" d="M78.9,113.6V68.3c0.2,0.1,0.4,0.2,0.6,0.3c1.3,0.8,3.1,1.8,3.6,0.6s2.2-0.8,3.6-0.5c1.4,0.3,3.9,0.8,5.2,0.6
			c1.3-0.1,2.6-1.3,2.7-2.5c0.1-1.2-1.7-1.4-3.9-1.4S87.6,65,88,63.7c0.4-1.3,1-2.5,2.2-3s2.2-0.8,3.4-0.8s2.7,0.9,4.2,0.8
			c1.4-0.1,0.9-1.4-0.5-2.2c-1.4-0.8-1.7-1.9-1-2.6c0.6-0.6,0.3-1.3-0.9-0.6c-1.2,0.6-2.9,2.3-3.2,1.3c-0.4-1-3.2-0.1-3.2,1.4
			c0,1.6,0.4,1.8-0.1,2.9c-0.5,1-1.7,1.8-2.7,1.7c-1-0.1,0.1,1.8-0.9,2.3s-1.6-0.8-2.2-2.1c-0.6-1.3-1.2-2.1-1.8-2.9s-1-1.2-1.9-1.9
			c-0.1-0.1-0.2-0.1-0.2-0.2V47.3c0.3-0.1,0.6-0.1,1-0.1c1.4,0,2.5,1.2,3.5,0.3c1-0.9-0.8-2.5,0.8-2.5s2.9,0.1,1.7-1
			c-1.2-1.2,0.4-0.5,1.7-1.2c1.3-0.6,1.2-1.7-0.4-1.4c-1.6,0.3-2.9,1.2-3.5-0.4s1.3-3.4,2.3-4.5c0.2-0.3,0.3-0.5,0.2-0.7
			c0.2,0.2,0.4,0.4,0.6,0.6c0.6,0.6,1.1,1.2,1.7,1.8c0.8,0.9,1.6,1.8,2.4,2.8c1.5,1.9,2.9,4,4.1,6.1c0.4,0.7,0.8,1.4,1.2,2.2
			c0.2,0.4,0.4,0.7,0.5,1.1c0.5,1.1,1,2.2,1.5,3.4c0.2,0.4,0.3,0.8,0.4,1.2c0.6,1.6,1.1,3.2,1.5,4.8c0.2,0.8,0.4,1.6,0.6,2.5
			c0.2,0.8,0.3,1.7,0.5,2.5c0.1,0.8,0.2,1.7,0.3,2.5c0.2,1.7,0.3,3.4,0.3,5.2s-0.1,3.5-0.3,5.2c-0.1,0.9-0.2,1.7-0.3,2.5
			s-0.3,1.7-0.5,2.5c-0.1,0.3-0.1,0.7-0.2,1v-0.1c-1.2-2.7-3.8-5.7-4.7-8.2s-1.8-4-2.7-3.9s1.2,4.8,2.1,6.5c0.9,1.7,1.9,4.4,3.5,6
			c0.5,0.5,1,0.9,1.5,1.2c-0.4,1.6-0.9,3.2-1.5,4.7c-0.3,0.8-0.6,1.5-0.9,2.3c-0.3,0.8-0.7,1.5-1,2.3c-0.2,0.4-0.4,0.7-0.6,1.1
			c-0.4,0.7-0.8,1.5-1.2,2.2c-0.3,0.4-0.5,0.9-0.8,1.3c-1,1.7-2.1,3.2-3.3,4.8c-0.8,1-1.5,1.9-2.4,2.8c-0.5,0.6-1.1,1.2-1.7,1.8
			c-0.6,0.6-1.2,1.1-1.8,1.7c-1.9,1.7-3.8,3.2-5.9,4.6C79,114.2,78.9,113.9,78.9,113.6L78.9,113.6z M78.9,61.8
			c0.2,0.6,0.2,1.4,0.2,2.3c0,1.8,1.4-0.6,1.7-1.4s0.8-2.6-0.3-2.6c-0.8,0-1.1-0.2-1.7-0.8v2.5H78.9z M78.9,45.8
			c0.2-0.2,0.4-0.3,0.6-0.3c0.9,0,1.3-1.2,2.3-2.2s-0.9-2.3-0.4-3.8c0.5-1.4,2.1-2.1,2.5-3.5c0.2-0.9,1.3-1,1.9-0.7
			c-0.3-0.3-0.6-0.5-0.8-0.8c-1.2-1.1-2.4-2.1-3.6-3c-0.3-0.2-0.6-0.4-0.9-0.6c-0.5,0.4-1.1,1-1.6,1.6V45.8z M78.9,32.5v13.3
			c-0.6,0.5-1.2,1.4-1.4,0.4c-0.4-1.3-1.2-2.7-2.1-2.1c-0.9,0.6-0.8,2.9-1.9,1c-1.2-1.8-2.2-4.4-0.9-5.8s3.1-2.6,4.2-4
			C77.2,34.6,78,33.5,78.9,32.5L78.9,32.5z M78.9,47.3c-0.7,0.2-1.3,0.5-2.5,0.5c-1.7,0-1-1.2-2.1-1.2c-1,0-0.8,1.9-1.7,2.9
			c-0.8,0.8-2.1,1.8-3.4,2.3v10.4c0.6-0.2,0.8-1.4,0.4-2.7c-0.4-1.4,2.1-0.9,4.2-0.9c2.1,0,2.3,1.4,3.8,1.9c0.7,0.3,1.1,0.7,1.3,1.3
			v-2.5c-0.2-0.2-0.3-0.3-0.5-0.5c-0.8-0.8-0.3-1.3,0.5-0.8V47.3L78.9,47.3z M78.9,68.3v45.2c-0.1-0.9-0.2-1.8-0.8-2.7
			c-1.2-1.7-2.3-4.7-1.2-6.2c1.2-1.6,1.7-2.7,0.6-3.1c-1-0.4,0.5-2.2-0.9-3.1s-2.3-3.4-1.8-4.5c0.5-1.2,0.6-3.1-1-3.1
			c-1.2,0-3.1-0.7-4.6-0.9V65.2c0.8-0.3,1.5-0.6,2.8-0.6c2.5,0,4.3-0.9,4,1C75.8,67.2,77.6,67.7,78.9,68.3L78.9,68.3z M69.2,50.7
			v-1.1c0.3-0.1,0.6,0.1,0.5,0.4C69.7,50.4,69.5,50.7,69.2,50.7z M69.2,49.6v1.1c-0.1,0-0.2-0.1-0.3-0.2c-0.4-0.4-0.3-0.7,0.1-0.9
			C69.1,49.6,69.2,49.6,69.2,49.6L69.2,49.6z M69.2,51.7v10.4c-0.1,0-0.1,0-0.2,0c-0.2,0-0.4,0-0.7,0V51.9c0.1,0,0.2,0,0.3-0.1
			C68.8,51.9,69,51.8,69.2,51.7L69.2,51.7z M69.2,65.1v24.7c-0.3,0-0.6,0-0.9,0V65.4C68.7,65.3,68.9,65.2,69.2,65.1L69.2,65.1z
			 M68.4,46.4v-1.1c0.3-0.1,0.6,0.1,0.5,0.4C68.8,46,68.6,46.4,68.4,46.4z M68.4,45.3v1.1c-0.1,0-0.2-0.1-0.3-0.2
			c-0.4-0.4-0.3-0.7,0.1-0.9C68.3,45.3,68.3,45.3,68.4,45.3L68.4,45.3z M68.4,52v10.2c-0.6,0.1-1,0.3-0.9,1c0.1,0.9-0.3,0.8-0.9,1.3
			c-0.3,0.2-0.7,0.5-1.1,0.7V59c1.1-0.3,1.7-1.5,0.8-2.4c-1.2-1-0.8-2.5-0.1-3.6C66.6,51.9,67,52.3,68.4,52L68.4,52z M68.4,65.4
			v24.4c-0.2,0-0.4,0.1-0.6,0.1c-0.9,0.3-1.6,0.5-2.3,0.7V65.7c0.3-0.1,0.7-0.1,1.1-0.1C67.3,65.7,67.8,65.6,68.4,65.4L68.4,65.4z
			 M65.4,52c0.5-0.2,1-0.4,1.5-0.4c1.9,0-0.1-3.2,0.1-4.3c0.3-1,0.2-3.4-1.7-3.4L65.4,52L65.4,52z M65.4,44v8
			c-1.1,0.5-1.9,1.1-2.2-0.2c-0.3-1.9-0.4-1.8,1.3-2.5c1.8-0.7-0.7-5.4,0.6-5.3C65.2,44,65.3,44,65.4,44L65.4,44z M65.4,59v6.2
			c-0.5,0.2-1,0.2-1.6-0.2c-0.5-0.3-1.3-0.2-1.9-0.2v-6c1.2,0,1.5,0.3,2.9,0.3C65,59.1,65.2,59,65.4,59L65.4,59z M65.4,65.8v24.9
			c-0.7,0.2-1.3,0.4-1.8,0.6c-0.5,0.2-1-0.1-1.7-0.6V67.2c0.2-0.1,0.5-0.2,0.8-0.3C63.7,66.6,64.1,66,65.4,65.8L65.4,65.8z
			 M61.9,51.4c0.3-0.1,0.6-0.3,0.8-0.8c0.6-1.3,0.6-3.7-0.6-3.5c-0.1,0-0.1,0-0.2,0L61.9,51.4L61.9,51.4z M61.9,29.1v-1.5
			c0.1,0,0.2,0,0.3,0c1,0,1.8,1.8,0.4,1.8C62.4,29.4,62.1,29.3,61.9,29.1z M61.9,27.6v1.5C61.2,28.7,60.9,27.7,61.9,27.6L61.9,27.6z
			 M61.9,47.1v4.3c-0.6,0.2-1.3-0.3-1.1-1.2C61,48.9,60.1,46.9,61.9,47.1L61.9,47.1z M61.9,58.8v6c-0.7,0-1.2,0-1.2-0.7
			c0-1.3-0.9-1.8-0.3-3s0-2.3,1.3-2.3H61.9L61.9,58.8z M61.9,67.1v23.5c-1-0.7-2.2-2-3.2-3.1c-0.8-0.8-1.8-1.7-2.6-2.6v-9
			c0.6-1.1,1-3.8,2.2-4c1.3-0.1,2.2-1.6,2.2-2.7C60.4,68.4,61,67.6,61.9,67.1L61.9,67.1z M56,68.7c0.2,0,0.5-0.3,0.5-0.6
			c0.1-0.4-0.2-0.6-0.5-0.4V68.7L56,68.7z M56,38.1V35c1.3,0,1.9,1.2,1.1,2.2C56.8,37.5,56.4,37.8,56,38.1z M56,35v3.1
			c-0.2,0.2-0.5,0.3-0.8,0.4v-3.4C55.5,35,55.8,34.9,56,35L56,35z M56,67.6v1.1c-0.1,0-0.2-0.1-0.3-0.2c-0.4-0.4-0.3-0.7,0.1-0.9
			C55.9,67.7,56,67.6,56,67.6L56,67.6z M56,76v9c-0.3-0.4-0.6-0.7-0.8-1v-1.9c1-1,0.6-1.3,0-1.9v-2.9c0.2-0.4,0.5-0.9,0.7-1.2
			C55.9,76.1,56,76.1,56,76L56,76z M55.2,71.9v-1.1c0.3-0.1,0.5,0.1,0.4,0.5C55.6,71.5,55.4,71.8,55.2,71.9z M55.2,35.1v3.4
			c-1,0.4-2.2,0.5-3.4-0.5l-0.1-0.1v-3.5c0.2-0.1,0.4-0.1,0.7,0C53.7,35.1,54.2,34.9,55.2,35.1L55.2,35.1L55.2,35.1z M55.2,70.8v1.1
			c-0.1,0-0.2,0-0.4-0.2c-0.4-0.4-0.3-0.7,0.1-0.9C55.1,70.8,55.2,70.8,55.2,70.8L55.2,70.8z M55.2,77.3v2.8
			C55.1,80,55,79.9,55,79.8C54.6,79.2,54.8,78.2,55.2,77.3L55.2,77.3z M55.2,82.1V84c-0.5-0.7-0.6-1.4-0.1-1.8L55.2,82.1L55.2,82.1z
			 M51.7,23.1v-1.7l0,0c0.3,0,0.6,0,0.9,0c0,0.3-0.1,0.7-0.5,1.1C52,22.7,51.8,22.9,51.7,23.1L51.7,23.1z M53.6,68.3
			c0.4-0.2,0.7,0,0.7,0.4c-0.1,0.4-0.4,0.9-0.8,0.5C53.1,68.7,53.1,68.4,53.6,68.3z M25.6,51.3c0.1,0,0.2,0,0.3,0
			c1.5,0,0.4-1-0.3-1.9V51.3L25.6,51.3z M51.7,21.4v1.7C51,24,51,24.6,49.6,24.6c-1.7,0,2.1,2.7,0.1,2.7s-2.6,2.5-0.6,2.2
			c2-0.2,1.8,0.6-0.2,1.6c-2.1,1-5.4,1-6.4,2.6s-4.7,1.5-4.7,3s-0.6,6.9-3.4,5.9s-3.4-3.8-4.6-5.5c-1.1-1.7,0.6-3.6-0.5-4.2
			s2.5-3.4,1.2-2.6c-1.2,0.9-3.2-0.4-1.5-0.7c1.7-0.4,1.1-2.1-0.1-1.7c-0.9,0.3-1.9,0-1.7-0.7l0.4-0.2c0.7-0.4,1.5-0.7,2.2-1.1
			c0.5-0.2,1-0.5,1.6-0.7c0.2-0.1,0.5-0.2,0.7-0.3c0.8-0.3,1.5-0.6,2.3-0.9c4.7-1.6,9.6-2.5,14.7-2.6c0.5,0,1,0,1.6,0
			C51.1,21.4,51.4,21.4,51.7,21.4L51.7,21.4z M51.7,34.5c-1,0.3-1.6,2.2,0,3.5V34.5L51.7,34.5z M25.6,116.5V88.4
			c1.4,0.9,2.6,1.8,3.7,1.8c1.6,0,1.4,1.6,1.4,3.2s2.1,1.6,4.3,2.3c2.2,0.7,3.2,0.6,5.4,2c2.2,1.4,2.7,2.1,1.6,3.7s-3.4,4.1-3.6,6.4
			c-0.1,2.3-1.6,4.6-3.2,4.8c-1.6,0.2-3.1,1.5-3.1,2.6s-1.5,0.6-1.6,2.7c0,0.3-0.1,0.7-0.2,1c-0.9-0.4-1.8-0.8-2.7-1.3
			C27,117.2,26.3,116.9,25.6,116.5L25.6,116.5z M25.6,55.5v-3.6c0.1,0,0.2,0,0.3,0c1.9-0.1,2.2,1.4,2.8,2.6c0.6,1.2,0.2,2.4-1.7,1.6
			C26.5,55.8,26,55.6,25.6,55.5z M21.4,52.9c0.3,0.3,0.6,0.4,0.9-0.1c0.5-0.8,1.4-1.4,3.3-1.5v-1.9c-0.3-0.4-0.5-0.8-0.4-1
			c0.4-0.9-1.5-1.2-2.5-2.2c-0.7-0.7-0.8-2.5-1.4-3.4L21.4,52.9L21.4,52.9z M25.6,51.9v3.6c-0.9-0.4-1.3-0.8-0.7-2
			C25.5,51.9,24.8,51.8,25.6,51.9L25.6,51.9z M25.6,88.4v28.1l-0.1-0.1c-1.4-0.8-2.7-1.7-4.1-2.6V86.4c0.8,0.1,1.6,0.3,2.5,0.9
			C24.5,87.6,25.1,88,25.6,88.4L25.6,88.4z M21.4,58.5v-1.6c1-0.1,1.2,1.6,0.2,1.6C21.6,58.5,21.5,58.5,21.4,58.5L21.4,58.5z
			 M21.4,35.5V34C21.9,34.6,21.9,35.3,21.4,35.5z M19.8,57c0.1-0.1,0.1-0.1,0.1-0.2c0.7-0.9,0.4-1.8-0.1-2.4V57L19.8,57z M19.8,52.2
			c0.4,0,0.7,0,0.9,0.1c0.3,0.2,0.5,0.4,0.7,0.6V42.7c-0.2-0.4-0.5-0.6-1-0.6c-0.3,0-0.5,0-0.6,0.1V52.2L19.8,52.2z M21.4,33.9v1.5
			c-0.1,0-0.3,0-0.6,0c-0.4-0.1-0.7-0.2-1-0.2v-2.6c0,0,0.1,0,0.1,0.1C20.6,33,21.1,33.4,21.4,33.9L21.4,33.9z M21.4,56.9v1.6
			c-0.9-0.2-1.3-1.4-0.2-1.5C21.3,56.9,21.3,56.9,21.4,56.9L21.4,56.9z M21.4,86.4v27.4c-0.5-0.4-1.1-0.8-1.6-1.2V86.3
			C20.3,86.3,20.8,86.3,21.4,86.4L21.4,86.4z M19.8,81v-0.3C19.9,80.8,20,81,19.8,81L19.8,81z M19.8,59.1c0.1,0,0.1,0,0.2,0
			c0.7,0,0.6-1.2-0.2-1.2V59.1L19.8,59.1z M19.8,39.7v-2.3C20.5,38.3,20.3,39.3,19.8,39.7z M17.5,58.7c0.7-0.3,1.6-0.7,2.4-1.7v-2.6
			c-0.6-0.7-1.5-1.1-2.1-1.1c-1,0,0.8-1,2.1-1.1v-10c-0.6,0.2-0.1,1.1-1.1,1.4c-0.5,0.2-1,0.1-1.3,0V58.7L17.5,58.7z M19.8,32.7v2.6
			c-1.1,0-1.6,0.6-0.3,1.8c0.1,0.1,0.2,0.2,0.3,0.4v2.3c-0.3,0.2-0.7,0.3-1.1,0.2c-0.3-0.1-0.7-0.3-1.3-0.5v-5.6
			c0.6-0.5,1.2-1,1.9-1.5C19.5,32.4,19.6,32.6,19.8,32.7L19.8,32.7z M19.8,57.9v1.2c-0.6-0.1-0.9-1-0.2-1.1
			C19.7,57.9,19.8,57.9,19.8,57.9L19.8,57.9z M19.8,80.7V81c-0.1,0.1-0.3,0.1-0.6,0.1c-1.5-0.1-2.4-1-0.6-0.8
			C19.1,80.3,19.6,80.5,19.8,80.7L19.8,80.7z M19.8,86.3v26.3c-0.8-0.6-1.6-1.3-2.4-1.9V86.4c0.5,0,1-0.1,1.4-0.1
			C19.2,86.4,19.5,86.4,19.8,86.3z M15.5,60.6c0.2-0.4,0.5-0.8,0.8-1.2c0.3-0.3,0.7-0.5,1.2-0.7V43.5c-0.4-0.2-0.6-0.7-0.6-1.3
			c0-0.5-0.6-1.1-1.4-1.7V60.6L15.5,60.6z M17.5,33.8v5.6c-0.6-0.2-1.3-0.5-2-0.7v-3c0.4-0.4,0.7-0.7,1.1-1
			C16.9,34.3,17.2,34.1,17.5,33.8L17.5,33.8L17.5,33.8z M17.5,86.5v24.3c-0.3-0.3-0.6-0.5-0.9-0.8c-0.4-0.3-0.7-0.7-1.1-1V86.2
			C15.9,86.5,16.7,86.5,17.5,86.5L17.5,86.5z M15.5,80.9v-1.7c0.1,0,0.3,0,0.4,0c1.1-0.1,1,1.7-0.2,1.7
			C15.6,80.9,15.6,80.9,15.5,80.9z M11.3,66.9c0.3-0.3,0.6-0.6,0.6-0.9c0-1.1,0.7-4.2,2.1-4.2c0.8,0,1.2-0.5,1.5-1.2V40.5
			c-1-0.7-2.2-1.3-3.3-1.4c-0.3,0.4-0.6,0.7-0.9,1.1L11.3,66.9L11.3,66.9z M15.5,35.6v3c-0.8-0.3-1.6-0.5-2.3-0.7
			c0.5-0.6,1.1-1.2,1.7-1.7C15,36.1,15.3,35.8,15.5,35.6L15.5,35.6z M15.5,79.2v1.7C14.5,80.7,13.5,79.4,15.5,79.2L15.5,79.2z
			 M15.5,86.1v22.8c-0.1-0.1-0.3-0.3-0.4-0.4c-0.5-0.6-1.2-1.5-1.9-1.9l-0.1-0.1c-0.6-0.7-1.3-1.4-1.9-2.1V86.6c0.5,0,1,0,1.4-0.2
			c1-0.6,2-1.8,2.5-0.6C15.2,85.8,15.4,86,15.5,86.1L15.5,86.1z M11.3,78.7v-1c1,0.2,1.6,1,0.5,1C11.6,78.8,11.5,78.7,11.3,78.7
			L11.3,78.7z M11.3,75.7v-1.4c1.1,0.6,1.8,2.1,1,1.6C11.9,75.7,11.6,75.6,11.3,75.7z M8.2,73.6c0.4,0.2,0.6-0.1,0.6-1.1
			c0-1.7-0.5-2.7,0.1-3.7c0.4-0.7,1.7-1.2,2.4-1.9V40.2c-0.2,0.2-0.3,0.4-0.5,0.6c-0.4,0.5-0.7,1-1.1,1.5c0.1,0.4,0.1,0.9,0.2,1.3
			c0.4,1.7,1.2,3,0.2,3s-1,1.5-1.1,3.8c-0.1,1.2-0.5,1-0.9,0.4L8.2,73.6L8.2,73.6z M11.3,74.3v1.4c-0.6,0.1-1,0.5-1.5,0.2
			c-0.7-0.4-0.5-1.6,0.6-1.8C10.8,74.1,11,74.2,11.3,74.3L11.3,74.3z M11.3,77.7v1c-1-0.2-1.6-1-0.5-1C11,77.7,11.1,77.7,11.3,77.7
			L11.3,77.7z M11.3,86.5v17.8l-0.1-0.1c0-0.1,0-0.3,0-0.4c0-1-2.1-2.6-3.1-4v-5.2c0,0,0.1,0,0.1-0.1c1.4-0.6,0.7-2.5,2.1-2.8
			c1.4-0.4,0.5-1.8,0-2.8c-0.3-0.5-1.2-0.5-2.2-0.5v-1.9c0.3,0.1,0.6,0.1,0.9,0C9.6,86.3,10.5,86.5,11.3,86.5L11.3,86.5z M8.2,77.5
			v-1.3c1.1,0.2,1.7,1.5,0.4,1.4C8.5,77.5,8.3,77.5,8.2,77.5z M1,62c-0.2,0.8-0.3,1.7-0.4,2.5c-0.1,0.8-0.2,1.7-0.3,2.5
			c-0.1,1.4-0.2,2.8-0.3,4.2c0.6,0,1.2,0.1,1.7-0.1c1.2-0.5,3.6-1.1,5,0.9c0.7,0.9,1.1,1.4,1.5,1.6V50.8c-0.4-0.6-0.7-1.6-0.7-2.1
			s-0.4-0.8-1.1-1.1c-0.3,0.5-0.6,1.1-0.9,1.6c-0.2,0.4-0.4,0.7-0.5,1.1c-0.5,1.1-1,2.2-1.5,3.4c-0.2,0.4-0.3,0.8-0.4,1.2
			c-0.6,1.6-1.1,3.2-1.5,4.8C1.3,60.4,1.1,61.2,1,62L1,62z M8.2,76.2v1.3c-1.1-0.3-1.7-1.5-0.4-1.3C7.9,76.1,8,76.2,8.2,76.2
			L8.2,76.2z M8.2,86.5c-0.8-0.2-1.6-0.9-2.1-1.8c-0.7-1.2,0.5-2.6-1.4-2.6c-1.8,0-0.6-4.1-0.6-5.4c0-1.2-2.5,0.9-3.8,2.2
			c0,0.3,0.1,0.7,0.1,1c0.1,0.8,0.3,1.7,0.4,2.5C0.9,82.7,0.9,83,1,83.3C1.7,83.7,2.4,84,3.2,84c2.1,0,2.2,2.8,2.8,3.8
			c0.3,0.5,1.1,0.5,2,0.5v-1.8H8.2z M8.2,94.7v5.2c-0.2-0.2-0.3-0.4-0.4-0.6C7.1,97.9,6.9,95.4,8.2,94.7z"/>
	</g>
	<g>
		<path class="st2" d="M62.9,0C51.6,0,42.4,9.2,42.4,20.5c0,2.4,0.6,5.7,1.6,7.8l18.9,43.9l19-44.1c0.8-1.9,1.5-5.2,1.5-7.6
			C83.4,9.1,74.2,0,62.9,0z"/>
		<path class="st3" d="M62.9,37.2c9.3,0,16.8-7.5,16.8-16.8S72.2,3.6,62.9,3.6s-16.8,7.5-16.8,16.8C46.1,29.7,53.7,37.2,62.9,37.2z"
			/>
	</g>
	<g>
		<path class="st4" d="M18.4,50.2c-6.6,0-11.9,5.3-11.9,11.9c0,1.4,0.4,3.3,0.9,4.6l11,25.5l11-25.6c0.5-1.1,0.9-3,0.9-4.4
			C30.3,55.5,25,50.2,18.4,50.2z"/>
		<path class="st3" d="M18.4,71.8c5.4,0,9.8-4.4,9.8-9.8s-4.4-9.8-9.8-9.8S8.6,56.6,8.6,62C8.7,67.5,13,71.8,18.4,71.8z"/>
	</g>
</g>
</svg>
