<svg xmlns="http://www.w3.org/2000/svg" viewBox="0 0 184.26 155.57"><defs><style>.cls-1{fill:#e34856;}.cls-2{fill:#2f925c;}.cls-3{fill:#4eb880;}.cls-4{font-size:6.45px;}.cls-4,.cls-5,.cls-6,.cls-7,.cls-8{fill:#fedd01;font-family:Bitter-Regular, Bitter;}.cls-5{font-size:6.45px;}.cls-6{font-size:6.45px;}.cls-7{font-size:6.45px;}.cls-8{font-size:6.45px;}.cls-9{fill:#e9ae97;}.cls-10{fill:#f8c3aa;}.cls-11{fill:#2d2725;}.cls-12{fill:#ededed;}.cls-13{fill:#d83b45;}.cls-14{fill:#dfdfdf;}.cls-15{fill:#31333a;}.cls-16{fill:#ce4253;}.cls-17{fill:#df4654;}.cls-18{fill:#af3e56;}.cls-19{font-size:15.68px;fill:#f2f1f1;font-family:OpenSans-Bold, Open Sans;font-weight:700;letter-spacing:0.34em;}</style></defs><title>Asset 2</title><g id="Layer_2" data-name="Layer 2"><g id="Objects"><polygon class="cls-1" points="184.26 20.9 178.22 24.37 179.71 25.47 158.83 55.72 135.71 47.01 104.94 76.52 91.74 67.11 55.1 90.61 35.94 80.84 0 111.67 1.77 113.73 36.33 84.09 55.26 93.73 91.66 70.39 105.19 80.04 136.36 50.16 159.86 59.01 181.9 27.08 183.35 28.16 184.26 20.9"/><rect class="cls-2" x="40.15" y="91.52" width="24.14" height="11.75" transform="matrix(0.27, 0.96, -0.96, 0.27, 132.04, 20.96)"/><path class="cls-3" d="M56.68,106.84a1.94,1.94,0,0,1,1.5-2.27,3,3,0,0,1,.58-.09L54.15,88a2.27,2.27,0,0,1-.53.22A1.93,1.93,0,0,1,51.16,87a.9.9,0,0,1,0-.16l-3.43,1,.06.16a1.93,1.93,0,0,1-1.5,2.26,2.41,2.41,0,0,1-.58.09l4.61,16.53a2.27,2.27,0,0,1,.53-.22,1.94,1.94,0,0,1,2.46,1.16,1,1,0,0,1,0,.17l3.43-1Z"/><path class="cls-2" d="M53.41,100.51a3.32,3.32,0,1,1,2.3-4.09A3.32,3.32,0,0,1,53.41,100.51Z"/><text class="cls-4" transform="translate(50.03 96.15) rotate(74.44)">$</text><path class="cls-2" d="M50.82,92.35a1.6,1.6,0,1,1,1.11-2A1.6,1.6,0,0,1,50.82,92.35Z"/><path class="cls-2" d="M54.48,105.53a1.6,1.6,0,1,1,1.12-2A1.6,1.6,0,0,1,54.48,105.53Z"/><rect class="cls-2" x="64.98" y="97.35" width="24.14" height="11.75" transform="matrix(-1, 0.09, -0.09, -1, 162.92, 199.23)"/><path class="cls-3" d="M67,105.89a1.93,1.93,0,0,1,2,1.89,2.24,2.24,0,0,1,0,.58L86,106.84a2,2,0,0,1-.13-.56,2,2,0,0,1,1.6-2.21h.16l-.31-3.54-.17,0a1.92,1.92,0,0,1-2-1.88,2.22,2.22,0,0,1,0-.58L68.11,99.6a2.14,2.14,0,0,1,.12.57,1.92,1.92,0,0,1-1.59,2.2h-.16l.31,3.54Z"/><path class="cls-2" d="M73.77,103.82a3.32,3.32,0,1,1,3.6,3A3.32,3.32,0,0,1,73.77,103.82Z"/><text class="cls-4" transform="translate(78.63 101.27) rotate(174.93)">$</text><path class="cls-2" d="M82.26,102.76a1.6,1.6,0,1,1,3.19-.28,1.6,1.6,0,0,1-3.19.28Z"/><path class="cls-2" d="M68.64,104a1.61,1.61,0,0,1,1.46-1.74A1.6,1.6,0,1,1,68.64,104Z"/><rect class="cls-2" x="51.63" y="107.05" width="24.14" height="11.75" transform="translate(137.11 219.79) rotate(174.94)"/><path class="cls-3" d="M53.6,115.59a1.94,1.94,0,0,1,2,1.89,2.22,2.22,0,0,1,0,.58l17.1-1.51a2.15,2.15,0,0,1-.13-.57,1.93,1.93,0,0,1,1.59-2.2h.17L74,110.23l-.17,0a1.93,1.93,0,0,1-2-1.89,2.22,2.22,0,0,1,0-.58l-17.1,1.51a2.14,2.14,0,0,1,.12.57,1.92,1.92,0,0,1-1.59,2.2h-.16l.31,3.54Z"/><path class="cls-2" d="M60.42,113.53a3.32,3.32,0,1,1,3.6,3A3.32,3.32,0,0,1,60.42,113.53Z"/><text class="cls-4" transform="translate(65.28 110.97) rotate(174.93)">$</text><path class="cls-2" d="M68.91,112.46a1.6,1.6,0,1,1,1.74,1.46A1.6,1.6,0,0,1,68.91,112.46Z"/><path class="cls-2" d="M55.29,113.67A1.6,1.6,0,1,1,57,115.13,1.6,1.6,0,0,1,55.29,113.67Z"/><rect class="cls-2" x="53.31" y="90.3" width="24.14" height="11.75" transform="translate(176.35 61.4) rotate(106.81)"/><path class="cls-3" d="M64.09,106.53a1.94,1.94,0,0,1,2.48-1.11,2.32,2.32,0,0,1,.53.24l5-16.43a2.28,2.28,0,0,1-.57-.1A1.94,1.94,0,0,1,70,86.83l.06-.15-3.4-1a.94.94,0,0,1,0,.16,1.93,1.93,0,0,1-2.48,1.11,2.83,2.83,0,0,1-.53-.23l-5,16.43a2.93,2.93,0,0,1,.57.09,1.94,1.94,0,0,1,1.45,2.3l-.06.16,3.4,1C64.06,106.64,64.08,106.59,64.09,106.53Z"/><path class="cls-2" d="M64.71,99.44a3.32,3.32,0,1,1,4.14-2.22A3.32,3.32,0,0,1,64.71,99.44Z"/><text class="cls-4" transform="translate(64.2 93.97) rotate(106.81)">$</text><path class="cls-2" d="M66.89,91.16a1.6,1.6,0,0,1-1.07-2,1.6,1.6,0,0,1,3.07.93A1.6,1.6,0,0,1,66.89,91.16Z"/><path class="cls-2" d="M62.94,104.25a1.6,1.6,0,1,1,2-1.07A1.6,1.6,0,0,1,62.94,104.25Z"/><rect class="cls-2" x="30.24" y="102.78" width="24.14" height="11.75" transform="translate(-8.18 213.75) rotate(-133.06)"/><path class="cls-3" d="M34,102.34a2.11,2.11,0,0,1-.76,3L45,117.93a3.16,3.16,0,0,1,.37-.45,1.94,1.94,0,0,1,2.72-.1l.11.13,2.59-2.43-.12-.11a1.94,1.94,0,0,1,.29-2.71,2.25,2.25,0,0,1,.47-.34L39.67,99.38a2.6,2.6,0,0,1-.37.45,1.94,1.94,0,0,1-2.72.1l-.11-.13-2.59,2.43Z"/><path class="cls-2" d="M39.82,106.44a3.32,3.32,0,1,1-.16,4.69A3.33,3.33,0,0,1,39.82,106.44Z"/><text class="cls-4" transform="translate(44.83 108.74) rotate(-133.06)">$</text><path class="cls-2" d="M45.89,112.48a1.6,1.6,0,1,1-.08,2.26A1.6,1.6,0,0,1,45.89,112.48Z"/><path class="cls-2" d="M36.55,102.49a1.6,1.6,0,1,1-.07,2.26A1.61,1.61,0,0,1,36.55,102.49Z"/><rect class="cls-2" x="110.12" y="93.85" width="24.14" height="11.75" transform="translate(268.3 40.31) rotate(118.66)"/><path class="cls-3" d="M115.71,107.9a1.92,1.92,0,0,0-.95-2.54,2.27,2.27,0,0,0-.54-.22l8.23-15.06a2.69,2.69,0,0,0,.47.34,1.93,1.93,0,0,0,2.66-.58,1,1,0,0,0,.07-.15l3.12,1.71-.09.14a1.92,1.92,0,0,0,.95,2.54,2.45,2.45,0,0,0,.54.22l-8.23,15.06a2.69,2.69,0,0,0-.47-.34,1.94,1.94,0,0,0-2.66.58l-.07.15L115.62,108Z"/><path class="cls-2" d="M120.33,102.48A3.32,3.32,0,1,0,119,98,3.32,3.32,0,0,0,120.33,102.48Z"/><text class="cls-5" transform="matrix(-0.48, 0.88, 0.88, 0.48, 124.68, 99.05)">$</text><path class="cls-2" d="M124.71,95.13a1.6,1.6,0,1,0-.64-2.18A1.6,1.6,0,0,0,124.71,95.13Z"/><path class="cls-2" d="M118.15,107.13a1.61,1.61,0,1,0-.64-2.18A1.6,1.6,0,0,0,118.15,107.13Z"/><rect class="cls-2" x="84.62" y="93.89" width="24.14" height="11.75" transform="translate(35.91 -25.17) rotate(18.16)"/><path class="cls-3" d="M105.92,104.66a1.93,1.93,0,0,0-2.33,1.39,2.3,2.3,0,0,0-.11.57l-16.31-5.35a2.78,2.78,0,0,0,.25-.52,1.94,1.94,0,0,0-1.06-2.51l-.16,0,1.11-3.38.16.07a1.94,1.94,0,0,0,2.33-1.4,2.87,2.87,0,0,0,.11-.57l16.31,5.35a2.27,2.27,0,0,0-.25.52,1.94,1.94,0,0,0,1,2.51l.16,0-1.1,3.38Z"/><path class="cls-2" d="M99.75,101.1a3.32,3.32,0,1,0-4.19,2.12A3.32,3.32,0,0,0,99.75,101.1Z"/><text class="cls-6" transform="matrix(0.95, 0.31, 0.31, -0.95, 95.49, 97.52)">$</text><path class="cls-2" d="M91.72,98.14a1.6,1.6,0,1,0-2,1A1.59,1.59,0,0,0,91.72,98.14Z"/><path class="cls-2" d="M104.71,102.4a1.6,1.6,0,1,0-2,1A1.59,1.59,0,0,0,104.71,102.4Z"/><rect class="cls-2" x="95.43" y="106.37" width="24.14" height="11.75" transform="translate(40.34 -27.92) rotate(18.16)"/><path class="cls-3" d="M116.73,117.13a2.11,2.11,0,0,0-2.44,2L98,113.75a2,2,0,0,0,.25-.53,1.92,1.92,0,0,0-1-2.5l-.16,0,1.11-3.37.15.06a2.11,2.11,0,0,0,2.44-2L117,110.74a2.32,2.32,0,0,0-.24.53,1.91,1.91,0,0,0,1,2.5l.16,0-1.11,3.37Z"/><path class="cls-2" d="M110.56,113.57a3.32,3.32,0,1,0-4.19,2.12A3.31,3.31,0,0,0,110.56,113.57Z"/><text class="cls-6" transform="matrix(0.95, 0.31, 0.31, -0.95, 106.29, 109.99)">$</text><path class="cls-2" d="M102.53,110.62a1.6,1.6,0,1,0-3-1,1.6,1.6,0,0,0,1,2A1.62,1.62,0,0,0,102.53,110.62Z"/><path class="cls-2" d="M115.52,114.88a1.6,1.6,0,1,0-2,1A1.62,1.62,0,0,0,115.52,114.88Z"/><rect class="cls-2" x="97.59" y="89.67" width="24.14" height="11.75" transform="translate(197.89 -20.08) rotate(86.28)"/><path class="cls-3" d="M108.56,105.93a1.92,1.92,0,0,0-2.16-1.64,2.13,2.13,0,0,0-.57.11l-1.11-17.13a2.14,2.14,0,0,0,.57,0,1.93,1.93,0,0,0,1.94-1.91s0-.11,0-.16l3.54-.23v.16a1.94,1.94,0,0,0,2.17,1.65,2.62,2.62,0,0,0,.57-.11l1.11,17.13a2.21,2.21,0,0,0-.58,0,1.94,1.94,0,0,0-1.93,1.91,1,1,0,0,0,0,.17l-3.54.23A1,1,0,0,0,108.56,105.93Z"/><path class="cls-2" d="M109.57,98.88a3.32,3.32,0,1,0-3.53-3.1A3.31,3.31,0,0,0,109.57,98.88Z"/><text class="cls-7" transform="matrix(0.06, 1, 1, -0.06, 111.4, 93.75)">$</text><path class="cls-2" d="M109.32,90.32a1.6,1.6,0,1,0-1.7-1.49A1.61,1.61,0,0,0,109.32,90.32Z"/><path class="cls-2" d="M110.21,104a1.6,1.6,0,1,0-1.71-1.5A1.6,1.6,0,0,0,110.21,104Z"/><rect class="cls-2" x="117.22" y="107.05" width="24.14" height="11.75" transform="translate(-40.99 91.17) rotate(-33.85)"/><path class="cls-3" d="M138.83,108.66a1.93,1.93,0,0,0-.34,2.7,2.32,2.32,0,0,0,.38.44l-14.26,9.56a2,2,0,0,0-.26-.52,1.93,1.93,0,0,0-2.62-.71l-.13.1-2-3,.14-.09a1.92,1.92,0,0,0,.34-2.69,2,2,0,0,0-.38-.44L134,104.5a2.73,2.73,0,0,0,.26.51,1.93,1.93,0,0,0,2.63.72l.13-.1,2,3Z"/><path class="cls-2" d="M132.22,111.34a3.32,3.32,0,1,0-.9,4.6A3.31,3.31,0,0,0,132.22,111.34Z"/><text class="cls-8" transform="matrix(0.83, -0.56, -0.56, -0.83, 126.89, 112.42)">$</text><path class="cls-2" d="M125,115.84a1.6,1.6,0,1,0-.44,2.23A1.61,1.61,0,0,0,125,115.84Z"/><path class="cls-2" d="M136.3,108.23a1.6,1.6,0,1,0-.44,2.22A1.6,1.6,0,0,0,136.3,108.23Z"/><path class="cls-9" d="M89.26,48.64l-8.6-.06-.07,11.47c0,1.29,3.83,2.37,8.58,2.4s8.61-1,8.62-2.29l.07-11.46Z"/><path class="cls-10" d="M87.06,54.84a9.68,9.68,0,0,0,2.16.27,9.82,9.82,0,0,0,2.17-.24c3.23-1,9.77-10.57,9.77-10.54a23.75,23.75,0,0,0,1.08-7c.06-9.86-5.66-17.88-12.78-17.93s-13,7.9-13,17.76a23.55,23.55,0,0,0,1,7S83.84,53.84,87.06,54.84Z"/><path class="cls-10" d="M77.56,36.07c.33,1.76,0,3.34-.82,3.53s-1.68-1.1-2-2.86,0-3.34.82-3.53S77.24,34.3,77.56,36.07Z"/><path class="cls-10" d="M101.13,36.22c-.35,1.76,0,3.35.78,3.54s1.69-1.07,2-2.83,0-3.34-.77-3.54S101.48,34.46,101.13,36.22Z"/><path class="cls-11" d="M89.46,18.3c-7.56-.05-13.73,6.41-13.78,14.43v.46c.09,0,.95.21,1,2.28,0,1.24,0,1.62,0,1.72l1.12.67S78,30,83.54,29.78l5.85,0,5.85,0c5.52.28,5.61,8.14,5.61,8.14l1.13-.65c0-.1,0-.48,0-1.71.08-2.07.94-2.25,1-2.27s0-.31,0-.46C103.11,24.89,97,18.35,89.46,18.3Z"/><path class="cls-11" d="M79,28.48S90.28,36,100.46,32.29c0,0,.47-5.46-4.78-6.29S79,28.48,79,28.48Z"/><polygon class="cls-12" points="78.91 55.04 78.73 82.33 99.36 82.47 99.54 55.18 89.19 59.14 78.91 55.04"/><polygon class="cls-13" points="89.19 60.1 86.03 76.83 89.04 83 92.13 76.87 89.19 60.1"/><polygon class="cls-13" points="89.19 59.14 85.23 60.82 89.16 64.95 92.77 60.87 89.19 59.14"/><polygon class="cls-14" points="89.19 59.14 78.91 55.04 75.52 57.37 79.8 65.46 89.19 59.14"/><polygon class="cls-14" points="89.19 59.14 99.54 55.18 102.89 57.55 98.52 65.16 89.19 59.14"/><path class="cls-15" d="M69,117.5l39.63.28,2.57-32.44,0,1.51,2.33-27.52a7.13,7.13,0,0,0-.82-.24v0l-9.85-1.51L89.14,67.32,75.52,57.37,66,58.69Z"/><path class="cls-10" d="M57.42,9c0,5-2.24,9-4.94,9s-4.87-4.06-4.83-9,2.24-9,4.94-9S57.46,4.06,57.42,9Z"/><path class="cls-10" d="M132.59,9.59c0,5-2.34,9-5.15,9s-5.07-4.06-5-9,2.34-9,5.15-9S132.62,4.61,132.59,9.59Z"/><polygon class="cls-15" points="104.64 58.55 118.3 40.85 122.47 11.07 132.58 11.14 127.66 45.24 112.16 75.92 104.64 58.55"/><polygon class="cls-15" points="74.95 58.36 61.52 40.48 57.75 10.65 47.64 10.58 52.11 44.74 66.87 75.62 74.95 58.36"/><polygon class="cls-16" points="39.95 155.57 39.95 117.52 16.52 117.52 27.41 136.54 16.52 155.57 39.95 155.57"/><polygon class="cls-16" points="161.75 117.52 138.32 117.52 138.32 155.57 161.75 155.57 150.86 136.54 161.75 117.52"/><rect class="cls-17" x="30.38" y="112.24" width="117.5" height="38.05"/><polygon class="cls-18" points="30.38 150.29 39.95 155.57 39.95 150.29 30.38 150.29"/><polygon class="cls-18" points="147.89 150.29 138.32 155.57 138.32 150.29 147.89 150.29"/><text class="cls-19" transform="translate(48.45 136.54)">FINISH</text></g></g></svg>