<?xml version="1.0" encoding="utf-8"?>
<!-- Generator: Adobe Illustrator 22.1.0, SVG Export Plug-In . SVG Version: 6.00 Build 0)  -->
<svg version="1.1" id="Objects" xmlns="http://www.w3.org/2000/svg" xmlns:xlink="http://www.w3.org/1999/xlink" x="0px" y="0px"
	 viewBox="0 0 800 800" style="enable-background:new 0 0 800 800;" xml:space="preserve">
<style type="text/css">
	.st0{fill:none;stroke:#31333A;stroke-width:2;stroke-miterlimit:10;stroke-dasharray:3,6;}
	.st1{fill:#31333A;}
	.st2{fill:#606060;}
	.st3{fill:none;}
</style>
<path class="st0" d="M512.5,310.3"/>
<path class="st0" d="M512.5,299.7"/>
<path class="st1" d="M174.7,443.3v-30.7V443.3z"/>
<g>
	<polygon class="st2" points="566.5,361.7 566.5,361.1 471.9,361.1 471.9,359.2 468.2,361.3 471.9,363.4 471.9,361.7 	"/>
	<polygon class="st2" points="642.7,563.2 642,563.2 642,606.4 640.2,606.4 642.3,610.1 644.4,606.4 642.7,606.4 	"/>
	<polygon class="st2" points="220.7,162.9 224.3,160.8 220.7,158.7 220.7,160.4 184.8,160.4 184.8,161.1 220.7,161.1 	"/>
	<polygon class="st2" points="356.8,162.9 360.5,160.8 356.8,158.7 356.8,160.4 314.1,160.4 314.1,161.1 356.8,161.1 	"/>
	<polygon class="st2" points="649,201.1 649,160.4 598.7,160.4 598.7,161.1 648.4,161.1 648.4,201.1 646.4,201.1 648.4,204.7 
		650.5,201.1 	"/>
	<polygon class="st2" points="295,359.2 291.3,361.3 295,363.4 295,361.7 389.6,361.7 389.6,361.1 295,361.1 	"/>
	<polygon class="st3" points="324,537.6 209.3,537.6 209.3,538.2 324,538.2 324,540 327.7,537.9 324,535.8 	"/>
	<polygon class="st2" points="583.5,540 587.2,537.9 583.5,535.8 583.5,537.6 480.7,537.6 480.7,538.2 583.5,538.2 	"/>
	<polygon class="st2" points="485.8,664 482.1,666.1 485.8,668.2 485.8,666.4 594.6,666.4 594.6,665.8 485.8,665.8 	"/>
	<polygon class="st2" points="175,407.1 174.4,407.1 174.4,444.5 172.6,444.5 174.7,448.1 176.8,444.5 175,444.5 	"/>
</g>
</svg>
