<?xml version="1.0" encoding="utf-8"?>
<svg xmlns="http://www.w3.org/2000/svg"
	xmlns:xlink="http://www.w3.org/1999/xlink"
	width="365px" height="50px" viewBox="0 0 365 50">
<path fillRule="evenodd" d="M 1 49.73C 1 49.73-0.01 48-0.01 48 0.03 47.98 2.44 46.58 7.03 44.26 7.03 44.26 7.93 46.05 7.93 46.05 3.43 48.32 1.03 49.71 1.01 49.73 1.01 49.73 1 49.73 1 49.73M 11.49 44.29C 11.49 44.29 10.62 42.49 10.62 42.49 12.73 41.46 15.15 40.32 17.86 39.09 17.86 39.09 18.69 40.92 18.69 40.92 16.22 42.04 13.79 43.17 11.49 44.29M 22.34 39.29C 22.34 39.29 21.53 37.46 21.53 37.46 23.81 36.46 26.26 35.41 28.88 34.33 28.88 34.33 29.64 36.18 29.64 36.18 27.17 37.2 24.72 38.24 22.34 39.29M 33.33 34.68C 33.33 34.68 32.58 32.82 32.58 32.82 34.95 31.87 37.44 30.9 40.04 29.91 40.04 29.91 40.75 31.78 40.75 31.78 38.26 32.73 35.76 33.7 33.33 34.68M 44.48 30.39C 44.48 30.39 43.79 28.52 43.79 28.52 46.21 27.63 48.72 26.73 51.32 25.82 51.32 25.82 51.98 27.71 51.98 27.71 49.47 28.58 46.94 29.49 44.48 30.39M 55.75 26.43C 55.75 26.43 55.11 24.53 55.11 24.53 57.57 23.7 60.11 22.87 62.73 22.04 62.73 22.04 63.33 23.95 63.33 23.95 60.8 24.75 58.25 25.58 55.75 26.43M 67.12 22.77C 67.12 22.77 66.54 20.85 66.54 20.85 69.03 20.09 71.58 19.33 74.2 18.57 74.2 18.57 74.75 20.49 74.75 20.49 72.21 21.23 69.64 21.99 67.12 22.77M 78.59 19.41C 78.59 19.41 78.05 17.48 78.05 17.48 80.57 16.78 83.15 16.08 85.77 15.4 85.77 15.4 86.28 17.33 86.28 17.33 83.72 18 81.13 18.7 78.59 19.41M 90.13 16.34C 90.13 16.34 89.65 14.4 89.65 14.4 92.19 13.76 94.79 13.13 97.43 12.52 97.43 12.52 97.88 14.46 97.88 14.46 95.3 15.07 92.7 15.7 90.13 16.34M 101.76 13.57C 101.76 13.57 101.32 11.62 101.32 11.62 103.89 11.04 106.5 10.48 109.15 9.93 109.15 9.93 109.55 11.89 109.55 11.89 106.96 12.43 104.34 12.99 101.76 13.57M 113.45 11.1C 113.45 11.1 113.06 9.13 113.06 9.13 115.64 8.62 118.26 8.12 120.92 7.64 120.92 7.64 121.28 9.6 121.28 9.6 118.63 10.09 116.02 10.58 113.45 11.1M 125.2 8.91C 125.2 8.91 124.86 6.94 124.86 6.94 127.45 6.49 130.09 6.05 132.75 5.64 132.75 5.64 133.06 7.61 133.06 7.61 130.41 8.03 127.79 8.46 125.2 8.91M 137 7.01C 137 7.01 136.71 5.03 136.71 5.03 139.32 4.65 141.96 4.28 144.63 3.93 144.63 3.93 144.89 5.91 144.89 5.91 142.23 6.26 139.6 6.63 137 7.01M 148.85 5.41C 148.85 5.41 148.6 3.42 148.6 3.42 151.22 3.1 153.87 2.8 156.55 2.51 156.55 2.51 156.76 4.5 156.76 4.5 154.09 4.78 151.46 5.09 148.85 5.41M 160.73 4.1C 160.73 4.1 160.53 2.1 160.53 2.1 163.16 1.85 165.82 1.61 168.5 1.39 168.5 1.39 168.66 3.38 168.66 3.38 165.99 3.6 163.35 3.84 160.73 4.1M 172.63 3.08C 172.63 3.08 172.48 1.08 172.48 1.08 175.12 0.89 177.78 0.71 180.47 0.56 180.47 0.56 180.58 2.56 180.58 2.56 177.9 2.71 175.25 2.88 172.63 3.08M 184.56 2.35C 184.56 2.35 184.46 0.35 184.46 0.35 187.1 0.22 189.77 0.11 192.45 0.03 192.45 0.03 192.52 2.03 192.52 2.03 189.84 2.11 187.19 2.22 184.56 2.35M 196.51 1.91C 196.51 1.91 196.46-0.09 196.46-0.09 199.11-0.15 201.77-0.19 204.46-0.21 204.46-0.21 204.48 1.79 204.48 1.79 201.8 1.81 199.14 1.85 196.51 1.91M 208.45 1.77C 208.45 1.77 208.45-0.23 208.45-0.23 211.1-0.23 213.76-0.21 216.45-0.16 216.45-0.16 216.41 1.84 216.41 1.84 213.74 1.79 211.08 1.77 208.45 1.77M 220.41 1.92C 220.41 1.92 220.46-0.08 220.46-0.08 223.1-0.01 225.77 0.07 228.45 0.18 228.45 0.18 228.37 2.18 228.37 2.18 225.7 2.07 223.04 1.99 220.41 1.92M 232.34 2.36C 232.34 2.36 232.44 0.36 232.44 0.36 235.08 0.49 237.75 0.65 240.43 0.82 240.43 0.82 240.3 2.82 240.3 2.82 237.63 2.64 234.98 2.49 232.34 2.36M 244.28 3.09C 244.28 3.09 244.42 1.1 244.42 1.1 247.07 1.29 249.72 1.51 252.4 1.75 252.4 1.75 252.22 3.74 252.22 3.74 249.56 3.5 246.91 3.29 244.28 3.09M 256.18 4.12C 256.18 4.12 256.37 2.13 256.37 2.13 259.01 2.38 261.66 2.66 264.33 2.97 264.33 2.97 264.1 4.96 264.1 4.96 261.44 4.65 258.8 4.37 256.18 4.12M 268.07 5.43C 268.07 5.43 268.31 3.44 268.31 3.44 270.94 3.76 273.59 4.11 276.24 4.48 276.24 4.48 275.97 6.46 275.97 6.46 273.32 6.09 270.69 5.75 268.07 5.43M 279.9 7.02C 279.9 7.02 280.19 5.04 280.19 5.04 282.81 5.43 285.45 5.83 288.1 6.27 288.1 6.27 287.78 8.24 287.78 8.24 285.14 7.81 282.51 7.4 279.9 7.02M 291.71 8.9C 291.71 8.9 292.05 6.93 292.05 6.93 294.66 7.37 297.28 7.84 299.92 8.34 299.92 8.34 299.55 10.3 299.55 10.3 296.93 9.81 294.31 9.34 291.71 8.9M 303.47 11.05C 303.47 11.05 303.85 9.09 303.85 9.09 306.45 9.6 309.07 10.13 311.69 10.69 311.69 10.69 311.28 12.65 311.28 12.65 308.66 12.09 306.06 11.56 303.47 11.05M 315.16 13.49C 315.16 13.49 315.59 11.53 315.59 11.53 318.18 12.1 320.78 12.7 323.39 13.32 323.39 13.32 322.93 15.26 322.93 15.26 320.33 14.65 317.74 14.06 315.16 13.49M 326.81 16.2C 326.81 16.2 327.29 14.25 327.29 14.25 329.86 14.88 332.45 15.54 335.04 16.22 335.04 16.22 334.53 18.15 334.53 18.15 331.95 17.48 329.38 16.82 326.81 16.2M 338.39 19.17C 338.39 19.17 338.91 17.24 338.91 17.24 341.47 17.93 344.04 18.65 346.62 19.38 346.62 19.38 346.07 21.31 346.07 21.31 343.5 20.57 340.94 19.86 338.39 19.17M 349.89 22.41C 349.89 22.41 350.45 20.49 350.45 20.49 353 21.24 355.55 22.01 358.11 22.81 358.11 22.81 357.52 24.72 357.52 24.72 354.97 23.93 352.42 23.16 349.89 22.41M 361.32 25.92C 361.32 25.92 361.93 24.01 361.93 24.01 362.95 24.34 363.97 24.67 365 25 365 25 364.38 26.9 364.38 26.9 363.36 26.57 362.34 26.24 361.32 25.92" fill="rgb(57,57,57)"/></svg>