<?xml version="1.0" encoding="utf-8"?>
<svg xmlns="http://www.w3.org/2000/svg"
	xmlns:xlink="http://www.w3.org/1999/xlink"
	width="56px" height="93px" viewBox="0 0 56 93">
<path fillRule="evenodd" d="M 0.26 1.25C 0.26 1.25 0.42 0.01 0.42 0.01 0.45 0.01 2.32 0.26 5.35 0.84 5.35 0.84 5.12 2.06 5.12 2.06 2.14 1.5 0.29 1.25 0.27 1.25 0.27 1.25 0.26 1.25 0.26 1.25M 7.55 2.55C 7.55 2.55 7.8 1.33 7.8 1.33 9.27 1.63 10.91 2 12.68 2.44 12.68 2.44 12.38 3.65 12.38 3.65 10.78 3.26 9.16 2.89 7.55 2.55M 14.78 4.26C 14.78 4.26 15.1 3.06 15.1 3.06 16.64 3.46 18.25 3.92 19.91 4.43 19.91 4.43 19.54 5.62 19.54 5.62 18 5.15 16.39 4.69 14.78 4.26M 21.9 6.37C 21.9 6.37 22.29 5.18 22.29 5.18 23.84 5.69 25.42 6.25 27.01 6.85 27.01 6.85 26.56 8.02 26.56 8.02 25.07 7.45 23.5 6.89 21.9 6.37M 28.86 8.92C 28.86 8.92 29.33 7.76 29.33 7.76 30.87 8.39 32.4 9.06 33.9 9.79 33.9 9.79 33.37 10.91 33.37 10.91 31.94 10.23 30.42 9.56 28.86 8.92M 35.57 12.01C 35.57 12.01 36.14 10.9 36.14 10.9 37.63 11.67 39.08 12.5 40.49 13.37 40.49 13.37 39.83 14.43 39.83 14.43 38.5 13.6 37.06 12.79 35.57 12.01M 41.87 15.77C 41.87 15.77 42.58 14.74 42.58 14.74 43.97 15.71 45.29 16.72 46.53 17.8 46.53 17.8 45.71 18.74 45.71 18.74 44.54 17.73 43.25 16.73 41.87 15.77M 47.48 20.39C 47.48 20.39 48.36 19.5 48.36 19.5 49.56 20.7 50.65 21.97 51.61 23.3 51.61 23.3 50.59 24.03 50.59 24.03 49.7 22.79 48.65 21.56 47.48 20.39M 51.88 26.02C 51.88 26.02 52.97 25.4 52.97 25.4 53.8 26.84 54.49 28.36 54.99 29.96 54.99 29.96 53.8 30.33 53.8 30.33 53.34 28.87 52.69 27.42 51.88 26.02M 54.38 32.61C 54.38 32.61 55.61 32.38 55.61 32.38 55.91 33.96 56.04 35.62 55.99 37.35 55.99 37.35 54.74 37.31 54.74 37.31 54.79 35.71 54.67 34.13 54.38 32.61M 54.53 39.67C 54.53 39.67 55.77 39.84 55.77 39.84 55.56 41.41 55.19 43.03 54.66 44.71 54.66 44.71 53.47 44.33 53.47 44.33 53.97 42.75 54.33 41.18 54.53 39.67M 52.65 46.6C 52.65 46.6 53.81 47.06 53.81 47.06 53.23 48.53 52.53 50.03 51.69 51.58 51.69 51.58 50.59 50.99 50.59 50.99 51.39 49.51 52.08 48.03 52.65 46.6M 49.38 53.11C 49.38 53.11 50.45 53.75 50.45 53.75 49.63 55.11 48.71 56.5 47.68 57.92 47.68 57.92 46.67 57.19 46.67 57.19 47.66 55.81 48.57 54.44 49.38 53.11M 45.2 59.16C 45.2 59.16 46.19 59.92 46.19 59.92 45.21 61.19 44.16 62.47 43.02 63.79 43.02 63.79 42.07 62.97 42.07 62.97 43.18 61.69 44.23 60.41 45.2 59.16M 40.43 64.81C 40.43 64.81 41.35 65.66 41.35 65.66 40.27 66.84 39.12 68.05 37.9 69.28 37.9 69.28 37.02 68.4 37.02 68.4 38.21 67.2 39.36 65.99 40.43 64.81M 35.26 70.13C 35.26 70.13 36.13 71.03 36.13 71.03 34.97 72.15 33.75 73.29 32.48 74.45 32.48 74.45 31.64 73.53 31.64 73.53 32.89 72.39 34.11 71.25 35.26 70.13M 29.79 75.18C 29.79 75.18 30.62 76.12 30.62 76.12 29.4 77.19 28.14 78.27 26.82 79.37 26.82 79.37 26.02 78.41 26.02 78.41 27.33 77.32 28.58 76.24 29.79 75.18M 24.1 79.99C 24.1 79.99 24.89 80.96 24.89 80.96 23.63 81.99 22.33 83.02 20.98 84.07 20.98 84.07 20.21 83.09 20.21 83.09 21.55 82.04 22.85 81.01 24.1 79.99M 18.24 84.61C 18.24 84.61 19 85.6 19 85.6 17.7 86.59 16.37 87.59 15 88.6 15 88.6 14.26 87.59 14.26 87.59 15.62 86.58 16.95 85.59 18.24 84.61M 12.24 89.05C 12.24 89.05 12.97 90.07 12.97 90.07 11.75 90.95 10.5 91.84 9.21 92.74 9.21 92.74 8.5 91.71 8.5 91.71 9.78 90.82 11.02 89.93 12.24 89.05" fill="rgb(0,0,0)"/></svg>