<?xml version="1.0" encoding="utf-8"?>
<!-- Generator: Adobe Illustrator 22.1.0, SVG Export Plug-In . SVG Version: 6.00 Build 0)  -->
<svg version="1.1" id="Objects" xmlns="http://www.w3.org/2000/svg" xmlns:xlink="http://www.w3.org/1999/xlink" x="0px" y="0px"
	 viewBox="0 0 132.8 166.8" style="enable-background:new 0 0 132.8 166.8;" xml:space="preserve">
<style type="text/css">
	.st0{fill:#E9AE97;}
	.st1{fill:#F8C3AA;}
	.st2{fill:#2D2725;}
	.st3{fill:#EDEDED;}
	.st4{fill:#D83B45;}
	.st5{fill:#DFDFDF;}
	.st6{fill:#31333A;}
	.st7{fill:#CE4253;}
	.st8{fill:#DF4654;}
	.st9{fill:#AF3E56;}
	.st10{fill:#F2F1F1;}
	.st11{font-family:'OpenSans-Bold';}
	.st12{font-size:14.5052px;}
	.st13{letter-spacing:3;}
	.st14{fill:none;}
</style>
<g>
	<g>
		<g>
			<g>
				<g>
					<path class="st0" d="M66.4,40.7H54.9v15.4c0,1.7,5.2,3.1,11.5,3.1c6.4,0,11.5-1.4,11.5-3.1V40.7H66.4z"/>
					<g>
						<path class="st1" d="M63.5,49.1c0.9,0.2,1.9,0.3,2.9,0.3s2-0.1,2.9-0.3c4.3-1.3,13-14.3,13-14.2c0.9-2.9,1.4-6.1,1.4-9.4
							c0-13.2-7.7-24-17.3-24s-17.3,10.7-17.3,24c0,3.3,0.5,6.5,1.4,9.4C50.5,34.8,59.2,47.7,63.5,49.1z"/>
						<g>
							<path class="st1" d="M50.6,23.9c0.5,2.4,0,4.5-1.1,4.7c-1,0.3-2.3-1.5-2.7-3.8c-0.5-2.4,0-4.5,1.1-4.7
								C48.9,19.9,50.1,21.6,50.6,23.9z"/>
							<path class="st1" d="M82.2,23.9c-0.5,2.4,0,4.5,1.1,4.7c1,0.3,2.3-1.5,2.7-3.8c0.5-2.4,0-4.5-1.1-4.7
								C83.9,19.9,82.7,21.6,82.2,23.9z"/>
						</g>
						<path class="st2" d="M66.4,0C56.3,0,48,8.7,48,19.5c0,0.2,0,0.4,0,0.6c0.1,0,1.3,0.3,1.4,3c0.1,1.7,0,2.2,0,2.3l1.5,0.9
							c0,0,0.2-10.6,7.6-10.9h7.9h7.9c7.4,0.3,7.6,10.9,7.6,10.9l1.5-0.9c0-0.1,0-0.6,0-2.3c0.1-2.8,1.2-3,1.4-3c0-0.2,0-0.4,0-0.6
							C84.8,8.7,76.5,0,66.4,0z"/>
						<path class="st2" d="M52.5,13.8c0,0,15.2,10,28.8,4.9c0,0,0.6-7.3-6.5-8.4C67.8,9.2,52.5,13.8,52.5,13.8z"/>
					</g>
					<polygon class="st3" points="52.6,49.4 52.6,86 80.2,86 80.2,49.4 66.4,54.8 					"/>
					<polygon class="st4" points="66.4,56.1 62.3,78.6 66.4,86.8 70.5,78.6 					"/>
					<polygon class="st4" points="66.4,54.8 61.1,57.1 66.4,62.6 71.2,57.1 					"/>
					<polygon class="st5" points="66.4,54.8 52.6,49.4 48,52.5 53.8,63.4 					"/>
					<polygon class="st5" points="66.4,54.8 80.2,49.4 84.8,52.5 79,62.8 					"/>
					<path class="st1" d="M108.8,135.9c0,5-2.4,9-5.4,9s-5.4-4-5.4-9s2.4-9,5.4-9C106.4,126.8,108.8,130.9,108.8,135.9z"/>
					<path class="st1" d="M34.8,135.9c0,5-2.4,9-5.4,9s-5.4-4-5.4-9s2.4-9,5.4-9C32.3,126.8,34.8,130.9,34.8,135.9z"/>
					<path class="st6" d="M108.8,133.5c0,0-1.3-52-1.8-64.9c-0.4-11.6-7.6-13.7-9.1-14l0,0l-13.2-1.9L66.3,65.9L47.9,52.7l-13.2,1.9
						l0,0c-1.4,0.3-8.6,2.4-9.1,14c-0.5,12.9-1.8,64.9-1.8,64.9h11.1l1.6-43.6l3.2,43.5l26.6,0.2l26.6-0.1l3.2-43.6l1.6,43.7h11.1
						V133.5z"/>
				</g>
			</g>
			<g>
				<g>
					<polygon class="st7" points="21.4,166.8 21.4,132 0,132 9.9,149.4 0,166.8 					"/>
					<polygon class="st7" points="132.8,132 111.4,132 111.4,166.8 132.8,166.8 122.9,149.4 					"/>
				</g>
				<rect x="12.6" y="127.2" class="st8" width="107.5" height="34.8"/>
				<polygon class="st9" points="12.6,162 21.4,166.8 21.4,162 				"/>
				<polygon class="st9" points="120.1,162 111.4,166.8 111.4,162 				"/>
				<text transform="matrix(1 0 0 1 32.8174 149.5495)" class="st10 st11 st12 st13">START</text>
			</g>
		</g>
	</g>
	<g>
		<line class="st14" x1="125.3" y1="109.7" x2="125.3" y2="110.4"/>
	</g>
</g>
</svg>
