<?xml version="1.0" encoding="utf-8"?>
<!-- Generator: Adobe Illustrator 22.1.0, SVG Export Plug-In . SVG Version: 6.00 Build 0)  -->
<svg version="1.1" id="Objects" xmlns="http://www.w3.org/2000/svg" xmlns:xlink="http://www.w3.org/1999/xlink" x="0px" y="0px"
	 viewBox="0 0 800 800" style="enable-background:new 0 0 800 800;" xml:space="preserve">
<style type="text/css">
	.st0{fill:#E9AE97;}
	.st1{fill:#F8C3AA;}
	.st2{fill:#2D2725;}
	.st3{fill:#EDEDED;}
	.st4{fill:#D83B45;}
	.st5{fill:#DFDFDF;}
	.st6{fill:#31333A;}
	.st7{fill:#CE4253;}
	.st8{fill:#DF4654;}
	.st9{fill:#AF3E56;}
	.st10{fill:#F2F1F1;}
	.st11{font-family:'OpenSans-Bold';}
	.st12{font-size:14.5052px;}
	.st13{letter-spacing:4;}
	.st14{fill:#606060;}
</style>
<g>
	<g>
		<g>
			<g>
				<g>
					<path class="st0" d="M125.9,91.4h-11.5v15.4c0,1.7,5.2,3.1,11.5,3.1c6.4,0,11.5-1.4,11.5-3.1V91.4H125.9z"/>
					<g>
						<path class="st1" d="M123,99.8c0.9,0.2,1.9,0.3,2.9,0.3c1,0,2-0.1,2.9-0.3c4.3-1.3,13-14.3,13-14.2c0.9-2.9,1.4-6.1,1.4-9.4
							c0-13.2-7.7-24-17.3-24c-9.6,0-17.3,10.7-17.3,24c0,3.3,0.5,6.5,1.4,9.4C110,85.5,118.7,98.4,123,99.8z"/>
						<g>
							<path class="st1" d="M110.1,74.6c0.5,2.4,0,4.5-1.1,4.7c-1,0.3-2.3-1.5-2.7-3.8c-0.5-2.4,0-4.5,1.1-4.7
								C108.4,70.6,109.6,72.3,110.1,74.6z"/>
							<path class="st1" d="M141.7,74.6c-0.5,2.4,0,4.5,1.1,4.7c1,0.3,2.3-1.5,2.7-3.8c0.5-2.4,0-4.5-1.1-4.7
								C143.4,70.6,142.2,72.3,141.7,74.6z"/>
						</g>
						<path class="st2" d="M125.9,50.7c-10.1,0-18.4,8.7-18.4,19.5c0,0.2,0,0.4,0,0.6c0.1,0,1.3,0.3,1.4,3c0.1,1.7,0,2.2,0,2.3
							l1.5,0.9c0,0,0.2-10.6,7.6-10.9h7.9h7.9c7.4,0.3,7.6,10.9,7.6,10.9l1.5-0.9c0-0.1,0-0.6,0-2.3c0.1-2.8,1.2-3,1.4-3
							c0-0.2,0-0.4,0-0.6C144.3,59.4,136,50.7,125.9,50.7z"/>
						<path class="st2" d="M112,64.5c0,0,15.2,10,28.8,4.9c0,0,0.6-7.3-6.5-8.4C127.3,59.9,112,64.5,112,64.5z"/>
					</g>
					<polygon class="st3" points="112.1,100.1 112.1,136.7 139.7,136.7 139.7,100.1 125.9,105.5 					"/>
					<polygon class="st4" points="125.9,106.8 121.8,129.3 125.9,137.5 130,129.3 					"/>
					<polygon class="st4" points="125.9,105.5 120.6,107.8 125.9,113.3 130.7,107.8 					"/>
					<polygon class="st5" points="125.9,105.5 112.1,100.1 107.5,103.2 113.3,114.1 					"/>
					<polygon class="st5" points="125.9,105.5 139.7,100.1 144.3,103.2 138.5,113.5 					"/>
					<path class="st1" d="M168.3,186.6c0,5-2.4,9-5.4,9c-3,0-5.4-4-5.4-9c0-5,2.4-9,5.4-9C165.9,177.5,168.3,181.6,168.3,186.6z"/>
					<path class="st1" d="M94.3,186.6c0,5-2.4,9-5.4,9c-3,0-5.4-4-5.4-9c0-5,2.4-9,5.4-9C91.8,177.5,94.3,181.6,94.3,186.6z"/>
					<path class="st6" d="M168.3,184.2c0,0-1.3-52-1.8-64.9c-0.4-11.6-7.6-13.7-9.1-14v0l-13.2-1.9l-18.4,13.2l-18.4-13.2l-13.2,1.9
						v0c-1.4,0.3-8.6,2.4-9.1,14c-0.5,12.9-1.8,64.9-1.8,64.9h11.1l1.6-43.6l3.2,43.5l26.6,0.2l26.6-0.1l3.2-43.6l1.6,43.7H168.3z"
						/>
				</g>
			</g>
			<g>
				<g>
					<polygon class="st7" points="80.9,217.5 80.9,182.7 59.5,182.7 69.4,200.1 59.5,217.5 					"/>
					<polygon class="st7" points="192.3,182.7 170.9,182.7 170.9,217.5 192.3,217.5 182.4,200.1 					"/>
				</g>
				<rect x="72.1" y="177.9" class="st8" width="107.5" height="34.8"/>
				<polygon class="st9" points="72.1,212.7 80.9,217.5 80.9,212.7 				"/>
				<polygon class="st9" points="179.6,212.7 170.9,217.5 170.9,212.7 				"/>
				<text transform="matrix(1 0 0 1 92.3174 200.2495)" class="st10 st11 st12 st13">START</text>
			</g>
		</g>
	</g>
	<g>
		<line class="st14" x1="184.8" y1="160.4" x2="184.8" y2="161.1"/>
	</g>
</g>
</svg>
