<svg xmlns="http://www.w3.org/2000/svg" viewBox="0 0 132.87 166.84"><defs><style>.cls-1{fill:#e9ae97;}.cls-2{fill:#f8c3aa;}.cls-3{fill:#2d2725;}.cls-4{fill:#ededed;}.cls-5{fill:#d83b45;}.cls-6{fill:#dfdfdf;}.cls-7{fill:#31333a;}.cls-8{fill:#ce4253;}.cls-9{fill:#df4654;}.cls-10{fill:#af3e56;}.cls-11{font-size:14.51px;fill:#f2f1f1;font-family:OpenSans-Bold, Open Sans;font-weight:700;letter-spacing:0.34em;}</style></defs><title>Asset 1</title><g id="Layer_2" data-name="Layer 2"><g id="Objects"><path class="cls-1" d="M66.44,40.71H54.9V56.09c0,1.74,5.16,3.15,11.54,3.15S78,57.83,78,56.09V40.71Z"/><path class="cls-2" d="M63.53,49.05a12.86,12.86,0,0,0,2.91.34,12.71,12.71,0,0,0,2.9-.34c4.33-1.31,13-14.27,13-14.23a32.16,32.16,0,0,0,1.38-9.38c0-13.23-7.75-24-17.31-24s-17.31,10.73-17.31,24a31.83,31.83,0,0,0,1.38,9.38S59.21,47.74,63.53,49.05Z"/><path class="cls-2" d="M50.62,23.94c.46,2.37,0,4.49-1.07,4.74s-2.27-1.45-2.72-3.81,0-4.49,1.07-4.74S50.17,21.58,50.62,23.94Z"/><path class="cls-2" d="M82.25,23.94c-.46,2.37,0,4.49,1.07,4.74s2.27-1.45,2.72-3.81,0-4.49-1.07-4.74S82.7,21.58,82.25,23.94Z"/><path class="cls-3" d="M66.44,0C56.29,0,48.07,8.72,48.07,19.48c0,.21,0,.42,0,.62.11,0,1.27.27,1.36,3,.05,1.66.05,2.17,0,2.3l1.51.89s.2-10.56,7.6-10.88H74.29c7.4.32,7.6,10.88,7.6,10.88l1.51-.89c0-.13,0-.64,0-2.3.09-2.78,1.25-3,1.36-3,0-.2,0-.41,0-.62C84.8,8.72,76.58,0,66.44,0Z"/><path class="cls-3" d="M52.53,13.75s15.16,10,28.78,4.92c0,0,.58-7.34-6.47-8.4S52.53,13.75,52.53,13.75Z"/><polygon class="cls-4" points="52.59 49.39 52.59 86.01 80.28 86.01 80.28 49.39 66.44 54.8 52.59 49.39"/><polygon class="cls-5" points="66.44 56.09 62.34 78.56 66.44 86.82 70.53 78.56 66.44 56.09"/><polygon class="cls-5" points="66.44 54.8 61.13 57.09 66.44 62.59 71.25 57.09 66.44 54.8"/><polygon class="cls-6" points="66.44 54.8 52.59 49.39 48.07 52.54 53.89 63.36 66.44 54.8"/><polygon class="cls-6" points="66.44 54.8 80.28 49.39 84.81 52.54 79 62.79 66.44 54.8"/><path class="cls-2" d="M108.87,135.88c0,5-2.42,9-5.4,9s-5.41-4-5.41-9,2.42-9,5.41-9S108.87,130.89,108.87,135.88Z"/><path class="cls-2" d="M34.81,135.88c0,5-2.42,9-5.41,9s-5.4-4-5.4-9,2.42-9,5.4-9S34.81,130.89,34.81,135.88Z"/><path class="cls-7" d="M108.87,133.45s-1.29-52-1.78-64.92c-.43-11.63-7.62-13.71-9-14v0L84.8,52.54,66.44,65.78,48.07,52.54,34.83,54.48v0c-1.43.3-8.62,2.38-9,14C25.29,81.45,24,133.45,24,133.45H35.08l1.61-43.62,3.15,43.46,26.6.16L93,133.32l3.16-43.56,1.61,43.69Z"/><polygon class="cls-8" points="21.44 166.84 21.44 132.03 0 132.03 9.96 149.43 0 166.84 21.44 166.84"/><polygon class="cls-8" points="132.87 132.03 111.43 132.03 111.43 166.84 132.87 166.84 122.91 149.43 132.87 132.03"/><rect class="cls-9" x="12.68" y="127.19" width="107.51" height="34.81"/><polygon class="cls-10" points="12.68 162.01 21.44 166.84 21.44 162.01 12.68 162.01"/><polygon class="cls-10" points="120.19 162.01 111.43 166.84 111.43 162.01 120.19 162.01"/><text class="cls-11" transform="translate(32.86 149.55)">START</text></g></g></svg>