<?xml version="1.0" encoding="utf-8"?>
<!-- Generator: Adobe Illustrator 22.1.0, SVG Export Plug-In . SVG Version: 6.00 Build 0)  -->
<svg version="1.1" id="Objects" xmlns="http://www.w3.org/2000/svg" xmlns:xlink="http://www.w3.org/1999/xlink" x="0px" y="0px"
	 viewBox="0 0 800 800" style="enable-background:new 0 0 800 800;" xml:space="preserve">
<style type="text/css">
	.st0{fill:#F4992C;}
	.st1{fill:#FCC83B;}
	.st2{fill:#EFEEEE;}
	.st3{fill:#BBBBBA;}
	.st4{fill:#ADADAD;}
	.st5{fill:#8D8C8C;}
	.st6{opacity:0.5;}
	.st7{fill:#1A1A1A;}
	.st8{fill:#31333A;}
	.st9{font-family:'OpenSans';}
	.st10{font-size:12.9852px;}
</style>
<g>
	<g>
		<g>
			<g>
				<path class="st0" d="M265.9,93c0.2,0,0.4,0,0.7,0l-1,31l-5.1-0.2l0-4c-0.7-3.8-6.6-9.9-6.7-14.6C253.7,98.5,259.1,93.1,265.9,93
					z"/>
				<path class="st1" d="M267.2,93.1c-0.2,0-0.4,0-0.7,0l-1,31l5.1,0.2l0.3-4c0.9-3.7,7.3-9.4,7.6-14.2
					C279,99.4,273.9,93.6,267.2,93.1z"/>
			</g>
			<path class="st2" d="M260.2,124.9l10.5,0.4c0.3,0,0.6-0.2,0.6-0.5v0c0-0.3-0.2-0.6-0.5-0.6l-10.5-0.4c-0.3,0-0.6,0.2-0.6,0.5l0,0
				C259.7,124.7,259.9,124.9,260.2,124.9z"/>
			<path class="st3" d="M270.6,125.3c0,0.2,0,0.4,0,0.6l-0.1,4.4c-0.1,1.7-1.5,3-3.1,2.9L263,133c-1.7-0.1-3-1.5-2.9-3.1l0.1-4.4
				c0-0.2,0-0.4,0.1-0.6L270.6,125.3z"/>
			<path class="st4" d="M267.3,133.2c-0.4,0.4-1.2,0.6-2.1,0.6c-0.9,0-1.7-0.3-2.1-0.7L267.3,133.2z"/>
			<path class="st5" d="M260.1,127.7l10.1,3c0.4,0.1,0.7-0.1,0.8-0.5l0,0c0.1-0.4-0.1-0.7-0.5-0.8l-10.1-3c-0.4-0.1-0.7,0.1-0.8,0.5
				l0,0C259.5,127.2,259.7,127.6,260.1,127.7z"/>
			<path class="st5" d="M260,130.2l9.5,2.8c0.4,0.1,0.7-0.1,0.8-0.5l0,0c0.1-0.4-0.1-0.7-0.5-0.8l-9.5-2.8c-0.4-0.1-0.7,0.1-0.8,0.5
				l0,0C259.5,129.7,259.7,130.1,260,130.2z"/>
			<path class="st5" d="M264.8,125.1l5.9,1.8c0.4,0.1,0.6,0.5,0.5,0.8c-0.1,0.4-0.5,0.6-0.8,0.5l-10.1-3c-0.1,0-0.2-0.1-0.3-0.2
				L264.8,125.1z"/>
		</g>
		<g class="st6">
			<g>
				<polygon class="st7" points="263.2,124 258.5,105 260.2,105.9 260.6,104.9 262.2,105.4 262.2,104.4 263.8,105.6 264.6,104.6 
					266.2,105.7 267.3,104.7 269.2,106 270.2,104.7 271.3,105.9 273.3,104.6 267.8,124.1 267.4,124 272.6,105.6 271.2,106.5 
					270.2,105.4 269.3,106.6 267.4,105.2 266.2,106.2 264.7,105.2 263.9,106.2 262.6,105.3 262.6,106 260.9,105.5 260.5,106.6 
					259.2,105.9 263.6,123.9 				"/>
			</g>
		</g>
	</g>
	<text transform="matrix(1 0 0 1 229.1831 156.1162)"><tspan x="0" y="0" class="st8 st9 st10">YOU HAVE A </tspan><tspan x="0" y="15.6" class="st8 st9 st10">GREAT IDEA!</tspan></text>
</g>
</svg>
