<?xml version="1.0" encoding="utf-8"?>
<!-- Generator: Adobe Illustrator 22.1.0, SVG Export Plug-In . SVG Version: 6.00 Build 0)  -->
<svg version="1.1" id="Objects" xmlns="http://www.w3.org/2000/svg" xmlns:xlink="http://www.w3.org/1999/xlink" x="0px" y="0px"
	 viewBox="0 0 222.4 164" style="enable-background:new 0 0 222.4 164;" xml:space="preserve">
<style type="text/css">
	.st0{fill:#31333A;}
	.st1{font-family:'OpenSans';}
	.st2{font-size:10.8714px;}
	.st3{fill:#D6D6D6;}
	.st4{fill:#BFBFBF;}
	.st5{fill:#6EC6D3;}
	.st6{fill:#3A3B42;}
	.st7{clip-path:url(#SVGID_2_);}
	.st8{fill:#EFEFEF;}
	.st9{fill:#E9AE97;}
	.st10{fill:#F8C3AA;}
	.st11{fill:#2D2725;}
	.st12{fill:#EDEDED;}
	.st13{fill:#D83B45;}
	.st14{fill:#DFDFDF;}
	.st15{clip-path:url(#SVGID_4_);}
	.st16{fill:#634C40;}
	.st17{fill:#E34856;}
	.st18{fill:#F9F9F9;}
	.st19{fill:none;}
	.st20{fill:#D1D1D1;}
	.st21{fill:#F28F32;}
</style>
<text transform="matrix(1 0 0 1 103.4338 161.0127)" class="st0 st1 st2">TELL US ABOUT IT!</text>
<g>
	<g>
		<g>
			<g>
				<g>
					<polygon class="st3" points="124.9,126.3 126.5,112.4 141.7,107.7 141.7,107.5 142.1,107.6 142.4,107.5 142.4,107.7 
						157.6,112.4 159.2,126.3 164.9,127.6 164.9,132.2 142.4,132.2 141.7,132.2 119.2,132.2 119.2,127.6 					"/>
					<polygon class="st4" points="125.5,121.4 158.4,119 158,115.5 126.1,115.5 					"/>
					<polygon class="st4" points="164.9,129.2 164.9,132.2 119.2,132.2 119.2,131.5 164.9,127.6 					"/>
					<path class="st3" d="M62.2,112.2c0,2.4,2,4.4,4.4,4.4h151.2c2.4,0,4.4-2,4.4-4.4V5.4c0-2.4-2-4.4-4.4-4.4H66.5
						c-2.4,0-4.4,2-4.4,4.4L62.2,112.2L62.2,112.2z"/>
				</g>
				<g>
					<g>
						<path class="st5" d="M220,94.6V4.8c0-1.3-0.9-2.4-2.1-2.4H66.5c-1.1,0-2.1,1.1-2.1,2.4v89.8H220z"/>
						<path class="st6" d="M66.8,4.7h151v0.1v87.5h-151V4.8C66.7,4.7,66.8,4.7,66.8,4.7 M66.5,0c-2.4,0-4.4,2.1-4.4,4.8V97h160.3
							V4.8c0-2.6-2-4.8-4.4-4.8H66.5L66.5,0z"/>
					</g>
				</g>
			</g>
		</g>
	</g>
	<g>
		<g>
			<defs>
				<circle id="SVGID_1_" cx="105.6" cy="59" r="24.2"/>
			</defs>
			<clipPath id="SVGID_2_">
				<use xlink:href="#SVGID_1_"  style="overflow:visible;"/>
			</clipPath>
			<g class="st7">
				<path class="st8" d="M81.4,59c0,13.4,10.9,24.2,24.2,24.2c13.4,0,24.2-10.9,24.2-24.2c0-13.4-10.9-24.2-24.2-24.2
					S81.4,45.6,81.4,59z"/>
				<g>
					<path class="st9" d="M105.7,55.6h3.5v4.7c0,0.5-1.6,1-3.5,1s-3.5-0.4-3.5-1v-4.7C102.2,55.6,105.7,55.6,105.7,55.6z"/>
					<g>
						<path class="st10" d="M106.6,58.2c-0.3,0.1-0.6,0.1-0.9,0.1s-0.6,0-0.9-0.1c-1.3-0.4-4-4.3-4-4.3c-0.3-0.9-0.4-1.8-0.4-2.9
							c0-4,2.4-7.3,5.3-7.3S111,47,111,51c0,1-0.1,2-0.4,2.9C110.5,53.8,107.9,57.8,106.6,58.2z"/>
						<g>
							<path class="st10" d="M110.5,50.5c-0.1,0.7,0,1.4,0.3,1.4c0.3,0.1,0.7-0.4,0.8-1.2c0.1-0.7,0-1.4-0.3-1.4
								S110.6,49.8,110.5,50.5z"/>
							<path class="st10" d="M100.9,50.5c0.1,0.7,0,1.4-0.3,1.4c-0.3,0.1-0.7-0.4-0.8-1.2c-0.1-0.7,0-1.4,0.3-1.4
								S100.7,49.8,100.9,50.5z"/>
						</g>
						<path class="st11" d="M105.7,43.3c3.1,0,5.6,2.7,5.6,5.9c0,0.1,0,0.1,0,0.2c0,0-0.4,0.1-0.4,0.9c0,0.5,0,0.7,0,0.7l-0.5,0.3
							c0,0-0.1-3.2-2.3-3.3h-2.4h-2.4c-2.3,0.1-2.3,3.3-2.3,3.3l-0.5-0.3c0,0,0-0.2,0-0.7c0-0.8-0.4-0.9-0.4-0.9c0-0.1,0-0.1,0-0.2
							C100.1,45.9,102.6,43.3,105.7,43.3z"/>
						<path class="st11" d="M109.9,47.4c0,0-4.6,3.1-8.8,1.5c0,0-0.2-2.2,2-2.6C105.3,46.1,109.9,47.4,109.9,47.4z"/>
					</g>
					<polygon class="st12" points="109.9,58.3 109.9,69.4 101.5,69.4 101.5,58.3 105.7,59.9 					"/>
					<polygon class="st13" points="105.7,60.3 106.9,67.2 105.7,69.7 104.5,67.2 					"/>
					<polygon class="st13" points="105.7,59.9 107.3,60.6 105.7,62.3 104.2,60.6 					"/>
					<polygon class="st14" points="105.7,59.9 109.9,58.3 111.3,59.2 109.5,62.5 					"/>
					<polygon class="st14" points="105.7,59.9 101.5,58.3 100.1,59.2 101.9,62.4 					"/>
					<path class="st10" d="M92.8,84.6c0,1.5,0.7,2.7,1.6,2.7s1.6-1.2,1.6-2.7s-0.7-2.7-1.6-2.7C93.5,81.9,92.8,83.1,92.8,84.6z"/>
					<path class="st10" d="M115.3,84.6c0,1.5,0.7,2.7,1.6,2.7s1.6-1.2,1.6-2.7s-0.7-2.7-1.6-2.7C116.1,81.9,115.3,83.1,115.3,84.6z"
						/>
					<path class="st0" d="M92.8,83.9c0,0,0.4-15.8,0.5-19.8c0.1-3.5,2.3-4.2,2.8-4.3l0,0l4-0.6l5.6,4l5.6-4l4,0.6l0,0
						c0.4,0.1,2.6,0.7,2.8,4.3c0.1,3.9,0.5,19.8,0.5,19.8h-3.4l-0.5-13.3l-1,13.2h-8.1h-8.1l-1-13.3L96,83.8h-3.2V83.9z"/>
				</g>
			</g>
		</g>
	</g>
	<g>
		<g>
			<defs>
				
					<ellipse id="SVGID_3_" transform="matrix(0.2011 -0.9796 0.9796 0.2011 101.8364 205.6622)" cx="177" cy="40.4" rx="24.2" ry="24.2"/>
			</defs>
			<clipPath id="SVGID_4_">
				<use xlink:href="#SVGID_3_"  style="overflow:visible;"/>
			</clipPath>
			<g class="st15">
				<path class="st8" d="M152.8,40.4c0,13.4,10.9,24.2,24.2,24.2s24.2-10.9,24.2-24.2c0-13.4-10.9-24.2-24.2-24.2
					S152.8,27,152.8,40.4z"/>
				<g>
					<g>
						<path class="st16" d="M171.5,35.4l5.5,0.4l5.5-0.4c0,0-0.6,2.9-0.5,4.6s-0.3,2.7-0.3,2.7H177h-4.7c0,0-0.4-1-0.3-2.7
							C172.1,38.3,171.5,35.4,171.5,35.4z"/>
						<g>
							<path class="st9" d="M177.1,39.4h2.8v4.2c0,0.5-1.3,0.9-2.8,0.9s-2.8-0.4-2.8-0.9v-4.2H177.1z"/>
							<polygon class="st12" points="180.8,41.8 180.8,51.7 173.2,51.7 173.2,41.8 177,43.3 							"/>
							<polygon class="st14" points="177,43.3 180.8,41.8 182,42.6 180.4,45.6 							"/>
							<polygon class="st14" points="177,43.3 173.2,41.8 172,42.6 173.6,45.4 							"/>
							<path class="st10" d="M165.5,65.3c0,1.4,0.7,2.5,1.5,2.5s1.5-1.1,1.5-2.5s-0.7-2.5-1.5-2.5C166.1,62.8,165.5,63.9,165.5,65.3
								z"/>
							<path class="st10" d="M185.6,65.3c0,1.4,0.7,2.5,1.5,2.5s1.5-1.1,1.5-2.5s-0.7-2.5-1.5-2.5C186.2,62.8,185.6,63.9,185.6,65.3
								z"/>
							<path class="st17" d="M165.5,64.6c0,0,0.4-14.1,0.5-17.6c0.1-3.2,2.1-3.7,2.5-3.8l0,0l3.6-0.5l5,3.6l5-3.6l3.6,0.5l0,0
								c0.4,0.1,2.3,0.6,2.5,3.8c0.1,3.5,0.5,17.6,0.5,17.6h-3l-0.4-11.8l-0.9,11.8h-7.2H170l-0.9-11.8l-0.4,11.9L165.5,64.6
								L165.5,64.6z"/>
						</g>
						<path class="st10" d="M177.8,41.8c-0.3,0.1-0.5,0.1-0.8,0.1s-0.6,0-0.8-0.1c-1.2-0.4-3.5-3.8-3.5-3.8c-0.3-0.8-0.6-2.1-0.6-3
							c0-3.8,2.2-6.9,5-6.9c2.7,0,5,3.1,5,6.9c0,1-0.4,2.2-0.7,3.1C181.3,38.1,179.1,41.4,177.8,41.8z"/>
						<g>
							<path class="st10" d="M181.5,34.6c-0.1,0.7,0,1.3,0.3,1.4s0.6-0.4,0.8-1.1c0.1-0.7,0-1.3-0.3-1.4S181.7,33.9,181.5,34.6z"/>
							<path class="st10" d="M172.5,34.6c0.1,0.7,0,1.3-0.3,1.4s-0.7-0.4-0.8-1.1s0-1.3,0.3-1.4S172.3,33.9,172.5,34.6z"/>
						</g>
						<path class="st16" d="M171.6,32.9c0.3-6,4.8-5.6,5.5-5.1c0.5-0.5,5.1-1,5.4,5.1c0,0,0.6,0.6,0.1,2.5c0,0,0.3-2.4-0.6-1.6
							c0,0-0.2,0.6-0.2,1.4c0,0-0.2-1.7-0.5-2.2s-2.1-1.6-3.2-1.6c-0.7,0-0.9,0-1,0l0,0l0,0l0,0l0,0c-0.1,0-0.3,0-1,0
							c-1.2,0-3,1.1-3.2,1.6c-0.3,0.5-0.5,2.2-0.5,2.2c0.1-0.8-0.2-1.4-0.2-1.4c-0.9-0.8-0.6,1.6-0.6,1.6
							C171,33.5,171.6,32.9,171.6,32.9z"/>
					</g>
					<path class="st16" d="M172.3,32.6l0.3-0.4c0,0,0,0-0.1,0l0.7-1.1c0,0,4.4-1.6,4.5-1.6s1.1,0.6,2,1.2h0.2c0,0,0,0-0.1,0.1
						c0.7,0.4,1.2,0.7,1.2,0.7s-2,1-4.5,1.4c-0.2,0-0.3,0.1-0.4,0.1l0,0c-0.3,0-0.6,0.1-1,0.1c-1,0.1-1.7,0.4-1.7,0.4
						c0.2-0.2,0.6-0.3,1.1-0.4c-0.3,0-0.6,0-1-0.1c-0.3,0.3-0.6,0.8-0.5,1.3c0,0-0.1-0.7,0.3-1.3C173,32.8,172.6,32.7,172.3,32.6z"
						/>
				</g>
			</g>
		</g>
	</g>
</g>
<g>
	<g>
		<path class="st18" d="M73.8,117.4H5.4c-2.3,0-4.2-1.9-4.2-4.2V72.3c0-2.3,1.9-4.2,4.2-4.2h68.4c2.3,0,4.2,1.9,4.2,4.2v40.9
			C77.9,115.5,76.1,117.4,73.8,117.4z"/>
		<path class="st0" d="M75.8,118.3H3.3c-1.8,0-3.3-1.2-3.3-2.6V69.8c0-1.4,1.5-2.6,3.3-2.6h72.5c1.8,0,3.3,1.2,3.3,2.6v45.9
			C79.1,117.2,77.6,118.3,75.8,118.3z M3.4,69c-0.5,0-1,0.3-1,0.8v45.9c0,0.4,0.4,0.8,1,0.8h72.4c0.5,0,1-0.3,1-0.8V69.8
			c0-0.4-0.4-0.8-1-0.8L3.4,69L3.4,69z"/>
	</g>
	<g>
		<g>
			<line class="st19" x1="39.6" y1="117.4" x2="27.2" y2="131.7"/>
			<polygon class="st0" points="28.2,132.2 26.3,131.2 38.7,116.9 40.6,117.9 			"/>
		</g>
		<g>
			<line class="st19" x1="39.6" y1="117.4" x2="52" y2="131.7"/>
			<polygon class="st0" points="51.1,132.2 38.7,117.9 40.6,116.9 52.9,131.2 			"/>
		</g>
	</g>
	<g>
		<g>
			<rect x="6.4" y="73.5" class="st20" width="66.5" height="0.4"/>
		</g>
		<g>
			<rect x="6.4" y="78.9" class="st20" width="66.5" height="0.4"/>
		</g>
		<g>
			<rect x="6.4" y="84.4" class="st20" width="66.5" height="0.4"/>
		</g>
		<g>
			<rect x="6.4" y="89.9" class="st20" width="66.5" height="0.4"/>
		</g>
		<g>
			<rect x="6.4" y="95.3" class="st20" width="66.5" height="0.4"/>
		</g>
		<g>
			<rect x="6.4" y="100.8" class="st20" width="66.5" height="0.4"/>
		</g>
		<g>
			<rect x="6.4" y="106.2" class="st20" width="66.5" height="0.4"/>
		</g>
		<g>
			<rect x="6.4" y="111.7" class="st20" width="66.5" height="0.4"/>
		</g>
	</g>
	<g>
		<polygon class="st21" points="5.4,113.8 4.2,113.2 12.1,104 26.2,106 36.7,94.6 44.1,98.5 54.9,89.2 61.2,92 71.6,80.6 72.7,81.3 
			61.6,93.5 55.1,90.5 44.3,99.9 37.1,96.1 26.8,107.2 12.8,105.2 		"/>
	</g>
</g>
<path class="st8" d="M114.1,41.9l-1.6-5c1.7-1.6,2.8-3.8,2.8-6.1c0-5.2-5.3-9.4-11.8-9.4s-11.8,4.2-11.8,9.4c0,5.2,5.3,9.4,11.8,9.4
	c2.3,0,4.5-0.5,6.3-1.5L114.1,41.9z"/>
</svg>
