<?xml version="1.0" encoding="utf-8"?>
<!-- Generator: Adobe Illustrator 22.1.0, SVG Export Plug-In . SVG Version: 6.00 Build 0)  -->
<svg version="1.1" id="Objects" xmlns="http://www.w3.org/2000/svg" xmlns:xlink="http://www.w3.org/1999/xlink" x="0px" y="0px"
	 viewBox="0 0 800 800" style="enable-background:new 0 0 800 800;" xml:space="preserve">
<style type="text/css">
	.st0{fill:#31333A;}
	.st1{font-family:'OpenSans';}
	.st2{font-size:10.8714px;}
	.st3{fill:#D6D6D6;}
	.st4{fill:#BFBFBF;}
	.st5{fill:#6EC6D3;}
	.st6{fill:#3A3B42;}
	.st7{clip-path:url(#SVGID_2_);}
	.st8{fill:#EFEFEF;}
	.st9{fill:#E9AE97;}
	.st10{fill:#F8C3AA;}
	.st11{fill:#2D2725;}
	.st12{fill:#EDEDED;}
	.st13{fill:#D83B45;}
	.st14{fill:#DFDFDF;}
	.st15{clip-path:url(#SVGID_4_);}
	.st16{fill:#634C40;}
	.st17{fill:#E34856;}
	.st18{fill:#F9F9F9;}
	.st19{fill:#D1D1D1;}
	.st20{fill:#F28F32;}
</style>
<text transform="matrix(1 0 0 1 469.6338 229.0127)" class="st0 st1 st2">TELL US ABOUT IT!</text>
<g>
	<g>
		<g>
			<g>
				<g>
					<polygon class="st3" points="491.1,194.3 492.7,180.4 507.9,175.7 507.9,175.5 508.3,175.6 508.6,175.5 508.6,175.7 
						523.8,180.4 525.4,194.3 531.1,195.6 531.1,200.2 508.6,200.2 507.9,200.2 485.4,200.2 485.4,195.6 					"/>
					<polygon class="st4" points="491.7,189.4 524.6,187 524.2,183.5 492.3,183.5 					"/>
					<polygon class="st4" points="531.1,197.2 531.1,200.2 485.4,200.2 485.4,199.5 531.1,195.6 					"/>
					<path class="st3" d="M428.4,180.2c0,2.4,2,4.4,4.4,4.4H584c2.4,0,4.4-2,4.4-4.4V73.4c0-2.4-2-4.4-4.4-4.4H432.7
						c-2.4,0-4.4,2-4.4,4.4V180.2z"/>
				</g>
				<g>
					<g>
						<path class="st5" d="M586.2,162.6V72.8c0-1.3-0.9-2.4-2.1-2.4H432.7c-1.1,0-2.1,1.1-2.1,2.4v89.8H586.2z"/>
						<path class="st6" d="M433,72.7h151c0,0,0,0.1,0,0.1v87.5h-151V72.8C432.9,72.7,433,72.7,433,72.7 M432.7,68
							c-2.4,0-4.4,2.1-4.4,4.8v92.2h160.3V72.8c0-2.6-2-4.8-4.4-4.8H432.7L432.7,68z"/>
					</g>
				</g>
			</g>
		</g>
	</g>
	<g>
		<defs>
			<path id="SVGID_1_" d="M447.6,127c0,13.4,10.9,24.2,24.2,24.2c13.4,0,24.2-10.9,24.2-24.2c0-13.4-10.9-24.2-24.2-24.2
				C458.5,102.8,447.6,113.6,447.6,127z"/>
		</defs>
		<clipPath id="SVGID_2_">
			<use xlink:href="#SVGID_1_"  style="overflow:visible;"/>
		</clipPath>
		<g class="st7">
			<path class="st8" d="M447.6,127c0,13.4,10.9,24.2,24.2,24.2c13.4,0,24.2-10.9,24.2-24.2c0-13.4-10.9-24.2-24.2-24.2
				C458.5,102.8,447.6,113.6,447.6,127z"/>
			<g>
				<path class="st9" d="M471.9,123.6h3.5v4.7c0,0.5-1.6,1-3.5,1c-1.9,0-3.5-0.4-3.5-1v-4.7H471.9z"/>
				<g>
					<path class="st10" d="M472.8,126.2c-0.3,0.1-0.6,0.1-0.9,0.1c-0.3,0-0.6,0-0.9-0.1c-1.3-0.4-4-4.3-4-4.3
						c-0.3-0.9-0.4-1.8-0.4-2.9c0-4,2.4-7.3,5.3-7.3c2.9,0,5.3,3.3,5.3,7.3c0,1-0.1,2-0.4,2.9C476.7,121.8,474.1,125.8,472.8,126.2z
						"/>
					<g>
						<path class="st10" d="M476.7,118.5c-0.1,0.7,0,1.4,0.3,1.4c0.3,0.1,0.7-0.4,0.8-1.2c0.1-0.7,0-1.4-0.3-1.4
							C477.2,117.3,476.8,117.8,476.7,118.5z"/>
						<path class="st10" d="M467.1,118.5c0.1,0.7,0,1.4-0.3,1.4c-0.3,0.1-0.7-0.4-0.8-1.2c-0.1-0.7,0-1.4,0.3-1.4
							C466.6,117.3,466.9,117.8,467.1,118.5z"/>
					</g>
					<path class="st11" d="M471.9,111.3c3.1,0,5.6,2.7,5.6,5.9c0,0.1,0,0.1,0,0.2c0,0-0.4,0.1-0.4,0.9c0,0.5,0,0.7,0,0.7l-0.5,0.3
						c0,0-0.1-3.2-2.3-3.3h-2.4h-2.4c-2.3,0.1-2.3,3.3-2.3,3.3l-0.5-0.3c0,0,0-0.2,0-0.7c0-0.8-0.4-0.9-0.4-0.9c0-0.1,0-0.1,0-0.2
						C466.3,113.9,468.8,111.3,471.9,111.3z"/>
					<path class="st11" d="M476.1,115.4c0,0-4.6,3.1-8.8,1.5c0,0-0.2-2.2,2-2.6C471.5,114.1,476.1,115.4,476.1,115.4z"/>
				</g>
				<polygon class="st12" points="476.1,126.3 476.1,137.4 467.7,137.4 467.7,126.3 471.9,127.9 				"/>
				<polygon class="st13" points="471.9,128.3 473.1,135.2 471.9,137.7 470.7,135.2 				"/>
				<polygon class="st13" points="471.9,127.9 473.5,128.6 471.9,130.3 470.4,128.6 				"/>
				<polygon class="st14" points="471.9,127.9 476.1,126.3 477.5,127.2 475.7,130.5 				"/>
				<polygon class="st14" points="471.9,127.9 467.7,126.3 466.3,127.2 468.1,130.4 				"/>
				<path class="st10" d="M459,152.6c0,1.5,0.7,2.7,1.6,2.7c0.9,0,1.6-1.2,1.6-2.7s-0.7-2.7-1.6-2.7
					C459.7,149.9,459,151.1,459,152.6z"/>
				<path class="st10" d="M481.5,152.6c0,1.5,0.7,2.7,1.6,2.7c0.9,0,1.6-1.2,1.6-2.7s-0.7-2.7-1.6-2.7
					C482.3,149.9,481.5,151.1,481.5,152.6z"/>
				<path class="st0" d="M459,151.9c0,0,0.4-15.8,0.5-19.8c0.1-3.5,2.3-4.2,2.8-4.3v0l4-0.6l5.6,4l5.6-4l4,0.6v0
					c0.4,0.1,2.6,0.7,2.8,4.3c0.1,3.9,0.5,19.8,0.5,19.8h-3.4l-0.5-13.3l-1,13.2l-8.1,0l-8.1,0l-1-13.3l-0.5,13.3H459z"/>
			</g>
		</g>
	</g>
	<g>
		<defs>
			<path id="SVGID_3_" d="M519,108.4c0,13.4,10.9,24.2,24.2,24.2s24.2-10.9,24.2-24.2c0-13.4-10.9-24.2-24.2-24.2S519,95,519,108.4z
				"/>
		</defs>
		<clipPath id="SVGID_4_">
			<use xlink:href="#SVGID_3_"  style="overflow:visible;"/>
		</clipPath>
		<g class="st15">
			<path class="st8" d="M519,108.4c0,13.4,10.9,24.2,24.2,24.2s24.2-10.9,24.2-24.2c0-13.4-10.9-24.2-24.2-24.2S519,95,519,108.4z"
				/>
			<g>
				<g>
					<path class="st16" d="M537.7,103.4l5.5,0.4l5.5-0.4c0,0-0.6,2.9-0.5,4.6c0.1,1.7-0.3,2.7-0.3,2.7h-4.7h-4.7c0,0-0.4-1-0.3-2.7
						C538.3,106.3,537.7,103.4,537.7,103.4z"/>
					<g>
						<path class="st9" d="M543.3,107.4h2.8v4.2c0,0.5-1.3,0.9-2.8,0.9s-2.8-0.4-2.8-0.9v-4.2H543.3z"/>
						<polygon class="st12" points="547,109.8 547,119.7 539.4,119.7 539.4,109.8 543.2,111.3 						"/>
						<polygon class="st14" points="543.2,111.3 547,109.8 548.2,110.6 546.6,113.6 						"/>
						<polygon class="st14" points="543.2,111.3 539.4,109.8 538.2,110.6 539.8,113.4 						"/>
						<path class="st10" d="M531.7,133.3c0,1.4,0.7,2.5,1.5,2.5c0.8,0,1.5-1.1,1.5-2.5c0-1.4-0.7-2.5-1.5-2.5
							C532.3,130.8,531.7,131.9,531.7,133.3z"/>
						<path class="st10" d="M551.8,133.3c0,1.4,0.7,2.5,1.5,2.5c0.8,0,1.5-1.1,1.5-2.5c0-1.4-0.7-2.5-1.5-2.5
							C552.4,130.8,551.8,131.9,551.8,133.3z"/>
						<path class="st17" d="M531.7,132.6c0,0,0.4-14.1,0.5-17.6c0.1-3.2,2.1-3.7,2.5-3.8v0l3.6-0.5l5,3.6l5-3.6l3.6,0.5v0
							c0.4,0.1,2.3,0.6,2.5,3.8c0.1,3.5,0.5,17.6,0.5,17.6h-3l-0.4-11.8l-0.9,11.8l-7.2,0l-7.2,0l-0.9-11.8l-0.4,11.9H531.7z"/>
					</g>
					<path class="st10" d="M544,109.8c-0.3,0.1-0.5,0.1-0.8,0.1c-0.3,0-0.6,0-0.8-0.1c-1.2-0.4-3.5-3.8-3.5-3.8
						c-0.3-0.8-0.6-2.1-0.6-3c0-3.8,2.2-6.9,5-6.9c2.7,0,5,3.1,5,6.9c0,1-0.4,2.2-0.7,3.1C547.5,106.1,545.3,109.4,544,109.8z"/>
					<g>
						<path class="st10" d="M547.7,102.6c-0.1,0.7,0,1.3,0.3,1.4c0.3,0.1,0.6-0.4,0.8-1.1c0.1-0.7,0-1.3-0.3-1.4
							C548.2,101.4,547.9,101.9,547.7,102.6z"/>
						<path class="st10" d="M538.7,102.6c0.1,0.7,0,1.3-0.3,1.4c-0.3,0.1-0.7-0.4-0.8-1.1c-0.1-0.7,0-1.3,0.3-1.4
							C538.2,101.4,538.5,101.9,538.7,102.6z"/>
					</g>
					<path class="st16" d="M537.8,100.9c0.3-6,4.8-5.6,5.5-5.1c0.5-0.5,5.1-1,5.4,5.1c0,0,0.6,0.6,0.1,2.5c0,0,0.3-2.4-0.6-1.6
						c0,0-0.2,0.6-0.2,1.4c0,0-0.2-1.7-0.5-2.2c-0.3-0.5-2.1-1.6-3.2-1.6c-0.7,0-0.9,0-1,0c0,0,0,0,0,0l0,0l0,0c0,0,0,0,0,0
						c-0.1,0-0.3,0-1,0c-1.2,0-3,1.1-3.2,1.6c-0.3,0.5-0.5,2.2-0.5,2.2c0.1-0.8-0.2-1.4-0.2-1.4c-0.9-0.8-0.6,1.6-0.6,1.6
						C537.2,101.5,537.8,100.9,537.8,100.9z"/>
				</g>
				<path class="st16" d="M538.5,100.6l0.3-0.4c0,0,0,0-0.1,0l0.7-1.1c0,0,4.4-1.6,4.5-1.6c0.1,0,1.1,0.6,2,1.2h0.2c0,0,0,0-0.1,0.1
					c0.7,0.4,1.2,0.7,1.2,0.7s-2,1-4.5,1.4c-0.2,0-0.3,0.1-0.4,0.1c0,0,0,0,0,0c-0.3,0-0.6,0.1-1,0.1c-1,0.1-1.7,0.4-1.7,0.4
					c0.2-0.2,0.6-0.3,1.1-0.4c-0.3,0-0.6,0-1-0.1c-0.3,0.3-0.6,0.8-0.5,1.3c0,0-0.1-0.7,0.3-1.3
					C539.2,100.8,538.8,100.7,538.5,100.6z"/>
			</g>
		</g>
	</g>
</g>
<g>
	<g>
		<path class="st18" d="M440,185.4h-68.4c-2.3,0-4.2-1.9-4.2-4.2v-40.9c0-2.3,1.9-4.2,4.2-4.2H440c2.3,0,4.2,1.9,4.2,4.2v40.9
			C444.1,183.5,442.3,185.4,440,185.4z"/>
		<path class="st0" d="M442,186.3h-72.5c-1.8,0-3.3-1.2-3.3-2.6v-45.9c0-1.4,1.5-2.6,3.3-2.6H442c1.8,0,3.3,1.2,3.3,2.6v45.9
			C445.3,185.2,443.8,186.3,442,186.3z M369.6,137c-0.5,0-1,0.3-1,0.8v45.9c0,0.4,0.4,0.8,1,0.8H442c0.5,0,1-0.3,1-0.8v-45.9
			c0-0.4-0.4-0.8-1-0.8H369.6z"/>
	</g>
	<g>
		<g>
			<line class="st18" x1="405.8" y1="185.4" x2="393.4" y2="199.7"/>
			<polygon class="st0" points="394.4,200.2 392.5,199.2 404.9,184.9 406.8,185.9 			"/>
		</g>
		<g>
			<line class="st18" x1="405.8" y1="185.4" x2="418.2" y2="199.7"/>
			<polygon class="st0" points="417.3,200.2 404.9,185.9 406.8,184.9 419.1,199.2 			"/>
		</g>
	</g>
	<g>
		<g>
			<rect x="372.6" y="141.5" class="st19" width="66.5" height="0.4"/>
		</g>
		<g>
			<rect x="372.6" y="146.9" class="st19" width="66.5" height="0.4"/>
		</g>
		<g>
			<rect x="372.6" y="152.4" class="st19" width="66.5" height="0.4"/>
		</g>
		<g>
			<rect x="372.6" y="157.9" class="st19" width="66.5" height="0.4"/>
		</g>
		<g>
			<rect x="372.6" y="163.3" class="st19" width="66.5" height="0.4"/>
		</g>
		<g>
			<rect x="372.6" y="168.8" class="st19" width="66.5" height="0.4"/>
		</g>
		<g>
			<rect x="372.6" y="174.2" class="st19" width="66.5" height="0.4"/>
		</g>
		<g>
			<rect x="372.6" y="179.7" class="st19" width="66.5" height="0.4"/>
		</g>
	</g>
	<g>
		<polygon class="st20" points="371.6,181.8 370.4,181.2 378.3,172 392.4,174 402.9,162.6 410.3,166.5 421.1,157.2 427.4,160 
			437.8,148.6 438.9,149.3 427.8,161.5 421.3,158.5 410.5,167.9 403.3,164.1 393,175.2 379,173.2 		"/>
	</g>
</g>
<path class="st8" d="M480.3,109.9l-1.6-5c1.7-1.6,2.8-3.8,2.8-6.1c0-5.2-5.3-9.4-11.8-9.4c-6.5,0-11.8,4.2-11.8,9.4
	c0,5.2,5.3,9.4,11.8,9.4c2.3,0,4.5-0.5,6.3-1.5L480.3,109.9z"/>
</svg>
