<?xml version="1.0" encoding="utf-8"?>
<!-- Generator: Adobe Illustrator 22.1.0, SVG Export Plug-In . SVG Version: 6.00 Build 0)  -->
<svg version="1.1" id="Objects" xmlns="http://www.w3.org/2000/svg" xmlns:xlink="http://www.w3.org/1999/xlink" x="0px" y="0px"
	 viewBox="0 0 800 800" style="enable-background:new 0 0 800 800;" xml:space="preserve">
<style type="text/css">
	.st0{fill:#31333A;}
	.st1{font-family:'OpenSans';}
	.st2{font-size:10.8714px;}
	.st3{fill:#34B2E4;}
</style>
<g>
	<text transform="matrix(1 0 0 1 622.6338 264.4546)" class="st0 st1 st2">CONTACT US</text>
	<path class="st3" d="M657.5,216.1c-4.2-4.2-11.1-4.2-15.3,0c-4.2,4.2-4.2,11.1,0,15.3c3.9,3.9,10,4.2,14.3,0.9l4.9,4.9
		c-0.3,0.9-0.2,1.8,0.4,2.4l10.3,10.3c0.9,0.9,2.6,0.8,3.7-0.3c1.1-1.1,1.3-2.7,0.3-3.7l-10.3-10.3c-0.6-0.6-1.5-0.7-2.4-0.4
		l-4.9-4.9C661.7,226.1,661.4,220,657.5,216.1z M644.7,229c-2.9-2.9-2.9-7.5,0-10.3c2.9-2.9,7.5-2.9,10.3,0c2.9,2.9,2.9,7.5,0,10.3
		C652.1,231.8,647.5,231.8,644.7,229z"/>
</g>
</svg>
