<?xml version="1.0" encoding="utf-8"?>
<!-- Generator: Adobe Illustrator 22.1.0, SVG Export Plug-In . SVG Version: 6.00 Build 0)  -->
<svg version="1.1" id="Objects" xmlns="http://www.w3.org/2000/svg" xmlns:xlink="http://www.w3.org/1999/xlink" x="0px" y="0px"
	 viewBox="0 0 800 800" style="enable-background:new 0 0 800 800;" xml:space="preserve">
<style type="text/css">
	.st0{fill:#F4992C;}
	.st1{fill:#FCC83B;}
	.st2{fill:#EFEEEE;}
	.st3{fill:#BBBBBA;}
	.st4{fill:#ADADAD;}
	.st5{fill:#8D8C8C;}
	.st6{opacity:0.5;}
	.st7{fill:#1A1A1A;}
	.st8{fill:#E9AE97;}
	.st9{fill:#3F3A39;}
	.st10{fill:#F8C3AA;}
	.st11{fill:#D83B45;}
	.st12{fill:#DFDFDF;}
	.st13{fill:#7A7D82;}
	.st14{fill:#157AAD;}
	.st15{fill:#045382;}
	.st16{fill:#2D2725;}
	.st17{fill:#31333A;}
	.st18{fill:#404349;}
</style>
<g>
	<g>
		<g>
			<path class="st0" d="M655.7,327.8c0.2,0,0.5,0,0.7,0l0,31l-5.1,0l-0.2-4c-0.8-3.8-7-9.7-7.2-14.4
				C643.7,333.8,648.9,328.1,655.7,327.8z"/>
			<path class="st1" d="M657,327.8c-0.2,0-0.4,0-0.7,0l0,31l5.1,0l0.1-4c0.8-3.8,7-9.7,7.2-14.4C669,333.7,663.7,328.1,657,327.8z"
				/>
		</g>
		<path class="st2" d="M651.1,359.9l10.5,0c0.3,0,0.6-0.3,0.6-0.6v0c0-0.3-0.3-0.6-0.6-0.6l-10.5,0c-0.3,0-0.6,0.3-0.6,0.6l0,0
			C650.5,359.7,650.8,359.9,651.1,359.9z"/>
		<path class="st3" d="M661.5,359.9c0,0.2,0.1,0.4,0.1,0.6l0,4.4c0,1.7-1.4,3-3,3l-4.4,0c-1.7,0-3-1.4-3-3l0-4.4
			c0-0.2,0-0.4,0.1-0.6L661.5,359.9z"/>
		<path class="st4" d="M658.4,367.9c-0.4,0.4-1.2,0.6-2.1,0.6c-0.9,0-1.7-0.3-2.1-0.6L658.4,367.9z"/>
		<path class="st5" d="M651.1,362.7l10.2,2.7c0.4,0.1,0.7-0.1,0.8-0.5l0,0c0.1-0.4-0.1-0.7-0.5-0.8l-10.2-2.7
			c-0.4-0.1-0.7,0.1-0.8,0.5h0C650.5,362.2,650.7,362.6,651.1,362.7z"/>
		<path class="st5" d="M651.1,365.2l9.6,2.5c0.4,0.1,0.7-0.1,0.8-0.5l0,0c0.1-0.4-0.1-0.7-0.5-0.8l-9.6-2.5
			c-0.4-0.1-0.7,0.1-0.8,0.5l0,0C650.5,364.7,650.7,365.1,651.1,365.2z"/>
		<path class="st5" d="M655.6,359.9l6,1.6c0.4,0.1,0.6,0.5,0.5,0.8c-0.1,0.4-0.5,0.6-0.8,0.5l-10.2-2.7c-0.1,0-0.2-0.1-0.3-0.2
			L655.6,359.9z"/>
	</g>
	<g class="st6">
		<g>
			<polygon class="st7" points="654,358.9 648.7,340 650.5,340.9 650.8,339.9 652.4,340.4 652.4,339.3 654,340.4 654.7,339.4 
				656.4,340.5 657.5,339.4 659.4,340.6 660.4,339.3 661.5,340.5 663.5,339.2 658.7,358.8 658.2,358.7 662.8,340.2 661.4,341.1 
				660.4,340 659.5,341.3 657.6,340 656.4,341 654.8,340 654.1,341.1 652.8,340.2 652.8,341 651.1,340.5 650.7,341.6 649.4,340.9 
				654.5,358.7 			"/>
		</g>
	</g>
</g>
<g>
	<g>
		<polygon class="st8" points="593.3,321.5 593.3,323.6 605.6,331.5 611.3,322.1 597.3,308.7 		"/>
		<path class="st9" d="M615.2,287.4c-3-0.6-5.6-0.8-7.8-0.9c-1.7-0.3-3.5-0.2-5.4,0.2c-1.4,0.3-2.7,0.7-3.8,1.2
			c-0.1,0-0.1,0-0.1,0.1l0,0c0,0,0,0,0,0l0,0c-7.1,3.3-8.4,10.5-9,15.5c-0.7,5.7,3.7,18.5,4.4,18.1c0.6-0.5,6.4-5.7,6.4-5.7l4.7-6.7
			l1.7,2c0,0,0.4-6.5,0.5-7.3c0.1-0.8,3.8-4.5,4.8-5c1.1-0.5,2.9,0.8,2.9,0.8c3.8,2.1,5.7,2.1,6.6,1.8c0,0,0,0,0,0
			c2.7-0.3,4.1-8.7,4.1-8.7C623.9,293,615.2,287.4,615.2,287.4z"/>
		<path class="st10" d="M598.8,309.4C598.8,309.4,598.8,309.4,598.8,309.4c0-0.6,0.1-1.2,0.2-1.6c0.7-3.8,2.4-3.3,2.4-3.3l0,0
			c0.6,0,1.3,0.4,2.2,1.4c0,0,0.6,2.9,0.8,3.2c0.2,0.3,0.4-3.1,0.4-3.1s1.6-1.8,1.8-2.2c0.2-0.4,3.1-5.1,5.3-5.1
			c2.2,0,8.2,2.8,8.2,2.8s0.2,4.8,0,5.9c-0.2,1.1,1.3,8.6,1.2,9.2c-0.2,0.6-1.6,1-1.6,1s-0.1,0.2-0.2,0.4c-0.4,1-1,2.8-1,2.9
			c0,0.2-0.6,0.2-0.6,0.2c0.1,0.5,0.3,1,0,1.2c-0.6,0.3-0.5,2.3-0.6,2.9c-0.2,0.6-2.4,1.3-4,1.2c0,0,0,0,0,0
			c-0.5-0.1-1.6-0.6-2.9-1.3c-2.3-1.2-5.4-3-6.8-4.6c0,0-0.1-0.1-0.1-0.1c-2.3-2.6-2.4-7.1-2.4-7.1
			C599.4,312.1,598.8,310.7,598.8,309.4L598.8,309.4z"/>
		<polygon class="st11" points="607.6,331 610.3,336 609.4,337.3 		"/>
		<polygon class="st12" points="592.2,321.9 608.6,330.8 609.4,337.3 591.4,323.1 		"/>
		<g>
			<path class="st13" d="M584.2,343.3c0,4.3,3.5,7.8,7.8,7.8c4.3,0,7.8-3.5,7.8-7.8c0-4.3-3.5-7.8-7.8-7.8
				C587.7,335.5,584.2,339,584.2,343.3z"/>
			<g>
				<path class="st14" d="M611.5,374.3l8.6-7.6c1-0.9,1.1-2.4,0.2-3.5l-22-25.1c-3-3.4-8.2-3.7-11.5-0.8l0,0
					c-3.4,3-3.7,8.2-0.8,11.5l22,25.1C608.9,375.1,610.5,375.2,611.5,374.3z"/>
				<path class="st14" d="M609.4,373.3l4.1-11.2c0.4-1.1,1.6-1.7,2.8-1.3l34.3,15.4l-3.9,10.9l-35.9-11.1
					C609.5,375.7,609,374.4,609.4,373.3z"/>
				<path class="st14" d="M608,374.1c2.9,3.3,7.9,3.5,11.3,0.5c3.4-3,3.8-8,1-11.3c-2.9-3.3-7.9-3.5-11.3-0.5
					C605.6,365.8,605.2,370.8,608,374.1z"/>
			</g>
			<path class="st8" d="M646.8,386.6c0,0,13.1,2.8,15.3,1.9c2.2-0.9,7.4-2.8,7.5-3.5c0.1-0.7-3.5-4.6-8.5-5.1
				c-10.6-1-1.1-1.9-1.1-1.9s1.9-1.2-0.1-1.3c-2-0.2-9.5,0-9.5,0L646.8,386.6z"/>
		</g>
		<path class="st15" d="M591.4,323.1c0,0-6,2.5-10.9,9.9c-6.6,10.1-9,28.4-9.1,39.4c-0.1,8.6,0,27,0,27.1h38c0,0,7-56.7,0-62.2
			C602.4,331.7,591.4,323.1,591.4,323.1z"/>
		<path class="st13" d="M584.2,343.3c0,4.3,3.5,7.8,7.8,7.8c4.3,0,7.8-3.5,7.8-7.8c0-4.3-3.5-7.8-7.8-7.8
			C587.7,335.5,584.2,339,584.2,343.3z"/>
		<path class="st10" d="M601.8,411.4c1.1,5.1-0.2,9.7-2.9,10.4c-2.7,0.6-5.9-3-7-8.1c-1.1-5.1,0.2-9.7,2.9-10.4
			C597.5,402.7,600.6,406.3,601.8,411.4z"/>
		<g>
			<path class="st14" d="M579.3,376.8l11.2,2.3c1.3,0.3,2.6-0.6,2.9-1.9l6.8-32.7c0.9-4.4-1.9-8.8-6.3-9.7l0,0
				c-4.4-0.9-8.8,1.9-9.7,6.3l-6.8,32.7C577.1,375.2,577.9,376.5,579.3,376.8z"/>
			<path class="st14" d="M578.8,374.5l11.4-3.4c1.1-0.3,2.3,0.3,2.7,1.4l8.3,36.6l-11.1,3.5l-12.8-35.4
				C577,376,577.6,374.8,578.8,374.5z"/>
			<path class="st14" d="M577.4,373.9c-0.9,4.2,2,8.4,6.4,9.3c4.4,0.9,8.7-1.8,9.6-6c0.9-4.2-2-8.4-6.4-9.3
				C582.5,366.9,578.2,369.6,577.4,373.9z"/>
		</g>
	</g>
	<g>
		<polygon class="st8" points="718.6,321.5 718.6,323.6 706.3,331.5 700.7,322.1 714.6,308.7 		"/>
		<path class="st16" d="M697.5,299.6c0,0,1.9-1.3,2.9-0.8c1.1,0.5,4.7,4.2,4.8,5c0.1,0.8,0.5,7.3,0.5,7.3l1.7-2l4.7,6.7
			c0,0,5.8,5.2,6.4,5.7c0.6,0.5,5-12.3,4.4-18.1c-0.7-5.8-2.4-14.6-13-16.8c-11-2.3-17.5,7.9-17.5,7.9s-2.2,5.7-2.4,5.9
			C690.1,300.5,690.5,303.3,697.5,299.6z"/>
		<path class="st10" d="M713.1,309.4C713.1,309.4,713.1,309.4,713.1,309.4c0-0.6-0.1-1.2-0.2-1.6c-0.7-3.8-2.4-3.3-2.4-3.3l0,0
			c-0.6,0-1.3,0.4-2.2,1.4c0,0-0.6,2.9-0.8,3.2c-0.2,0.3-1.9-0.3-1.9-0.3s-0.2-4.6-0.4-5c-0.2-0.4-3.1-5.1-5.3-5.1
			c-2.2,0-8.2,2.8-8.2,2.8s-0.2,4.8,0,5.9c0.2,1.1-1.3,8.6-1.2,9.2c0.2,0.6,1.6,1,1.6,1s0.1,0.2,0.2,0.4c0.4,1,1,2.8,1,2.9
			c0,0.2,0.6,0.2,0.6,0.2c-0.1,0.5-0.3,1,0,1.2c0.6,0.3,0.5,2.3,0.6,2.9c0.2,0.6,2.4,1.3,4,1.2c0,0,0,0,0,0c0.5-0.1,1.6-0.6,2.9-1.3
			c2.3-1.2,5.4-3,6.8-4.6c0,0,0.1-0.1,0.1-0.1c2.3-2.6,2.4-7.1,2.4-7.1C712.5,312.1,713.1,310.7,713.1,309.4L713.1,309.4z"/>
		<polygon class="st11" points="704.3,331 701.7,336 702.5,337.3 		"/>
		<polygon class="st12" points="719.7,321.9 703.3,330.8 702.5,337.3 720.5,323.1 		"/>
		<path class="st17" d="M720.5,323.1c0,0,6,2.5,10.9,9.9c6.6,10.1,9,28.4,9.1,39.4c0.1,8.6,0,27,0,27.1h-38c0,0-7-56.7,0-62.2
			C709.5,331.7,720.5,323.1,720.5,323.1z"/>
		<path class="st13" d="M727.7,343.3c0,4.3-3.5,7.8-7.8,7.8c-4.3,0-7.8-3.5-7.8-7.8c0-4.3,3.5-7.8,7.8-7.8
			C724.3,335.5,727.7,339,727.7,343.3z"/>
		<g>
			<path class="st18" d="M700.5,374.3l-8.6-7.6c-1-0.9-1.1-2.4-0.2-3.5l22-25.1c3-3.4,8.2-3.7,11.5-0.8l0,0c3.4,3,3.7,8.2,0.8,11.5
				l-22,25.1C703,375.1,701.5,375.2,700.5,374.3z"/>
			<path class="st18" d="M702.6,373.3l-4.1-11.2c-0.4-1.1-1.6-1.7-2.8-1.3l-34.3,15.4l3.9,10.9l35.9-11.1
				C702.4,375.7,703,374.4,702.6,373.3z"/>
			<path class="st18" d="M703.9,374.1c-2.9,3.3-7.9,3.5-11.3,0.5c-3.4-3-3.8-8-1-11.3c2.9-3.3,7.9-3.5,11.3-0.5
				C706.3,365.8,706.8,370.8,703.9,374.1z"/>
		</g>
		<path class="st10" d="M665.1,386.6c0,0-13.1,2.8-15.3,1.9c-2.2-0.9-7.4-2.8-7.5-3.5c-0.1-0.7,3.5-4.6,8.5-5.1
			c10.6-1,1.1-1.9,1.1-1.9s-1.9-1.2,0.1-1.3c2-0.2,9.5,0,9.5,0L665.1,386.6z"/>
	</g>
</g>
</svg>
