<?xml version="1.0" encoding="utf-8"?>
<!-- Generator: Adobe Illustrator 22.1.0, SVG Export Plug-In . SVG Version: 6.00 Build 0)  -->
<svg version="1.1" id="Objects" xmlns="http://www.w3.org/2000/svg" xmlns:xlink="http://www.w3.org/1999/xlink" x="0px" y="0px"
	 viewBox="0 0 800 800" style="enable-background:new 0 0 800 800;" xml:space="preserve">
<style type="text/css">
	.st0{fill:#31333A;}
	.st1{font-family:'OpenSans';}
	.st2{font-size:10.8714px;}
	.st3{fill:#F28F32;}
</style>
<g>
	<text transform="matrix(1 0 0 1 408.9507 368.7393)"><tspan x="0" y="0" class="st0 st1 st2">WE WILL </tspan><tspan x="0.1" y="13" class="st0 st1 st2">TEAM UP</tspan></text>
	<g>
		<g>
			<path class="st3" d="M445.7,348.1L445.7,348.1c0-0.1,0-0.2-0.1-0.4c-0.3-1.1-0.9-3.1-1.2-4c0-0.2-0.1-0.3-0.1-0.4
				c0,0-0.5-0.7-0.8-0.9c0,0-0.2-0.1-0.2-0.1c-0.7-0.3-2.9-1.2-2.9-1.2c-1.1-0.5-2.2-0.9-3.4-1.3c-0.2,0.9-2.2,6.6-2.5,7.4l-0.2-5.3
				c0.1-0.1,0.1-0.3,0.2-0.4l0.8-1.6c-0.6,0.5-1.4,0.8-2.4,0.8c-0.9,0-1.8-0.3-2.4-0.8l0.8,1.6c0.1,0.1,0.1,0.3,0.2,0.4l-0.2,5.3
				c-0.3-0.8-2.3-6.5-2.5-7.4c-1.2,0.4-2.3,0.8-3.4,1.3c0,0-2.2,0.9-2.9,1.2c0,0-0.2,0.1-0.2,0.1c0,0-0.7,0.5-0.8,0.9
				c0,0-0.1,0.3-0.1,0.4c-0.3,0.9-0.9,2.9-1.2,4c0,0.1-0.1,0.2-0.1,0.4c0,0.1,0,0.2,0,0.3c0,1.2,0.9,2.1,2.1,2.1h21.6
				c1.2,0,2.1-0.9,2.1-2.1C445.7,348.3,445.7,348.2,445.7,348.1L445.7,348.1z M445.7,348.1"/>
			<g>
				<path class="st3" d="M438.3,330c0-0.4,0.1-1.7,0.1-2c0-3-2.5-5.5-5.5-5.5h-0.2c-3,0-5.5,2.5-5.5,5.5c0,0.3,0.1,1.7,0.1,2
					c-0.1,0-1.4-0.3-1.2,1.2c0.3,3.1,1.5,2.5,1.5,2.5c0.6,1.9,1.5,3.1,2.4,3.8c1.4,1.2,2.7,1.3,2.8,1.3h0.2c0,0,1.4-0.1,2.7-1.3
					c0.9-0.8,1.8-2,2.4-3.9c0,0,1.2,0.6,1.5-2.5C439.7,329.7,438.4,330,438.3,330L438.3,330z M438.3,330"/>
				<path class="st3" d="M419.7,342.7L419.7,342.7L419.7,342.7c0.2-0.4,0.5-0.8,0.9-1.2c0.1-0.1,0.4-0.4,0.6-0.5c0,0,0,0,0,0
					c0,0,0,0,0,0c0.1-0.1,0.3-0.2,0.4-0.2c0.5-0.2,1.5-0.7,2.3-1c0,0,0,0-0.1,0c0,0,0,0-0.1,0c-0.6-0.3-2.5-1.1-2.5-1.1
					c-1-0.4-1.9-0.8-3-1.1c-0.2,0.8-1.9,5.7-2.2,6.4l-0.2-4.6c0.1-0.1,0.1-0.2,0.2-0.4l0.7-1.4c-0.5,0.4-1.3,0.7-2.1,0.7
					c-0.8,0-1.6-0.3-2.1-0.7l0.7,1.4c0.1,0.1,0.1,0.2,0.2,0.4l-0.2,4.6c-0.3-0.7-2-5.7-2.2-6.4c-1,0.4-2,0.7-3,1.1
					c0,0-1.9,0.8-2.5,1.1c0,0,0,0-0.1,0c-0.1,0-0.1,0-0.1,0.1c-0.3,0.2-0.6,0.5-0.7,0.8v0c-0.1,0.1-0.1,0.3-0.1,0.4
					c-0.3,0.8-0.8,2.5-1.1,3.5c0,0.1-0.1,0.2-0.1,0.3c0,0.1,0,0.2,0,0.3c0,1,0.8,1.8,1.8,1.8h13.1c0.3-1.1,0.8-2.7,1.1-3.6
					C419.6,343.1,419.7,342.8,419.7,342.7L419.7,342.7z M419.7,342.7"/>
			</g>
			<path class="st3" d="M410.1,332.2c0.5,1.6,1.3,2.7,2.1,3.3c1.2,1,2.4,1.1,2.4,1.1h0.2c0,0,1.2-0.1,2.4-1.1
				c0.8-0.7,1.6-1.7,2.1-3.4c0,0,1.1,0.5,1.3-2.2c0.1-1.3-1-1-1.1-1c0-0.3,0.1-1.5,0.1-1.8c0-2.6-2.1-4.8-4.8-4.8h-0.2
				c-2.6,0-4.8,2.1-4.8,4.8c0,0.3,0.1,1.5,0.1,1.8c-0.1,0-1.2-0.3-1.1,1C409,332.7,410.1,332.2,410.1,332.2L410.1,332.2z
				 M410.1,332.2"/>
			<path class="st3" d="M462.1,343.2c0-0.2,0-0.3-0.1-0.5c0,0-0.1-0.6-0.1-0.6c-0.2-1-0.8-1.7-1.6-2.2c-0.2-0.1-0.3-0.2-0.5-0.3
				c-0.2-0.1-3.4-1.2-3.5-1.2c0,0.1,0,0.2,0,0.4c0.4,0.3,1.8,1.4,1.2,3.6c0,0-0.9-1.1-1.9-1.3c-0.9,1.6-2.5,3.6-3.3,4.2
				c-0.8-0.5-2.4-2.6-3.3-4.2c-1,0.1-1.9,1.3-1.9,1.3c-0.6-2.1,0.7-3.2,1.2-3.6c0-0.1,0-0.3,0-0.4c-0.1,0-3.3,1.1-3.5,1.2
				c-0.2,0.1-0.3,0.2-0.5,0.3c-0.3,0.2-0.6,0.5-0.8,0.7c0.2,0.1,0.4,0.2,0.5,0.2c0.1,0,0.2,0.1,0.4,0.2c0.3,0.2,0.7,0.5,1,1
				c0.4,0.5,0.5,0.7,0.5,0.8c0.1,0.2,0.2,0.4,0.2,0.6c0.3,0.9,0.8,2.5,1.1,3.6h12.5c0.7,0,1.4-0.2,1.9-0.8c0.4-0.4,0.5-0.9,0.6-1.5
				c0-0.1,0-0.5,0-0.5S462.1,343.2,462.1,343.2L462.1,343.2z M462.1,343.2"/>
			<path class="st3" d="M446.5,333.1c0.1,0.3,0.1,0.5,0.1,0.8c0,0.1,0,0.2,0,0.2c-0.1,0.2-0.6,1-0.6,1.2c0.9,0.9,2,1.2,3.2,1.4
				c0.3,0.1,0.7,0.1,1,0.2l0.4,0.1l-0.6,1.7c0,0,0,2.5,2.4,4h0c2.4-1.5,2.4-4,2.4-4l-0.6-1.7l0.4-0.1c0.4,0,0.7-0.1,1-0.2
				c1.1-0.2,2.3-0.5,3.2-1.4c-0.1-0.1-0.6-0.9-0.6-1.2c0-0.1,0-0.2,0-0.2c0-0.2,0-0.5,0.1-0.8c0.1-0.3,0.2-0.5,0.2-0.8
				c0.4-0.9,0.6-1.8,0.6-2.8c0-3.7-3-6.8-6.6-6.8h0c-3.7,0.1-6.6,3.1-6.6,6.8c0,1,0.2,2,0.6,2.8
				C446.3,332.6,446.4,332.8,446.5,333.1L446.5,333.1z M446.5,333.1"/>
		</g>
	</g>
</g>
</svg>
