<?xml version="1.0" encoding="utf-8"?>
<!-- Generator: Adobe Illustrator 22.1.0, SVG Export Plug-In . SVG Version: 6.00 Build 0)  -->
<svg version="1.1" id="Objects" xmlns="http://www.w3.org/2000/svg" xmlns:xlink="http://www.w3.org/1999/xlink" x="0px" y="0px"
	 viewBox="0 0 800 800" style="enable-background:new 0 0 800 800;" xml:space="preserve">
<style type="text/css">
	.st0{fill:#3F3A39;}
	.st1{fill:#E9AE97;}
	.st2{fill:#EDEDED;}
	.st3{fill:#DFDFDF;}
	.st4{fill:#F8C3AA;}
	.st5{fill:#FDCA65;}
	.st6{fill:#634C40;}
	.st7{fill:#045382;}
	.st8{fill:#75C4B5;}
	.st9{fill:#2D2725;}
	.st10{fill:#D83B45;}
	.st11{fill:#31333A;}
	.st12{fill:#E34856;}
</style>
<g>
	<g>
		<g>
			<path class="st0" d="M276.4,341.7l-8.8,0.7l-8.8-0.7c0,0,0.8,2.2,0.6,4.9c-0.2,2.7-0.1,3.4-0.1,3.4l8.2,1.3l8.6-1.1
				c0,0-0.1-0.9-0.3-3.6C275.8,343.8,276.4,341.7,276.4,341.7z"/>
			<g>
				<path class="st1" d="M267.5,348.2H263v6.7c0,0.8,2,1.4,4.5,1.4c2.5,0,4.5-0.6,4.5-1.4v-6.7H267.5z"/>
				<polygon class="st2" points="261.6,352 261.6,367.9 273.6,367.9 273.6,352 267.6,354.3 				"/>
				<polygon class="st3" points="267.6,354.3 261.6,352 259.6,353.3 262.2,358 				"/>
				<polygon class="st3" points="267.6,354.3 273.6,352 275.6,353.3 273.1,357.8 				"/>
				<path class="st4" d="M286,389.5c0,2.2-1.1,3.9-2.3,3.9c-1.3,0-2.3-1.8-2.3-3.9c0-2.2,1.1-3.9,2.3-3.9
					C285,385.6,286,387.4,286,389.5z"/>
				<path class="st4" d="M253.9,389.5c0,2.2-1.1,3.9-2.3,3.9c-1.3,0-2.3-1.8-2.3-3.9c0-2.2,1.1-3.9,2.3-3.9
					C252.8,385.6,253.9,387.4,253.9,389.5z"/>
				<path class="st5" d="M286,388.5c0,0-0.6-22.6-0.8-28.2c-0.2-5.1-3.3-6-3.9-6.1v0l-5.7-0.8l-8,5.8l-8-5.8l-5.7,0.8v0
					c-0.6,0.1-3.7,1-3.9,6.1c-0.2,5.6-0.8,28.2-0.8,28.2h4.8l0.7-18.9l1.4,18.9l11.5,0.1l11.5-0.1l1.4-18.9l0.7,19H286z"/>
			</g>
			<path class="st4" d="M266.3,352c0.4,0.1,0.9,0.2,1.3,0.2s0.9-0.1,1.3-0.2c2-0.6,5.6-6,5.6-6c0.4-1.3,1-3.3,1-4.8
				c0-6.1-3.6-11-7.9-11c-4.4,0-7.9,4.9-7.9,11c0,1.5,0.7,3.6,1.1,4.9C260.7,346.1,264.3,351.4,266.3,352z"/>
			<g>
				<path class="st4" d="M260.3,340.5c0.2,1.1,0,2.1-0.5,2.2c-0.5,0.1-1-0.7-1.2-1.8c-0.2-1.1,0-2.1,0.5-2.2
					C259.6,338.6,260.1,339.4,260.3,340.5z"/>
				<path class="st4" d="M274.9,340.5c-0.2,1.1,0,2.1,0.5,2.2c0.5,0.1,1-0.7,1.2-1.8c0.2-1.1,0-2.1-0.5-2.2
					C275.6,338.6,275.1,339.4,274.9,340.5z"/>
			</g>
		</g>
		<path class="st0" d="M276.3,337.7c-0.5-9.5-7.8-9-8.7-8.1c-0.8-0.8-8.1-1.5-8.6,8.1c0,0-1,1-0.1,4c0,0-0.5-3.9,1-2.6
			c0,0,0.3,1,0.2,2.3c0,0,0.4-2.7,0.8-3.6c0.2-0.4,1.1-1.1,2.1-1.6c0,0,7.2,4.2,11,3.6c0,0,0,0,0,0c0,0,0,0,0,0
			c0.3-0.1,0.6-0.1,0.9-0.3c0.2,0.9,0.3,1.9,0.3,1.9c-0.1-1.3,0.2-2.3,0.2-2.3c1.5-1.3,1,2.6,1,2.6
			C277.3,338.8,276.3,337.7,276.3,337.7z"/>
	</g>
	<g>
		<g>
			<path class="st6" d="M241,332.2l-12.7,0.9l-12.7-0.9c0,0,1.4,6.7,1.2,10.7c-0.2,3.9,0.7,6.2,0.7,6.2h10.8h10.8
				c0,0,0.9-2.3,0.7-6.2C239.5,338.9,241,332.2,241,332.2z"/>
			<g>
				<path class="st1" d="M228.1,341.6h-6.5v9.7c0,1.1,2.9,2,6.5,2c3.6,0,6.5-0.9,6.5-2v-9.7H228.1z"/>
				<polygon class="st2" points="219.6,347.1 219.6,370.1 237,370.1 237,347.1 228.3,350.5 				"/>
				<polygon class="st3" points="228.3,350.5 219.6,347.1 216.7,349.1 220.4,355.9 				"/>
				<polygon class="st3" points="228.3,350.5 237,347.1 239.8,349.1 236.2,355.5 				"/>
				<path class="st4" d="M254.9,401.4c0,3.1-1.5,5.7-3.4,5.7c-1.9,0-3.4-2.5-3.4-5.7c0-3.1,1.5-5.7,3.4-5.7
					C253.4,395.7,254.9,398.2,254.9,401.4z"/>
				<path class="st4" d="M208.4,401.4c0,3.1-1.5,5.7-3.4,5.7c-1.9,0-3.4-2.5-3.4-5.7c0-3.1,1.5-5.7,3.4-5.7
					C206.9,395.7,208.4,398.2,208.4,401.4z"/>
				<path class="st7" d="M254.9,399.9c0,0-0.8-32.6-1.1-40.8c-0.3-7.3-4.8-8.6-5.7-8.8v0l-8.3-1.2l-11.5,8.3l-11.5-8.3l-8.3,1.2v0
					c-0.9,0.2-5.4,1.5-5.7,8.8c-0.3,8.1-1.1,40.8-1.1,40.8h7l1-27.4l2,27.3l16.7,0.1l16.7-0.1l2-27.3l1,27.4H254.9z"/>
			</g>
			<path class="st4" d="M226.3,347.2c0.6,0.1,1.3,0.2,1.9,0.2c0.7,0,1.3-0.1,1.9-0.2c2.9-0.9,8.1-8.7,8.1-8.7c0.6-1.9,1.4-4.8,1.4-7
				c0-8.8-5.1-15.9-11.5-15.9c-6.3,0-11.5,7.1-11.5,15.9c0,2.2,0.9,5.2,1.5,7.1C218.3,338.6,223.5,346.3,226.3,347.2z"/>
			<g>
				<path class="st4" d="M217.8,330.5c0.3,1.6,0,3-0.7,3.1s-1.5-1-1.8-2.5c-0.3-1.6,0-3,0.7-3.1
					C216.7,327.8,217.5,328.9,217.8,330.5z"/>
				<path class="st4" d="M238.8,330.5c-0.3,1.6,0,3,0.7,3.1c0.7,0.2,1.5-1,1.8-2.5c0.3-1.6,0-3-0.7-3.1
					C239.9,327.8,239.1,328.9,238.8,330.5z"/>
			</g>
			<path class="st6" d="M240.8,326.5c-0.8-13.8-11.2-12.9-12.6-11.8c-1.1-1.2-11.7-2.2-12.5,11.8c0,0-1.4,1.5-0.1,5.7
				c0,0-0.8-5.6,1.4-3.7c0,0,0.5,1.4,0.4,3.3c0,0,0.6-3.9,1.2-5.2c0.6-1.2,4.7-3.7,7.5-3.7c1.6,0,2.1,0,2.2,0c0,0,0,0,0,0v0v0
				c0,0,0,0,0,0c0.2,0,0.7,0,2.2,0c2.7,0,6.8,2.5,7.5,3.7c0.6,1.2,1.2,5.2,1.2,5.2c-0.1-1.8,0.4-3.3,0.4-3.3
				c2.2-1.9,1.4,3.7,1.4,3.7C242.2,328,240.8,326.5,240.8,326.5z"/>
		</g>
		<path class="st6" d="M239.1,325.9l-0.6-1c0,0,0.1,0,0.1-0.1l-1.7-2.6c0,0-10.1-3.7-10.4-3.6c-0.1,0-2.5,1.4-4.6,2.7h-0.4
			c0,0,0.1,0.1,0.2,0.2c-1.5,0.9-2.8,1.7-2.8,1.7s4.7,2.4,10.4,3.3c0.4,0.1,0.7,0.1,1,0.1c0,0,0,0,0,0c0.7,0.1,1.5,0.1,2.2,0.2
			c2.4,0.3,3.8,0.9,3.8,0.9c-0.4-0.4-1.5-0.7-2.5-0.9c0.7,0,1.5-0.1,2.2-0.2c0.8,0.8,1.3,1.7,1.2,2.9c0,0,0.3-1.6-0.7-3
			C237.6,326.3,238.4,326.1,239.1,325.9z"/>
	</g>
	<g>
		<g>
			<g>
				<g>
					<path class="st1" d="M123.9,341.6h-6.5v9.7c0,1.1,2.9,2,6.5,2c3.6,0,6.5-0.9,6.5-2v-9.7H123.9z"/>
					<polygon class="st2" points="115.4,347.1 115.4,370.1 132.8,370.1 132.8,347.1 124.1,350.5 					"/>
					<polygon class="st3" points="124.1,350.5 115.4,347.1 112.6,349.1 116.2,355.9 					"/>
					<polygon class="st3" points="124.1,350.5 132.8,347.1 135.6,349.1 132,355.5 					"/>
					<path class="st4" d="M150.7,401.4c0,3.1-1.5,5.7-3.4,5.7c-1.9,0-3.4-2.5-3.4-5.7c0-3.1,1.5-5.7,3.4-5.7
						C149.2,395.7,150.7,398.2,150.7,401.4z"/>
					<path class="st4" d="M104.2,401.4c0,3.1-1.5,5.7-3.4,5.7c-1.9,0-3.4-2.5-3.4-5.7c0-3.1,1.5-5.7,3.4-5.7
						C102.7,395.7,104.2,398.2,104.2,401.4z"/>
					<path class="st8" d="M150.7,399.9c0,0-0.8-32.6-1.1-40.8c-0.3-7.3-4.8-8.6-5.7-8.8v0l-8.3-1.2l-11.5,8.3l-11.5-8.3l-8.3,1.2v0
						c-0.9,0.2-5.4,1.5-5.7,8.8c-0.3,8.1-1.1,40.8-1.1,40.8h7l1-27.4l2,27.3l16.7,0.1l16.7-0.1l2-27.3l1,27.4H150.7z"/>
				</g>
				<path class="st4" d="M122.2,347.2c0.6,0.1,1.3,0.2,1.9,0.2c0.7,0,1.3-0.1,1.9-0.2c2.9-0.9,8.1-8.7,8.1-8.7
					c0.6-1.9,1.4-4.8,1.4-7c0-8.8-5.1-15.9-11.5-15.9s-11.5,7.1-11.5,15.9c0,2.2,0.9,5.2,1.5,7.1
					C114.1,338.6,119.3,346.3,122.2,347.2z"/>
				<g>
					<path class="st4" d="M113.6,330.5c0.3,1.6,0,3-0.7,3.1c-0.7,0.2-1.5-1-1.8-2.5c-0.3-1.6,0-3,0.7-3.1
						C112.5,327.8,113.3,328.9,113.6,330.5z"/>
					<path class="st4" d="M134.6,330.5c-0.3,1.6,0,3,0.7,3.1c0.7,0.2,1.5-1,1.8-2.5c0.3-1.6,0-3-0.7-3.1
						C135.7,327.8,134.9,328.9,134.6,330.5z"/>
				</g>
				<path class="st0" d="M136.6,326.5c-0.8-13.8-11.2-12.9-12.6-11.8c-1.1-1.2-11.7-2.2-12.5,11.8c0,0-1.4,1.5-0.1,5.7
					c0,0-0.8-5.6,1.4-3.7c0,0,0.5,1.4,0.4,3.3c0,0,0.6-3.9,1.2-5.2c0.6-1.2,4.7-3.7,7.5-3.7c1.6,0,2.1,0,2.2,0c0,0,0,0,0,0v0v0
					c0,0,0,0,0,0c0.2,0,0.7,0,2.2,0c2.7,0,6.8,2.5,7.5,3.7c0.6,1.2,1.2,5.2,1.2,5.2c-0.1-1.8,0.4-3.3,0.4-3.3
					c2.2-1.9,1.4,3.7,1.4,3.7C138,328,136.6,326.5,136.6,326.5z"/>
			</g>
			<path class="st0" d="M134.9,325.9l-0.6-1c0,0,0.1,0,0.1-0.1l-1.7-2.6c0,0-10.1-3.7-10.4-3.6c-0.1,0-2.5,1.4-4.6,2.7h-0.4
				c0,0,0.1,0.1,0.2,0.2c-1.5,0.9-2.8,1.7-2.8,1.7s4.7,2.4,10.4,3.3c0.4,0.1,0.7,0.1,1,0.1c0,0,0,0,0,0c0.7,0.1,1.5,0.1,2.2,0.2
				c2.4,0.3,3.8,0.9,3.8,0.9c-0.4-0.4-1.5-0.7-2.5-0.9c0.7,0,1.5-0.1,2.2-0.2c0.8,0.8,1.3,1.7,1.2,2.9c0,0,0.3-1.6-0.7-3
				C133.4,326.3,134.2,326.1,134.9,325.9z"/>
		</g>
		<polygon class="st6" points="124.1,350.5 120,353.3 120.7,354.9 124.1,357.4 127.5,354.9 128.2,353.3 		"/>
	</g>
	<g>
		<path class="st1" d="M177.1,327.6h-9.6v12.8c0,1.5,4.3,2.6,9.6,2.6s9.6-1.2,9.6-2.6v-12.8H177.1z"/>
		<g>
			<path class="st4" d="M174.7,334.5c0.8,0.2,1.6,0.3,2.4,0.3s1.6-0.1,2.4-0.3c3.6-1.1,10.9-11.9,10.9-11.9c0.7-2.4,1.2-5.1,1.2-7.8
				c0-11-6.5-20-14.5-20s-14.5,9-14.5,20c0,2.8,0.4,5.4,1.2,7.8C163.8,322.6,171.1,333.4,174.7,334.5z"/>
			<g>
				<path class="st4" d="M163.9,313.6c0.4,2,0,3.7-0.9,4c-0.9,0.2-1.9-1.2-2.3-3.2c-0.4-2,0-3.7,0.9-4
					C162.5,310.2,163.6,311.6,163.9,313.6z"/>
				<path class="st4" d="M190.4,313.6c-0.4,2,0,3.7,0.9,4c0.9,0.2,1.9-1.2,2.3-3.2c0.4-2,0-3.7-0.9-4
					C191.7,310.2,190.7,311.6,190.4,313.6z"/>
			</g>
			<path class="st9" d="M177.1,293.6c-8.5,0-15.3,7.3-15.3,16.3c0,0.2,0,0.3,0,0.5c0.1,0,1.1,0.2,1.1,2.5c0,1.4,0,1.8,0,1.9l1.3,0.7
				c0,0,0.2-8.8,6.3-9.1h6.6h6.6c6.2,0.3,6.3,9.1,6.3,9.1l1.3-0.7c0-0.1,0-0.5,0-1.9c0.1-2.3,1-2.5,1.1-2.5c0-0.2,0-0.3,0-0.5
				C192.5,300.9,185.6,293.6,177.1,293.6z"/>
			<path class="st9" d="M165.5,305.1c0,0,12.7,8.4,24,4.1c0,0,0.5-6.1-5.4-7C178.3,301.3,165.5,305.1,165.5,305.1z"/>
		</g>
		<polygon class="st2" points="165.6,334.8 165.6,365.4 188.7,365.4 188.7,334.8 177.1,339.3 		"/>
		<polygon class="st10" points="177.1,340.4 173.7,359.2 177.1,366.1 180.6,359.2 		"/>
		<polygon class="st10" points="177.1,339.3 172.7,341.3 177.1,345.8 181.2,341.3 		"/>
		<polygon class="st3" points="177.1,339.3 165.6,334.8 161.8,337.5 166.7,346.5 		"/>
		<polygon class="st3" points="177.1,339.3 188.7,334.8 192.5,337.5 187.6,346 		"/>
		<path class="st4" d="M212.6,407.1c0,4.2-2,7.5-4.5,7.5s-4.5-3.4-4.5-7.5c0-4.2,2-7.5,4.5-7.5S212.6,402.9,212.6,407.1z"/>
		<path class="st4" d="M150.7,407.1c0,4.2-2,7.5-4.5,7.5c-2.5,0-4.5-3.4-4.5-7.5c0-4.2,2-7.5,4.5-7.5
			C148.7,399.5,150.7,402.9,150.7,407.1z"/>
		<path class="st11" d="M212.6,405c0,0-1.1-43.4-1.5-54.2c-0.4-9.7-6.4-11.4-7.6-11.7v0l-11.1-1.6l-15.3,11.1l-15.3-11.1l-11.1,1.6
			v0c-1.2,0.2-7.2,2-7.6,11.7c-0.4,10.8-1.5,54.2-1.5,54.2h9.3l1.3-36.4l2.6,36.3l22.2,0.1l22.2-0.1l2.6-36.4l1.3,36.5H212.6z"/>
	</g>
	<g>
		<g>
			<g>
				<g>
					<path class="st1" d="M82.3,348.2h-4.5v6.7c0,0.8,2,1.4,4.5,1.4c2.5,0,4.5-0.6,4.5-1.4v-6.7H82.3z"/>
					<polygon class="st2" points="76.4,352 76.4,367.9 88.4,367.9 88.4,352 82.4,354.3 					"/>
					<polygon class="st3" points="82.4,354.3 76.4,352 74.4,353.3 77,358 					"/>
					<polygon class="st3" points="82.4,354.3 88.4,352 90.4,353.3 87.9,357.8 					"/>
					<path class="st4" d="M100.8,389.5c0,2.2-1.1,3.9-2.3,3.9c-1.3,0-2.3-1.8-2.3-3.9c0-2.2,1.1-3.9,2.3-3.9
						C99.8,385.6,100.8,387.4,100.8,389.5z"/>
					<path class="st4" d="M68.7,389.5c0,2.2-1.1,3.9-2.3,3.9c-1.3,0-2.3-1.8-2.3-3.9c0-2.2,1.1-3.9,2.3-3.9
						C67.6,385.6,68.7,387.4,68.7,389.5z"/>
					<path class="st12" d="M100.8,388.5c0,0-0.6-22.6-0.8-28.2c-0.2-5.1-3.3-6-3.9-6.1v0l-5.7-0.8l-8,5.8l-8-5.8l-5.7,0.8v0
						c-0.6,0.1-3.7,1-3.9,6.1c-0.2,5.6-0.8,28.2-0.8,28.2h4.8l0.7-18.9l1.4,18.9l11.5,0.1l11.5-0.1l1.4-18.9l0.7,19H100.8z"/>
				</g>
				<path class="st4" d="M81.1,352c0.4,0.1,0.9,0.2,1.3,0.2c0.5,0,0.9-0.1,1.3-0.2c2-0.6,5.6-6,5.6-6c0.4-1.3,1-3.3,1-4.8
					c0-6.1-3.6-11-7.9-11c-4.4,0-7.9,4.9-7.9,11c0,1.5,0.7,3.6,1.1,4.9C75.5,346.1,79.1,351.4,81.1,352z"/>
				<g>
					<path class="st4" d="M75.2,340.5c0.2,1.1,0,2.1-0.5,2.2c-0.5,0.1-1-0.7-1.2-1.8c-0.2-1.1,0-2.1,0.5-2.2
						C74.4,338.6,74.9,339.4,75.2,340.5z"/>
					<path class="st4" d="M89.7,340.5c-0.2,1.1,0,2.1,0.5,2.2c0.5,0.1,1-0.7,1.2-1.8c0.2-1.1,0-2.1-0.5-2.2
						C90.4,338.6,89.9,339.4,89.7,340.5z"/>
				</g>
			</g>
		</g>
		<path class="st9" d="M91.1,337.7c-0.3-5.5-2.8-7.6-5.1-8.3l-3.1-1.5c0,0-3.6,0.8-5.1,1.4c-0.4,0.2-0.9,0.7-1.3,1.4
			c-1.4,1.3-2.5,3.4-2.7,7c0,0-1,1-0.1,4c0,0-0.5-3.9,1-2.6c0,0,0.3,1,0.2,2.3c0,0,0.4-2.7,0.8-3.6c0.4-0.7,2.3-2,4-2.4l7.6,0.9
			c0.9,0.5,1.7,1.1,1.9,1.5c0.4,0.9,0.8,3.6,0.8,3.6c-0.1-1.3,0.2-2.3,0.2-2.3c1.5-1.3,1,2.6,1,2.6
			C92.1,338.8,91.1,337.7,91.1,337.7z"/>
	</g>
</g>
</svg>
