<?xml version="1.0" encoding="utf-8"?>
<!-- Generator: Adobe Illustrator 22.1.0, SVG Export Plug-In . SVG Version: 6.00 Build 0)  -->
<svg version="1.1" id="Objects" xmlns="http://www.w3.org/2000/svg" xmlns:xlink="http://www.w3.org/1999/xlink" x="0px" y="0px"
	 viewBox="0 0 222 121" style="enable-background:new 0 0 222 121;" xml:space="preserve">
<style type="text/css">
	.st0{fill:#3F3A39;}
	.st1{fill:#E9AE97;}
	.st2{fill:#EDEDED;}
	.st3{fill:#DFDFDF;}
	.st4{fill:#F8C3AA;}
	.st5{fill:#FDCA65;}
	.st6{fill:#634C40;}
	.st7{fill:#045382;}
	.st8{fill:#75C4B5;}
	.st9{fill:#2D2725;}
	.st10{fill:#D83B45;}
	.st11{fill:#31333A;}
	.st12{fill:#E34856;}
</style>
<g>
	<g>
		<g>
			<path class="st0" d="M212.4,48.1l-8.8,0.7l-8.8-0.7c0,0,0.8,2.2,0.6,4.9c-0.2,2.7-0.1,3.4-0.1,3.4l8.2,1.3l8.6-1.1
				c0,0-0.1-0.9-0.3-3.6C211.8,50.2,212.4,48.1,212.4,48.1z"/>
			<g>
				<path class="st1" d="M203.5,54.6H199v6.7c0,0.8,2,1.4,4.5,1.4s4.5-0.6,4.5-1.4v-6.7H203.5z"/>
				<polygon class="st2" points="197.6,58.4 197.6,74.3 209.6,74.3 209.6,58.4 203.6,60.7 				"/>
				<polygon class="st3" points="203.6,60.7 197.6,58.4 195.6,59.7 198.2,64.4 				"/>
				<polygon class="st3" points="203.6,60.7 209.6,58.4 211.6,59.7 209.1,64.2 				"/>
				<path class="st4" d="M222,95.9c0,2.2-1.1,3.9-2.3,3.9c-1.3,0-2.3-1.8-2.3-3.9c0-2.2,1.1-3.9,2.3-3.9C221,92,222,93.8,222,95.9z"
					/>
				<path class="st4" d="M189.9,95.9c0,2.2-1.1,3.9-2.3,3.9c-1.3,0-2.3-1.8-2.3-3.9c0-2.2,1.1-3.9,2.3-3.9
					C188.8,92,189.9,93.8,189.9,95.9z"/>
				<path class="st5" d="M222,94.9c0,0-0.6-22.6-0.8-28.2c-0.2-5.1-3.3-6-3.9-6.1l0,0l-5.7-0.8l-8,5.8l-8-5.8l-5.7,0.8l0,0
					c-0.6,0.1-3.7,1-3.9,6.1c-0.2,5.6-0.8,28.2-0.8,28.2h4.8l0.7-18.9l1.4,18.9l11.5,0.1l11.5-0.1l1.4-18.9l0.7,19h4.8V94.9z"/>
			</g>
			<path class="st4" d="M202.3,58.4c0.4,0.1,0.9,0.2,1.3,0.2s0.9-0.1,1.3-0.2c2-0.6,5.6-6,5.6-6c0.4-1.3,1-3.3,1-4.8
				c0-6.1-3.6-11-7.9-11c-4.4,0-7.9,4.9-7.9,11c0,1.5,0.7,3.6,1.1,4.9C196.7,52.5,200.3,57.8,202.3,58.4z"/>
			<g>
				<path class="st4" d="M196.3,46.9c0.2,1.1,0,2.1-0.5,2.2s-1-0.7-1.2-1.8c-0.2-1.1,0-2.1,0.5-2.2C195.6,45,196.1,45.8,196.3,46.9z
					"/>
				<path class="st4" d="M210.9,46.9c-0.2,1.1,0,2.1,0.5,2.2s1-0.7,1.2-1.8c0.2-1.1,0-2.1-0.5-2.2S211.1,45.8,210.9,46.9z"/>
			</g>
		</g>
		<path class="st0" d="M212.3,44.1c-0.5-9.5-7.8-9-8.7-8.1c-0.8-0.8-8.1-1.5-8.6,8.1c0,0-1,1-0.1,4c0,0-0.5-3.9,1-2.6
			c0,0,0.3,1,0.2,2.3c0,0,0.4-2.7,0.8-3.6c0.2-0.4,1.1-1.1,2.1-1.6c0,0,7.2,4.2,11,3.6l0,0l0,0c0.3-0.1,0.6-0.1,0.9-0.3
			c0.2,0.9,0.3,1.9,0.3,1.9c-0.1-1.3,0.2-2.3,0.2-2.3c1.5-1.3,1,2.6,1,2.6C213.3,45.2,212.3,44.1,212.3,44.1z"/>
	</g>
	<g>
		<g>
			<path class="st6" d="M177,38.6l-12.7,0.9l-12.7-0.9c0,0,1.4,6.7,1.2,10.7c-0.2,3.9,0.7,6.2,0.7,6.2h10.8h10.8
				c0,0,0.9-2.3,0.7-6.2C175.5,45.3,177,38.6,177,38.6z"/>
			<g>
				<path class="st1" d="M164.1,48h-6.5v9.7c0,1.1,2.9,2,6.5,2s6.5-0.9,6.5-2V48H164.1z"/>
				<polygon class="st2" points="155.6,53.5 155.6,76.5 173,76.5 173,53.5 164.3,56.9 				"/>
				<polygon class="st3" points="164.3,56.9 155.6,53.5 152.7,55.5 156.4,62.3 				"/>
				<polygon class="st3" points="164.3,56.9 173,53.5 175.8,55.5 172.2,61.9 				"/>
				<path class="st4" d="M190.9,107.8c0,3.1-1.5,5.7-3.4,5.7s-3.4-2.5-3.4-5.7c0-3.1,1.5-5.7,3.4-5.7
					C189.4,102.1,190.9,104.6,190.9,107.8z"/>
				<path class="st4" d="M144.4,107.8c0,3.1-1.5,5.7-3.4,5.7s-3.4-2.5-3.4-5.7c0-3.1,1.5-5.7,3.4-5.7
					C142.9,102.1,144.4,104.6,144.4,107.8z"/>
				<path class="st7" d="M190.9,106.3c0,0-0.8-32.6-1.1-40.8c-0.3-7.3-4.8-8.6-5.7-8.8l0,0l-8.3-1.2l-11.5,8.3l-11.5-8.3l-8.3,1.2
					l0,0c-0.9,0.2-5.4,1.5-5.7,8.8c-0.3,8.1-1.1,40.8-1.1,40.8h7l1-27.4l2,27.3l16.7,0.1l16.7-0.1l2-27.3l1,27.4H190.9z"/>
			</g>
			<path class="st4" d="M162.3,53.6c0.6,0.1,1.3,0.2,1.9,0.2c0.7,0,1.3-0.1,1.9-0.2c2.9-0.9,8.1-8.7,8.1-8.7c0.6-1.9,1.4-4.8,1.4-7
				c0-8.8-5.1-15.9-11.5-15.9c-6.3,0-11.5,7.1-11.5,15.9c0,2.2,0.9,5.2,1.5,7.1C154.3,45,159.5,52.7,162.3,53.6z"/>
			<g>
				<path class="st4" d="M153.8,36.9c0.3,1.6,0,3-0.7,3.1s-1.5-1-1.8-2.5c-0.3-1.6,0-3,0.7-3.1C152.7,34.2,153.5,35.3,153.8,36.9z"
					/>
				<path class="st4" d="M174.8,36.9c-0.3,1.6,0,3,0.7,3.1c0.7,0.2,1.5-1,1.8-2.5c0.3-1.6,0-3-0.7-3.1
					C175.9,34.2,175.1,35.3,174.8,36.9z"/>
			</g>
			<path class="st6" d="M176.8,32.9C176,19.1,165.6,20,164.2,21.1c-1.1-1.2-11.7-2.2-12.5,11.8c0,0-1.4,1.5-0.1,5.7
				c0,0-0.8-5.6,1.4-3.7c0,0,0.5,1.4,0.4,3.3c0,0,0.6-3.9,1.2-5.2c0.6-1.2,4.7-3.7,7.5-3.7c1.6,0,2.1,0,2.2,0l0,0l0,0l0,0l0,0
				c0.2,0,0.7,0,2.2,0c2.7,0,6.8,2.5,7.5,3.7c0.6,1.2,1.2,5.2,1.2,5.2c-0.1-1.8,0.4-3.3,0.4-3.3c2.2-1.9,1.4,3.7,1.4,3.7
				C178.2,34.4,176.8,32.9,176.8,32.9z"/>
		</g>
		<path class="st6" d="M175.1,32.3l-0.6-1c0,0,0.1,0,0.1-0.1l-1.7-2.6c0,0-10.1-3.7-10.4-3.6c-0.1,0-2.5,1.4-4.6,2.7h-0.4
			c0,0,0.1,0.1,0.2,0.2c-1.5,0.9-2.8,1.7-2.8,1.7s4.7,2.4,10.4,3.3c0.4,0.1,0.7,0.1,1,0.1l0,0c0.7,0.1,1.5,0.1,2.2,0.2
			c2.4,0.3,3.8,0.9,3.8,0.9c-0.4-0.4-1.5-0.7-2.5-0.9c0.7,0,1.5-0.1,2.2-0.2c0.8,0.8,1.3,1.7,1.2,2.9c0,0,0.3-1.6-0.7-3
			C173.6,32.7,174.4,32.5,175.1,32.3z"/>
	</g>
	<g>
		<g>
			<g>
				<g>
					<path class="st1" d="M59.9,48h-6.5v9.7c0,1.1,2.9,2,6.5,2s6.5-0.9,6.5-2V48H59.9z"/>
					<polygon class="st2" points="51.4,53.5 51.4,76.5 68.8,76.5 68.8,53.5 60.1,56.9 					"/>
					<polygon class="st3" points="60.1,56.9 51.4,53.5 48.6,55.5 52.2,62.3 					"/>
					<polygon class="st3" points="60.1,56.9 68.8,53.5 71.6,55.5 68,61.9 					"/>
					<path class="st4" d="M86.7,107.8c0,3.1-1.5,5.7-3.4,5.7s-3.4-2.5-3.4-5.7c0-3.1,1.5-5.7,3.4-5.7
						C85.2,102.1,86.7,104.6,86.7,107.8z"/>
					<path class="st4" d="M40.2,107.8c0,3.1-1.5,5.7-3.4,5.7s-3.4-2.5-3.4-5.7c0-3.1,1.5-5.7,3.4-5.7
						C38.7,102.1,40.2,104.6,40.2,107.8z"/>
					<path class="st8" d="M86.7,106.3c0,0-0.8-32.6-1.1-40.8c-0.3-7.3-4.8-8.6-5.7-8.8l0,0l-8.3-1.2l-11.5,8.3l-11.5-8.3l-8.3,1.2
						l0,0c-0.9,0.2-5.4,1.5-5.7,8.8c-0.3,8.1-1.1,40.8-1.1,40.8h7l1-27.4l2,27.3l16.7,0.1l16.7-0.1l2-27.3l1,27.4H86.7z"/>
				</g>
				<path class="st4" d="M58.2,53.6c0.6,0.1,1.3,0.2,1.9,0.2c0.7,0,1.3-0.1,1.9-0.2c2.9-0.9,8.1-8.7,8.1-8.7c0.6-1.9,1.4-4.8,1.4-7
					C71.5,29.1,66.4,22,60,22s-11.5,7.1-11.5,15.9c0,2.2,0.9,5.2,1.5,7.1C50.1,45,55.3,52.7,58.2,53.6z"/>
				<g>
					<path class="st4" d="M49.6,36.9c0.3,1.6,0,3-0.7,3.1c-0.7,0.2-1.5-1-1.8-2.5c-0.3-1.6,0-3,0.7-3.1
						C48.5,34.2,49.3,35.3,49.6,36.9z"/>
					<path class="st4" d="M70.6,36.9c-0.3,1.6,0,3,0.7,3.1c0.7,0.2,1.5-1,1.8-2.5c0.3-1.6,0-3-0.7-3.1
						C71.7,34.2,70.9,35.3,70.6,36.9z"/>
				</g>
				<path class="st0" d="M72.6,32.9C71.8,19.1,61.4,20,60,21.1c-1.1-1.2-11.7-2.2-12.5,11.8c0,0-1.4,1.5-0.1,5.7
					c0,0-0.8-5.6,1.4-3.7c0,0,0.5,1.4,0.4,3.3c0,0,0.6-3.9,1.2-5.2c0.6-1.2,4.7-3.7,7.5-3.7c1.6,0,2.1,0,2.2,0l0,0l0,0l0,0l0,0
					c0.2,0,0.7,0,2.2,0c2.7,0,6.8,2.5,7.5,3.7c0.6,1.2,1.2,5.2,1.2,5.2c-0.1-1.8,0.4-3.3,0.4-3.3c2.2-1.9,1.4,3.7,1.4,3.7
					C74,34.4,72.6,32.9,72.6,32.9z"/>
			</g>
			<path class="st0" d="M70.9,32.3l-0.6-1c0,0,0.1,0,0.1-0.1l-1.7-2.6c0,0-10.1-3.7-10.4-3.6c-0.1,0-2.5,1.4-4.6,2.7h-0.4
				c0,0,0.1,0.1,0.2,0.2c-1.5,0.9-2.8,1.7-2.8,1.7s4.7,2.4,10.4,3.3c0.4,0.1,0.7,0.1,1,0.1l0,0c0.7,0.1,1.5,0.1,2.2,0.2
				c2.4,0.3,3.8,0.9,3.8,0.9c-0.4-0.4-1.5-0.7-2.5-0.9c0.7,0,1.5-0.1,2.2-0.2c0.8,0.8,1.3,1.7,1.2,2.9c0,0,0.3-1.6-0.7-3
				C69.4,32.7,70.2,32.5,70.9,32.3z"/>
		</g>
		<polygon class="st6" points="60.1,56.9 56,59.7 56.7,61.3 60.1,63.8 63.5,61.3 64.2,59.7 		"/>
	</g>
	<g>
		<path class="st1" d="M113.1,34h-9.6v12.8c0,1.5,4.3,2.6,9.6,2.6s9.6-1.2,9.6-2.6V34H113.1z"/>
		<g>
			<path class="st4" d="M110.7,40.9c0.8,0.2,1.6,0.3,2.4,0.3s1.6-0.1,2.4-0.3c3.6-1.1,10.9-11.9,10.9-11.9c0.7-2.4,1.2-5.1,1.2-7.8
				c0-11-6.5-20-14.5-20s-14.5,9-14.5,20c0,2.8,0.4,5.4,1.2,7.8C99.8,29,107.1,39.8,110.7,40.9z"/>
			<g>
				<path class="st4" d="M99.9,20c0.4,2,0,3.7-0.9,4c-0.9,0.2-1.9-1.2-2.3-3.2c-0.4-2,0-3.7,0.9-4C98.5,16.6,99.6,18,99.9,20z"/>
				<path class="st4" d="M126.4,20c-0.4,2,0,3.7,0.9,4c0.9,0.2,1.9-1.2,2.3-3.2c0.4-2,0-3.7-0.9-4C127.7,16.6,126.7,18,126.4,20z"/>
			</g>
			<path class="st9" d="M113.1,0c-8.5,0-15.3,7.3-15.3,16.3c0,0.2,0,0.3,0,0.5c0.1,0,1.1,0.2,1.1,2.5c0,1.4,0,1.8,0,1.9l1.3,0.7
				c0,0,0.2-8.8,6.3-9.1h6.6h6.6c6.2,0.3,6.3,9.1,6.3,9.1l1.3-0.7c0-0.1,0-0.5,0-1.9c0.1-2.3,1-2.5,1.1-2.5c0-0.2,0-0.3,0-0.5
				C128.5,7.3,121.6,0,113.1,0z"/>
			<path class="st9" d="M101.5,11.5c0,0,12.7,8.4,24,4.1c0,0,0.5-6.1-5.4-7C114.3,7.7,101.5,11.5,101.5,11.5z"/>
		</g>
		<polygon class="st2" points="101.6,41.2 101.6,71.8 124.7,71.8 124.7,41.2 113.1,45.7 		"/>
		<polygon class="st10" points="113.1,46.8 109.7,65.6 113.1,72.5 116.6,65.6 		"/>
		<polygon class="st10" points="113.1,45.7 108.7,47.7 113.1,52.2 117.2,47.7 		"/>
		<polygon class="st3" points="113.1,45.7 101.6,41.2 97.8,43.9 102.7,52.9 		"/>
		<polygon class="st3" points="113.1,45.7 124.7,41.2 128.5,43.9 123.6,52.4 		"/>
		<path class="st4" d="M148.6,113.5c0,4.2-2,7.5-4.5,7.5s-4.5-3.4-4.5-7.5c0-4.2,2-7.5,4.5-7.5S148.6,109.3,148.6,113.5z"/>
		<path class="st4" d="M86.7,113.5c0,4.2-2,7.5-4.5,7.5s-4.5-3.4-4.5-7.5c0-4.2,2-7.5,4.5-7.5C84.7,105.9,86.7,109.3,86.7,113.5z"/>
		<path class="st11" d="M148.6,111.4c0,0-1.1-43.4-1.5-54.2c-0.4-9.7-6.4-11.4-7.6-11.7l0,0l-11.1-1.6L113.1,55L97.8,43.9l-11.1,1.6
			l0,0c-1.2,0.2-7.2,2-7.6,11.7c-0.4,10.8-1.5,54.2-1.5,54.2h9.3L88.2,75l2.6,36.3l22.2,0.1l22.2-0.1l2.6-36.4l1.3,36.5H148.6z"/>
	</g>
	<g>
		<g>
			<g>
				<g>
					<path class="st1" d="M18.3,54.6h-4.5v6.7c0,0.8,2,1.4,4.5,1.4s4.5-0.6,4.5-1.4v-6.7H18.3z"/>
					<polygon class="st2" points="12.4,58.4 12.4,74.3 24.4,74.3 24.4,58.4 18.4,60.7 					"/>
					<polygon class="st3" points="18.4,60.7 12.4,58.4 10.4,59.7 13,64.4 					"/>
					<polygon class="st3" points="18.4,60.7 24.4,58.4 26.4,59.7 23.9,64.2 					"/>
					<path class="st4" d="M36.8,95.9c0,2.2-1.1,3.9-2.3,3.9c-1.3,0-2.3-1.8-2.3-3.9c0-2.2,1.1-3.9,2.3-3.9
						C35.8,92,36.8,93.8,36.8,95.9z"/>
					<path class="st4" d="M4.7,95.9c0,2.2-1.1,3.9-2.3,3.9c-1.3,0-2.3-1.8-2.3-3.9c0-2.2,1.1-3.9,2.3-3.9S4.7,93.8,4.7,95.9z"/>
					<path class="st12" d="M36.8,94.9c0,0-0.6-22.6-0.8-28.2c-0.2-5.1-3.3-6-3.9-6.1l0,0l-5.7-0.8l-8,5.8l-8-5.8l-5.7,0.8l0,0
						c-0.6,0.1-3.7,1-3.9,6.1C0.6,72.3,0,94.9,0,94.9h4.8L5.5,76l1.4,18.9L18.4,95l11.5-0.1L31.3,76L32,95h4.8V94.9z"/>
				</g>
				<path class="st4" d="M17.1,58.4c0.4,0.1,0.9,0.2,1.3,0.2c0.5,0,0.9-0.1,1.3-0.2c2-0.6,5.6-6,5.6-6c0.4-1.3,1-3.3,1-4.8
					c0-6.1-3.6-11-7.9-11c-4.4,0-7.9,4.9-7.9,11c0,1.5,0.7,3.6,1.1,4.9C11.5,52.5,15.1,57.8,17.1,58.4z"/>
				<g>
					<path class="st4" d="M11.2,46.9c0.2,1.1,0,2.1-0.5,2.2s-1-0.7-1.2-1.8c-0.2-1.1,0-2.1,0.5-2.2C10.4,45,10.9,45.8,11.2,46.9z"/>
					<path class="st4" d="M25.7,46.9c-0.2,1.1,0,2.1,0.5,2.2s1-0.7,1.2-1.8c0.2-1.1,0-2.1-0.5-2.2C26.4,45,25.9,45.8,25.7,46.9z"/>
				</g>
			</g>
		</g>
		<path class="st9" d="M27.1,44.1c-0.3-5.5-2.8-7.6-5.1-8.3l-3.1-1.5c0,0-3.6,0.8-5.1,1.4c-0.4,0.2-0.9,0.7-1.3,1.4
			c-1.4,1.3-2.5,3.4-2.7,7c0,0-1,1-0.1,4c0,0-0.5-3.9,1-2.6c0,0,0.3,1,0.2,2.3c0,0,0.4-2.7,0.8-3.6c0.4-0.7,2.3-2,4-2.4l7.6,0.9
			c0.9,0.5,1.7,1.1,1.9,1.5c0.4,0.9,0.8,3.6,0.8,3.6c-0.1-1.3,0.2-2.3,0.2-2.3c1.5-1.3,1,2.6,1,2.6C28.1,45.2,27.1,44.1,27.1,44.1z"
			/>
	</g>
</g>
</svg>
