<?xml version="1.0" encoding="utf-8"?>
<!-- Generator: Adobe Illustrator 22.1.0, SVG Export Plug-In . SVG Version: 6.00 Build 0)  -->
<svg version="1.1" id="Objects" xmlns="http://www.w3.org/2000/svg" xmlns:xlink="http://www.w3.org/1999/xlink" x="0px" y="0px"
	 viewBox="0 0 800 800" style="enable-background:new 0 0 800 800;" xml:space="preserve">
<style type="text/css">
	.st0{fill:#31333A;}
	.st1{font-family:'OpenSans';}
	.st2{font-size:10.8714px;}
	.st3{fill:#F4992C;}
	.st4{fill:#FCC83B;}
	.st5{fill:#8D8C8C;}
	.st6{fill:#BBBBBA;}
	.st7{fill:#ADADAD;}
</style>
<g>
	<text transform="matrix(1 0 0 1 157.3135 560.8037)"><tspan x="0" y="0" class="st0 st1 st2">WORK</tspan><tspan x="-11.7" y="13" class="st0 st1 st2">TOGHETER</tspan></text>
	<g>
		<g>
			<g>
				<path class="st3" d="M173.8,452.4c-1-0.5-2.1-0.8-3.3-0.8c-3.2,0-5.9,2-7,4.9c0.1,0.5,0.3,1.1,0.5,1.6c0.7,1.7,2.1,3.7,4,4
					c0.1-0.3,0.2-0.5,0.3-0.8c0.6-1,1.6-1.5,2.7-1.3c0.5,0.1,0.3,0.8-0.2,0.8c-0.9-0.1-1.9,0.6-2.1,1.5c-0.2,0.9,0,1.7,0.5,2.5
					c0.2,0.5-0.4,0.9-0.7,0.4c-0.4-0.7-0.7-1.5-0.7-2.3c0,0-0.1,0-0.1,0c-2.1-0.3-3.7-2.5-4.5-4.3c-0.3-0.7-0.5-1.4-0.7-2.1
					c-0.7-0.3-1.6-0.5-2.5-0.5c-3.2,0-5.8,2.6-5.8,5.8c0,0,0,0.1,0,0.1c-3.7,0.3-6.5,3.3-6.5,7.1c0,0.4,0,0.7,0.1,1.1
					c1.8,1.5,3.8,2.6,6.1,2.9c0.8,0.1,1.6,0.1,2.5,0c-1.5-0.8-2.5-2.5-2.4-4.3c-0.7-0.5-1.2-1.4-1.4-2.3c-0.1-0.5,0.6-0.7,0.8-0.2
					c0.2,0.6,0.4,1.3,0.9,1.8c0.2,0,0.4,0.1,0.5,0.3c0.6,0.3,1.3,0.2,1.8-0.4c0.3-0.4,0.9,0.2,0.6,0.6c-0.6,0.7-1.5,0.9-2.4,0.6
					c0.1,1.7,1.4,3.3,3.1,3.6c0,0,0,0,0.1,0c1.6-0.5,3.1-1.4,4.2-2.8c-0.1-0.6-0.1-1.1-0.2-1.7c0-0.5,0.8-0.5,0.8,0
					c0.1,1.5,0.6,4.7,2.9,3.9c0.5-0.2,0.7,0.6,0.2,0.8c-1,0.3-2.2-0.1-2.9-0.9c-0.3-0.4-0.5-0.7-0.6-1.1c-2,2.2-5.1,3.3-8.1,3
					c-2.4-0.3-4.7-1.3-6.6-2.8c-2.2,1.2-3.7,3.5-3.7,6.1c0,1.4,0.4,2.7,1.1,3.8c0,0,0,0,0,0c1.1,1.2,2.6,2,4.2,2.3
					c2.4,0.5,5.1,0,6.3-2.2c-0.6-0.6-1-1.4-1.5-2.1c-0.3-0.4,0.4-0.8,0.7-0.4c0.4,0.6,0.8,1.3,1.2,1.9c0.2,0,0.5,0.2,0.5,0.5
					c0.2,0.2,0.4,0.3,0.6,0.5c0.9,0.6,2.2,0.8,3.1,0c0.4-0.3,0.9,0.2,0.6,0.6c-0.9,0.9-2.3,1-3.5,0.5c-0.4-0.2-0.8-0.4-1.1-0.7
					c-0.7,1.2-1.9,2-3.3,2.4c0.6,2.6,3.1,4.3,5.8,3.9c0.1-0.5,0.3-1,0.5-1.4c0.2-0.5,0.9-0.3,0.8,0.2c-0.3,0.9-0.8,2-0.5,3
					c0.2,0.8,1,1.6,1.9,1.3c0.5-0.2,0.7,0.6,0.2,0.8c-1,0.3-2.1-0.2-2.6-1.2c-0.3-0.6-0.4-1.2-0.3-1.9c-3,0.3-5.7-1.6-6.4-4.5
					c-0.9,0.1-1.9,0.1-2.8-0.1c-1.8-0.4-3.6-1.3-4.9-2.6c-1.2,1.2-1.9,2.9-1.9,4.7c0,2,0.9,3.8,2.3,5.1c1.7-0.6,3.6-0.9,5.1,0.4
					c0.1,0.1,0.1,0.1,0.1,0.2c0.4-0.6,1-1,1.6-1.3c0.5-0.2,0.9,0.5,0.4,0.7c-1.1,0.5-1.9,1.5-2.1,2.8c-0.1,0.5-0.8,0.3-0.8-0.2
					c0.1-0.5,0.3-1,0.5-1.4c-0.1,0-0.3,0-0.4-0.1c-1.5-1.2-3.4-0.7-5,0c-0.2,0.6-0.3,1.3-0.3,2c0,2.7,1.8,5,4.3,5.7
					c1.7-2.9,5.2-5.1,8.3-3.2c0,0,0,0,0,0c0.6-0.5,1.4-0.8,2.3-0.6c0.5,0.1,0.3,0.8-0.2,0.8c-1.6-0.2-2.7,1.2-2.3,2.7
					c0.1,0.5-0.6,0.7-0.8,0.2c-0.3-0.9-0.1-1.8,0.4-2.4c-2.5-1.5-5.4,0.4-7,2.8c0,0,0.1,0,0.1,0c-0.2,0.6-0.2,1.2-0.2,1.9
					c0,3.9,3.1,7.1,6.9,7.3c0.5-1,1.2-2,2.2-2.6c-0.2-1.1-0.2-2.2,0-3.2c-0.3-0.4-0.6-0.8-0.7-1.3c-0.2-0.5,0.6-0.7,0.8-0.2
					c0.2,0.8,0.8,1.3,1.6,1.6c0.1-0.1,0.2-0.1,0.3-0.2c0.4-0.3,0.8,0.4,0.4,0.7c-0.4,0.2-0.6,0.4-1.1,0.3c-0.2-0.1-0.4-0.2-0.6-0.3
					c-0.1,0.8-0.1,1.5,0,2.3c0.4-0.2,0.7-0.3,1.1-0.3c0.1,0,0.2,0,0.2,0c0.3-0.4,0.6-0.7,0.9-1c0.4-0.3,1,0.2,0.6,0.6
					c-0.9,0.7-2,2.1-0.9,3.1c0.4,0.3-0.2,0.9-0.6,0.6c-0.8-0.7-0.9-1.6-0.5-2.4c-1.4,0.4-2.6,1.4-3.1,2.8c1.8,2.8,4.9,4.6,8.4,4.6
					c3.5,0,6.7-1.8,8.4-4.6V452.4z M161.5,460.8c-1.4-0.2-2.8,0.7-3.1,2.1c-0.1,0.5-0.9,0.3-0.8-0.2c0.5-1.8,2.3-2.9,4.1-2.7
					C162.2,460.1,162,460.8,161.5,460.8z M150,475.9c-0.7,1-0.9,2.2-0.4,3.3c0.2,0.5-0.6,0.7-0.8,0.2c-0.5-1.3-0.3-2.8,0.5-4
					C149.6,475,150.3,475.4,150,475.9z M167.3,479.3c0.2-0.5,0.9-0.1,0.7,0.4c-0.8,1.5-0.6,3.3,0.3,4.7c0.3,0.4-0.4,0.8-0.7,0.4
					C166.5,483.1,166.4,481,167.3,479.3z M170.6,503.2c-2.5,1-5.3-0.5-6-3.1c-0.1-0.5,0.6-0.7,0.8-0.2c0.6,2.2,2.9,3.3,5,2.5
					C170.9,502.3,171.1,503,170.6,503.2z"/>
				<path class="st4" d="M176.7,509.4c1.8,2.8,4.9,4.6,8.4,4.6c3.5,0,6.6-1.8,8.4-4.6c-0.6-1.3-1.7-2.4-3.1-2.8
					c0.3,0.8,0.3,1.7-0.5,2.4c-0.4,0.3-1-0.2-0.6-0.6c1.2-1,0-2.4-0.9-3.1c-0.4-0.3,0.2-0.9,0.6-0.6c0.3,0.3,0.7,0.6,0.9,1
					c0.1,0,0.1,0,0.2,0c0.4,0.1,0.8,0.2,1.1,0.3c0.1-0.8,0.1-1.5,0-2.3c-0.2,0.1-0.4,0.2-0.6,0.3c-0.5,0.2-0.7,0-1.1-0.3
					c-0.4-0.3,0-1,0.4-0.7c0.1,0.1,0.2,0.1,0.3,0.2c0.8-0.2,1.4-0.8,1.6-1.6c0.2-0.5,0.9-0.3,0.8,0.2c-0.2,0.5-0.4,0.9-0.7,1.3
					c0.2,1.1,0.2,2.2,0,3.2c1,0.6,1.8,1.5,2.2,2.6c3.9-0.2,6.9-3.4,6.9-7.3c0-0.6-0.1-1.3-0.2-1.9c0,0,0.1,0,0.1,0
					c-1.5-2.4-4.4-4.2-7-2.8c0.5,0.7,0.6,1.5,0.4,2.4c-0.1,0.5-0.9,0.3-0.8-0.2c0.4-1.5-0.8-2.9-2.3-2.7c-0.5,0.1-0.7-0.7-0.2-0.8
					c0.9-0.1,1.7,0.1,2.3,0.6c0,0,0,0,0,0c3-1.9,6.6,0.3,8.3,3.2c2.5-0.7,4.3-3,4.3-5.7c0-0.7-0.1-1.3-0.3-2c-1.6-0.7-3.5-1.2-5,0
					c-0.1,0.1-0.3,0.1-0.4,0.1c0.2,0.4,0.4,0.9,0.5,1.4c0.1,0.5-0.7,0.7-0.8,0.2c-0.2-1.2-0.9-2.2-2.1-2.8c-0.5-0.2-0.1-0.9,0.4-0.7
					c0.6,0.3,1.2,0.8,1.6,1.3c0-0.1,0.1-0.1,0.1-0.2c1.6-1.3,3.4-1,5.1-0.4c1.4-1.2,2.3-3,2.3-5.1c0-1.8-0.7-3.5-1.9-4.7
					c-1.3,1.3-3,2.2-4.9,2.6c-0.9,0.2-1.9,0.2-2.8,0.1c-0.7,3-3.4,4.8-6.4,4.5c0.1,0.6,0,1.3-0.3,1.9c-0.5,0.9-1.6,1.5-2.6,1.2
					c-0.5-0.2-0.3-0.9,0.2-0.8c0.9,0.3,1.7-0.5,1.9-1.3c0.3-1-0.2-2.1-0.5-3c-0.2-0.5,0.6-0.7,0.8-0.2c0.2,0.5,0.3,0.9,0.5,1.4
					c2.7,0.4,5.1-1.3,5.8-3.9c-1.3-0.4-2.5-1.1-3.3-2.4c-0.3,0.3-0.7,0.5-1.1,0.7c-1.2,0.5-2.5,0.4-3.5-0.5
					c-0.4-0.3,0.2-0.9,0.6-0.6c0.9,0.8,2.1,0.6,3.1,0c0.2-0.1,0.4-0.3,0.6-0.5c0-0.3,0.2-0.5,0.5-0.5c0.5-0.6,0.9-1.2,1.2-1.9
					c0.3-0.4,1,0,0.7,0.4c-0.4,0.7-0.9,1.5-1.5,2.1c1.2,2.2,4,2.7,6.3,2.2c1.6-0.4,3.1-1.2,4.2-2.3c0,0,0,0,0,0
					c0.7-1.1,1.1-2.4,1.1-3.8c0-2.6-1.5-4.9-3.7-6.1c-1.9,1.5-4.1,2.5-6.6,2.8c-3,0.3-6.1-0.8-8.1-3c-0.1,0.4-0.3,0.8-0.6,1.1
					c-0.7,0.9-1.9,1.3-2.9,0.9c-0.5-0.2-0.3-0.9,0.2-0.8c2.3,0.8,2.8-2.4,2.9-3.9c0-0.5,0.8-0.5,0.8,0c0,0.6-0.1,1.2-0.2,1.7
					c1.1,1.4,2.5,2.3,4.2,2.8c0,0,0,0,0.1,0c1.7-0.3,3.1-1.9,3.1-3.6c-0.8,0.3-1.8,0-2.4-0.6c-0.3-0.4,0.2-1,0.6-0.6
					c0.5,0.6,1.2,0.6,1.8,0.4c0.1-0.2,0.3-0.3,0.5-0.3c0.5-0.4,0.8-1.2,0.9-1.8c0.1-0.5,0.9-0.3,0.8,0.2c-0.2,0.9-0.7,1.8-1.4,2.3
					c0.1,1.8-0.9,3.5-2.4,4.3c0.8,0.1,1.6,0.1,2.5,0c2.3-0.3,4.4-1.4,6.1-2.9c0.1-0.3,0.1-0.7,0.1-1.1c0-3.7-2.9-6.8-6.5-7.1
					c0,0,0-0.1,0-0.1c0-3.2-2.6-5.8-5.8-5.8c-0.9,0-1.7,0.2-2.5,0.5c-0.1,0.7-0.4,1.4-0.7,2.1c-0.8,1.8-2.4,4-4.5,4.3
					c0,0-0.1,0-0.1,0c0,0.8-0.3,1.6-0.7,2.3c-0.2,0.5-0.9,0-0.7-0.4c0.4-0.8,0.7-1.6,0.5-2.5c-0.2-0.9-1.1-1.7-2.1-1.5
					c-0.5,0.1-0.7-0.7-0.2-0.8c1.1-0.2,2.1,0.4,2.7,1.3c0.2,0.2,0.3,0.5,0.3,0.8c1.9-0.3,3.3-2.4,4-4c0.2-0.5,0.4-1,0.5-1.6
					c-1.1-2.8-3.8-4.9-7-4.9c-1.2,0-2.3,0.3-3.3,0.8V509.4z M188.9,460c1.8-0.3,3.6,0.8,4.1,2.7c0.1,0.5-0.6,0.7-0.8,0.2
					c-0.4-1.4-1.7-2.3-3.1-2.1C188.6,460.8,188.4,460.1,188.9,460z M201.3,475.4c0.8,1.2,1,2.6,0.5,4c-0.2,0.5-1,0.3-0.8-0.2
					c0.5-1.1,0.3-2.3-0.4-3.3C200.3,475.4,201,475,201.3,475.4z M182.9,484.8c-0.3,0.4-1,0-0.7-0.4c1-1.4,1.1-3.2,0.3-4.7
					c-0.2-0.5,0.5-0.9,0.7-0.4C184.2,481,184.1,483.1,182.9,484.8z M180.1,502.4c2.1,0.8,4.4-0.3,5-2.5c0.1-0.5,0.9-0.3,0.8,0.2
					c-0.7,2.6-3.4,4-6,3.1C179.4,503,179.6,502.3,180.1,502.4z"/>
			</g>
		</g>
		<g>
			<g>
				<path class="st5" d="M163.5,520.3l23.6,0c0.3,0,0.6-0.3,0.6-0.6l0-1.3c0-0.3-0.3-0.6-0.6-0.6l-23.6,0c-0.3,0-0.6,0.3-0.6,0.6
					l0,1.3C163,520,163.2,520.3,163.5,520.3z"/>
				<path class="st6" d="M186.3,520.2c0.1,0.4,0.1,0.8,0.1,1.2l0,9.4c0,3.5-2.9,6.4-6.4,6.4l-9.4,0c-3.5,0-6.4-2.9-6.4-6.4l0-9.4
					c0-0.4,0-0.8,0.1-1.2L186.3,520.2z"/>
				<path class="st7" d="M179.8,537.2c-0.8,0.8-2.5,1.3-4.5,1.3c-2,0-3.7-0.5-4.5-1.3L179.8,537.2z"/>
				<path class="st5" d="M163.4,525.8l23.2,6.1c0.4,0.1,0.7-0.1,0.8-0.5l0.4-1.5c0.1-0.4-0.1-0.7-0.5-0.8l-23.2-6.1
					c-0.4-0.1-0.7,0.1-0.8,0.5l-0.4,1.5C162.8,525.4,163,525.7,163.4,525.8z"/>
				<path class="st5" d="M163,531.1l22.7,5.9c0.1,0,0.3,0,0.3-0.2l0.6-2.3c0-0.1,0-0.3-0.2-0.3l-22.7-5.9c-0.1,0-0.3,0-0.3,0.2
					l-0.6,2.3C162.8,530.9,162.8,531.1,163,531.1z"/>
				<path class="st5" d="M173.9,520.2l12.7,3.3c0.8,0.2,1.2,1,1,1.8c-0.2,0.8-1,1.2-1.8,1l-21.7-5.7c-0.3-0.1-0.5-0.2-0.7-0.4
					L173.9,520.2z"/>
			</g>
		</g>
	</g>
</g>
</svg>
