<?xml version="1.0" encoding="utf-8"?>
<!-- Generator: Adobe Illustrator 22.1.0, SVG Export Plug-In . SVG Version: 6.00 Build 0)  -->
<svg version="1.1" id="Objects" xmlns="http://www.w3.org/2000/svg" xmlns:xlink="http://www.w3.org/1999/xlink" x="0px" y="0px"
	 viewBox="0 0 800 800" style="enable-background:new 0 0 800 800;" xml:space="preserve">
<style type="text/css">
	.st0{fill:#EFE3BF;}
	.st1{fill:#8D8C8C;}
	.st2{fill:#34B2E4;}
	.st3{fill:#566E6F;}
	.st4{fill:#FCAF38;}
	.st5{fill:#518780;}
	.st6{fill:#5D5C54;}
</style>
<g>
	<g>
		
			<rect x="592.3" y="472.2" transform="matrix(0.973 -0.2307 0.2307 0.973 -101.6983 158.5318)" class="st0" width="69.8" height="84.1"/>
		
			<rect x="588.2" y="477.5" transform="matrix(0.973 -0.2307 0.2307 0.973 -93.8645 155.671)" class="st1" width="61.3" height="3.6"/>
		
			<rect x="589.8" y="485.4" transform="matrix(0.973 -0.2306 0.2306 0.973 -95.3585 156.2062)" class="st1" width="61.3" height="1.1"/>
		
			<rect x="590.6" y="488.9" transform="matrix(0.973 -0.2306 0.2306 0.973 -96.1283 156.4877)" class="st1" width="61.3" height="1.1"/>
		
			<rect x="591.7" y="494.4" transform="matrix(0.973 -0.2306 0.2306 0.973 -97.6261 154.7357)" class="st1" width="42.8" height="1.1"/>
		
			<rect x="592.5" y="497.9" transform="matrix(0.973 -0.2306 0.2306 0.973 -98.3972 155.0197)" class="st1" width="42.8" height="1.1"/>
		
			<rect x="593" y="499.2" transform="matrix(0.973 -0.2306 0.2306 0.973 -98.4346 157.3252)" class="st1" width="61.3" height="1.1"/>
		
			<rect x="594.2" y="505.3" transform="matrix(0.973 -0.2306 0.2306 0.973 -100.1204 155.0521)" class="st1" width="38.1" height="1.1"/>
		
			<rect x="601" y="532.8" transform="matrix(0.973 -0.2306 0.2306 0.973 -105.9722 160.0701)" class="st1" width="61.3" height="1.1"/>
		
			<rect x="605.2" y="550.7" transform="matrix(0.973 -0.2307 0.2307 0.973 -109.941 161.5212)" class="st1" width="61.3" height="0.6"/>
		
			<rect x="595.8" y="512.1" transform="matrix(0.973 -0.2307 0.2307 0.973 -101.6778 155.6184)" class="st1" width="37.9" height="1.1"/>
		
			<rect x="596.6" y="515.6" transform="matrix(0.973 -0.2307 0.2307 0.973 -102.4521 155.9087)" class="st1" width="37.9" height="1.1"/>
		
			<rect x="597.4" y="519" transform="matrix(0.973 -0.2306 0.2306 0.973 -103.2098 156.1658)" class="st1" width="37.9" height="1.1"/>
		<polygon class="st1" points="635.7,519.1 598.9,527.9 598.6,526.8 635.5,518.1 		"/>
		
			<rect x="598.7" y="523.2" transform="matrix(0.973 -0.2307 0.2307 0.973 -103.8237 159.2963)" class="st1" width="61.3" height="1.1"/>
		
			<rect x="599.5" y="526.6" transform="matrix(0.973 -0.2307 0.2307 0.973 -104.5945 159.5795)" class="st1" width="61.3" height="1.1"/>
		<g>
			<g>
				<path class="st2" d="M613.8,547.3c-2.2,0.5-3.6,2.7-3.1,5c0.5,2.2,2.7,3.6,5,3.1c2.2-0.5,3.6-2.7,3.1-5
					C618.2,548.1,616,546.8,613.8,547.3z M615.5,554.7c-1.8,0.4-3.7-0.7-4.1-2.6c-0.4-1.8,0.7-3.7,2.6-4.1c1.8-0.4,3.7,0.7,4.1,2.6
					C618.5,552.4,617.4,554.2,615.5,554.7z"/>
				<path class="st2" d="M617.3,550.7c0.3,1.4-0.5,2.8-2,3.2c-1.4,0.3-2.8-0.5-3.2-2c-0.3-1.4,0.5-2.8,2-3.2
					C615.5,548.4,617,549.3,617.3,550.7z"/>
				<path class="st2" d="M621.6,550.9l-1.1-0.3c0-0.1,0-0.2,0-0.3l0.9-0.6l-1.1-0.1c0-0.1-0.1-0.2-0.1-0.3l0.8-0.8l-1.1,0.1
					c0-0.1-0.1-0.2-0.1-0.2l0.7-0.9l-1.1,0.3c-0.1-0.1-0.1-0.1-0.2-0.2l0.5-1l-1,0.4c-0.1-0.1-0.1-0.1-0.2-0.2l0.3-1.1l-0.9,0.6
					c-0.1,0-0.2-0.1-0.2-0.1l0.1-1.1l-0.8,0.8c-0.1,0-0.2-0.1-0.3-0.1l-0.1-1.1l-0.7,0.9c-0.1,0-0.2,0-0.3-0.1l-0.3-1.1l-0.5,1
					c-0.1,0-0.2,0-0.3,0l-0.4-1l-0.3,1.1c-0.1,0-0.2,0-0.3,0l-0.6-0.9l-0.1,1.1c-0.1,0-0.2,0.1-0.3,0.1L612,545l0.1,1.1
					c-0.1,0-0.2,0.1-0.2,0.1l-0.9-0.7l0.3,1.1c-0.1,0.1-0.1,0.1-0.2,0.2l-1-0.5l0.4,1c-0.1,0.1-0.1,0.1-0.2,0.2l-1.1-0.3l0.6,0.9
					c0,0.1-0.1,0.2-0.1,0.2l-1.1-0.1l0.8,0.8c0,0.1-0.1,0.2-0.1,0.3l-1.1,0.1l0.9,0.7c0,0.1,0,0.2-0.1,0.3l-1.1,0.2l1,0.5
					c0,0.1,0,0.2,0,0.3l-1,0.4l1.1,0.3c0,0.1,0,0.2,0,0.3l-0.9,0.6l1.1,0.1c0,0.1,0.1,0.2,0.1,0.3l-0.8,0.8l1.1-0.1
					c0,0.1,0.1,0.2,0.1,0.2l-0.7,0.9l1.1-0.3c0.1,0.1,0.1,0.1,0.2,0.2l-0.5,1l1-0.4c0.1,0.1,0.1,0.1,0.2,0.2l-0.3,1.1l0.9-0.6
					c0.1,0.1,0.2,0.1,0.2,0.1l-0.1,1.1l0.8-0.8c0.1,0,0.2,0.1,0.3,0.1l0.1,1.1l0.7-0.9c0.1,0,0.2,0,0.3,0.1l0.2,1.1l0.5-1
					c0.1,0,0.2,0,0.3,0l0.4,1l0.3-1.1c0.1,0,0.2,0,0.3,0l0.6,0.9l0.1-1.1c0.1,0,0.2-0.1,0.3-0.1l0.8,0.8l-0.1-1.1
					c0.1,0,0.2-0.1,0.2-0.1l0.9,0.7l-0.3-1.1c0.1-0.1,0.1-0.1,0.2-0.2l1,0.5l-0.4-1c0.1-0.1,0.1-0.1,0.2-0.2l1.1,0.3l-0.6-0.9
					c0.1-0.1,0.1-0.2,0.1-0.2l1.1,0.1l-0.8-0.8c0-0.1,0.1-0.2,0.1-0.3l1.1-0.1l-0.9-0.7c0-0.1,0-0.2,0.1-0.3l1.1-0.3l-1-0.5
					c0-0.1,0-0.2,0-0.3L621.6,550.9z M615.9,556.1c-2.7,0.6-5.3-1-6-3.7c-0.6-2.7,1-5.3,3.7-6c2.7-0.6,5.3,1,6,3.7
					C620.2,552.8,618.5,555.5,615.9,556.1z"/>
				<path class="st2" d="M613.8,546.8c0,0.1,0,0.2-0.1,0.2c-0.1,0-0.2,0-0.2-0.1c0-0.1,0-0.2,0.1-0.2
					C613.7,546.7,613.8,546.7,613.8,546.8z"/>
				<path class="st2" d="M613.1,547.1c0,0.1,0,0.2-0.1,0.2c-0.1,0-0.2,0-0.2-0.1c0-0.1,0-0.2,0.1-0.2
					C612.9,546.9,613,547,613.1,547.1z"/>
				<path class="st2" d="M612.3,547.4c0,0.1,0,0.2,0,0.2c-0.1,0-0.2,0-0.2,0c0-0.1,0-0.2,0-0.2C612.2,547.3,612.3,547.3,612.3,547.4
					z"/>
				<path class="st2" d="M611.7,547.9c0.1,0.1,0.1,0.2,0,0.2c-0.1,0.1-0.2,0.1-0.2,0c-0.1-0.1-0.1-0.2,0-0.2
					C611.6,547.8,611.6,547.8,611.7,547.9z"/>
				<path class="st2" d="M611.1,548.5c0.1,0,0.1,0.1,0,0.2c0,0.1-0.1,0.1-0.2,0c-0.1,0-0.1-0.1,0-0.2
					C611,548.4,611.1,548.4,611.1,548.5z"/>
				<path class="st2" d="M610.7,549.1c0.1,0,0.1,0.1,0.1,0.2c0,0.1-0.1,0.1-0.2,0.1c-0.1,0-0.1-0.1-0.1-0.2
					C610.6,549.1,610.6,549.1,610.7,549.1z"/>
				<path class="st2" d="M610.4,549.9c0.1,0,0.1,0.1,0.1,0.2c0,0.1-0.1,0.1-0.2,0.1c-0.1,0-0.1-0.1-0.1-0.2
					C610.2,549.9,610.3,549.8,610.4,549.9z"/>
				<path class="st2" d="M610.2,550.6c0.1,0,0.1,0.1,0.1,0.2c0,0.1-0.1,0.1-0.2,0.1c-0.1,0-0.1-0.1-0.1-0.2
					C610.1,550.7,610.1,550.6,610.2,550.6z"/>
				<path class="st2" d="M610.2,551.4c0.1,0,0.1,0.1,0.2,0.1c0,0.1-0.1,0.1-0.1,0.2c-0.1,0-0.1-0.1-0.2-0.1
					C610,551.5,610.1,551.4,610.2,551.4z"/>
				<path class="st2" d="M610.2,552.2c0.1,0,0.2,0,0.2,0.1c0,0.1,0,0.2-0.1,0.2c-0.1,0-0.2,0-0.2-0.1
					C610.1,552.3,610.2,552.2,610.2,552.2z"/>
				<path class="st2" d="M610.5,553c0.1,0,0.2,0,0.2,0.1c0,0.1,0,0.2-0.1,0.2c-0.1,0-0.2,0-0.2-0.1C610.4,553.1,610.4,553,610.5,553
					z"/>
				<path class="st2" d="M610.8,553.7c0.1,0,0.2,0,0.2,0c0,0.1,0,0.2,0,0.2c-0.1,0-0.2,0-0.2,0C610.7,553.8,610.8,553.7,610.8,553.7
					z"/>
				<path class="st2" d="M611.3,554.3c0.1-0.1,0.2-0.1,0.2,0c0.1,0.1,0.1,0.2,0,0.2c-0.1,0.1-0.2,0.1-0.2,0
					C611.2,554.5,611.2,554.4,611.3,554.3z"/>
				<path class="st2" d="M611.9,554.9c0-0.1,0.1-0.1,0.2,0c0.1,0,0.1,0.1,0,0.2c0,0.1-0.1,0.1-0.2,0
					C611.8,555,611.8,555,611.9,554.9z"/>
				<path class="st2" d="M612.5,555.3c0-0.1,0.1-0.1,0.2-0.1c0.1,0,0.1,0.1,0.1,0.2c0,0.1-0.1,0.1-0.2,0.1
					C612.5,555.5,612.5,555.4,612.5,555.3z"/>
				<path class="st2" d="M613.3,555.6c0-0.1,0.1-0.1,0.2-0.1c0.1,0,0.1,0.1,0.1,0.2c0,0.1-0.1,0.1-0.2,0.1
					C613.3,555.8,613.3,555.7,613.3,555.6z"/>
				<path class="st2" d="M614.1,555.8c0-0.1,0.1-0.1,0.2-0.1c0.1,0,0.1,0.1,0.1,0.2c0,0.1-0.1,0.1-0.2,0.1
					C614.1,556,614,555.9,614.1,555.8z"/>
				<path class="st2" d="M614.9,555.9c0-0.1,0.1-0.2,0.1-0.2c0.1,0,0.1,0.1,0.2,0.1c0,0.1-0.1,0.1-0.1,0.2
					C614.9,556,614.9,556,614.9,555.9z"/>
				<path class="st2" d="M615.6,555.8c0-0.1,0-0.2,0.1-0.2c0.1,0,0.2,0,0.2,0.1c0,0.1,0,0.2-0.1,0.2
					C615.7,555.9,615.7,555.9,615.6,555.8z"/>
				<path class="st2" d="M616.4,555.6c0-0.1,0-0.2,0.1-0.2c0.1,0,0.2,0,0.2,0.1c0,0.1,0,0.2-0.1,0.2
					C616.5,555.7,616.4,555.6,616.4,555.6z"/>
				<path class="st2" d="M617.1,555.2c0-0.1,0-0.2,0-0.2c0.1,0,0.2,0,0.2,0c0,0.1,0,0.2,0,0.2C617.3,555.3,617.2,555.3,617.1,555.2z
					"/>
				<path class="st2" d="M617.8,554.7c-0.1-0.1-0.1-0.2,0-0.2c0.1-0.1,0.1-0.1,0.2,0c0.1,0.1,0.1,0.2,0,0.2
					C617.9,554.8,617.8,554.8,617.8,554.7z"/>
				<path class="st2" d="M618.3,554.2c-0.1,0-0.1-0.1,0-0.2c0-0.1,0.1-0.1,0.2,0c0.1,0,0.1,0.1,0,0.2
					C618.5,554.2,618.4,554.2,618.3,554.2z"/>
				<path class="st2" d="M618.8,553.5c-0.1,0-0.1-0.1-0.1-0.2c0-0.1,0.1-0.1,0.2-0.1c0.1,0,0.1,0.1,0.1,0.2
					C618.9,553.5,618.8,553.5,618.8,553.5z"/>
				<path class="st2" d="M619.1,552.8c-0.1,0-0.1-0.1-0.1-0.2c0-0.1,0.1-0.1,0.2-0.1c0.1,0,0.1,0.1,0.1,0.2
					C619.2,552.7,619.1,552.8,619.1,552.8z"/>
				<path class="st2" d="M619.3,552c-0.1,0-0.1-0.1-0.1-0.2c0-0.1,0.1-0.1,0.2-0.1c0.1,0,0.1,0.1,0.1,0.2
					C619.4,551.9,619.3,552,619.3,552z"/>
				<path class="st2" d="M619.3,551.2c-0.1,0-0.1-0.1-0.2-0.1c0-0.1,0.1-0.1,0.1-0.2c0.1,0,0.1,0.1,0.2,0.1
					C619.4,551.1,619.4,551.2,619.3,551.2z"/>
				<path class="st2" d="M619.2,550.4c-0.1,0-0.2,0-0.2-0.1s0-0.2,0.1-0.2c0.1,0,0.2,0,0.2,0.1C619.3,550.3,619.3,550.4,619.2,550.4
					z"/>
				<path class="st2" d="M619,549.6c-0.1,0-0.2,0-0.2-0.1c0-0.1,0-0.2,0.1-0.2c0.1,0,0.2,0,0.2,0.1
					C619.1,549.5,619.1,549.6,619,549.6z"/>
				<path class="st2" d="M618.6,548.9c-0.1,0-0.2,0-0.2,0c0-0.1,0-0.2,0-0.2c0.1,0,0.2,0,0.2,0C618.7,548.8,618.7,548.9,618.6,548.9
					z"/>
				<path class="st2" d="M618.2,548.3c-0.1,0.1-0.2,0.1-0.2,0c-0.1-0.1-0.1-0.2,0-0.2c0.1-0.1,0.2-0.1,0.2,0
					C618.2,548.1,618.2,548.2,618.2,548.3z"/>
				<path class="st2" d="M617.6,547.7c0,0.1-0.1,0.1-0.2,0c-0.1,0-0.1-0.1,0-0.2c0-0.1,0.1-0.1,0.2,0
					C617.6,547.6,617.6,547.7,617.6,547.7z"/>
				<path class="st2" d="M616.9,547.3c0,0.1-0.1,0.1-0.2,0.1c-0.1,0-0.1-0.1-0.1-0.2c0-0.1,0.1-0.1,0.2-0.1
					C616.9,547.1,616.9,547.2,616.9,547.3z"/>
				<path class="st2" d="M616.2,547c0,0.1-0.1,0.1-0.2,0.1c-0.1,0-0.1-0.1-0.1-0.2c0-0.1,0.1-0.1,0.2-0.1
					C616.2,546.8,616.2,546.9,616.2,547z"/>
				<path class="st2" d="M615.4,546.8c0,0.1-0.1,0.1-0.2,0.1c-0.1,0-0.1-0.1-0.1-0.2c0-0.1,0.1-0.1,0.2-0.1
					C615.4,546.6,615.4,546.7,615.4,546.8z"/>
				<path class="st2" d="M614.6,546.7c0,0.1-0.1,0.1-0.1,0.2c-0.1,0-0.1-0.1-0.2-0.1c0-0.1,0.1-0.1,0.1-0.2
					C614.5,546.6,614.6,546.7,614.6,546.7z"/>
			</g>
		</g>
		<path class="st2" d="M659.5,546c-1.8,0.5-3.7,0.1-5.2-1.1c-0.1-0.1-0.3,0.1-0.2,0.2c0,0.1,0.1,0.2,0.1,0.3c-1-0.7-2-1.6-2.9-2.5
			c-0.6-1-1.5-1.8-2.3-2.6c-0.2-0.2-0.4,0.1-0.3,0.2c0.7,0.8,1.4,1.6,2.1,2.4c0.8,1.2,1.2,2.6,0.3,3.9c-0.6,0.9-1.7,1.3-2.6,0.9
			c0.6-0.9,0.1-2.2-1.2-2.4c-0.1,0-0.2,0.1-0.2,0.1c-0.2,0.9,0.1,1.9,0.8,2.4c-0.1,0-0.1,0.1-0.2,0.1c-0.2,0.1,0,0.4,0.2,0.3
			c0.1-0.1,0.2-0.2,0.3-0.2c0.9,0.5,1.9,0.2,2.6-0.4c1-0.8,1.1-2.1,0.9-3.3c0-0.2-0.1-0.3-0.1-0.5c0.9,0.8,1.8,1.6,2.8,2.3
			c0.2,0.1,0.3-0.1,0.2-0.2c0-0.1-0.1-0.2-0.1-0.3c1.5,0.9,3.2,1.2,4.9,0.8C659.8,546.3,659.7,546,659.5,546z M648,547.4
			c-0.4-0.4-0.5-0.9-0.5-1.4c0.1,0,0.3,0,0.4-0.1c0.3,0.2,0.5,0.5,0.6,0.8c0.1,0.3,0,0.7-0.2,0.9C648.2,547.5,648.1,547.4,648,547.4
			z"/>
		<path class="st2" d="M667.3,543.2c-3.3,1.6-6.5-0.3-9-2.6c-0.4-0.5-0.9-1-1.4-1.4c-0.2-0.1-0.4,0.1-0.3,0.2
			c0.4,0.5,0.9,0.9,1.4,1.4c0.4,0.4,0.7,0.9,1,1.4c0.4,0.6,0.7,1.2,0.8,1.8c0.1,0.8-0.6,0.9-1.1,0.8c0.2-0.3,0.3-0.7,0-1.2
			c-0.5-0.8-2,0.2-1.3,0.9c0.1,0.1,0.3,0.2,0.4,0.3c-0.1,0.1-0.3,0.1-0.6-0.2c-0.2-0.1-0.4,0.2-0.2,0.3c0.4,0.3,0.9,0.3,1.3,0.1
			c0.8,0.2,1.7-0.1,1.8-1.1c0.1-0.7-0.5-1.5-0.9-2.1c2.4,1.9,5.2,3.1,8.2,1.6C667.7,543.4,667.5,543.1,667.3,543.2z"/>
	</g>
	<g>
		<path class="st3" d="M729.4,531l-0.3,1.4c-0.4,1.9-2.3,3-4.2,2.6l-4.7-1.1c-1.9-0.4-3-2.3-2.6-4.2l0.3-1.4c0.4-1.9,2.3-3,4.2-2.6
			l4.7,1.1C728.7,527.3,729.9,529.2,729.4,531z"/>
		<path class="st4" d="M654.6,512.6L654.6,512.6l-2.2,1l6.8,0.9c0.4-0.3,1-0.4,1.5-0.2c0.9,0.2,1.6,1,1.4,1.6
			c-0.2,0.7-1.1,1.1-2,0.8c-0.6-0.1-1-0.4-1.2-0.8l-6.6-2.2l1.6,1.8c2.2,0.5,6.1,3.7,6.1,3.7l6.7-0.7l0.3-1.5l0.3-1.5l-5.7-3.6
			C661.7,512,656.8,513.1,654.6,512.6z"/>
		
			<rect x="691.7" y="495.2" transform="matrix(0.229 -0.9734 0.9734 0.229 26.6447 1081.3127)" class="st3" width="8.5" height="57.2"/>
		
			<rect x="694.6" y="493" transform="matrix(0.2291 -0.9734 0.9734 0.2291 29.1516 1080.0483)" class="st5" width="3.7" height="57.2"/>
		
			<rect x="662.8" y="516" transform="matrix(0.2289 -0.9734 0.9734 0.2289 10.9596 1048.0359)" class="st6" width="8.4" height="2.2"/>
		<polygon class="st4" points="702,520.4 699.8,529.7 699,529.5 701.2,520.2 		"/>
		
			<rect x="719" y="530" transform="matrix(0.2292 -0.9734 0.9734 0.2292 41.5881 1113.3911)" class="st4" width="9.5" height="0.9"/>
		<path class="st4" d="M730.1,528.3l-1.6,6.9c-0.1,0.6-0.8,1-1.4,0.9l-0.5-0.1c-0.6-0.1-1-0.8-0.9-1.4l1.6-6.9
			c0.1-0.6,0.8-1,1.4-0.9l0.5,0.1C729.8,527,730.2,527.7,730.1,528.3z"/>
		<path class="st4" d="M728.5,529l-0.1,0.2c-0.1,0.3-0.4,0.5-0.7,0.4l-19.1-4.5c-0.3-0.1-0.5-0.4-0.4-0.7l0.1-0.2
			c0.1-0.3,0.4-0.5,0.7-0.4l19.1,4.5C728.3,528.4,728.5,528.7,728.5,529z"/>
	</g>
</g>
</svg>
