<?xml version="1.0" encoding="utf-8"?>
<!-- Generator: Adobe Illustrator 22.1.0, SVG Export Plug-In . SVG Version: 6.00 Build 0)  -->
<svg version="1.1" id="Objects" xmlns="http://www.w3.org/2000/svg" xmlns:xlink="http://www.w3.org/1999/xlink" x="0px" y="0px"
	 viewBox="0 0 184.3 155.5" style="enable-background:new 0 0 184.3 155.5;" xml:space="preserve">
<style type="text/css">
	.st0{fill:#E34856;}
	.st1{fill:#2F925C;}
	.st2{fill:#4EB880;}
	.st3{fill:#FEDD01;}
	.st4{font-family:'Bitter-Regular';}
	.st5{font-size:6.4462px;}
	.st6{font-size:6.4464px;}
	.st7{font-size:6.4459px;}
	.st8{font-size:6.4463px;}
	.st9{font-size:6.4465px;}
	.st10{fill:#E9AE97;}
	.st11{fill:#F8C3AA;}
	.st12{fill:#2D2725;}
	.st13{fill:#EDEDED;}
	.st14{fill:#D83B45;}
	.st15{fill:#DFDFDF;}
	.st16{fill:#31333A;}
	.st17{fill:#CE4253;}
	.st18{fill:#DF4654;}
	.st19{fill:#AF3E56;}
	.st20{fill:#F2F1F1;}
	.st21{font-family:'OpenSans-Bold';}
	.st22{font-size:15.684px;}
	.st23{letter-spacing:4;}
</style>
<g>
	<g>
		<polygon class="st0" points="184.3,20.8 178.3,24.3 179.8,25.4 158.9,55.7 135.8,47 105,76.5 91.8,67.1 55.1,90.5 36,80.8 
			0,111.6 1.8,113.7 36.4,84 55.3,93.7 91.7,70.3 105.2,80 136.4,50.1 159.9,59 181.9,27 183.4,28.1 		"/>
		<g>
			<g>
				
					<rect x="46.3" y="85.3" transform="matrix(0.9633 -0.2683 0.2683 0.9633 -24.2028 17.5859)" class="st1" width="11.8" height="24.1"/>
				<path class="st2" d="M56.7,106.8c-0.3-0.9,0.4-2,1.5-2.3c0.2-0.1,0.4-0.1,0.6-0.1l-4.6-16.5c-0.2,0.1-0.3,0.2-0.5,0.2
					c-1.1,0.3-2.2-0.2-2.5-1.2c0-0.1,0-0.1,0-0.2l-3.4,1c0,0.1,0,0.1,0.1,0.2c0.3,0.9-0.4,2-1.5,2.3c-0.2,0.1-0.4,0.1-0.6,0.1
					l4.6,16.5c0.2-0.1,0.3-0.2,0.5-0.2c1.1-0.3,2.2,0.2,2.5,1.2c0,0.1,0,0.1,0,0.2l3.4-1C56.8,106.9,56.7,106.8,56.7,106.8z"/>
				<g>
					<path class="st1" d="M53.5,100.5c-1.8,0.5-3.6-0.5-4.1-2.3s0.5-3.6,2.3-4.1s3.6,0.5,4.1,2.3C56.3,98.1,55.2,100,53.5,100.5z"/>
					<g>
						<text transform="matrix(0.2683 0.9633 -0.9633 0.2683 50.0751 96.0889)" class="st3 st4 st5">$</text>
					</g>
				</g>
				<g>
					<g>
						<path class="st1" d="M50.9,92.3c-0.9,0.2-1.7-0.3-2-1.1c-0.2-0.9,0.3-1.7,1.1-2c0.9-0.2,1.7,0.3,2,1.1
							C52.2,91.2,51.7,92.1,50.9,92.3z"/>
						<path class="st1" d="M54.5,105.5c-0.9,0.2-1.7-0.3-2-1.1c-0.2-0.9,0.3-1.7,1.1-2c0.9-0.2,1.7,0.3,2,1.1S55.4,105.2,54.5,105.5
							z"/>
					</g>
				</g>
			</g>
			<g>
				
					<rect x="65.1" y="97.2" transform="matrix(0.9961 -8.833877e-02 8.833877e-02 0.9961 -8.8078 7.2166)" class="st1" width="24.1" height="11.8"/>
				<path class="st2" d="M67,105.8c1-0.1,1.9,0.8,2,1.9c0,0.2,0,0.4,0,0.6l17.1-1.5c-0.1-0.2-0.1-0.4-0.1-0.6
					c-0.1-1.1,0.6-2.1,1.6-2.2c0.1,0,0.1,0,0.2,0l-0.3-3.5c-0.1,0-0.1,0-0.2,0c-1,0.1-1.9-0.8-2-1.9c0-0.2,0-0.4,0-0.6l-17.1,1.5
					c0.1,0.2,0.1,0.4,0.1,0.6c0.1,1.1-0.6,2.1-1.6,2.2c-0.1,0-0.1,0-0.2,0l0.3,3.5C66.9,105.8,66.9,105.8,67,105.8z"/>
				<g>
					<path class="st1" d="M73.8,103.8c-0.2-1.8,1.2-3.4,3-3.6c1.8-0.2,3.4,1.2,3.6,3s-1.2,3.4-3,3.6C75.6,106.9,74,105.6,73.8,103.8
						z"/>
					<g>
						<text transform="matrix(-0.9961 8.833000e-02 -8.833000e-02 -0.9961 78.6788 101.2123)" class="st3 st4 st6">$</text>
					</g>
				</g>
				<g>
					<g>
						<path class="st1" d="M82.3,102.7c-0.1-0.9,0.6-1.7,1.5-1.7c0.9-0.1,1.7,0.6,1.7,1.5c0.1,0.9-0.6,1.7-1.5,1.7
							C83.2,104.2,82.4,103.6,82.3,102.7z"/>
						<path class="st1" d="M68.7,103.9c-0.1-0.9,0.6-1.7,1.5-1.7c0.9-0.1,1.7,0.6,1.7,1.5c0.1,0.9-0.6,1.7-1.5,1.7
							S68.8,104.8,68.7,103.9z"/>
					</g>
				</g>
			</g>
			<g>
				
					<rect x="51.7" y="106.9" transform="matrix(0.9961 -8.826093e-02 8.826093e-02 0.9961 -9.7101 6.0652)" class="st1" width="24.1" height="11.8"/>
				<path class="st2" d="M53.6,115.5c1-0.1,1.9,0.8,2,1.9c0,0.2,0,0.4,0,0.6l17.1-1.5c-0.1-0.2-0.1-0.4-0.1-0.6
					c-0.1-1.1,0.6-2.1,1.6-2.2c0.1,0,0.1,0,0.2,0l-0.3-3.5c-0.1,0-0.1,0-0.2,0c-1,0.1-1.9-0.8-2-1.9c0-0.2,0-0.4,0-0.6l-17.1,1.5
					c0.1,0.2,0.1,0.4,0.1,0.6c0.1,1.1-0.6,2.1-1.6,2.2c-0.1,0-0.1,0-0.2,0l0.3,3.5C53.5,115.6,53.6,115.5,53.6,115.5z"/>
				<g>
					<path class="st1" d="M60.5,113.5c-0.2-1.8,1.2-3.4,3-3.6c1.8-0.2,3.4,1.2,3.6,3s-1.2,3.4-3,3.6
						C62.2,116.6,60.6,115.3,60.5,113.5z"/>
					<g>
						<text transform="matrix(-0.9961 8.833000e-02 -8.833000e-02 -0.9961 65.3273 110.9164)" class="st3 st4 st6">$</text>
					</g>
				</g>
				<g>
					<g>
						<path class="st1" d="M69,112.4c-0.1-0.9,0.6-1.7,1.5-1.7c0.9-0.1,1.7,0.6,1.7,1.5c0.1,0.9-0.6,1.7-1.5,1.7
							C69.8,113.9,69,113.3,69,112.4z"/>
						<path class="st1" d="M55.3,113.6c-0.1-0.9,0.6-1.7,1.5-1.7c0.9-0.1,1.7,0.6,1.7,1.5c0.1,0.9-0.6,1.7-1.5,1.7
							C56.2,115.1,55.4,114.5,55.3,113.6z"/>
					</g>
				</g>
			</g>
			<g>
				
					<rect x="53.4" y="90.1" transform="matrix(0.2892 -0.9573 0.9573 0.2892 -45.4298 130.8992)" class="st1" width="24.1" height="11.8"/>
				<path class="st2" d="M64.1,106.5c0.3-0.9,1.4-1.4,2.5-1.1c0.2,0.1,0.4,0.1,0.5,0.2l5-16.4c-0.2,0-0.4,0-0.6-0.1
					c-1.1-0.3-1.7-1.4-1.5-2.3c0-0.1,0-0.1,0.1-0.2l-3.4-1c0,0.1,0,0.1,0,0.2c-0.3,0.9-1.4,1.4-2.5,1.1c-0.2-0.1-0.4-0.1-0.5-0.2
					l-5,16.4c0.2,0,0.4,0,0.6,0.1c1.1,0.3,1.7,1.4,1.5,2.3c0,0.1,0,0.1-0.1,0.2l3.4,1C64.1,106.6,64.1,106.5,64.1,106.5z"/>
				<g>
					<path class="st1" d="M64.8,99.4c-1.8-0.5-2.7-2.4-2.2-4.1c0.5-1.8,2.4-2.7,4.1-2.2c1.8,0.5,2.7,2.4,2.2,4.1
						C68.4,98.9,66.5,99.9,64.8,99.4z"/>
					<g>
						<text transform="matrix(-0.2892 0.9573 -0.9573 -0.2892 64.2458 93.9149)" class="st3 st4 st6">$</text>
					</g>
				</g>
				<g>
					<g>
						<path class="st1" d="M66.9,91.1c-0.8-0.3-1.3-1.2-1.1-2c0.3-0.8,1.1-1.3,2-1.1c0.8,0.3,1.3,1.2,1.1,2
							C68.7,90.9,67.8,91.4,66.9,91.1z"/>
						<path class="st1" d="M63,104.2c-0.8-0.3-1.3-1.1-1.1-2c0.3-0.8,1.2-1.3,2-1.1c0.8,0.3,1.3,1.1,1.1,2
							C64.7,104,63.8,104.4,63,104.2z"/>
					</g>
				</g>
			</g>
			<g>
				
					<rect x="36.5" y="96.6" transform="matrix(0.7307 -0.6827 0.6827 0.7307 -62.7293 58.1917)" class="st1" width="11.8" height="24.1"/>
				<path class="st2" d="M34,102.3c0.7,0.7,0.5,1.9-0.3,2.7c-0.1,0.1-0.3,0.2-0.5,0.3l11.7,12.5c0.1-0.2,0.2-0.3,0.4-0.4
					c0.8-0.8,2-0.8,2.7-0.1l0.1,0.1l2.6-2.4l-0.1-0.1c-0.7-0.7-0.5-1.9,0.3-2.7c0.1-0.1,0.3-0.2,0.5-0.3L39.7,99.4
					c-0.1,0.2-0.2,0.3-0.4,0.4c-0.8,0.8-2,0.8-2.7,0.1l-0.1-0.1l-2.6,2.4C34,102.2,34,102.2,34,102.3z"/>
				<g>
					<path class="st1" d="M39.9,106.4c1.3-1.3,3.4-1.2,4.7,0.2c1.3,1.3,1.2,3.4-0.2,4.7c-1.3,1.3-3.4,1.2-4.7-0.2
						C38.5,109.7,38.5,107.6,39.9,106.4z"/>
					<g>
						<text transform="matrix(-0.6827 -0.7307 0.7307 -0.6827 44.8767 108.678)" class="st3 st4 st7">$</text>
					</g>
				</g>
				<g>
					<g>
						<path class="st1" d="M45.9,112.4c0.6-0.6,1.7-0.6,2.3,0.1c0.6,0.6,0.6,1.7-0.1,2.3c-0.6,0.6-1.7,0.6-2.3-0.1
							C45.3,114,45.3,113,45.9,112.4z"/>
						<path class="st1" d="M36.6,102.4c0.6-0.6,1.7-0.6,2.3,0.1c0.6,0.6,0.6,1.7-0.1,2.3c-0.6,0.6-1.7,0.6-2.3-0.1
							C35.9,104,36,103,36.6,102.4z"/>
					</g>
				</g>
			</g>
		</g>
		<g>
			<g>
				
					<rect x="110.2" y="93.8" transform="matrix(0.4795 -0.8775 0.8775 0.4795 -23.8507 159.1437)" class="st1" width="24.1" height="11.8"/>
				<path class="st2" d="M115.8,107.8c0.5-0.9,0-2-0.9-2.5c-0.2-0.1-0.4-0.2-0.5-0.2l8.2-15.1c0.1,0.1,0.3,0.2,0.5,0.3
					c1,0.5,2.2,0.3,2.7-0.6l0.1-0.1l3.1,1.7l-0.1,0.1c-0.5,0.9,0,2,0.9,2.5c0.2,0.1,0.4,0.2,0.5,0.2l-8.2,15.1
					c-0.1-0.1-0.3-0.2-0.5-0.3c-1-0.5-2.2-0.3-2.7,0.6c0,0,0,0.1-0.1,0.2l-3.1-1.7C115.7,107.9,115.7,107.9,115.8,107.8z"/>
				<g>
					<path class="st1" d="M120.4,102.4c1.6,0.9,3.6,0.3,4.5-1.3s0.3-3.6-1.3-4.5c-1.6-0.9-3.6-0.3-4.5,1.3
						C118.2,99.5,118.8,101.5,120.4,102.4z"/>
					<g>
						<text transform="matrix(-0.4795 0.8775 0.8775 0.4795 124.7213 98.993)" class="st3 st4 st8">$</text>
					</g>
				</g>
				<g>
					<g>
						<path class="st1" d="M124.7,95.1c0.8,0.4,1.8,0.1,2.2-0.6c0.4-0.8,0.1-1.8-0.6-2.2c-0.8-0.4-1.8-0.1-2.2,0.6
							C123.7,93.7,124,94.6,124.7,95.1z"/>
						<path class="st1" d="M118.2,107.1c0.8,0.4,1.8,0.1,2.2-0.6c0.4-0.8,0.1-1.8-0.6-2.2c-0.8-0.4-1.8-0.1-2.2,0.6
							C117.1,105.7,117.4,106.6,118.2,107.1z"/>
					</g>
				</g>
			</g>
			<g>
				
					<rect x="90.8" y="87.7" transform="matrix(0.3117 -0.9502 0.9502 0.3117 -28.1817 160.5482)" class="st1" width="11.8" height="24.1"/>
				<path class="st2" d="M106,104.6c-0.9-0.3-2,0.3-2.3,1.4c-0.1,0.2-0.1,0.4-0.1,0.6l-16.3-5.3c0.1-0.2,0.2-0.3,0.2-0.5
					c0.4-1.1-0.1-2.2-1.1-2.5c-0.1,0-0.1,0-0.2,0l1.1-3.4c0.1,0,0.1,0,0.2,0.1c0.9,0.3,2-0.3,2.3-1.4c0.1-0.2,0.1-0.4,0.1-0.6
					l16.3,5.4c-0.1,0.2-0.2,0.3-0.2,0.5c-0.4,1.1,0.1,2.2,1.1,2.5c0.1,0,0.1,0,0.2,0l-1.1,3.4C106.1,104.6,106,104.6,106,104.6z"/>
				<g>
					<path class="st1" d="M99.8,101c0.6-1.7-0.4-3.6-2.1-4.2c-1.7-0.6-3.6,0.4-4.2,2.1c-0.6,1.7,0.4,3.6,2.1,4.2
						C97.3,103.7,99.2,102.8,99.8,101z"/>
					<g>
						<text transform="matrix(0.9502 0.3117 0.3117 -0.9502 95.5297 97.4567)" class="st3 st4 st6">$</text>
					</g>
				</g>
				<g>
					<g>
						<path class="st1" d="M91.8,98.1c0.3-0.8-0.2-1.7-1-2s-1.7,0.2-2,1s0.2,1.7,1,2C90.6,99.4,91.5,98.9,91.8,98.1z"/>
						<path class="st1" d="M104.8,102.3c0.3-0.8-0.2-1.7-1-2s-1.7,0.2-2,1s0.2,1.7,1,2C103.6,103.6,104.5,103.2,104.8,102.3z"/>
					</g>
				</g>
			</g>
			<g>
				
					<rect x="101.7" y="100.2" transform="matrix(0.3117 -0.9502 0.9502 0.3117 -32.5956 179.4331)" class="st1" width="11.8" height="24.1"/>
				<path class="st2" d="M116.8,117.1c-0.9-0.3-2,0.3-2.3,1.4c-0.1,0.2-0.1,0.4-0.1,0.6l-16.3-5.4c0.1-0.2,0.2-0.3,0.2-0.5
					c0.4-1.1-0.1-2.2-1.1-2.5c-0.1,0-0.1,0-0.2,0l1.1-3.4c0.1,0,0.1,0,0.2,0.1c0.9,0.3,2-0.3,2.3-1.4c0.1-0.2,0.1-0.4,0.1-0.6
					l16.3,5.3c-0.1,0.2-0.2,0.3-0.2,0.5c-0.4,1.1,0.1,2.2,1.1,2.5c0.1,0,0.1,0,0.2,0l-1.2,3.4H116.8z"/>
				<g>
					<path class="st1" d="M110.6,113.5c0.6-1.7-0.4-3.6-2.1-4.2c-1.7-0.6-3.6,0.4-4.2,2.1c-0.6,1.7,0.4,3.6,2.1,4.2
						C108.2,116.2,110,115.3,110.6,113.5z"/>
					<g>
						<text transform="matrix(0.9502 0.3117 0.3117 -0.9502 106.3363 109.9313)" class="st3 st4 st6">$</text>
					</g>
				</g>
				<g>
					<g>
						<path class="st1" d="M102.6,110.6c0.3-0.8-0.2-1.7-1-2s-1.7,0.2-2,1s0.2,1.7,1,2S102.3,111.4,102.6,110.6z"/>
						<path class="st1" d="M115.6,114.8c0.3-0.8-0.2-1.7-1-2s-1.7,0.2-2,1s0.2,1.7,1,2S115.3,115.7,115.6,114.8z"/>
					</g>
				</g>
			</g>
			<g>
				
					<rect x="103.8" y="83.4" transform="matrix(0.9979 -6.488053e-02 6.488053e-02 0.9979 -5.9611 7.3175)" class="st1" width="11.8" height="24.1"/>
				<path class="st2" d="M108.6,105.9c-0.1-1-1-1.7-2.2-1.6c-0.2,0-0.4,0.1-0.6,0.1l-1.1-17.1c0.2,0,0.4,0,0.6,0
					c1.1-0.1,2-0.9,1.9-1.9c0-0.1,0-0.1,0-0.2l3.5-0.2c0,0.1,0,0.1,0,0.2c0.1,1,1,1.7,2.2,1.6c0.2,0,0.4-0.1,0.6-0.1l1.1,17.1
					c-0.2,0-0.4,0-0.6,0c-1.1,0.1-2,0.9-1.9,1.9c0,0.1,0,0.1,0,0.2l-3.5,0.2C108.6,106,108.6,105.9,108.6,105.9z"/>
				<g>
					<path class="st1" d="M109.6,98.8c1.8-0.1,3.2-1.7,3.1-3.5s-1.7-3.2-3.5-3.1c-1.8,0.1-3.2,1.7-3.1,3.5
						C106.2,97.6,107.8,98.9,109.6,98.8z"/>
					<g>
						<text transform="matrix(6.485000e-02 0.9979 0.9979 -6.485000e-02 111.4427 93.6956)" class="st3 st4 st9">$</text>
					</g>
				</g>
				<g>
					<g>
						<path class="st1" d="M109.4,90.3c0.9-0.1,1.6-0.8,1.5-1.7s-0.8-1.6-1.7-1.5c-0.9,0.1-1.6,0.8-1.5,1.7
							C107.7,89.7,108.5,90.3,109.4,90.3z"/>
						<path class="st1" d="M110.3,103.9c0.9-0.1,1.6-0.8,1.5-1.7s-0.8-1.6-1.7-1.5c-0.9,0.1-1.6,0.8-1.5,1.7
							C108.6,103.3,109.4,104,110.3,103.9z"/>
					</g>
				</g>
			</g>
			<g>
				
					<rect x="117.3" y="107" transform="matrix(0.8305 -0.557 0.557 0.8305 -40.9724 91.1831)" class="st1" width="24.1" height="11.8"/>
				<path class="st2" d="M138.9,108.6c-0.8,0.5-1,1.8-0.3,2.7c0.1,0.2,0.2,0.3,0.4,0.4l-14.3,9.6c-0.1-0.2-0.1-0.4-0.3-0.5
					c-0.6-0.9-1.8-1.3-2.6-0.7l-0.1,0.1l-2-3l0.1-0.1c0.8-0.5,1-1.8,0.3-2.7c-0.1-0.2-0.2-0.3-0.4-0.4l14.3-9.6
					c0.1,0.2,0.2,0.4,0.3,0.5c0.6,0.9,1.8,1.3,2.6,0.7l0.1-0.1l2,3L138.9,108.6z"/>
				<g>
					<path class="st1" d="M132.3,111.3c-1-1.5-3.1-1.9-4.6-0.9s-1.9,3.1-0.9,4.6s3.1,1.9,4.6,0.9S133.3,112.8,132.3,111.3z"/>
					<g>
						<text transform="matrix(0.8305 -0.557 -0.557 -0.8305 126.9299 112.3656)" class="st3 st4 st9">$</text>
					</g>
				</g>
				<g>
					<g>
						<path class="st1" d="M125,115.8c-0.5-0.7-1.5-0.9-2.2-0.4s-0.9,1.5-0.4,2.2s1.5,0.9,2.2,0.4
							C125.3,117.5,125.5,116.5,125,115.8z"/>
						<path class="st1" d="M136.3,108.2c-0.5-0.7-1.5-0.9-2.2-0.4s-0.9,1.5-0.4,2.2s1.5,0.9,2.2,0.4S136.8,108.9,136.3,108.2z"/>
					</g>
				</g>
			</g>
		</g>
		<g>
			<g>
				<path class="st10" d="M89.3,48.6l-8.6-0.1L80.6,60c0,1.3,3.8,2.4,8.6,2.4c4.7,0,8.6-1,8.6-2.3l0.1-11.5L89.3,48.6z"/>
				<g>
					<path class="st11" d="M87.1,54.8c0.7,0.2,1.4,0.3,2.2,0.3c0.7,0,1.5-0.1,2.2-0.2c3.2-1,9.8-10.6,9.8-10.5
						c0.7-2.1,1.1-4.5,1.1-7c0.1-9.9-5.7-17.9-12.8-17.9c-7.1,0-13,7.9-13,17.8c0,2.5,0.3,4.8,1,7C77.5,44.1,83.9,53.8,87.1,54.8z"
						/>
					<g>
						<path class="st11" d="M77.6,36c0.3,1.8,0,3.3-0.8,3.5s-1.7-1.1-2-2.9c-0.3-1.8,0-3.3,0.8-3.5C76.4,33,77.3,34.2,77.6,36z"/>
						<path class="st11" d="M101.2,36.2c-0.4,1.8,0,3.3,0.8,3.5s1.7-1.1,2-2.8c0.4-1.8,0-3.3-0.8-3.5
							C102.4,33.1,101.5,34.4,101.2,36.2z"/>
					</g>
					<path class="st12" d="M89.5,18.2c-7.6-0.1-13.7,6.4-13.8,14.4c0,0.2,0,0.3,0,0.5c0.1,0,0.9,0.2,1,2.3c0,1.2,0,1.6,0,1.7
						l1.1,0.7c0,0,0.2-7.9,5.7-8.1h5.9h5.9c5.5,0.3,5.6,8.1,5.6,8.1l1.1-0.7c0-0.1,0-0.5,0-1.7c0.1-2.1,0.9-2.3,1-2.3
						c0-0.2,0-0.3,0-0.5C103.2,24.8,97.1,18.3,89.5,18.2z"/>
					<path class="st12" d="M79.1,28.4c0,0,11.3,7.6,21.4,3.8c0,0,0.5-5.5-4.8-6.3C90.5,25.1,79.1,28.4,79.1,28.4z"/>
				</g>
				<polygon class="st13" points="79,55 78.8,82.3 99.4,82.4 99.6,55.1 89.2,59.1 				"/>
				<polygon class="st14" points="89.2,60 86.1,76.8 89.1,82.9 92.2,76.8 				"/>
				<polygon class="st14" points="89.2,59.1 85.3,60.8 89.2,64.9 92.8,60.8 				"/>
				<polygon class="st15" points="89.2,59.1 79,55 75.6,57.3 79.8,65.4 				"/>
				<polygon class="st15" points="89.2,59.1 99.6,55.1 102.9,57.5 98.6,65.1 				"/>
			</g>
			<path class="st16" d="M69,117.4l39.6,0.3l2.6-32.4v1.5l2.3-27.5c-0.4-0.1-0.6-0.2-0.8-0.2l0,0l-9.9-1.5L89,67.4l-13.6-10
				l-9.5,1.3L69,117.4z"/>
			<path class="st11" d="M57.5,9c0,5-2.2,9-4.9,9c-2.7,0-4.9-4.1-4.8-9c0-5,2.2-9,4.9-9C55.3,0,57.5,4,57.5,9z"/>
			<path class="st11" d="M132.6,9.5c0,5-2.3,9-5.2,9c-2.8,0-5.1-4.1-5-9c0-5,2.3-9,5.2-9C130.4,0.5,132.7,4.6,132.6,9.5z"/>
			<g>
				<polygon class="st16" points="104.7,58.5 118.3,40.8 122.5,11 132.6,11.1 127.7,45.2 112.2,75.9 				"/>
				<polygon class="st16" points="75,58.3 61.6,40.4 57.8,10.6 47.7,10.5 52.1,44.7 66.9,75.6 				"/>
			</g>
		</g>
	</g>
	<g>
		<g>
			<polygon class="st17" points="40,155.5 40,117.5 16.6,117.5 27.5,136.5 16.6,155.5 			"/>
			<polygon class="st17" points="161.8,117.5 138.4,117.5 138.4,155.5 161.8,155.5 150.9,136.5 			"/>
		</g>
		<rect x="30.4" y="112.2" class="st18" width="117.5" height="38.1"/>
		<polygon class="st19" points="30.4,150.2 40,155.5 40,150.2 		"/>
		<polygon class="st19" points="147.9,150.2 138.4,155.5 138.4,150.2 		"/>
		<text transform="matrix(1 0 0 1 48.4981 136.4848)" class="st20 st21 st22 st23">FINISH</text>
	</g>
</g>
</svg>
