<?xml version="1.0" encoding="utf-8"?>
<!-- Generator: Adobe Illustrator 22.1.0, SVG Export Plug-In . SVG Version: 6.00 Build 0)  -->
<svg version="1.1" id="Objects" xmlns="http://www.w3.org/2000/svg" xmlns:xlink="http://www.w3.org/1999/xlink" x="0px" y="0px"
	 viewBox="0 0 800 800" style="enable-background:new 0 0 800 800;" xml:space="preserve">
<style type="text/css">
	.st0{fill:#E34856;}
	.st1{fill:#2F925C;}
	.st2{fill:#4EB880;}
	.st3{fill:#FEDD01;}
	.st4{font-family:'Bitter-Regular';}
	.st5{font-size:6.4464px;}
	.st6{font-size:6.4465px;}
	.st7{fill:#E9AE97;}
	.st8{fill:#F8C3AA;}
	.st9{fill:#2D2725;}
	.st10{fill:#EDEDED;}
	.st11{fill:#D83B45;}
	.st12{fill:#DFDFDF;}
	.st13{fill:#31333A;}
	.st14{fill:#CE4253;}
	.st15{fill:#DF4654;}
	.st16{fill:#AF3E56;}
	.st17{fill:#F2F1F1;}
	.st18{font-family:'OpenSans-Bold';}
	.st19{font-size:15.684px;}
	.st20{letter-spacing:5;}
</style>
<g>
	<g>
		<polygon class="st0" points="492.4,595.7 486.4,599.2 487.9,600.3 467,630.6 443.9,621.9 413.1,651.4 399.9,642 363.2,665.4 
			344.1,655.7 308.1,686.5 309.9,688.6 344.5,658.9 363.4,668.6 399.8,645.2 413.3,654.9 444.5,625 468,633.9 490,601.9 491.5,603 
					"/>
		<g>
			<g>
				
					<rect x="348.3" y="666.4" transform="matrix(0.2683 0.9633 -0.9633 0.2683 911.2849 144.7409)" class="st1" width="24.1" height="11.8"/>
				<path class="st2" d="M364.8,681.7c-0.3-0.9,0.4-2,1.5-2.3c0.2-0.1,0.4-0.1,0.6-0.1l-4.6-16.5c-0.2,0.1-0.3,0.2-0.5,0.2
					c-1.1,0.3-2.2-0.2-2.5-1.2c0-0.1,0-0.1,0-0.2l-3.4,1c0,0.1,0,0.1,0.1,0.2c0.3,0.9-0.4,2-1.5,2.3c-0.2,0.1-0.4,0.1-0.6,0.1
					l4.6,16.5c0.2-0.1,0.3-0.2,0.5-0.2c1.1-0.3,2.2,0.2,2.5,1.2c0,0.1,0,0.1,0,0.2l3.4-1C364.9,681.8,364.8,681.7,364.8,681.7z"/>
				<g>
					<path class="st1" d="M361.6,675.4c-1.8,0.5-3.6-0.5-4.1-2.3c-0.5-1.8,0.5-3.6,2.3-4.1c1.8-0.5,3.6,0.5,4.1,2.3
						C364.4,673,363.3,674.9,361.6,675.4z"/>
					<g>
						<text transform="matrix(0.2683 0.9633 -0.9633 0.2683 358.1752 670.9889)" class="st3 st4 st5">$</text>
					</g>
				</g>
				<g>
					<g>
						<path class="st1" d="M359,667.2c-0.9,0.2-1.7-0.3-2-1.1c-0.2-0.9,0.3-1.7,1.1-2c0.9-0.2,1.7,0.3,2,1.1
							C360.3,666.1,359.8,667,359,667.2z"/>
						<path class="st1" d="M362.6,680.4c-0.9,0.2-1.7-0.3-2-1.1c-0.2-0.9,0.3-1.7,1.1-2c0.9-0.2,1.7,0.3,2,1.1
							C364,679.2,363.5,680.1,362.6,680.4z"/>
					</g>
				</g>
			</g>
			<g>
				
					<rect x="373.1" y="672.2" transform="matrix(-0.9961 8.833961e-02 -8.833961e-02 -0.9961 828.7797 1319.4497)" class="st1" width="24.1" height="11.8"/>
				<path class="st2" d="M375.1,680.7c1-0.1,1.9,0.8,2,1.9c0,0.2,0,0.4,0,0.6l17.1-1.5c-0.1-0.2-0.1-0.4-0.1-0.6
					c-0.1-1.1,0.6-2.1,1.6-2.2c0.1,0,0.1,0,0.2,0l-0.3-3.5c-0.1,0-0.1,0-0.2,0c-1,0.1-1.9-0.8-2-1.9c0-0.2,0-0.4,0-0.6l-17.1,1.5
					c0.1,0.2,0.1,0.4,0.1,0.6c0.1,1.1-0.6,2.1-1.6,2.2c-0.1,0-0.1,0-0.2,0l0.3,3.5C375,680.7,375,680.7,375.1,680.7z"/>
				<g>
					<path class="st1" d="M381.9,678.7c-0.2-1.8,1.2-3.4,3-3.6c1.8-0.2,3.4,1.2,3.6,3c0.2,1.8-1.2,3.4-3,3.6
						C383.7,681.8,382.1,680.5,381.9,678.7z"/>
					<g>
						<text transform="matrix(-0.9961 8.833000e-02 -8.833000e-02 -0.9961 386.7784 676.1122)" class="st3 st4 st5">$</text>
					</g>
				</g>
				<g>
					<g>
						<path class="st1" d="M390.4,677.6c-0.1-0.9,0.6-1.7,1.5-1.7c0.9-0.1,1.7,0.6,1.7,1.5c0.1,0.9-0.6,1.7-1.5,1.7
							C391.3,679.1,390.5,678.5,390.4,677.6z"/>
						<path class="st1" d="M376.8,678.8c-0.1-0.9,0.6-1.7,1.5-1.7c0.9-0.1,1.7,0.6,1.7,1.5c0.1,0.9-0.6,1.7-1.5,1.7
							C377.6,680.3,376.9,679.7,376.8,678.8z"/>
					</g>
				</g>
			</g>
			<g>
				
					<rect x="359.8" y="681.9" transform="matrix(-0.9961 8.826116e-02 -8.826116e-02 -0.9961 802.9354 1340.0319)" class="st1" width="24.1" height="11.8"/>
				<path class="st2" d="M361.7,690.4c1-0.1,1.9,0.8,2,1.9c0,0.2,0,0.4,0,0.6l17.1-1.5c-0.1-0.2-0.1-0.4-0.1-0.6
					c-0.1-1.1,0.6-2.1,1.6-2.2c0.1,0,0.1,0,0.2,0l-0.3-3.5c-0.1,0-0.1,0-0.2,0c-1,0.1-1.9-0.8-2-1.9c0-0.2,0-0.4,0-0.6l-17.1,1.5
					c0.1,0.2,0.1,0.4,0.1,0.6c0.1,1.1-0.6,2.1-1.6,2.2c-0.1,0-0.1,0-0.2,0l0.3,3.5C361.6,690.5,361.7,690.4,361.7,690.4z"/>
				<g>
					<path class="st1" d="M368.6,688.4c-0.2-1.8,1.2-3.4,3-3.6c1.8-0.2,3.4,1.2,3.6,3c0.2,1.8-1.2,3.4-3,3.6
						C370.3,691.5,368.7,690.2,368.6,688.4z"/>
					<g>
						<text transform="matrix(-0.9961 8.833000e-02 -8.833000e-02 -0.9961 373.4272 685.8167)" class="st3 st4 st5">$</text>
					</g>
				</g>
				<g>
					<g>
						<path class="st1" d="M377.1,687.3c-0.1-0.9,0.6-1.7,1.5-1.7c0.9-0.1,1.7,0.6,1.7,1.5c0.1,0.9-0.6,1.7-1.5,1.7
							C377.9,688.8,377.1,688.2,377.1,687.3z"/>
						<path class="st1" d="M363.4,688.5c-0.1-0.9,0.6-1.7,1.5-1.7c0.9-0.1,1.7,0.6,1.7,1.5c0.1,0.9-0.6,1.7-1.5,1.7
							C364.3,690,363.5,689.4,363.4,688.5z"/>
					</g>
				</g>
			</g>
			<g>
				
					<rect x="361.4" y="665.1" transform="matrix(-0.2892 0.9573 -0.9573 -0.2892 1123.8784 507.4901)" class="st1" width="24.1" height="11.8"/>
				<path class="st2" d="M372.2,681.4c0.3-0.9,1.4-1.4,2.5-1.1c0.2,0.1,0.4,0.1,0.5,0.2l5-16.4c-0.2,0-0.4,0-0.6-0.1
					c-1.1-0.3-1.7-1.4-1.5-2.3c0-0.1,0-0.1,0.1-0.2l-3.4-1c0,0.1,0,0.1,0,0.2c-0.3,0.9-1.4,1.4-2.5,1.1c-0.2-0.1-0.4-0.1-0.5-0.2
					l-5,16.4c0.2,0,0.4,0,0.6,0.1c1.1,0.3,1.7,1.4,1.5,2.3c0,0.1,0,0.1-0.1,0.2l3.4,1C372.2,681.5,372.2,681.4,372.2,681.4z"/>
				<g>
					<path class="st1" d="M372.9,674.3c-1.8-0.5-2.7-2.4-2.2-4.1c0.5-1.8,2.4-2.7,4.1-2.2c1.8,0.5,2.7,2.4,2.2,4.1
						C376.5,673.8,374.6,674.8,372.9,674.3z"/>
					<g>
						<text transform="matrix(-0.2892 0.9573 -0.9573 -0.2892 372.3467 668.815)" class="st3 st4 st5">$</text>
					</g>
				</g>
				<g>
					<g>
						<path class="st1" d="M375,666c-0.8-0.3-1.3-1.2-1.1-2c0.3-0.8,1.1-1.3,2-1.1c0.8,0.3,1.3,1.2,1.1,2
							C376.8,665.8,375.9,666.3,375,666z"/>
						<path class="st1" d="M371.1,679.1c-0.8-0.3-1.3-1.1-1.1-2c0.3-0.8,1.2-1.3,2-1.1c0.8,0.3,1.3,1.1,1.1,2
							C372.8,678.9,371.9,679.3,371.1,679.1z"/>
					</g>
				</g>
			</g>
			<g>
				
					<rect x="338.4" y="677.6" transform="matrix(-0.6827 -0.7307 0.7307 -0.6827 90.3145 1406.2072)" class="st1" width="24.1" height="11.8"/>
				<path class="st2" d="M342.1,677.2c0.7,0.7,0.5,1.9-0.3,2.7c-0.1,0.1-0.3,0.2-0.5,0.3l11.7,12.5c0.1-0.2,0.2-0.3,0.4-0.4
					c0.8-0.8,2-0.8,2.7-0.1c0,0,0.1,0.1,0.1,0.1l2.6-2.4c0,0-0.1-0.1-0.1-0.1c-0.7-0.7-0.5-1.9,0.3-2.7c0.1-0.1,0.3-0.2,0.5-0.3
					l-11.7-12.5c-0.1,0.2-0.2,0.3-0.4,0.4c-0.8,0.8-2,0.8-2.7,0.1c0,0-0.1-0.1-0.1-0.1l-2.6,2.4
					C342.1,677.1,342.1,677.1,342.1,677.2z"/>
				<g>
					<path class="st1" d="M348,681.3c1.3-1.3,3.4-1.2,4.7,0.2c1.3,1.3,1.2,3.4-0.2,4.7c-1.3,1.3-3.4,1.2-4.7-0.2
						C346.6,684.6,346.6,682.5,348,681.3z"/>
					<g>
						<text transform="matrix(-0.6827 -0.7306 0.7306 -0.6827 352.9772 683.5775)" class="st3 st4 st5">$</text>
					</g>
				</g>
				<g>
					<g>
						<path class="st1" d="M354,687.3c0.6-0.6,1.7-0.6,2.3,0.1c0.6,0.6,0.6,1.7-0.1,2.3c-0.6,0.6-1.7,0.6-2.3-0.1
							C353.4,688.9,353.4,687.9,354,687.3z"/>
						<path class="st1" d="M344.7,677.3c0.6-0.6,1.7-0.6,2.3,0.1c0.6,0.6,0.6,1.7-0.1,2.3c-0.6,0.6-1.7,0.6-2.3-0.1
							C344,678.9,344.1,677.9,344.7,677.3z"/>
					</g>
				</g>
			</g>
		</g>
		<g>
			<g>
				
					<rect x="418.3" y="668.7" transform="matrix(-0.4795 0.8775 -0.8775 -0.4795 1228.647 620.4166)" class="st1" width="24.1" height="11.8"/>
				<path class="st2" d="M423.9,682.7c0.5-0.9,0-2-0.9-2.5c-0.2-0.1-0.4-0.2-0.5-0.2l8.2-15.1c0.1,0.1,0.3,0.2,0.5,0.3
					c1,0.5,2.2,0.3,2.7-0.6c0,0,0.1-0.1,0.1-0.1l3.1,1.7c0,0-0.1,0.1-0.1,0.1c-0.5,0.9,0,2,0.9,2.5c0.2,0.1,0.4,0.2,0.5,0.2
					l-8.2,15.1c-0.1-0.1-0.3-0.2-0.5-0.3c-1-0.5-2.2-0.3-2.7,0.6c0,0,0,0.1-0.1,0.2l-3.1-1.7C423.8,682.8,423.8,682.8,423.9,682.7z"
					/>
				<g>
					<path class="st1" d="M428.5,677.3c1.6,0.9,3.6,0.3,4.5-1.3c0.9-1.6,0.3-3.6-1.3-4.5c-1.6-0.9-3.6-0.3-4.5,1.3
						C426.3,674.4,426.9,676.4,428.5,677.3z"/>
					<g>
						<text transform="matrix(-0.4795 0.8775 0.8775 0.4795 432.8209 673.8932)" class="st3 st4 st6">$</text>
					</g>
				</g>
				<g>
					<g>
						<path class="st1" d="M432.8,670c0.8,0.4,1.8,0.1,2.2-0.6c0.4-0.8,0.1-1.8-0.6-2.2c-0.8-0.4-1.8-0.1-2.2,0.6
							C431.8,668.6,432.1,669.5,432.8,670z"/>
						<path class="st1" d="M426.3,682c0.8,0.4,1.8,0.1,2.2-0.6c0.4-0.8,0.1-1.8-0.6-2.2c-0.8-0.4-1.8-0.1-2.2,0.6
							C425.2,680.6,425.5,681.5,426.3,682z"/>
					</g>
				</g>
			</g>
			<g>
				
					<rect x="392.8" y="668.7" transform="matrix(0.9502 0.3117 -0.3117 0.9502 230.4091 -92.5706)" class="st1" width="24.1" height="11.8"/>
				<path class="st2" d="M414.1,679.5c-0.9-0.3-2,0.3-2.3,1.4c-0.1,0.2-0.1,0.4-0.1,0.6l-16.3-5.3c0.1-0.2,0.2-0.3,0.2-0.5
					c0.4-1.1-0.1-2.2-1.1-2.5c-0.1,0-0.1,0-0.2,0l1.1-3.4c0.1,0,0.1,0,0.2,0.1c0.9,0.3,2-0.3,2.3-1.4c0.1-0.2,0.1-0.4,0.1-0.6
					l16.3,5.4c-0.1,0.2-0.2,0.3-0.2,0.5c-0.4,1.1,0.1,2.2,1.1,2.5c0.1,0,0.1,0,0.2,0l-1.1,3.4C414.2,679.5,414.1,679.5,414.1,679.5z
					"/>
				<g>
					<path class="st1" d="M407.9,675.9c0.6-1.7-0.4-3.6-2.1-4.2c-1.7-0.6-3.6,0.4-4.2,2.1c-0.6,1.7,0.4,3.6,2.1,4.2
						C405.4,678.6,407.3,677.7,407.9,675.9z"/>
					<g>
						<text transform="matrix(0.9502 0.3117 0.3117 -0.9502 403.6298 672.3571)" class="st3 st4 st5">$</text>
					</g>
				</g>
				<g>
					<g>
						<path class="st1" d="M399.9,673c0.3-0.8-0.2-1.7-1-2c-0.8-0.3-1.7,0.2-2,1c-0.3,0.8,0.2,1.7,1,2
							C398.7,674.3,399.6,673.8,399.9,673z"/>
						<path class="st1" d="M412.9,677.2c0.3-0.8-0.2-1.7-1-2c-0.8-0.3-1.7,0.2-2,1c-0.3,0.8,0.2,1.7,1,2
							C411.7,678.5,412.6,678.1,412.9,677.2z"/>
					</g>
				</g>
			</g>
			<g>
				
					<rect x="403.6" y="681.2" transform="matrix(0.9502 0.3117 -0.3117 0.9502 234.8712 -95.3254)" class="st1" width="24.1" height="11.8"/>
				<path class="st2" d="M424.9,692c-0.9-0.3-2,0.3-2.3,1.4c-0.1,0.2-0.1,0.4-0.1,0.6l-16.3-5.4c0.1-0.2,0.2-0.3,0.2-0.5
					c0.4-1.1-0.1-2.2-1.1-2.5c-0.1,0-0.1,0-0.2,0l1.1-3.4c0.1,0,0.1,0,0.2,0.1c0.9,0.3,2-0.3,2.3-1.4c0.1-0.2,0.1-0.4,0.1-0.6
					l16.3,5.3c-0.1,0.2-0.2,0.3-0.2,0.5c-0.4,1.1,0.1,2.2,1.1,2.5c0.1,0,0.1,0,0.2,0L425,692C425,692,424.9,692,424.9,692z"/>
				<g>
					<path class="st1" d="M418.7,688.4c0.6-1.7-0.4-3.6-2.1-4.2c-1.7-0.6-3.6,0.4-4.2,2.1c-0.6,1.7,0.4,3.6,2.1,4.2
						C416.3,691.1,418.1,690.2,418.7,688.4z"/>
					<g>
						<text transform="matrix(0.9502 0.3117 0.3117 -0.9502 414.4363 684.8317)" class="st3 st4 st5">$</text>
					</g>
				</g>
				<g>
					<g>
						<path class="st1" d="M410.7,685.5c0.3-0.8-0.2-1.7-1-2c-0.8-0.3-1.7,0.2-2,1c-0.3,0.8,0.2,1.7,1,2
							C409.5,686.8,410.4,686.3,410.7,685.5z"/>
						<path class="st1" d="M423.7,689.7c0.3-0.8-0.2-1.7-1-2c-0.8-0.3-1.7,0.2-2,1c-0.3,0.8,0.2,1.7,1,2
							C422.5,691,423.4,690.6,423.7,689.7z"/>
					</g>
				</g>
			</g>
			<g>
				
					<rect x="405.7" y="664.5" transform="matrix(6.488098e-02 0.9979 -0.9979 6.488098e-02 1059.6729 209.9717)" class="st1" width="24.1" height="11.8"/>
				<path class="st2" d="M416.7,680.8c-0.1-1-1-1.7-2.2-1.6c-0.2,0-0.4,0.1-0.6,0.1l-1.1-17.1c0.2,0,0.4,0,0.6,0
					c1.1-0.1,2-0.9,1.9-1.9c0-0.1,0-0.1,0-0.2l3.5-0.2c0,0.1,0,0.1,0,0.2c0.1,1,1,1.7,2.2,1.6c0.2,0,0.4-0.1,0.6-0.1l1.1,17.1
					c-0.2,0-0.4,0-0.6,0c-1.1,0.1-2,0.9-1.9,1.9c0,0.1,0,0.1,0,0.2l-3.5,0.2C416.7,680.9,416.7,680.8,416.7,680.8z"/>
				<g>
					<path class="st1" d="M417.7,673.7c1.8-0.1,3.2-1.7,3.1-3.5c-0.1-1.8-1.7-3.2-3.5-3.1c-1.8,0.1-3.2,1.7-3.1,3.5
						C414.3,672.5,415.9,673.8,417.7,673.7z"/>
					<g>
						<text transform="matrix(6.485000e-02 0.9979 0.9979 -6.485000e-02 419.5427 668.5957)" class="st3 st4 st6">$</text>
					</g>
				</g>
				<g>
					<g>
						<path class="st1" d="M417.5,665.2c0.9-0.1,1.6-0.8,1.5-1.7c-0.1-0.9-0.8-1.6-1.7-1.5c-0.9,0.1-1.6,0.8-1.5,1.7
							C415.8,664.6,416.6,665.2,417.5,665.2z"/>
						<path class="st1" d="M418.4,678.8c0.9-0.1,1.6-0.8,1.5-1.7c-0.1-0.9-0.8-1.6-1.7-1.5c-0.9,0.1-1.6,0.8-1.5,1.7
							C416.7,678.2,417.5,678.9,418.4,678.8z"/>
					</g>
				</g>
			</g>
			<g>
				
					<rect x="425.4" y="681.9" transform="matrix(0.8305 -0.557 0.557 0.8305 -308.9638 360.2578)" class="st1" width="24.1" height="11.8"/>
				<path class="st2" d="M447,683.5c-0.8,0.5-1,1.8-0.3,2.7c0.1,0.2,0.2,0.3,0.4,0.4l-14.3,9.6c-0.1-0.2-0.1-0.4-0.3-0.5
					c-0.6-0.9-1.8-1.3-2.6-0.7c0,0-0.1,0.1-0.1,0.1l-2-3c0,0,0.1-0.1,0.1-0.1c0.8-0.5,1-1.8,0.3-2.7c-0.1-0.2-0.2-0.3-0.4-0.4
					l14.3-9.6c0.1,0.2,0.2,0.4,0.3,0.5c0.6,0.9,1.8,1.3,2.6,0.7c0,0,0.1-0.1,0.1-0.1l2,3C447.1,683.4,447,683.5,447,683.5z"/>
				<g>
					<path class="st1" d="M440.4,686.2c-1-1.5-3.1-1.9-4.6-0.9c-1.5,1-1.9,3.1-0.9,4.6c1,1.5,3.1,1.9,4.6,0.9
						C441,689.8,441.4,687.7,440.4,686.2z"/>
					<g>
						<text transform="matrix(0.8305 -0.557 -0.557 -0.8305 435.03 687.2649)" class="st3 st4 st6">$</text>
					</g>
				</g>
				<g>
					<g>
						<path class="st1" d="M433.1,690.7c-0.5-0.7-1.5-0.9-2.2-0.4c-0.7,0.5-0.9,1.5-0.4,2.2c0.5,0.7,1.5,0.9,2.2,0.4
							C433.4,692.4,433.6,691.4,433.1,690.7z"/>
						<path class="st1" d="M444.4,683.1c-0.5-0.7-1.5-0.9-2.2-0.4c-0.7,0.5-0.9,1.5-0.4,2.2c0.5,0.7,1.5,0.9,2.2,0.4
							C444.7,684.8,444.9,683.8,444.4,683.1z"/>
					</g>
				</g>
			</g>
		</g>
		<g>
			<g>
				<path class="st7" d="M397.4,623.5l-8.6-0.1l-0.1,11.5c0,1.3,3.8,2.4,8.6,2.4c4.7,0,8.6-1,8.6-2.3l0.1-11.5L397.4,623.5z"/>
				<g>
					<path class="st8" d="M395.2,629.7c0.7,0.2,1.4,0.3,2.2,0.3c0.7,0,1.5-0.1,2.2-0.2c3.2-1,9.8-10.6,9.8-10.5
						c0.7-2.1,1.1-4.5,1.1-7c0.1-9.9-5.7-17.9-12.8-17.9c-7.1,0-13,7.9-13,17.8c0,2.5,0.3,4.8,1,7C385.6,619,392,628.7,395.2,629.7z
						"/>
					<g>
						<path class="st8" d="M385.7,610.9c0.3,1.8,0,3.3-0.8,3.5c-0.8,0.2-1.7-1.1-2-2.9c-0.3-1.8,0-3.3,0.8-3.5
							C384.5,607.9,385.4,609.1,385.7,610.9z"/>
						<path class="st8" d="M409.3,611.1c-0.4,1.8,0,3.3,0.8,3.5c0.8,0.2,1.7-1.1,2-2.8c0.4-1.8,0-3.3-0.8-3.5
							C410.5,608,409.6,609.3,409.3,611.1z"/>
					</g>
					<path class="st9" d="M397.6,593.1c-7.6-0.1-13.7,6.4-13.8,14.4c0,0.2,0,0.3,0,0.5c0.1,0,0.9,0.2,1,2.3c0,1.2,0,1.6,0,1.7
						l1.1,0.7c0,0,0.2-7.9,5.7-8.1l5.9,0l5.9,0c5.5,0.3,5.6,8.1,5.6,8.1l1.1-0.7c0-0.1,0-0.5,0-1.7c0.1-2.1,0.9-2.3,1-2.3
						c0-0.2,0-0.3,0-0.5C411.3,599.7,405.2,593.2,397.6,593.1z"/>
					<path class="st9" d="M387.2,603.3c0,0,11.3,7.6,21.4,3.8c0,0,0.5-5.5-4.8-6.3C398.6,600,387.2,603.3,387.2,603.3z"/>
				</g>
				<polygon class="st10" points="387.1,629.9 386.9,657.2 407.5,657.3 407.7,630 397.3,634 				"/>
				<polygon class="st11" points="397.3,634.9 394.2,651.7 397.2,657.8 400.3,651.7 				"/>
				<polygon class="st11" points="397.3,634 393.4,635.7 397.3,639.8 400.9,635.7 				"/>
				<polygon class="st12" points="397.3,634 387.1,629.9 383.7,632.2 387.9,640.3 				"/>
				<polygon class="st12" points="397.3,634 407.7,630 411,632.4 406.7,640 				"/>
			</g>
			<path class="st13" d="M377.1,692.3l39.6,0.3l2.6-32.4l0,1.5l2.3-27.5c-0.4-0.1-0.6-0.2-0.8-0.2v0l-9.9-1.5l-13.8,9.8l-13.6-10
				l-9.5,1.3L377.1,692.3z"/>
			<path class="st8" d="M365.6,583.9c0,5-2.2,9-4.9,9c-2.7,0-4.9-4.1-4.8-9c0-5,2.2-9,4.9-9C363.4,574.9,365.6,578.9,365.6,583.9z"
				/>
			<path class="st8" d="M440.7,584.4c0,5-2.3,9-5.2,9c-2.8,0-5.1-4.1-5-9c0-5,2.3-9,5.2-9C438.5,575.4,440.8,579.5,440.7,584.4z"/>
			<g>
				<polygon class="st13" points="412.8,633.4 426.4,615.7 430.6,585.9 440.7,586 435.8,620.1 420.3,650.8 				"/>
				<polygon class="st13" points="383.1,633.2 369.7,615.3 365.9,585.5 355.8,585.4 360.2,619.6 375,650.5 				"/>
			</g>
		</g>
	</g>
	<g>
		<g>
			<polygon class="st14" points="348.1,730.4 348.1,692.4 324.7,692.4 335.6,711.4 324.7,730.4 			"/>
			<polygon class="st14" points="469.9,692.4 446.5,692.4 446.5,730.4 469.9,730.4 459,711.4 			"/>
		</g>
		<rect x="338.5" y="687.1" class="st15" width="117.5" height="38.1"/>
		<polygon class="st16" points="338.5,725.1 348.1,730.4 348.1,725.1 		"/>
		<polygon class="st16" points="456,725.1 446.5,730.4 446.5,725.1 		"/>
		<text transform="matrix(1 0 0 1 356.5981 711.3848)" class="st17 st18 st19 st20">FINISH</text>
	</g>
</g>
</svg>
