<?xml version="1.0" encoding="utf-8"?>
<!-- Generator: Adobe Illustrator 22.1.0, SVG Export Plug-In . SVG Version: 6.00 Build 0)  -->
<svg version="1.1" id="Objects" xmlns="http://www.w3.org/2000/svg" xmlns:xlink="http://www.w3.org/1999/xlink" x="0px" y="0px"
	 viewBox="0 0 157.5 107.6" style="enable-background:new 0 0 157.5 107.6;" xml:space="preserve">
<style type="text/css">
	.st0{fill:#E03D14;}
	.st1{fill:#FFAE00;}
	.st2{fill:#FFEBBF;}
	.st3{font-family:'Arial-BoldMT';}
	.st4{font-size:8.7344px;}
	.st5{fill:#FC6E4B;}
	.st6{fill:#335E59;}
	.st7{fill:#FF9D85;}
</style>
<g>
	<path class="st0" d="M39.6,53.1c-0.5-0.4-1.1-0.5-1.7-0.3v1.5c0.4-0.2,0.7-0.3,0.9-0.1c0.3,0.2,0.1,0.9-0.4,1.6
		c-0.2,0.2-0.4,0.4-0.6,0.5v2.4c1.9,0.8,3.9,0.7,4.9-0.2c-0.4,0.5,1.4-2.4,0.8-2c-1.4,0.9-3.3,1.3-4.9,1c0.3-0.2,0.6-0.4,0.8-0.7
		C40.5,55.4,40.5,53.8,39.6,53.1z M37.9,52.7c-0.6,0.1-1.2,0.5-1.7,1.1c-0.3,0.4-0.5,0.8-0.6,1.2c-0.6-1.1-1-2.6-0.8-4.6
		c-1.5,4.4,0.7,7.1,3.1,8.1v-2.4c-0.4,0.2-0.7,0.3-0.9,0.1c-0.3-0.2-0.1-0.9,0.4-1.6c0.2-0.2,0.4-0.4,0.6-0.5L37.9,52.7L37.9,52.7z"
		/>
	<g>
		<path class="st1" d="M1.9,67h52.5c1,0,1.9,0.8,1.9,1.9v31.9c0,1-0.8,1.9-1.9,1.9H1.9c-1,0-1.9-0.8-1.9-1.9V68.9
			C0,67.8,0.8,67,1.9,67z"/>
		<rect y="92" class="st2" width="56.2" height="6.6"/>
		<path class="st2" d="M4.5,70.3h10.7c0.6,0,1,0.5,1,1v7.1c0,0.6-0.5,1-1,1H4.5c-0.6,0-1-0.5-1-1v-7.1C3.5,70.7,4,70.3,4.5,70.3z"/>
	</g>
	<g>
		<rect x="77.7" y="35.7" class="st1" width="79.8" height="36.3"/>
		<rect x="79.9" y="38.2" class="st2" width="75.5" height="31.3"/>
		<path class="st1" d="M146.2,35.7h11.2V47C151.3,47,146.2,41.9,146.2,35.7z"/>
		<path class="st1" d="M88.9,72H77.7V60.8C83.9,60.8,88.9,65.8,88.9,72z"/>
		<path class="st1" d="M117.6,65.7c6.5,0,11.8-5.3,11.8-11.8s-5.3-11.8-11.8-11.8s-11.8,5.3-11.8,11.8
			C105.8,60.4,111.1,65.7,117.6,65.7z"/>
		<text transform="matrix(1 0 0 1 81.3079 47.6455)" class="st1 st3 st4">100</text>
		<text transform="matrix(1 0 0 1 139.6741 68.7216)" class="st1 st3 st4">100</text>
		<path class="st2" d="M119.4,46.6c0.6,0.2,1.2,0.5,1.6,0.9c0.6,0.6,1,1.3,1.1,2.2l-2.4,0.3c-0.1-0.3-0.2-0.6-0.3-0.8L119.4,46.6
			L119.4,46.6z M119.4,52.4c1.1,0.4,1.8,0.8,2.3,1.3c0.5,0.6,0.8,1.5,0.8,2.5c0,1.1-0.3,2.1-1,2.8c-0.5,0.6-1.2,1-2.1,1.3v-2.2
			c0.1-0.1,0.2-0.2,0.3-0.3c0.3-0.3,0.4-0.8,0.4-1.2c0-0.4-0.1-0.8-0.4-1.1c-0.1-0.1-0.2-0.3-0.4-0.4v-2.7H119.4z M117.3,58.3v-3.9
			c-0.2-0.1-0.4-0.1-0.6-0.2v-2.8c0.2,0.1,0.4,0.3,0.6,0.4v-3.2c-0.2,0.1-0.4,0.2-0.6,0.3v-2.3c0.2,0,0.4-0.1,0.6-0.1v-0.9h1.4v0.9
			c0.3,0,0.5,0.1,0.8,0.2v2.6c-0.2-0.3-0.5-0.5-0.8-0.6v3.7c0.3,0.1,0.5,0.2,0.8,0.2v2.7c-0.2-0.1-0.5-0.2-0.8-0.3v3.6
			c0.3-0.1,0.6-0.2,0.8-0.3v2.2c-0.2,0.1-0.5,0.1-0.8,0.2v1.7h-1.4v-1.7c-0.2,0-0.4-0.1-0.6-0.1V58C116.9,58,117.1,58.2,117.3,58.3z
			 M116.7,54.2c-0.9-0.3-1.6-0.8-2.1-1.4c-0.6-0.7-0.9-1.6-0.9-2.6s0.3-1.9,1-2.6c0.5-0.6,1.2-0.9,2-1.1v2.3
			c-0.1,0.1-0.2,0.2-0.3,0.3c-0.2,0.3-0.3,0.6-0.3,1c0,0.3,0.1,0.6,0.3,0.9c0.1,0.1,0.2,0.2,0.3,0.3V54.2L116.7,54.2z M116.7,60.4
			c-0.8-0.2-1.5-0.6-2-1.1c-0.7-0.7-1.1-1.6-1.3-2.8l2.4-0.3c0.1,0.5,0.3,0.9,0.6,1.3c0.1,0.1,0.2,0.3,0.3,0.4V60.4z"/>
	</g>
	<polygon class="st0" points="63.9,107.6 71.6,107.6 71.6,94.7 93.9,94.7 92.4,107.6 101.2,107.6 101.2,87.4 54.2,87.4 57.8,107.4 	
		"/>
	<path class="st5" d="M40.3,60.9c-5,23.9,10,42.6,16.7,46.6h6.9l-0.1-9.2c5.2,2,12.1,3.1,19.3,2.7v6.5h9.2
		c7.7-4.4,19.1-23.7,31.3-25.3c3-0.2,5.4-3.5,5.9-7.8c0.2-1.1,0.2-2.3,0-3.4c-0.4-2.3-1-4-1.9-5.2c-1.1-1.6-2.6-2.6-4.3-2.6
		c-4.7-0.1-9.2-8-11.2-11C96.2,28.1,47.6,25.9,40.3,60.9z"/>
	<path class="st0" d="M82.9,50.1c1.1,8.5,10.5,11.9,22.4,3.8c7.7-5.3,9.5-7.9-0.4-10.5C97.4,41.4,81.2,37,82.9,50.1z"/>
	<ellipse class="st0" cx="124.4" cy="72.8" rx="4.5" ry="8.1"/>
	<path class="st5" d="M123.2,74.7c0.5,0,0.9-1,0.9-2.3s-0.4-2.3-0.9-2.3s-0.9,1-0.9,2.3C122.2,73.6,122.7,74.7,123.2,74.7z"/>
	<path class="st6" d="M69.8,38.9c7.6-2,18.1,1.1,20.2,2.1l1.5-2.2c-1.4-1.2-13.2-4.7-21.8-2.4L69.8,38.9z"/>
	<path class="st0" d="M90.6,40.2l1-1.4c-1.4-1.2-13.2-4.7-21.8-2.4v1.3C79.4,36.2,86.2,38.5,90.6,40.2z"/>
	<path class="st6" d="M105.1,60.7c1,0,1.9-0.8,1.9-1.9c0-1-0.8-1.9-1.9-1.9c-1,0-1.9,0.8-1.9,1.9C103.2,59.9,104,60.7,105.1,60.7z"
		/>
	<path class="st5" d="M83.9,50c0.9,7.4,9.2,10.4,19.5,3.3c6.7-4.6,8.3-6.9-0.3-9.2C96.5,42.4,82.4,38.6,83.9,50z"/>
	<g>
		<path class="st1" d="M78.3,37.1c5.5,0,9.9-4.5,9.9-9.9c0-5.5-4.5-9.9-9.9-9.9c-5.5,0-9.9,4.5-9.9,9.9
			C68.3,32.7,72.8,37.1,78.3,37.1z"/>
		<ellipse transform="matrix(0.9732 -0.2298 0.2298 0.9732 -4.1412 18.7179)" class="st2" cx="78.3" cy="27.1" rx="8.4" ry="8.4"/>
		<path class="st1" d="M75.4,28.8c0.5,0.5,0.9,0.9,1.4,1.2c0.5,0.3,1,0.4,1.4,0.4s0.7-0.1,1-0.3c0.3-0.2,0.4-0.5,0.4-0.9
			s-0.1-0.7-0.3-0.9c-0.2-0.2-0.7-0.4-1.5-0.6c-1.2-0.3-2-0.7-2.5-1.2s-0.7-1.2-0.7-2c0-1.1,0.3-1.9,1-2.6s1.6-1,2.8-1.2v-1.1h1v1.1
			c0.5,0,0.9,0.2,1.4,0.3c0.4,0.2,0.9,0.4,1.3,0.7l-1,2.3c-0.4-0.3-0.7-0.5-1.1-0.7c-0.4-0.2-0.8-0.2-1.1-0.2
			c-0.4,0-0.7,0.1-0.9,0.3c-0.2,0.2-0.4,0.4-0.4,0.7c0,0.3,0.1,0.5,0.3,0.7s0.6,0.3,1.2,0.5h0.1c1.3,0.4,2.2,0.7,2.6,1.2
			c0.3,0.3,0.5,0.6,0.6,1s0.2,0.8,0.2,1.3c0,1.1-0.3,2-1,2.8c-0.7,0.7-1.6,1.2-2.7,1.3v1.9h-1v-1.9c-0.8,0-1.4-0.2-2.1-0.4
			c-0.6-0.3-1.2-0.7-1.8-1.3L75.4,28.8z"/>
	</g>
	<g>
		<path class="st1" d="M65,19.8c5.5,0,9.9-4.5,9.9-9.9S70.4,0,65,0c-5.5,0-9.9,4.5-9.9,9.9S59.6,19.8,65,19.8z"/>
		
			<ellipse transform="matrix(1.315399e-02 -0.9999 0.9999 1.315399e-02 54.3018 74.8623)" class="st2" cx="65.1" cy="9.9" rx="8.4" ry="8.4"/>
		<path class="st1" d="M62.2,11.5c0.5,0.5,0.9,0.9,1.4,1.2s1,0.4,1.4,0.4s0.7-0.1,1-0.3c0.3-0.2,0.4-0.5,0.4-0.9s-0.1-0.7-0.3-0.9
			c-0.2-0.2-0.7-0.4-1.5-0.6c-1.2-0.3-2-0.7-2.5-1.2s-0.7-1.2-0.7-2c0-1.1,0.3-1.9,1-2.6s1.6-1,2.8-1.2V2.3h1v1.1
			c0.5,0,0.9,0.2,1.4,0.3c0.4,0.2,0.9,0.4,1.3,0.7l-1,2.3c-0.4-0.3-0.7-0.5-1.1-0.7c-0.4-0.2-0.8-0.2-1.1-0.2
			c-0.4,0-0.7,0.1-0.9,0.3c-0.2,0.2-0.4,0.4-0.4,0.7c0,0.3,0.1,0.5,0.3,0.7s0.6,0.3,1.2,0.5H66c1.3,0.4,2.2,0.7,2.6,1.2
			c0.3,0.3,0.5,0.6,0.6,1s0.2,0.8,0.2,1.3c0,1.1-0.3,2-1,2.8c-0.7,0.7-1.6,1.2-2.7,1.3v1.9h-1v-1.9c-0.8,0-1.4-0.2-2.1-0.4
			c-0.6-0.3-1.2-0.7-1.8-1.3L62.2,11.5z"/>
	</g>
	<g>
		<path class="st1" d="M95.8,23.5c5.5,0,9.9-4.5,9.9-9.9c0-5.5-4.5-9.9-9.9-9.9s-9.9,4.5-9.9,9.9C85.9,19,90.3,23.5,95.8,23.5z"/>
		<path class="st2" d="M95.8,21.9c4.6,0,8.4-3.8,8.4-8.4s-3.8-8.4-8.4-8.4c-4.6,0-8.4,3.8-8.4,8.4C87.4,18.2,91.2,21.9,95.8,21.9z"
			/>
		<path class="st1" d="M93,15.2c0.5,0.5,0.9,0.9,1.4,1.2c0.5,0.3,1,0.4,1.4,0.4s0.7-0.1,1-0.3c0.3-0.2,0.4-0.5,0.4-0.9
			s-0.1-0.7-0.3-0.9c-0.2-0.2-0.7-0.4-1.5-0.6c-1.2-0.3-2-0.7-2.5-1.2s-0.7-1.2-0.7-2c0-1.1,0.3-1.9,1-2.6s1.6-1,2.8-1.2V6h1v1.1
			c0.5,0,0.9,0.2,1.4,0.3c0.4,0.2,0.9,0.4,1.3,0.7l-1,2.3c-0.4-0.3-0.7-0.5-1.1-0.7c-0.4-0.2-0.8-0.2-1.1-0.2
			c-0.4,0-0.7,0.1-0.9,0.3c-0.2,0.2-0.3,0.4-0.3,0.7c0,0.3,0.1,0.5,0.3,0.7s0.6,0.3,1.2,0.5h0.1c1.3,0.4,2.2,0.7,2.6,1.2
			c0.3,0.3,0.5,0.6,0.6,1s0.2,0.8,0.2,1.3c0,1.1-0.3,2-1,2.8c-0.7,0.7-1.6,1.2-2.7,1.3v1.9h-1v-1.9c-0.8,0-1.4-0.2-2.1-0.4
			c-0.6-0.3-1.2-0.7-1.8-1.3L93,15.2z"/>
	</g>
	<path class="st5" d="M126.7,74.7c0.5,0,0.9-1,0.9-2.3s-0.4-2.3-0.9-2.3s-0.9,1-0.9,2.3C125.8,73.6,126.2,74.7,126.7,74.7z"/>
	<path class="st7" d="M42.5,80.4C38.3,67.5,42,45.2,56.1,41.3C42.8,50.5,42,72.8,42.5,80.4z"/>
	<path class="st7" d="M85,51.8c-1.2-3.7,0.5-9.2,5.6-9.1C86.3,44.7,84.9,49.6,85,51.8z"/>
</g>
</svg>
