<?xml version="1.0" encoding="utf-8"?>
<!-- Generator: Adobe Illustrator 22.1.0, SVG Export Plug-In . SVG Version: 6.00 Build 0)  -->
<svg version="1.1" id="Objects" xmlns="http://www.w3.org/2000/svg" xmlns:xlink="http://www.w3.org/1999/xlink" x="0px" y="0px"
	 viewBox="0 0 799.9 799.9" style="enable-background:new 0 0 799.9 799.9;" xml:space="preserve">
<style type="text/css">
	.st0{fill-rule:evenodd;clip-rule:evenodd;fill:#E03D14;}
	.st1{fill-rule:evenodd;clip-rule:evenodd;fill:#FFAE00;}
	.st2{fill-rule:evenodd;clip-rule:evenodd;fill:#FFEBBF;}
	.st3{fill:#FFAE00;}
	.st4{font-family:'Arial-BoldMT';}
	.st5{font-size:8.7344px;}
	.st6{fill:#FFEBBF;}
	.st7{fill-rule:evenodd;clip-rule:evenodd;fill:#FC6E4B;}
	.st8{fill-rule:evenodd;clip-rule:evenodd;fill:#335E59;}
	.st9{fill-rule:evenodd;clip-rule:evenodd;fill:#FF9D85;}
</style>
<g>
	<path class="st0" d="M663.4,496.1c-0.5-0.4-1.1-0.5-1.7-0.3v1.5c0.4-0.2,0.7-0.3,0.9-0.1c0.3,0.2,0.1,0.9-0.4,1.6
		c-0.2,0.2-0.4,0.4-0.6,0.5v2.4c1.9,0.8,3.9,0.7,4.9-0.2c-0.4,0.5,1.4-2.4,0.8-2c-1.4,0.9-3.3,1.3-4.9,1c0.3-0.2,0.6-0.4,0.8-0.7
		C664.3,498.4,664.3,496.8,663.4,496.1z M661.7,495.7c-0.6,0.1-1.2,0.5-1.7,1.1c-0.3,0.4-0.5,0.8-0.6,1.2c-0.6-1.1-1-2.6-0.8-4.6
		c-1.5,4.4,0.7,7.1,3.1,8.1v-2.4c-0.4,0.2-0.7,0.3-0.9,0.1c-0.3-0.2-0.1-0.9,0.4-1.6c0.2-0.2,0.4-0.4,0.6-0.5V495.7z"/>
	<g>
		<path class="st1" d="M625.7,510h52.5c1,0,1.9,0.8,1.9,1.9v31.9c0,1-0.8,1.9-1.9,1.9h-52.5c-1,0-1.9-0.8-1.9-1.9v-31.9
			C623.8,510.8,624.6,510,625.7,510z"/>
		<rect x="623.8" y="535" class="st2" width="56.2" height="6.6"/>
		<path class="st2" d="M628.3,513.3h10.7c0.6,0,1,0.5,1,1v7.1c0,0.6-0.5,1-1,1h-10.7c-0.6,0-1-0.5-1-1v-7.1
			C627.3,513.7,627.8,513.3,628.3,513.3z"/>
	</g>
	<g>
		<rect x="701.5" y="478.7" class="st1" width="79.8" height="36.3"/>
		<rect x="703.7" y="481.2" class="st2" width="75.5" height="31.3"/>
		<path class="st1" d="M770,478.7h11.2V490C775.1,490,770,484.9,770,478.7z"/>
		<path class="st1" d="M712.7,515h-11.2v-11.2C707.7,503.8,712.7,508.8,712.7,515z"/>
		<path class="st1" d="M741.4,508.7c6.5,0,11.8-5.3,11.8-11.8c0-6.5-5.3-11.8-11.8-11.8c-6.5,0-11.8,5.3-11.8,11.8
			C729.6,503.4,734.9,508.7,741.4,508.7z"/>
		<text transform="matrix(1 0 0 1 705.1079 490.6455)" class="st3 st4 st5">100</text>
		<text transform="matrix(1 0 0 1 763.4741 511.7216)" class="st3 st4 st5">100</text>
		<path class="st6" d="M743.2,489.6c0.6,0.2,1.2,0.5,1.6,0.9c0.6,0.6,1,1.3,1.1,2.2l-2.4,0.3c-0.1-0.3-0.2-0.6-0.3-0.8V489.6
			L743.2,489.6z M743.2,495.4c1.1,0.4,1.8,0.8,2.3,1.3c0.5,0.6,0.8,1.5,0.8,2.5c0,1.1-0.3,2.1-1,2.8c-0.5,0.6-1.2,1-2.1,1.3v-2.2
			c0.1-0.1,0.2-0.2,0.3-0.3c0.3-0.3,0.4-0.8,0.4-1.2c0-0.4-0.1-0.8-0.4-1.1c-0.1-0.1-0.2-0.3-0.4-0.4V495.4z M741.1,501.3v-3.9
			c-0.2-0.1-0.4-0.1-0.6-0.2v-2.8c0.2,0.1,0.4,0.3,0.6,0.4v-3.2c-0.2,0.1-0.4,0.2-0.6,0.3v-2.3c0.2,0,0.4-0.1,0.6-0.1v-0.9h1.4v0.9
			c0.3,0,0.5,0.1,0.8,0.2v2.6c-0.2-0.3-0.5-0.5-0.8-0.6v3.7c0.3,0.1,0.5,0.2,0.8,0.2v2.7c-0.2-0.1-0.5-0.2-0.8-0.3v3.6
			c0.3-0.1,0.6-0.2,0.8-0.3v2.2c-0.2,0.1-0.5,0.1-0.8,0.2v1.7h-1.4v-1.7c-0.2,0-0.4-0.1-0.6-0.1v-2.6
			C740.7,501,740.9,501.2,741.1,501.3z M740.5,497.2c-0.9-0.3-1.6-0.8-2.1-1.4c-0.6-0.7-0.9-1.6-0.9-2.6c0-1,0.3-1.9,1-2.6
			c0.5-0.6,1.2-0.9,2-1.1v2.3c-0.1,0.1-0.2,0.2-0.3,0.3c-0.2,0.3-0.3,0.6-0.3,1c0,0.3,0.1,0.6,0.3,0.9c0.1,0.1,0.2,0.2,0.3,0.3
			V497.2L740.5,497.2z M740.5,503.4c-0.8-0.2-1.5-0.6-2-1.1c-0.7-0.7-1.1-1.6-1.3-2.8l2.4-0.3c0.1,0.5,0.3,0.9,0.6,1.3
			c0.1,0.1,0.2,0.3,0.3,0.4V503.4z"/>
	</g>
	<polygon class="st0" points="687.7,550.6 695.4,550.6 695.4,537.7 717.7,537.7 716.2,550.6 725,550.6 725,530.4 678,530.4 
		681.6,550.4 	"/>
	<path class="st7" d="M664.1,503.9c-5,23.9,10,42.6,16.7,46.6h6.9l-0.1-9.2c5.2,2,12.1,3.1,19.3,2.7v6.5h9.2
		c7.7-4.4,19.1-23.7,31.3-25.3c3-0.2,5.4-3.5,5.9-7.8c0.2-1.1,0.2-2.3,0-3.4c-0.4-2.3-1-4-1.9-5.2c-1.1-1.6-2.6-2.6-4.3-2.6
		c-4.7-0.1-9.2-8-11.2-11C720,471.1,671.4,468.9,664.1,503.9z"/>
	<path class="st0" d="M706.7,493.1c1.1,8.5,10.5,11.9,22.4,3.8c7.7-5.3,9.5-7.9-0.4-10.5C721.2,484.4,705,480,706.7,493.1z"/>
	<ellipse class="st0" cx="748.2" cy="515.8" rx="4.5" ry="8.1"/>
	<path class="st7" d="M747,517.7c0.5,0,0.9-1,0.9-2.3c0-1.3-0.4-2.3-0.9-2.3c-0.5,0-0.9,1-0.9,2.3C746,516.6,746.5,517.7,747,517.7z
		"/>
	<path class="st8" d="M693.6,481.9c7.6-2,18.1,1.1,20.2,2.1l1.5-2.2c-1.4-1.2-13.2-4.7-21.8-2.4L693.6,481.9z"/>
	<path class="st0" d="M714.4,483.2l1-1.4c-1.4-1.2-13.2-4.7-21.8-2.4l0,1.3C703.2,479.2,710,481.5,714.4,483.2z"/>
	<path class="st8" d="M728.9,503.7c1,0,1.9-0.8,1.9-1.9c0-1-0.8-1.9-1.9-1.9c-1,0-1.9,0.8-1.9,1.9
		C727,502.9,727.8,503.7,728.9,503.7z"/>
	<path class="st7" d="M707.7,493c0.9,7.4,9.2,10.4,19.5,3.3c6.7-4.6,8.3-6.9-0.3-9.2C720.3,485.4,706.2,481.6,707.7,493z"/>
	<g>
		<path class="st1" d="M702.1,480.1c5.5,0,9.9-4.5,9.9-9.9c0-5.5-4.5-9.9-9.9-9.9c-5.5,0-9.9,4.5-9.9,9.9
			C692.1,475.7,696.6,480.1,702.1,480.1z"/>
		
			<ellipse transform="matrix(0.9732 -0.2298 0.2298 0.9732 -89.2464 173.8821)" class="st2" cx="702.1" cy="470.2" rx="8.4" ry="8.4"/>
		<path class="st3" d="M699.2,471.8c0.5,0.5,0.9,0.9,1.4,1.2c0.5,0.3,1,0.4,1.4,0.4c0.4,0,0.7-0.1,1-0.3c0.3-0.2,0.4-0.5,0.4-0.9
			c0-0.4-0.1-0.7-0.3-0.9c-0.2-0.2-0.7-0.4-1.5-0.6c-1.2-0.3-2-0.7-2.5-1.2c-0.5-0.5-0.7-1.2-0.7-2c0-1.1,0.3-1.9,1-2.6
			c0.7-0.7,1.6-1,2.8-1.2v-1.1h1l0,1.1c0.5,0,0.9,0.2,1.4,0.3c0.4,0.2,0.9,0.4,1.3,0.7l-1,2.3c-0.4-0.3-0.7-0.5-1.1-0.7
			c-0.4-0.2-0.8-0.2-1.1-0.2c-0.4,0-0.7,0.1-0.9,0.3c-0.2,0.2-0.4,0.4-0.4,0.7c0,0.3,0.1,0.5,0.3,0.7c0.2,0.2,0.6,0.3,1.2,0.5l0.1,0
			c1.3,0.4,2.2,0.7,2.6,1.2c0.3,0.3,0.5,0.6,0.6,1c0.1,0.4,0.2,0.8,0.2,1.3c0,1.1-0.3,2-1,2.8c-0.7,0.7-1.6,1.2-2.7,1.3v1.9h-1v-1.9
			c-0.8,0-1.4-0.2-2.1-0.4c-0.6-0.3-1.2-0.7-1.8-1.3L699.2,471.8z"/>
	</g>
	<g>
		<path class="st1" d="M688.8,462.8c5.5,0,9.9-4.5,9.9-9.9s-4.5-9.9-9.9-9.9c-5.5,0-9.9,4.5-9.9,9.9S683.4,462.8,688.8,462.8z"/>
		
			<ellipse transform="matrix(1.315382e-02 -0.9999 0.9999 1.315382e-02 226.9626 1135.6945)" class="st2" cx="688.8" cy="452.9" rx="8.4" ry="8.4"/>
		<path class="st3" d="M686,454.5c0.5,0.5,0.9,0.9,1.4,1.2s1,0.4,1.4,0.4c0.4,0,0.7-0.1,1-0.3c0.3-0.2,0.4-0.5,0.4-0.9
			c0-0.4-0.1-0.7-0.3-0.9c-0.2-0.2-0.7-0.4-1.5-0.6c-1.2-0.3-2-0.7-2.5-1.2c-0.5-0.5-0.7-1.2-0.7-2c0-1.1,0.3-1.9,1-2.6
			c0.7-0.7,1.6-1,2.8-1.2v-1.1h1l0,1.1c0.5,0,0.9,0.2,1.4,0.3c0.4,0.2,0.9,0.4,1.3,0.7l-1,2.3c-0.4-0.3-0.7-0.5-1.1-0.7
			c-0.4-0.2-0.8-0.2-1.1-0.2c-0.4,0-0.7,0.1-0.9,0.3c-0.2,0.2-0.4,0.4-0.4,0.7c0,0.3,0.1,0.5,0.3,0.7c0.2,0.2,0.6,0.3,1.2,0.5l0.1,0
			c1.3,0.4,2.2,0.7,2.6,1.2c0.3,0.3,0.5,0.6,0.6,1c0.1,0.4,0.2,0.8,0.2,1.3c0,1.1-0.3,2-1,2.8c-0.7,0.7-1.6,1.2-2.7,1.3v1.9h-1v-1.9
			c-0.8,0-1.4-0.2-2.1-0.4c-0.6-0.3-1.2-0.7-1.8-1.3L686,454.5z"/>
	</g>
	<g>
		<path class="st1" d="M719.6,466.5c5.5,0,9.9-4.5,9.9-9.9c0-5.5-4.5-9.9-9.9-9.9s-9.9,4.5-9.9,9.9
			C709.7,462,714.1,466.5,719.6,466.5z"/>
		<path class="st2" d="M719.6,464.9c4.6,0,8.4-3.8,8.4-8.4c0-4.6-3.8-8.4-8.4-8.4c-4.6,0-8.4,3.8-8.4,8.4
			C711.2,461.2,715,464.9,719.6,464.9z"/>
		<path class="st3" d="M716.8,458.2c0.5,0.5,0.9,0.9,1.4,1.2c0.5,0.3,1,0.4,1.4,0.4c0.4,0,0.7-0.1,1-0.3c0.3-0.2,0.4-0.5,0.4-0.9
			c0-0.4-0.1-0.7-0.3-0.9c-0.2-0.2-0.7-0.4-1.5-0.6c-1.2-0.3-2-0.7-2.5-1.2c-0.5-0.5-0.7-1.2-0.7-2c0-1.1,0.3-1.9,1-2.6
			c0.7-0.7,1.6-1,2.8-1.2V449h1l0,1.1c0.5,0,0.9,0.2,1.4,0.3c0.4,0.2,0.9,0.4,1.3,0.7l-1,2.3c-0.4-0.3-0.7-0.5-1.1-0.7
			c-0.4-0.2-0.8-0.2-1.1-0.2c-0.4,0-0.7,0.1-0.9,0.3c-0.2,0.2-0.3,0.4-0.3,0.7c0,0.3,0.1,0.5,0.3,0.7c0.2,0.2,0.6,0.3,1.2,0.5l0.1,0
			c1.3,0.4,2.2,0.7,2.6,1.2c0.3,0.3,0.5,0.6,0.6,1c0.1,0.4,0.2,0.8,0.2,1.3c0,1.1-0.3,2-1,2.8c-0.7,0.7-1.6,1.2-2.7,1.3v1.9h-1v-1.9
			c-0.8,0-1.4-0.2-2.1-0.4c-0.6-0.3-1.2-0.7-1.8-1.3L716.8,458.2z"/>
	</g>
	<path class="st7" d="M750.5,517.7c0.5,0,0.9-1,0.9-2.3c0-1.3-0.4-2.3-0.9-2.3c-0.5,0-0.9,1-0.9,2.3
		C749.6,516.6,750,517.7,750.5,517.7z"/>
	<path class="st9" d="M666.3,523.4c-4.2-12.9-0.5-35.2,13.6-39.1C666.6,493.5,665.8,515.8,666.3,523.4z"/>
	<path class="st9" d="M708.8,494.8c-1.2-3.7,0.5-9.2,5.6-9.1C710.1,487.7,708.7,492.6,708.8,494.8z"/>
</g>
</svg>
