<?xml version="1.0" encoding="utf-8"?>
<!-- Generator: Adobe Illustrator 22.1.0, SVG Export Plug-In . SVG Version: 6.00 Build 0)  -->
<svg version="1.1" id="Objects" xmlns="http://www.w3.org/2000/svg" xmlns:xlink="http://www.w3.org/1999/xlink" x="0px" y="0px"
	 viewBox="0 0 799.9 799.9" style="enable-background:new 0 0 799.9 799.9;" xml:space="preserve">
<style type="text/css">
	.st0{fill-rule:evenodd;clip-rule:evenodd;fill:#FC6E4B;}
	.st1{fill-rule:evenodd;clip-rule:evenodd;fill:#FFFDFA;}
	.st2{fill-rule:evenodd;clip-rule:evenodd;fill:#FFB8A6;}
	.st3{fill-rule:evenodd;clip-rule:evenodd;fill:#71B8B0;}
	.st4{fill-rule:evenodd;clip-rule:evenodd;fill:#49807A;}
	.st5{fill-rule:evenodd;clip-rule:evenodd;fill:#335E59;}
	.st6{fill-rule:evenodd;clip-rule:evenodd;fill:#FFAE00;}
	.st7{fill-rule:evenodd;clip-rule:evenodd;fill:#FFEBBF;}
	.st8{fill-rule:evenodd;clip-rule:evenodd;fill:#45706B;}
</style>
<g>
	<g>
		<path class="st0" d="M478.5,219.4h45c6,0,10.9,4.9,10.9,10.9v101.3c0,6-4.9,10.9-10.9,10.9h-45c-6,0-10.9-4.9-10.9-10.9V230.3
			C467.5,224.3,472.5,219.4,478.5,219.4z"/>
		<rect x="469.6" y="230.3" class="st1" width="62.8" height="103.2"/>
		<rect x="494.5" y="226.4" class="st2" width="12.9" height="1.3"/>
		<path class="st2" d="M501,222.4c0.7,0,1.2,0.5,1.2,1.2c0,0.7-0.5,1.2-1.2,1.2c-0.7,0-1.2-0.5-1.2-1.2
			C499.8,223,500.3,222.4,501,222.4z"/>
		<path class="st2" d="M501,335.2c1.5,0,2.8,1.2,2.8,2.8c0,1.5-1.2,2.8-2.8,2.8c-1.5,0-2.8-1.2-2.8-2.8
			C498.2,336.4,499.4,335.2,501,335.2z"/>
	</g>
	<g>
		<path class="st3" d="M516.5,267.4h1.3c3.8,0,3.9-4.3,0-4.3l-1.3,0v0.3c1,0,1.8,0.8,1.8,1.8c0,1-0.8,1.8-1.8,1.8V267.4z
			 M485.5,267.4h31v-0.4c-1,0-1.8-0.8-1.8-1.8c0-1,0.8-1.8,1.8-1.8v-0.3c-10.3,0-20.7,0-31,0v0.3c1,0,1.8,0.8,1.8,1.8
			c0,1-0.8,1.8-1.8,1.8V267.4z M484.1,267.4h1.3v-0.4c-1,0-1.8-0.8-1.8-1.8c0-1,0.8-1.8,1.8-1.8v-0.3l-1.3,0
			C480.2,263.2,480.4,267.4,484.1,267.4z"/>
		<path class="st3" d="M503.4,248.6c-1,0-1.8,0.8-1.8,1.8c0,1,0.8,1.8,1.8,1.8c1,0,1.8-0.8,1.8-1.8
			C505.1,249.4,504.3,248.6,503.4,248.6z"/>
		<path class="st3" d="M517.2,264.8L505,251.2c-0.3-0.3-0.8-0.3-1.1-0.1l0,0c-0.3,0.3-0.3,0.8-0.1,1.1l12.2,13.7
			c0.3,0.3,0.8,0.3,1.1,0.1l0,0C517.4,265.6,517.5,265.1,517.2,264.8z"/>
		<path class="st3" d="M498.6,248.6c1,0,1.8,0.8,1.8,1.8c0,1-0.8,1.8-1.8,1.8c-1,0-1.8-0.8-1.8-1.8
			C496.8,249.4,497.6,248.6,498.6,248.6z"/>
		<path class="st3" d="M484.8,264.8l13.3-14.9c0.3-0.3,0.8-0.3,1.1-0.1l0,0c0.3,0.3,0.3,0.8,0.1,1.1l-13.3,14.9
			c-0.3,0.3-0.8,0.3-1.1,0.1l0,0C484.5,265.6,484.5,265.1,484.8,264.8z"/>
		<path class="st3" d="M511.3,268.7h6.3l-1.6,9.4c-0.4,2-1.3,3.6-4.5,3.6h-0.2v-2.8c0.4-0.2,0.8-0.7,0.9-1.2
			c0.1-1.1,0.3-2.2,0.4-3.2c0.1-1.1,0.3-2.2,0.4-3.2c0.1-0.7-0.5-1.3-1.2-1.3l0,0c-0.2,0-0.3,0-0.5,0.1V268.7z M506.2,268.7h5.2v1.3
			c-0.6,0.2-1,0.7-1.1,1.2c-0.1,1.1-0.2,2.2-0.3,3.2c-0.1,1.1-0.2,2.2-0.3,3.2c-0.1,0.7,0.4,1.3,1.1,1.3l0,0c0.2,0,0.4-0.1,0.6-0.1
			v2.8h-5.2V279c0.6-0.1,1-0.7,1.1-1.3c0.1-1.1,0.2-2.2,0.2-3.2c0.1-1.1,0.2-2.2,0.2-3.2c0.1-0.7-0.5-1.3-1.3-1.3l0,0
			c-0.1,0-0.2,0-0.2,0V268.7z M501,268.7h5.2v1.2c-0.7,0.1-1.2,0.6-1.3,1.3c0,1.1-0.1,2.2-0.1,3.2c0,1.1-0.1,2.2-0.1,3.2
			c0,0.7,0.5,1.3,1.2,1.3l0,0c0.1,0,0.2,0,0.3,0v2.7H501V279c0.7,0,1.3-0.6,1.3-1.3c0-1.1,0-2.2,0.1-3.2c0-1.1,0-2.2,0.1-3.2
			c0-0.7-0.6-1.3-1.4-1.3l0,0l0,0V268.7z M495.8,268.7h5.2v1.2c-0.8,0-1.4,0.6-1.4,1.3c0,1.1,0,2.2,0.1,3.2c0,1.1,0,2.2,0,3.2
			c0,0.7,0.6,1.3,1.3,1.3l0,0h0v2.7h-5.2V279c0.1,0,0.2,0,0.3,0l0,0c0.7,0,1.3-0.6,1.2-1.3c0-1.1-0.1-2.2-0.1-3.2
			c0-1.1-0.1-2.2-0.1-3.2c0-0.7-0.6-1.2-1.3-1.3V268.7z M490.6,268.7h5.1v1.2c-0.1,0-0.1,0-0.2,0l0,0c-0.8,0-1.4,0.6-1.3,1.3
			c0.1,1.1,0.2,2.2,0.2,3.2c0.1,1.1,0.2,2.2,0.2,3.2c0,0.6,0.5,1.1,1.1,1.3v2.7h-5.1v-2.8c0.2,0.1,0.4,0.1,0.6,0.1l0,0
			c0.7,0,1.2-0.6,1.1-1.3c-0.1-1.1-0.2-2.2-0.3-3.2c-0.1-1.1-0.2-2.2-0.3-3.2c-0.1-0.6-0.5-1.1-1.1-1.2V268.7z M490.5,281.7
			c-3.1,0-4.1-1.5-4.5-3.6l-1.6-9.4h6.3v1.3c-0.2-0.1-0.3-0.1-0.5-0.1l0,0c-0.8,0-1.3,0.6-1.2,1.3c0.1,1.1,0.3,2.2,0.4,3.2
			c0.1,1.1,0.3,2.2,0.4,3.2c0.1,0.5,0.4,1,0.9,1.2v2.8H490.5z"/>
	</g>
	<g>
		<polygon class="st4" points="436.5,300.2 442.1,300.2 442.1,283.8 436.5,289.4 		"/>
		<polygon class="st4" points="471.4,300.2 465.8,300.2 465.8,283.8 471.4,289.4 		"/>
		<polygon class="st5" points="436.5,289.4 442.1,283.8 465.8,283.8 471.4,289.4 		"/>
		<rect x="424.7" y="297.7" class="st5" width="58.5" height="56.3"/>
	</g>
	<g>
		<path class="st6" d="M521.5,236.1h61.9c1.2,0,2.2,1,2.2,2.2V276c0,1.2-1,2.2-2.2,2.2h-61.9c-1.2,0-2.2-1-2.2-2.2v-37.7
			C519.3,237.1,520.3,236.1,521.5,236.1z"/>
		<rect x="519.3" y="265.6" class="st7" width="66.3" height="7.8"/>
		<path class="st7" d="M524.6,240h12.6c0.7,0,1.2,0.5,1.2,1.2v8.4c0,0.7-0.5,1.2-1.2,1.2h-12.6c-0.7,0-1.2-0.5-1.2-1.2v-8.4
			C523.4,240.5,524,240,524.6,240z"/>
	</g>
	<path class="st8" d="M491.4,287.4h19.2c0.4,0,0.7,0.3,0.7,0.7v5c0,0.4-0.3,0.7-0.7,0.7h-19.2c-0.4,0-0.7-0.3-0.7-0.7v-5
		C490.7,287.7,491,287.4,491.4,287.4z"/>
	<g>
		<rect x="497.4" y="296.8" class="st3" width="7.1" height="18.3"/>
		<polygon class="st3" points="501,322.4 509.5,311.2 492.4,311.2 		"/>
	</g>
</g>
</svg>
