<?xml version="1.0" encoding="utf-8"?>
<!-- Generator: Adobe Illustrator 22.1.0, SVG Export Plug-In . SVG Version: 6.00 Build 0)  -->
<svg version="1.1" xmlns="http://www.w3.org/2000/svg" xmlns:xlink="http://www.w3.org/1999/xlink" x="0px" y="0px"
	 viewBox="0 0 173 292.6" style="enable-background:new 0 0 173 292.6;" xml:space="preserve">
<style type="text/css">
	.st0{fill:#FFF200;}
</style>
<g id="background">
</g>
<g id="objects">
	<path class="st0" d="M172.9,89.8c0.9-20.1-5.5-40-18.1-55.7c-12.2-15.2-29.4-26.3-48.1-31.6C87.7-2.9,66,0.9,48.4,9.2
		C11.4,26.7-9.2,69.1,4,108.6c4.2,12.6,10.9,24.2,15.8,36.5c4.9,12.4,7.6,23,8.8,36.3c2.4,26.7-1.3,53.6-5,80c-0.8,1.6-0.3,4,2,4.3
		c1,0.1,2,0.3,3,0.4c-0.3,2-0.5,4-0.8,6c-0.1,0.5,0,1,0.1,1.4c0.2,1.1,0.9,2.1,2.3,2.3c0.5,0.1,1.1,0.2,1.6,0.2
		c1.5,3.2,2.9,6.5,4.4,9.6c0,0.1,0.1,0.2,0.2,0.3c0.3,0.8,1,1.3,2.1,1.5c11.3,1.7,22.6,3.4,33.9,5c1.1,0.2,1.9-0.2,2.4-0.8
		c0.1-0.1,0.2-0.1,0.3-0.2c2.4-2.6,4.6-5.3,7-7.9c0.5,0.1,1.1,0.2,1.6,0.2c1.4,0.2,2.4-0.5,2.9-1.5c0.3-0.4,0.5-0.8,0.6-1.3
		c0.3-2,0.6-4,1-6c1,0.2,2,0.3,3,0.5c2.3,0.4,3.5-1.7,3.2-3.5c3.7-23.5,7.5-47.2,15.4-69.7c3.9-11.2,8.8-19.5,15.2-29.5
		c6.4-10,14.4-18.6,22.3-27.5C161.5,129.2,171.9,111.7,172.9,89.8z M62.6,211.5c0.3-23.2-0.3-43.9-0.9-67.1
		c-0.2-7.7,0-15.6-0.4-23.4c7.6-1.3,15.2-5.7,21.1-11.2c3.6,6.3,8.5,11.7,13.9,14.8c1.6,0.9,3.5,1.7,5.6,2.3
		c-14.4,27.7-19.8,56.3-27.9,86.2C70.1,212.5,66.3,212,62.6,211.5z M83.8,220.3c-16.7,2-33.4,4.2-50.1,6.6c0.4-4.5,0.8-9.1,1-13.6
		C51,215.8,67.4,218,83.8,220.3z M29.6,260.3c0.1-0.8,0.2-1.5,0.3-2.3c20.7-3.1,41.5-5.6,62.2-8.1c-1.1,6.4-2.2,12.8-3.2,19.2
		C69.2,266,49.5,263.1,29.6,260.3z M31.5,246c20.9-3.1,41.9-5.4,62.9-7.8c-0.4,1.9-0.8,3.9-1.1,5.8c-20.9,2.4-41.7,5-62.5,8
		C31,250,31.3,248,31.5,246z M95.6,232.1c-21.1,2.5-42.3,4.8-63.4,7.9c0.3-2.3,0.5-4.7,0.8-7.1c21.4-3.2,42.8-5.8,64.3-8.4
		C96.8,227.1,96.2,229.6,95.6,232.1z M71.8,286.5C61.5,285,51.3,283.5,41,282c-0.7-1.6-1.5-3.3-2.2-4.9c12.2,1.8,24.4,3.6,36.6,5.4
		C74.2,283.9,73,285.2,71.8,286.5z M81.9,277.6c-16-2.4-32-4.7-48-7.1c0.2-1.2,0.3-2.4,0.5-3.6c16.1,2.2,32.1,4.6,48.1,7.2
		C82.3,275.2,82.1,276.4,81.9,277.6z M140.5,144c-16.1,17.9-28.5,33.9-36.3,56.8c-1.8,5.2-3.4,10.5-4.8,15.8
		c-6.6-1-13.1-1.9-19.7-2.8c4.3-16,7.6-29.6,12.4-45.4c3.2-10.5,6.8-20.9,11.2-31c1.4-3.2,2.9-6.4,4.6-9.5
		c10.7,1.1,22.9-2.4,23.4-14.1c0.3-5.8-3.5-9.8-9.6-8.8c-7.5,1.2-12.5,9-16,15c-0.4,0.6-0.7,1.2-1,1.8c-4.9-1.4-9.2-4.5-12.7-8.3
		c-2.3-2.5-4-5.4-5.4-8.5c1.3-1.6,2.4-3.1,3.3-4.7c3.9-6.9,6.5-17.3,1.8-24.6c-3.9-6-9.8-1.8-12.3,3.1c-3.8,7.6-3.1,16.9,0.3,25.3
		c-5.2,5.5-12.1,9.7-19,10.8c-0.1-0.9-0.2-1.8-0.3-2.6c-1-6.6-3.5-15.5-10-18.8c-5.1-2.6-10.8,1.1-12.2,6.4
		c-1.7,6.8,2.9,15.3,8.8,18.6c2.6,1.5,5.4,2.2,8.3,2.5c1.9,30.5,1.9,58.9,1.5,89.4c-7.3-1-14.6-2.1-21.9-3.1
		c0.8-23.6-1.5-44.4-10.6-66.6C16,120.7,4.2,102,5.7,79.3c1.4-20.9,11.8-40.9,28-54.1C49.7,12.3,70.2,5.6,90.6,5.9
		C110.4,6.2,130.2,17,144,30.8c15,14.9,23.5,35.3,23.1,56.5C166.8,110.2,155.4,127.5,140.5,144z M110.8,122.8
		c2.9-4.5,12.1-16.9,14.6-10.2c2.4,6.4-9.2,9.8-13.4,10.1C111.6,122.8,111.1,122.8,110.8,122.8z M83.4,94c-0.5-3.7-0.8-8.1,0.7-11.6
		c3.4-8,4.2,4.4,3.8,6.6c-0.5,3.1-1.8,6.3-3.7,9.4C83.9,97,83.6,95.5,83.4,94z M54.9,115.3c-0.4,0-0.8-0.1-1.2-0.2
		c-3.6-0.6-6.6-2.8-8.2-6c-1.9-3.8-2.4-13.6,4-8.5C53.3,103.7,54.4,110.1,54.9,115.3z"/>
</g>
</svg>
