<?xml version="1.0" encoding="utf-8"?>
<!-- Generator: Adobe Illustrator 22.1.0, SVG Export Plug-In . SVG Version: 6.00 Build 0)  -->
<svg version="1.1" id="Objects" xmlns="http://www.w3.org/2000/svg" xmlns:xlink="http://www.w3.org/1999/xlink" x="0px" y="0px"
	 viewBox="0 0 132.4 119.9" style="enable-background:new 0 0 132.4 119.9;" xml:space="preserve">
<style type="text/css">
	.st0{fill:#FFEBBF;}
	.st1{fill:#335E59;}
	.st2{fill:#88C9C1;}
	.st3{font-family:'Arial-BoldMT';}
	.st4{font-size:13.5876px;}
	.st5{fill:#FFAE00;}
</style>
<g>
	<g>
		<g>
			
				<rect x="-3.9" y="23.7" transform="matrix(0.8604 -0.5096 0.5096 0.8604 -8.7134 21.3064)" class="st0" width="76.9" height="5.7"/>
			
				<rect x="95" y="-11.8" transform="matrix(0.5096 -0.8604 0.8604 0.5096 25.017 97.2607)" class="st0" width="5.7" height="76.9"/>
		</g>
		<g>
			<rect x="93.7" class="st0" width="5.2" height="25.8"/>
			<rect x="112.4" class="st0" width="5.2" height="37.4"/>
			<rect x="93.7" class="st0" width="24" height="5.2"/>
		</g>
	</g>
	<g>
		<rect x="4.1" y="63.5" class="st1" width="124.1" height="56.4"/>
		<rect x="7.5" y="67.4" class="st2" width="117.4" height="48.7"/>
		<path class="st1" d="M110.8,63.5h17.4V81C118.6,81,110.8,73.2,110.8,63.5z"/>
		<path class="st1" d="M21.6,119.9H4.1v-17.5C13.8,102.5,21.6,110.3,21.6,119.9z"/>
		<path class="st1" d="M66.2,110.1c10.1,0,18.3-8.2,18.3-18.3c0-10.1-8.2-18.3-18.3-18.3c-10.1,0-18.3,8.2-18.3,18.3
			C47.9,101.8,56.1,110.1,66.2,110.1z"/>
		<text transform="matrix(1 0 0 1 9.4774 81.5259)" class="st1 st3 st4">100</text>
		<text transform="matrix(1 0 0 1 100.2669 114.3111)" class="st1 st3 st4">100</text>
		<path class="st2" d="M69,80.4c1,0.3,1.8,0.7,2.5,1.3c0.9,0.9,1.5,2,1.7,3.5l-3.7,0.5c-0.1-0.5-0.3-1-0.5-1.3V80.4L69,80.4z
			 M69,89.4c1.7,0.6,2.8,1.3,3.5,2.1c0.8,1,1.3,2.3,1.3,3.9c0,1.8-0.5,3.2-1.6,4.4c-0.8,0.9-1.9,1.6-3.2,2v-3.5
			c0.2-0.1,0.4-0.3,0.5-0.5c0.5-0.5,0.7-1.2,0.7-1.9c0-0.7-0.2-1.2-0.6-1.7c-0.2-0.2-0.4-0.4-0.7-0.6v-4.2H69z M65.7,98.6v-6.1
			c-0.3-0.1-0.6-0.2-0.9-0.3v-4.4c0.3,0.2,0.6,0.4,0.9,0.6v-5c-0.4,0.1-0.7,0.3-0.9,0.5v-3.5c0.3-0.1,0.6-0.1,0.9-0.2v-1.4h2.1v1.4
			c0.4,0.1,0.8,0.1,1.2,0.2v4c-0.3-0.4-0.7-0.8-1.2-1v5.7c0.4,0.1,0.8,0.2,1.2,0.4v4.2c-0.3-0.2-0.7-0.4-1.2-0.5v5.7
			c0.5-0.1,0.9-0.3,1.2-0.5v3.5c-0.4,0.1-0.8,0.2-1.2,0.3v2.7h-2.1v-2.6c-0.3,0-0.6-0.1-0.9-0.2v-4C65,98.2,65.4,98.4,65.7,98.6z
			 M64.8,92.2c-1.4-0.5-2.5-1.2-3.2-2.2c-0.9-1.1-1.3-2.4-1.3-4s0.5-2.9,1.5-4c0.8-0.9,1.8-1.4,3.1-1.7v3.5
			c-0.2,0.1-0.3,0.3-0.4,0.5c-0.3,0.5-0.5,1-0.5,1.5s0.2,1,0.5,1.4c0.1,0.2,0.3,0.4,0.5,0.5v4.5H64.8z M64.8,101.9
			c-1.3-0.3-2.3-0.9-3.2-1.7c-1-1-1.7-2.5-2-4.4l3.8-0.4c0.2,0.8,0.4,1.4,0.9,2c0.2,0.2,0.3,0.4,0.5,0.6L64.8,101.9L64.8,101.9z"/>
	</g>
	<g>
		<circle class="st5" cx="71" cy="35.4" r="11.1"/>
		<circle class="st0" cx="71" cy="35.4" r="9.4"/>
		<path class="st5" d="M67.8,37.3c0.5,0.6,1,1,1.6,1.3c0.5,0.3,1.1,0.4,1.6,0.4c0.4,0,0.8-0.1,1.1-0.4c0.3-0.3,0.4-0.6,0.4-1
			s-0.1-0.7-0.4-1c-0.2-0.2-0.8-0.5-1.7-0.7c-1.3-0.4-2.3-0.8-2.8-1.4c-0.5-0.5-0.8-1.3-0.8-2.3c0-1.2,0.4-2.1,1.1-2.9
			c0.7-0.7,1.8-1.2,3.1-1.3v-1.2h1.1V28c0.5,0.1,1,0.2,1.5,0.4c0.5,0.2,1,0.4,1.5,0.8L74,31.7c-0.4-0.3-0.8-0.6-1.2-0.8
			c-0.4-0.2-0.8-0.3-1.3-0.3c-0.4,0-0.8,0.1-1,0.3c-0.3,0.2-0.4,0.5-0.4,0.8s0.1,0.6,0.3,0.8c0.2,0.2,0.7,0.4,1.4,0.6h0.1
			c1.5,0.4,2.4,0.8,2.9,1.3c0.3,0.3,0.5,0.7,0.7,1.1s0.2,0.9,0.2,1.5c0,1.2-0.4,2.3-1.1,3.1c-0.7,0.8-1.7,1.3-3,1.4v2.2h-1.1v-2.1
			c-0.8,0-1.6-0.2-2.3-0.5c-0.7-0.3-1.4-0.8-2-1.4L67.8,37.3z"/>
	</g>
	<g>
		<path class="st5" d="M57.4,59.1c6.1,0,11.1-5,11.1-11.1s-5-11.1-11.1-11.1s-11.1,5-11.1,11.1S51.3,59.1,57.4,59.1z"/>
		<path class="st0" d="M57.4,57.4c5.2,0,9.4-4.2,9.4-9.4c0-5.2-4.2-9.4-9.4-9.4c-5.2,0-9.4,4.2-9.4,9.4C48,53.2,52.2,57.4,57.4,57.4
			z"/>
		<path class="st5" d="M54.2,49.8c0.5,0.6,1,1,1.6,1.3c0.5,0.3,1.1,0.4,1.6,0.4c0.4,0,0.8-0.1,1.1-0.4c0.3-0.3,0.4-0.6,0.4-1
			s-0.1-0.7-0.4-1c-0.2-0.2-0.8-0.5-1.7-0.7C55.5,48,54.5,47.6,54,47c-0.5-0.5-0.8-1.3-0.8-2.3c0-1.2,0.4-2.1,1.1-2.9
			c0.7-0.7,1.8-1.2,3.1-1.3v-1.2h1.1v1.2c0.5,0.1,1,0.2,1.5,0.4c0.5,0.2,1,0.4,1.5,0.8l-1.1,2.5c-0.4-0.3-0.8-0.6-1.2-0.8
			c-0.4-0.2-0.8-0.3-1.3-0.3c-0.4,0-0.8,0.1-1,0.3c-0.3,0.2-0.4,0.5-0.4,0.8s0.1,0.6,0.3,0.8c0.2,0.2,0.7,0.4,1.4,0.6h0.1
			c1.5,0.4,2.4,0.8,2.9,1.3c0.3,0.3,0.5,0.7,0.7,1.1s0.2,0.9,0.2,1.5c0,1.2-0.4,2.3-1.1,3.1c-0.7,0.8-1.7,1.3-3,1.4v2.2h-1.2v-2.1
			c-0.8,0-1.6-0.2-2.3-0.5c-0.7-0.3-1.4-0.8-2-1.4L54.2,49.8z"/>
	</g>
	<g>
		<path class="st5" d="M76.4,73.4c6.1,0,11.1-5,11.1-11.1s-5-11.1-11.1-11.1s-11.1,5-11.1,11.1S70.2,73.4,76.4,73.4z"/>
		<circle class="st0" cx="76.4" cy="62.3" r="9.4"/>
		<path class="st5" d="M73.2,64.1c0.5,0.6,1,1,1.6,1.3c0.5,0.3,1.1,0.4,1.6,0.4c0.4,0,0.8-0.1,1.1-0.4c0.3-0.3,0.4-0.6,0.4-1
			s-0.1-0.7-0.4-1c-0.2-0.2-0.8-0.5-1.7-0.7c-1.3-0.4-2.3-0.8-2.8-1.4c-0.5-0.5-0.8-1.3-0.8-2.3c0-1.2,0.4-2.1,1.1-2.9
			c0.7-0.7,1.8-1.2,3.1-1.3v-1.2h1.1v1.2c0.5,0.1,1,0.2,1.5,0.4c0.5,0.2,1,0.4,1.5,0.8l-1.1,2.5c-0.4-0.3-0.8-0.6-1.2-0.8
			c-0.4-0.2-0.8-0.3-1.3-0.3c-0.4,0-0.8,0.1-1,0.3c-0.3,0.2-0.4,0.5-0.4,0.8s0.1,0.6,0.3,0.8c0.2,0.2,0.7,0.4,1.4,0.6h0.1
			c1.5,0.4,2.4,0.8,2.9,1.3c0.3,0.3,0.5,0.7,0.7,1.2c0.2,0.4,0.2,0.9,0.2,1.5c0,1.2-0.4,2.3-1.1,3.1c-0.7,0.8-1.7,1.3-3,1.4v2.2
			h-1.1v-2.1c-0.8,0-1.6-0.2-2.3-0.5c-0.7-0.3-1.4-0.8-2-1.4L73.2,64.1z"/>
	</g>
</g>
</svg>
