<?xml version="1.0" encoding="utf-8"?>
<!-- Generator: Adobe Illustrator 22.1.0, SVG Export Plug-In . SVG Version: 6.00 Build 0)  -->
<svg version="1.1" id="Objects" xmlns="http://www.w3.org/2000/svg" xmlns:xlink="http://www.w3.org/1999/xlink" x="0px" y="0px"
	 viewBox="0 0 799.9 799.9" style="enable-background:new 0 0 799.9 799.9;" xml:space="preserve">
<style type="text/css">
	.st0{fill-rule:evenodd;clip-rule:evenodd;fill:#FFEBBF;}
	.st1{fill-rule:evenodd;clip-rule:evenodd;fill:#335E59;}
	.st2{fill-rule:evenodd;clip-rule:evenodd;fill:#88C9C1;}
	.st3{fill:#335E59;}
	.st4{font-family:'Arial-BoldMT';}
	.st5{font-size:13.5876px;}
	.st6{fill:#88C9C1;}
	.st7{fill-rule:evenodd;clip-rule:evenodd;fill:#FFAE00;}
	.st8{fill:#FFAE00;}
</style>
<g>
	<g>
		<g>
			
				<rect x="230.9" y="257.8" transform="matrix(0.8604 -0.5096 0.5096 0.8604 -95.2422 173.6557)" class="st0" width="76.9" height="5.7"/>
			
				<rect x="329.7" y="222.3" transform="matrix(0.5096 -0.8604 0.8604 0.5096 -61.1863 414.0317)" class="st0" width="5.7" height="76.9"/>
		</g>
		<g>
			<rect x="328.5" y="234.1" class="st0" width="5.2" height="25.8"/>
			<rect x="347.2" y="234.1" class="st0" width="5.2" height="37.4"/>
			<rect x="328.5" y="234.1" class="st0" width="24" height="5.2"/>
		</g>
	</g>
	<g>
		<rect x="238.9" y="297.6" class="st1" width="124.1" height="56.4"/>
		<rect x="242.3" y="301.5" class="st2" width="117.4" height="48.7"/>
		<path class="st1" d="M345.6,297.6H363v17.5C353.4,315.1,345.6,307.3,345.6,297.6z"/>
		<path class="st1" d="M256.4,354h-17.5v-17.5C248.6,336.6,256.4,344.4,256.4,354z"/>
		<path class="st1" d="M301,344.2c10.1,0,18.3-8.2,18.3-18.3c0-10.1-8.2-18.3-18.3-18.3c-10.1,0-18.3,8.2-18.3,18.3
			C282.7,335.9,290.9,344.2,301,344.2z"/>
		<text transform="matrix(1 0 0 1 244.2764 315.6259)" class="st3 st4 st5">100</text>
		<text transform="matrix(1 0 0 1 335.0659 348.4111)" class="st3 st4 st5">100</text>
		<path class="st6" d="M303.8,314.5c1,0.3,1.8,0.7,2.5,1.3c0.9,0.9,1.5,2,1.7,3.5l-3.7,0.5c-0.1-0.5-0.3-1-0.5-1.3V314.5
			L303.8,314.5z M303.8,323.5c1.7,0.6,2.8,1.3,3.5,2.1c0.8,1,1.3,2.3,1.3,3.9c0,1.8-0.5,3.2-1.6,4.4c-0.8,0.9-1.9,1.6-3.2,2v-3.5
			c0.2-0.1,0.4-0.3,0.5-0.5c0.5-0.5,0.7-1.2,0.7-1.9c0-0.7-0.2-1.2-0.6-1.7c-0.2-0.2-0.4-0.4-0.7-0.6V323.5z M300.5,332.7v-6.1
			c-0.3-0.1-0.6-0.2-0.9-0.3v-4.4c0.3,0.2,0.6,0.4,0.9,0.6v-5c-0.4,0.1-0.7,0.3-0.9,0.5v-3.5c0.3-0.1,0.6-0.1,0.9-0.2v-1.4h2.1v1.4
			c0.4,0.1,0.8,0.1,1.2,0.2v4c-0.3-0.4-0.7-0.8-1.2-1v5.7c0.4,0.1,0.8,0.2,1.2,0.4v4.2c-0.3-0.2-0.7-0.4-1.2-0.5v5.7
			c0.5-0.1,0.9-0.3,1.2-0.5v3.5c-0.4,0.1-0.8,0.2-1.2,0.3v2.7h-2.1v-2.6c-0.3,0-0.6-0.1-0.9-0.2v-4
			C299.8,332.3,300.2,332.5,300.5,332.7z M299.6,326.3c-1.4-0.5-2.5-1.2-3.2-2.2c-0.9-1.1-1.3-2.4-1.3-4c0-1.6,0.5-2.9,1.5-4
			c0.8-0.9,1.8-1.4,3.1-1.7v3.5c-0.2,0.1-0.3,0.3-0.4,0.5c-0.3,0.5-0.5,1-0.5,1.5c0,0.5,0.2,1,0.5,1.4c0.1,0.2,0.3,0.4,0.5,0.5
			V326.3L299.6,326.3z M299.6,336c-1.3-0.3-2.3-0.9-3.2-1.7c-1-1-1.7-2.5-2-4.4l3.8-0.4c0.2,0.8,0.4,1.4,0.9,2
			c0.2,0.2,0.3,0.4,0.5,0.6V336z"/>
	</g>
	<g>
		<circle class="st7" cx="305.8" cy="269.5" r="11.1"/>
		<circle class="st0" cx="305.8" cy="269.5" r="9.4"/>
		<path class="st8" d="M302.6,271.4c0.5,0.6,1,1,1.6,1.3c0.5,0.3,1.1,0.4,1.6,0.4c0.4,0,0.8-0.1,1.1-0.4c0.3-0.3,0.4-0.6,0.4-1
			c0-0.4-0.1-0.7-0.4-1c-0.2-0.2-0.8-0.5-1.7-0.7c-1.3-0.4-2.3-0.8-2.8-1.4c-0.5-0.5-0.8-1.3-0.8-2.3c0-1.2,0.4-2.1,1.1-2.9
			c0.7-0.7,1.8-1.2,3.1-1.3v-1.2h1.1l0,1.2c0.5,0.1,1,0.2,1.5,0.4c0.5,0.2,1,0.4,1.5,0.8l-1.1,2.5c-0.4-0.3-0.8-0.6-1.2-0.8
			c-0.4-0.2-0.8-0.3-1.3-0.3c-0.4,0-0.8,0.1-1,0.3c-0.3,0.2-0.4,0.5-0.4,0.8c0,0.3,0.1,0.6,0.3,0.8c0.2,0.2,0.7,0.4,1.4,0.6l0.1,0
			c1.5,0.4,2.4,0.8,2.9,1.3c0.3,0.3,0.5,0.7,0.7,1.1c0.2,0.4,0.2,0.9,0.2,1.5c0,1.2-0.4,2.3-1.1,3.1c-0.7,0.8-1.7,1.3-3,1.4v2.2
			h-1.1v-2.1c-0.8,0-1.6-0.2-2.3-0.5c-0.7-0.3-1.4-0.8-2-1.4L302.6,271.4z"/>
	</g>
	<g>
		<path class="st7" d="M292.2,293.2c6.1,0,11.1-5,11.1-11.1c0-6.1-5-11.1-11.1-11.1c-6.1,0-11.1,5-11.1,11.1
			C281.1,288.2,286.1,293.2,292.2,293.2z"/>
		<path class="st0" d="M292.2,291.5c5.2,0,9.4-4.2,9.4-9.4c0-5.2-4.2-9.4-9.4-9.4c-5.2,0-9.4,4.2-9.4,9.4
			C282.8,287.3,287,291.5,292.2,291.5z"/>
		<path class="st8" d="M289,283.9c0.5,0.6,1,1,1.6,1.3c0.5,0.3,1.1,0.4,1.6,0.4c0.4,0,0.8-0.1,1.1-0.4c0.3-0.3,0.4-0.6,0.4-1
			c0-0.4-0.1-0.7-0.4-1c-0.2-0.2-0.8-0.5-1.7-0.7c-1.3-0.4-2.3-0.8-2.8-1.4c-0.5-0.5-0.8-1.3-0.8-2.3c0-1.2,0.4-2.1,1.1-2.9
			c0.7-0.7,1.8-1.2,3.1-1.3v-1.2h1.1l0,1.2c0.5,0.1,1,0.2,1.5,0.4c0.5,0.2,1,0.4,1.5,0.8l-1.1,2.5c-0.4-0.3-0.8-0.6-1.2-0.8
			c-0.4-0.2-0.8-0.3-1.3-0.3c-0.4,0-0.8,0.1-1,0.3c-0.3,0.2-0.4,0.5-0.4,0.8c0,0.3,0.1,0.6,0.3,0.8c0.2,0.2,0.7,0.4,1.4,0.6l0.1,0
			c1.5,0.4,2.4,0.8,2.9,1.3c0.3,0.3,0.5,0.7,0.7,1.1c0.2,0.4,0.2,0.9,0.2,1.5c0,1.2-0.4,2.3-1.1,3.1c-0.7,0.8-1.7,1.3-3,1.4v2.2
			h-1.2v-2.1c-0.8,0-1.6-0.2-2.3-0.5c-0.7-0.3-1.4-0.8-2-1.4L289,283.9z"/>
	</g>
	<g>
		<path class="st7" d="M311.2,307.5c6.1,0,11.1-5,11.1-11.1c0-6.1-5-11.1-11.1-11.1s-11.1,5-11.1,11.1
			C300.1,302.5,305,307.5,311.2,307.5z"/>
		<circle class="st0" cx="311.2" cy="296.4" r="9.4"/>
		<path class="st8" d="M308,298.2c0.5,0.6,1,1,1.6,1.3c0.5,0.3,1.1,0.4,1.6,0.4c0.4,0,0.8-0.1,1.1-0.4c0.3-0.3,0.4-0.6,0.4-1
			c0-0.4-0.1-0.7-0.4-1c-0.2-0.2-0.8-0.5-1.7-0.7c-1.3-0.4-2.3-0.8-2.8-1.4c-0.5-0.5-0.8-1.3-0.8-2.3c0-1.2,0.4-2.1,1.1-2.9
			c0.7-0.7,1.8-1.2,3.1-1.3v-1.2h1.1l0,1.2c0.5,0.1,1,0.2,1.5,0.4c0.5,0.2,1,0.4,1.5,0.8l-1.1,2.5c-0.4-0.3-0.8-0.6-1.2-0.8
			c-0.4-0.2-0.8-0.3-1.3-0.3c-0.4,0-0.8,0.1-1,0.3c-0.3,0.2-0.4,0.5-0.4,0.8c0,0.3,0.1,0.6,0.3,0.8c0.2,0.2,0.7,0.4,1.4,0.6l0.1,0
			c1.5,0.4,2.4,0.8,2.9,1.3c0.3,0.3,0.5,0.7,0.7,1.2c0.2,0.4,0.2,0.9,0.2,1.5c0,1.2-0.4,2.3-1.1,3.1c-0.7,0.8-1.7,1.3-3,1.4v2.2
			h-1.1v-2.1c-0.8,0-1.6-0.2-2.3-0.5c-0.7-0.3-1.4-0.8-2-1.4L308,298.2z"/>
	</g>
</g>
</svg>
