<?xml version="1.0" encoding="utf-8"?>
<!-- Generator: Adobe Illustrator 22.1.0, SVG Export Plug-In . SVG Version: 6.00 Build 0)  -->
<svg version="1.1" id="Objects" xmlns="http://www.w3.org/2000/svg" xmlns:xlink="http://www.w3.org/1999/xlink" x="0px" y="0px"
	 viewBox="0 0 799.9 799.9" style="enable-background:new 0 0 799.9 799.9;" xml:space="preserve">
<style type="text/css">
	.st0{fill-rule:evenodd;clip-rule:evenodd;fill:#FFFFFF;}
	.st1{fill-rule:evenodd;clip-rule:evenodd;fill:#FFAE00;}
	.st2{fill:#71B8B0;}
	.st3{fill-rule:evenodd;clip-rule:evenodd;fill:#FFEBBF;}
	.st4{fill:#335E59;}
	.st5{fill:#5896CC;}
	.st6{fill:#FC6E4B;}
	.st7{fill-rule:evenodd;clip-rule:evenodd;fill:#71B8B0;}
</style>
<g>
	<g>
		<g>
			<g>
				<rect x="450.6" y="451.4" class="st0" width="1.3" height="89.6"/>
				<rect x="464.6" y="451.4" class="st0" width="1.3" height="89.6"/>
				<rect x="478.7" y="451.4" class="st0" width="1.3" height="89.6"/>
				<rect x="492.7" y="451.4" class="st0" width="1.3" height="89.6"/>
				<rect x="506.7" y="451.4" class="st0" width="1.3" height="89.6"/>
				<rect x="520.8" y="451.4" class="st0" width="1.3" height="89.6"/>
				<rect x="534.8" y="451.4" class="st0" width="1.3" height="89.6"/>
				<rect x="548.8" y="451.4" class="st0" width="1.3" height="89.6"/>
				<rect x="562.9" y="451.4" class="st0" width="1.3" height="89.6"/>
				<rect x="437" y="535.7" class="st1" width="127.2" height="5.3"/>
				<rect x="437" y="451.4" class="st1" width="1.3" height="89.6"/>
			</g>
			<polygon class="st2" points="437.5,535.5 451,493.9 451.5,492.4 452.4,493.6 465.5,511.4 478.9,489.8 479.4,488.9 480.1,489.7 
				492.9,504.3 506.4,468.5 507.3,466.2 507.9,468.6 521.9,521 534.5,482.4 535.1,480.4 536,482.3 548.6,508.8 562.6,457.2 
				564.2,457.6 549.6,511.3 549,513.4 548.1,511.4 535.4,484.8 522.6,524.1 521.8,526.7 521.1,524.1 507,471.4 493.9,506.1 
				493.4,507.3 492.5,506.3 479.6,491.6 466.2,513.3 465.6,514.3 464.9,513.3 452,495.9 439,536 			"/>
		</g>
		<path class="st3" d="M517.2,509c15.4,0,28-12.6,28-28c0-15.4-12.6-28-28-28c-15.4,0-28,12.6-28,28
			C489.2,496.4,501.8,509,517.2,509z"/>
		<g>
			<path class="st0" d="M517.3,508.1V453h0c-1,0-2,0.1-3,0.2v54.7C515.2,507.9,516.2,508,517.3,508.1z"/>
			<path class="st2" d="M498,501.4l15.5-40.9l2-5.3l1.5,5.5l12.2,45.6c-0.7,0.3-1.4,0.6-2.1,0.9c-0.5,0.1-0.9,0.2-1.4,0.3
				l-10.8-40.3l-13.8,36.3c-0.8-0.4-1.6-0.9-2.3-1.4C498.6,501.9,498.3,501.6,498,501.4z"/>
		</g>
		<g>
			<path class="st4" d="M542.1,461.9c-6.3-7.8-15.7-11.9-25.2-11.8v5.7c7.8,0,15.4,3.3,20.5,9.6c8.7,10.9,6.6,26.5-4.8,34.9
				c-4.7,3.5-10.3,5.2-15.8,5.2v5.7c6.8,0,13.6-2.1,19.4-6.4C550.2,494.5,552.8,475.3,542.1,461.9z M516.8,450.1
				c-6.8,0-13.6,2.1-19.4,6.4c-13.9,10.4-16.6,29.6-5.9,43c6.3,7.8,15.7,11.9,25.2,11.8v-5.7c-7.8,0-15.4-3.3-20.5-9.6l0,0
				c-8.7-10.9-6.6-26.5,4.8-34.9c4.7-3.5,10.3-5.2,15.8-5.2V450.1z"/>
			<polygon class="st4" points="472.4,519 467.1,512.5 491.7,494.2 496.9,500.7 			"/>
			<polygon class="st5" points="473.3,518.6 467.8,511.6 484.4,499.2 490,506.2 			"/>
			<path class="st6" d="M462.4,530c-3.2,2.4-7.8,1.8-10.3-1.2c-2.5-3.1-1.9-7.5,1.4-9.9l24.7-18.4c1.8-1.4,4.1-1.8,6.2-1.3l5.6,7
				c0,2.1-1,4.1-2.9,5.5L462.4,530z"/>
			<path class="st6" d="M462.1,529.8c-3,2.2-7.3,1.7-9.7-1.2c-2.3-2.9-1.7-7,1.3-9.3l23.2-17.3c3-2.2,7.3-1.7,9.6,1.2
				c2.3,2.9,1.7,7-1.3,9.3L462.1,529.8z"/>
		</g>
	</g>
	<polygon class="st7" points="564.2,454.5 566.1,460.6 559.3,458.6 	"/>
</g>
</svg>
