<?xml version="1.0" encoding="utf-8"?>
<!-- Generator: Adobe Illustrator 22.1.0, SVG Export Plug-In . SVG Version: 6.00 Build 0)  -->
<svg version="1.1" id="Objects" xmlns="http://www.w3.org/2000/svg" xmlns:xlink="http://www.w3.org/1999/xlink" x="0px" y="0px"
	 viewBox="0 0 129.1 90.9" style="enable-background:new 0 0 129.1 90.9;" xml:space="preserve">
<style type="text/css">
	.st0{fill:#FFFFFF;}
	.st1{fill:#FFAE00;}
	.st2{fill:#71B8B0;}
	.st3{fill:#FFEBBF;}
	.st4{fill:#335E59;}
	.st5{fill:#5896CC;}
	.st6{fill:#FC6E4B;}
</style>
<g>
	<g>
		<g>
			<g>
				<rect x="13.6" y="1.3" class="st0" width="1.3" height="89.6"/>
				<rect x="27.6" y="1.3" class="st0" width="1.3" height="89.6"/>
				<rect x="41.7" y="1.3" class="st0" width="1.3" height="89.6"/>
				<rect x="55.7" y="1.3" class="st0" width="1.3" height="89.6"/>
				<rect x="69.7" y="1.3" class="st0" width="1.3" height="89.6"/>
				<rect x="83.8" y="1.3" class="st0" width="1.3" height="89.6"/>
				<rect x="97.8" y="1.3" class="st0" width="1.3" height="89.6"/>
				<rect x="111.8" y="1.3" class="st0" width="1.3" height="89.6"/>
				<rect x="125.9" y="1.3" class="st0" width="1.3" height="89.6"/>
				<rect y="85.6" class="st1" width="127.2" height="5.3"/>
				<rect y="1.3" class="st1" width="1.3" height="89.6"/>
			</g>
			<polygon class="st2" points="0.5,85.4 14,43.8 14.5,42.3 15.4,43.5 28.5,61.3 41.9,39.7 42.4,38.8 43.1,39.6 55.9,54.2 
				69.4,18.4 70.3,16.1 70.9,18.5 84.9,70.9 97.5,32.3 98.1,30.3 99,32.2 111.6,58.7 125.6,7.1 127.2,7.5 112.6,61.2 112,63.3 
				111.1,61.3 98.4,34.7 85.6,74 84.8,76.6 84.1,74 70,21.3 56.9,56 56.4,57.2 55.5,56.2 42.6,41.5 29.2,63.2 28.6,64.2 27.9,63.2 
				15,45.8 2,85.9 			"/>
		</g>
		<path class="st3" d="M80.2,58.9c15.4,0,28-12.6,28-28s-12.6-28-28-28c-15.4,0-28,12.6-28,28S64.8,58.9,80.2,58.9z"/>
		<g>
			<path class="st0" d="M80.3,58V2.9l0,0c-1,0-2,0.1-3,0.2v54.7C78.2,57.8,79.2,57.9,80.3,58z"/>
			<path class="st2" d="M61,51.3l15.5-40.9l2-5.3l1.5,5.5l12.2,45.6c-0.7,0.3-1.4,0.6-2.1,0.9c-0.5,0.1-0.9,0.2-1.4,0.3L77.9,17.1
				L64.1,53.4c-0.8-0.4-1.6-0.9-2.3-1.4C61.6,51.8,61.3,51.5,61,51.3z"/>
		</g>
		<g>
			<path class="st4" d="M105.1,11.8C98.8,4,89.4-0.1,79.9,0v5.7c7.8,0,15.4,3.3,20.5,9.6c8.7,10.9,6.6,26.5-4.8,34.9
				c-4.7,3.5-10.3,5.2-15.8,5.2v5.7c6.8,0,13.6-2.1,19.4-6.4C113.2,44.4,115.8,25.2,105.1,11.8z M79.8,0C73,0,66.2,2.1,60.4,6.4
				c-13.9,10.4-16.6,29.6-5.9,43c6.3,7.8,15.7,11.9,25.2,11.8v-5.7c-7.8,0-15.4-3.3-20.5-9.6l0,0C50.5,35,52.6,19.4,64,11
				c4.7-3.5,10.3-5.2,15.8-5.2V0z"/>
			<polygon class="st4" points="35.4,68.9 30.1,62.4 54.7,44.1 59.9,50.6 			"/>
			<polygon class="st5" points="36.3,68.5 30.8,61.5 47.4,49.1 53,56.1 			"/>
			<path class="st6" d="M25.4,79.9c-3.2,2.4-7.8,1.8-10.3-1.2c-2.5-3.1-1.9-7.5,1.4-9.9l24.7-18.4c1.8-1.4,4.1-1.8,6.2-1.3l5.6,7
				c0,2.1-1,4.1-2.9,5.5L25.4,79.9z"/>
			<path class="st6" d="M25.1,79.7c-3,2.2-7.3,1.7-9.7-1.2c-2.3-2.9-1.7-7,1.3-9.3l23.2-17.3c3-2.2,7.3-1.7,9.6,1.2
				c2.3,2.9,1.7,7-1.3,9.3L25.1,79.7z"/>
		</g>
	</g>
	<polygon class="st2" points="127.2,4.4 129.1,10.5 122.3,8.5 	"/>
</g>
</svg>
