<?xml version="1.0" encoding="utf-8"?>
<!-- Generator: Adobe Illustrator 22.1.0, SVG Export Plug-In . SVG Version: 6.00 Build 0)  -->
<svg version="1.1" id="objects" xmlns="http://www.w3.org/2000/svg" xmlns:xlink="http://www.w3.org/1999/xlink" x="0px" y="0px"
	 viewBox="0 0 800 800" style="enable-background:new 0 0 800 800;" xml:space="preserve">
<style type="text/css">
	.st0{fill-rule:evenodd;clip-rule:evenodd;fill:#605343;}
	.st1{fill-rule:evenodd;clip-rule:evenodd;fill:#C93838;}
	.st2{fill-rule:evenodd;clip-rule:evenodd;fill:#F6DCB9;}
	.st3{opacity:0.2;fill-rule:evenodd;clip-rule:evenodd;}
	.st4{fill-rule:evenodd;clip-rule:evenodd;fill:#EDEDED;}
</style>
<g>
	<path class="st0" d="M470.9,269.1c2.2-7.3,19.5-13.7,26.5,12.2c7.1,25.8,3.5,34.9,7.4,44c3.9,9.1-5.3,79.7-27,79.5
		c-23.2-0.2-28.3-67.7-23.7-81.4C458.8,309.6,454.7,269.1,470.9,269.1z"/>
	<path class="st0" d="M547.4,269.1c-2.2-7.3-19.5-13.7-26.5,12.2c-7.1,25.8-3.5,34.9-7.4,44c-3.9,9.1,5.3,79.7,27,79.5
		c23.2-0.2,28.3-67.7,23.7-81.4C559.5,309.6,563.6,269.1,547.4,269.1z"/>
	<path class="st1" d="M527.9,375.1c-0.4,0.6-35.6,1.1-35.9,1.7c-11.1,15.8-34.9,18.7-53.9,22.9c-18.9,4.2-19.6,28.2-19.7,44.2h184.2
		c0-16-0.4-39.9-19.7-44.2C563.7,395.4,538.4,391.6,527.9,375.1z"/>
	<path class="st1" d="M529,376.6v8.7l-9,58.6h-19.2l-8.9-57.9v-9.1c0,0,0-0.1,0-0.1c0.4-0.6,35.6-1.1,35.9-1.7
		C528.3,375.6,528.6,376.1,529,376.6z"/>
	<path class="st2" d="M492.1,337.4v30.3v14.9c9.2,18.9,25.9,19.4,36.9,0v-14.9v-30.3C529,313,492.1,313,492.1,337.4z"/>
	<path class="st2" d="M559.2,316.3c-3.7-1.7-8.9,2.4-11.6,9.1c-2.7,6.7-2,13.5,1.7,15.1c3.7,1.7,8.9-2.4,11.6-9.1
		C563.7,324.7,562.9,318,559.2,316.3z"/>
	<path class="st2" d="M461.9,316.3c3.7-1.7,8.9,2.4,11.6,9.1c2.7,6.7,2,13.5-1.7,15.1c-3.7,1.7-8.9-2.4-11.6-9.1
		C457.4,324.7,458.2,318,461.9,316.3z"/>
	<path class="st3" d="M492.1,359.9v1.3c0,0,11.6,11.6,18.3,11.6c6.7,0,18.6-11.7,18.6-11.7v-1.1H492.1z"/>
	<path class="st2" d="M510.6,368.7c-11.5,0-35.7-18.9-43.2-46c-7.6-27.3,6.7-66.5,43.2-66.5c36.5,0,50.7,39.2,43.2,66.5
		C546.2,349.8,522,368.7,510.6,368.7z"/>
	<path class="st0" d="M556,289.3c-3.6-14.2-21.7-35.7-38.7-35.3c-2.4-0.3-5.2-0.4-8.3-0.2c-3-0.2-5.8-0.1-8.3,0.2
		c-17-0.4-35.1,21.1-38.7,35.3c-2.9,11.4-4.2,22.6,2.8,34.3c1.2,3.5,2.7,6,4.1,7c-1.6-9-1.9-15.4-1.3-20.3c1.3-1.9,3.7-2.5,7.9-0.8
		c11.9,5,15.5-0.6,24.5-19.4c2.7-5.8,4.9-12.6,9-12.5c4.1,0,6.3,6.8,9,12.5c9,18.8,12.6,24.3,24.5,19.4c4.2-1.7,6.6-1.1,7.9,0.8
		c0.6,4.9,0.2,11.4-1.3,20.3c1.4-1,2.9-3.5,4.1-7C560.2,311.9,558.9,300.7,556,289.3z"/>
	<polygon class="st4" points="501,443.9 485.4,443.9 484.4,443.9 468.3,429.3 484.7,418.4 464.7,409 477.9,388.5 483,380.5 
		491.9,376.5 491.9,386 500.9,443.9 	"/>
	<polygon class="st4" points="536.2,417.7 552.6,428.6 536.5,443.9 535.4,443.9 519.9,443.9 520,443.9 529,385.3 529,375.9 
		539.9,380.8 544.7,388.9 556.2,408.4 	"/>
</g>
</svg>
