<?xml version="1.0" encoding="utf-8"?>
<!-- Generator: Adobe Illustrator 22.1.0, SVG Export Plug-In . SVG Version: 6.00 Build 0)  -->
<svg version="1.1" id="objects" xmlns="http://www.w3.org/2000/svg" xmlns:xlink="http://www.w3.org/1999/xlink" x="0px" y="0px"
	 viewBox="0 0 184.2 195.3" style="enable-background:new 0 0 184.2 195.3;" xml:space="preserve">
<style type="text/css">
	.st0{fill:#BF9741;}
	.st1{fill:#7491A0;}
	.st2{fill:#FFFFFF;}
	.st3{fill:#F6DBC2;}
	.st4{opacity:0.2;enable-background:new    ;}
	.st5{fill:#EDEDED;}
</style>
<g>
	<path class="st0" d="M78.5,6.4c3.9-7.3,35.4-13.7,48.2,12.2c12.8,25.8,6.4,34.9,13.4,44c7.1,9.1-9.6,79.7-49.1,79.5
		c-42.2-0.2-51.5-67.7-43.1-81.4C56.4,46.9,49.1,6.3,78.5,6.4z"/>
	<path class="st1" d="M109.5,126.5c-0.4,0.6-35.6,1.1-35.9,1.7c-11.1,15.8-34.9,18.7-53.9,22.9C0.8,155.3,0.1,179.3,0,195.3h184.2
		c0-16-0.4-39.9-19.7-44.2C145.3,146.8,120,143,109.5,126.5z"/>
	<path class="st2" d="M110.6,128v8.7l-9,58.6H82.5l-9-57.9v-9.1v-0.1c0.4-0.6,35.6-1.1,35.9-1.7C109.9,127,110.2,127.5,110.6,128z"
		/>
	<path class="st3" d="M73.7,88.8v30.3V134c9.2,18.9,25.9,19.4,36.9,0v-14.9V88.8C110.6,64.4,73.7,64.4,73.7,88.8z"/>
	<path class="st3" d="M140.8,67.7c-3.7-1.7-8.9,2.4-11.6,9.1c-2.7,6.7-2,13.5,1.7,15.1c3.7,1.7,8.9-2.4,11.6-9.1
		C145.3,76.1,144.5,69.4,140.8,67.7z"/>
	<path class="st3" d="M43.5,67.7c3.7-1.7,8.9,2.4,11.6,9.1c2.7,6.7,2,13.5-1.7,15.1c-3.7,1.7-8.9-2.4-11.6-9.1
		C39,76.1,39.8,69.4,43.5,67.7z"/>
	<path class="st4" d="M73.7,111.3v1.3c0,0,11.6,11.6,18.3,11.6s18.6-11.7,18.6-11.7v-1.1L73.7,111.3L73.7,111.3z"/>
	<path class="st3" d="M92.2,120.1c-11.5,0-35.7-18.9-43.2-46C41.4,46.8,55.7,7.6,92.2,7.6s50.7,39.2,43.2,66.5
		C127.8,101.2,103.6,120.1,92.2,120.1z"/>
	<path class="st0" d="M99.6,41.5c9,18.8,12.6,24.3,24.5,19.4c11.9-5,9.6,8.9,7.5,18.8c10.5-13.4,9.3-26.1,6-39
		C134,26.5,115.9,5,98.9,5.4c-9.2-1-23.2,0.2-38.1,10.9C34.8,35,43.5,77.1,50.5,82c-6.8-38.9,9.8-31,21.3-51.4
		C75.5,21.6,89.8,21.1,99.6,41.5z"/>
	<polygon class="st5" points="82.6,195.3 67,195.3 66,195.3 49.9,180.7 66.3,169.8 46.3,160.4 59.5,139.9 64.6,131.9 73.5,127.9 
		73.5,137.4 82.5,195.3 	"/>
	<polygon class="st5" points="117.8,169.1 134.2,180 118.1,195.3 117,195.3 101.5,195.3 101.6,195.3 110.6,136.7 110.6,127.3 
		121.5,132.2 126.3,140.3 137.8,159.8 	"/>
</g>
</svg>
