<?xml version="1.0" encoding="utf-8"?>
<!-- Generator: Adobe Illustrator 22.1.0, SVG Export Plug-In . SVG Version: 6.00 Build 0)  -->
<svg version="1.1" id="objects" xmlns="http://www.w3.org/2000/svg" xmlns:xlink="http://www.w3.org/1999/xlink" x="0px" y="0px"
	 viewBox="0 0 800 800" style="enable-background:new 0 0 800 800;" xml:space="preserve">
<style type="text/css">
	.st0{fill-rule:evenodd;clip-rule:evenodd;fill:#BF9741;}
	.st1{fill-rule:evenodd;clip-rule:evenodd;fill:#7491A0;}
	.st2{fill-rule:evenodd;clip-rule:evenodd;fill:#FFFFFF;}
	.st3{fill-rule:evenodd;clip-rule:evenodd;fill:#F6DBC2;}
	.st4{opacity:0.2;fill-rule:evenodd;clip-rule:evenodd;}
	.st5{fill-rule:evenodd;clip-rule:evenodd;fill:#EDEDED;}
</style>
<g>
	<path class="st0" d="M80.9,357c3.9-7.3,35.4-13.7,48.2,12.2c12.8,25.8,6.4,34.9,13.4,44c7.1,9.1-9.6,79.7-49.1,79.5
		c-42.2-0.2-51.5-67.7-43.1-81.4C58.8,397.5,51.5,356.9,80.9,357z"/>
	<path class="st1" d="M111.9,477.1c-0.4,0.6-35.6,1.1-35.9,1.7c-11.1,15.8-34.9,18.7-53.9,22.9c-18.9,4.2-19.6,28.2-19.7,44.2h184.2
		c0-16-0.4-39.9-19.7-44.2C147.7,497.4,122.4,493.6,111.9,477.1z"/>
	<path class="st2" d="M113,478.6v8.7l-9,58.6H84.9L75.9,488v-9.1c0,0,0-0.1,0-0.1c0.4-0.6,35.6-1.1,35.9-1.7
		C112.3,477.6,112.6,478.1,113,478.6z"/>
	<path class="st3" d="M76.1,439.4v30.3v14.9c9.2,18.9,25.9,19.4,36.9,0v-14.9v-30.3C113,415,76.1,415,76.1,439.4z"/>
	<path class="st3" d="M143.2,418.3c-3.7-1.7-8.9,2.4-11.6,9.1c-2.7,6.7-2,13.5,1.7,15.1c3.7,1.7,8.9-2.4,11.6-9.1
		C147.7,426.7,146.9,420,143.2,418.3z"/>
	<path class="st3" d="M45.9,418.3c3.7-1.7,8.9,2.4,11.6,9.1c2.7,6.7,2,13.5-1.7,15.1c-3.7,1.7-8.9-2.4-11.6-9.1
		C41.4,426.7,42.2,420,45.9,418.3z"/>
	<path class="st4" d="M76.1,461.9v1.3c0,0,11.6,11.6,18.3,11.6c6.7,0,18.6-11.7,18.6-11.7v-1.1H76.1z"/>
	<path class="st3" d="M94.6,470.7c-11.5,0-35.7-18.9-43.2-46c-7.6-27.3,6.7-66.5,43.2-66.5c36.5,0,50.7,39.2,43.2,66.5
		C130.2,451.8,106,470.7,94.6,470.7z"/>
	<path class="st0" d="M102,392.1c9,18.8,12.6,24.3,24.5,19.4c11.9-5,9.6,8.9,7.5,18.8c10.5-13.4,9.3-26.1,6-39
		c-3.6-14.2-21.7-35.7-38.7-35.3c-9.2-1-23.2,0.2-38.1,10.9c-26,18.7-17.3,60.8-10.3,65.7c-6.8-38.9,9.8-31,21.3-51.4
		C77.9,372.2,92.2,371.7,102,392.1z"/>
	<polygon class="st5" points="85,545.9 69.4,545.9 68.4,545.9 52.3,531.3 68.7,520.4 48.7,511 61.9,490.5 67,482.5 75.9,478.5 
		75.9,488 84.9,545.9 	"/>
	<polygon class="st5" points="120.2,519.7 136.6,530.6 120.5,545.9 119.4,545.9 103.9,545.9 104,545.9 113,487.3 113,477.9 
		123.9,482.8 128.7,490.9 140.2,510.4 	"/>
</g>
</svg>
