<?xml version="1.0" encoding="utf-8"?>
<!-- Generator: Adobe Illustrator 22.1.0, SVG Export Plug-In . SVG Version: 6.00 Build 0)  -->
<svg version="1.1" id="objects" xmlns="http://www.w3.org/2000/svg" xmlns:xlink="http://www.w3.org/1999/xlink" x="0px" y="0px"
	 viewBox="0 0 800 800" style="enable-background:new 0 0 800 800;" xml:space="preserve">
<style type="text/css">
	.st0{fill-rule:evenodd;clip-rule:evenodd;fill:#FFDECC;}
	.st1{fill-rule:evenodd;clip-rule:evenodd;fill:#333333;}
	.st2{fill-rule:evenodd;clip-rule:evenodd;fill:#FFDBBA;}
	.st3{fill-rule:evenodd;clip-rule:evenodd;fill:#FFFFFF;}
	.st4{fill-rule:evenodd;clip-rule:evenodd;fill:#605F5B;}
	.st5{fill-rule:evenodd;clip-rule:evenodd;fill:#C93838;}
	.st6{fill-rule:evenodd;clip-rule:evenodd;fill:#EDEDED;}
	.st7{opacity:0.2;}
	.st8{fill-rule:evenodd;clip-rule:evenodd;fill:#755A48;}
	.st9{fill:#755A48;}
	.st10{opacity:5.000000e-02;}
	.st11{opacity:0.1;fill-rule:evenodd;clip-rule:evenodd;}
</style>
<g>
	<path class="st0" d="M264,454.1c-42.9,18.8-55.8,28.9-60.9,33.4c-7.8,6.9-12.2,32.8-16.8,54.8h97.1h97.1c-4.6-22-9-47.8-16.8-54.8
		c-5.1-4.5-17.5-14.3-60.4-33.1L264,454.1z"/>
	<path class="st1" d="M264,454.1c-42.9,18.8-55.8,28.9-60.9,33.4c-7.8,6.9-12.2,32.8-16.8,54.8h97.1h97.1c-4.6-22-9-47.8-16.8-54.8
		c-5.1-4.5-17.5-14.3-60.4-33.1L264,454.1z"/>
	<path class="st2" d="M262.6,416.6v31.9v15.7c11.5,13.6,30.2,14,41.7,0v-15.7v-31.9C304.3,390.9,262.6,390.9,262.6,416.6z"/>
	<path class="st2" d="M240,386.7c3.7-1.2,8.3,3,10.4,9.3c2.1,6.3,0.8,12.5-2.9,13.7c-3.7,1.2-8.3-3-10.4-9.3
		C235,394,236.3,387.9,240,386.7z"/>
	<path class="st2" d="M326.7,386.7c-3.7-1.2-8.3,3-10.4,9.3c-2.1,6.3-0.8,12.5,2.9,13.7c3.7,1.2,8.3-3,10.4-9.3
		C331.7,394,330.4,387.9,326.7,386.7z"/>
	<path class="st3" d="M283.5,474.5c0,0-29.1,6.9-29.1,8.7c0,1.8,11.1,59,11.1,59H305l4.5-58.8L283.5,474.5z"/>
	<polygon class="st4" points="262.6,454.7 262.6,464.2 271.6,542.3 256.1,542.3 238.9,507.5 255.3,496.6 235.3,487.2 253.7,458.7 	
		"/>
	<polygon class="st4" points="304.3,454.8 304.3,464.2 295.1,542.3 310.7,542.3 327.8,507.5 311.5,496.6 331.5,487.2 315.1,459.6 	
		"/>
	<path class="st5" d="M274.5,484.2l5,7.8c2.6,0,5.2,0,7.8,0l5.1-7.8l-8.9-9.7L274.5,484.2z"/>
	<polygon class="st5" points="279.5,492 272.3,542.3 294.5,542.3 287.3,492 	"/>
	<path class="st6" d="M262.6,448.5l-1.8,7.1l5.1,36.9l17.7-17.9L262.6,448.5z"/>
	<path class="st7" d="M262.6,439.6v1.5c0,0,10.6,12.6,20.8,13.1c10.2,0.5,20.9-12.2,20.9-12.2v-2.3"/>
	<g>
		<path class="st8" d="M316.5,334.8c9.5,1.5,14.8,8.1,17.1,16.9c5.9,23.1-6.4,73.2-49,73.8c-22,0.3-37.8-5.3-43.6-23.1
			c-5.8-17.8-8.1-46.4,4.4-62.5C261.1,319.7,294.2,319.6,316.5,334.8z"/>
		<path class="st2" d="M283.5,331.2c-64.1,0-39.5,87.8-35.4,94.6c4.6,7.4,25,23.8,35.4,23.8c10.4,0,30.7-16.4,35.4-23.8
			C323,419,347.6,331.2,283.5,331.2z"/>
		<path class="st8" d="M252.4,358.8c11.4,6.9,20.3-3.4,30.6,1c10.3,4.4,38.2-16.9,44.3,30c9.8-34-5-58.4-42.2-60
			c-39.7-1.7-55.8,34.5-44.8,68.3C239.5,379.8,244,367.8,252.4,358.8z"/>
		<g>
			<g>
				<path class="st9" d="M251.4,355.7c0.3,5.9,10.3,6.8,14.5,7.1c4,0.3,7.9-0.4,11.7-1.5c4.7-1.3,10.6-3,14.4-6.2
					c0.4-0.3,0.2-1-0.3-1.1c-7.2-1.2-14.7,4.7-21.9,5.4c-5.7,0.5-13.2-0.3-17.7-4.1C251.9,355.2,251.4,355.3,251.4,355.7
					L251.4,355.7z"/>
			</g>
		</g>
	</g>
	<path class="st5" d="M303.3,413c0.4,0,0.7,0,1.1-0.1c10.4-0.9,13-5.6,14.2-11.5c1.3-6.5,1.4-8.8,3.1-9.4c1.2-0.4,1.5-1.9,1.5-3.6
		c0-1.7-0.1-1.9-2.1-2.6c-1.6-0.6-10.5-1.4-17.2-0.9l0,1.8c5.3-0.3,10.3,0.3,11.8,1.3c3.3,2.2,2.4,12.6-0.5,17.8
		c-2,3.6-7.1,5.4-11.8,5.5L303.3,413z M283.8,388.4c-2.3,0.1-11.7-2.7-18.4-3.2c-0.5,0-1-0.1-1.5-0.1l0,1.8c5.4,0.2,11.1,1.5,13,4.4
		c3.2,4.8-2.5,16.4-7.7,19c-1.6,0.8-3.6,1.2-5.8,1.2l0,1.7c9,0,12.4-6.5,13.5-8.7c2.1-4.1,1.7-9.7,6.8-9.7c5.2,0,4.5,5.5,6.3,9.6
		c1,2.2,3.9,9,13.3,8.7l0-1.6c-2.3,0-4.5-0.4-6.1-1.2c-5-2.6-10-14.2-6.5-19c2.1-2.9,7.7-4.2,13.1-4.4l0-1.8c-0.4,0-0.8,0.1-1.2,0.1
		C296.5,385.6,289.2,388.2,283.8,388.4z M263.9,385c-6.6-0.4-15.4,0.5-17,1c-2.1,0.7-2.1,0.9-2.3,2.6c-0.1,1.7,0.1,3.1,1.3,3.6
		c1.6,0.6,1.6,2.9,2.5,9.4c0.8,5.9,3.1,10.6,13.5,11.4c0.5,0,1,0.1,1.5,0.1l0-1.7c-4.8,0-10.1-1.8-11.9-5.5
		c-2.5-5.2-2.9-15.6,0.6-17.8c1.5-0.9,6.5-1.6,11.7-1.4L263.9,385z"/>
	<path class="st6" d="M304.3,448.5l1.4,7l-4.8,37.4l-17.4-18.3L304.3,448.5z"/>
	<polyline class="st10" points="262.6,448.5 283.5,474.5 304.3,448.5 304.3,447.8 283.5,473.8 262.6,447.8 262.6,448.5 	"/>
	<polygon class="st11" points="279.5,492 287.3,492 287.4,492.3 279.5,492.3 	"/>
</g>
</svg>
