<?xml version="1.0" encoding="utf-8"?>
<!-- Generator: Adobe Illustrator 22.1.0, SVG Export Plug-In . SVG Version: 6.00 Build 0)  -->
<svg version="1.1" id="objects" xmlns="http://www.w3.org/2000/svg" xmlns:xlink="http://www.w3.org/1999/xlink" x="0px" y="0px"
	 viewBox="0 0 800 800" style="enable-background:new 0 0 800 800;" xml:space="preserve">
<style type="text/css">
	.st0{fill-rule:evenodd;clip-rule:evenodd;fill:#FFDECC;}
	.st1{fill-rule:evenodd;clip-rule:evenodd;fill:#C93838;}
	.st2{fill-rule:evenodd;clip-rule:evenodd;fill:#F6D1AF;}
	.st3{opacity:0.2;}
	.st4{fill:#343434;}
	.st5{opacity:0.1;fill-rule:evenodd;clip-rule:evenodd;}
</style>
<g>
	<path class="st0" d="M290.5,249.6c-42.9,18.8-55.8,28.8-60.9,33.4c-7.8,6.9-12.2,32.8-16.8,54.8h97.1H407c-4.6-22-9-47.8-16.8-54.8
		c-5.1-4.5-17.5-14.3-60.4-33.1L290.5,249.6z"/>
	<path class="st1" d="M290.5,249.6c-42.9,18.8-55.8,28.8-60.9,33.4c-7.8,6.9-12.2,32.8-16.8,54.8h97.1H407c-4.6-22-9-47.8-16.8-54.8
		c-5.1-4.5-17.5-14.3-60.4-33.1L290.5,249.6z"/>
	<path class="st2" d="M289,212.1V244v15.7c11.5,13.6,30.2,14,41.7,0V244v-31.9C330.7,186.4,289,186.4,289,212.1z"/>
	<path class="st2" d="M266.4,182.2c3.7-1.2,8.3,3,10.4,9.3c2.1,6.3,0.8,12.5-2.9,13.7c-3.7,1.2-8.3-3-10.4-9.3
		C261.4,189.5,262.7,183.4,266.4,182.2z"/>
	<path class="st2" d="M353.2,182.2c-3.7-1.2-8.3,3-10.4,9.3c-2.1,6.3-0.8,12.5,2.9,13.7c3.7,1.2,8.3-3,10.4-9.3
		C358.1,189.5,356.8,183.4,353.2,182.2z"/>
	<path class="st3" d="M289,235.2v1.5c0,0,10.6,12.6,20.8,13.1c10.2,0.5,20.9-12.2,20.9-12.2v-2.3"/>
	<g>
		<path class="st2" d="M309.9,126.7c-64.1,0-39.5,87.8-35.4,94.6c4.6,7.4,25,23.8,35.4,23.8c10.4,0,30.7-16.4,35.4-23.8
			C349.5,214.5,374,126.7,309.9,126.7z"/>
		<path class="st4" d="M338.7,128.7c-21.7-17-55.1-6.9-65.2,7.3c-12.6,17.8-8.2,44.8-5.2,65c0,0,0-0.1,0-0.1c0,0.2,0.1,0.4,0.1,0.6
			c0,0.2,0.4,0.6,0.5,0.8c0.1,0.2,0.9,0,1.2-0.1c0.1,0,0.1-0.2,0.1-0.3c0.1-1.8,0-5.3,0-5.4c-0.2-2.8-0.8-5.5-1.3-8.2
			c2-12.8,8-15.5,11.2-30.9c0.7-1,1.4-2,2.1-3c0.9-1.1,1.7-2.2,2.8-3.2c0.5-0.3,1.1-0.7,1.6-1.1c11.7-4.3,23.7,0.9,34.7,5.3
			c4.2,1.7,4.8-5.8,9.5-6.1c2-0.2,6.1,6.6,7.7,6.4c16.5-1.9,9.6,23.1,12.2,34.7c-0.4,2-0.7,4-0.9,6.1c0,0-0.1,3.6,0,5.4
			c0,0.1,0,0.2,0.1,0.3c0.3,0.1,1,0.3,1.2,0.1c0.1-0.1,0.4-0.6,0.5-0.8c0.2-0.8,0.2-1.4,0.3-2.2c0.1-1,0.3-2.1,0.4-3.2
			C355.6,183.7,361.7,134.1,338.7,128.7z M305.8,145.5c-0.4-0.1-0.7-0.2-1.1-0.3c0.5,0.1,1.1,0.3,1.6,0.4
			C306.2,145.6,306,145.5,305.8,145.5z"/>
	</g>
	<polygon class="st5" points="306,287.5 313.8,287.5 313.8,287.8 305.9,287.8 	"/>
	<path class="st4" d="M322.3,134.7c0,0-18.7-13-35.3-6c-16.7,7-31.3,9.7-35,5c0,0-10.3,21.7,9,33c19.3,11.3,41.3,2.3,47.7-4.7
		c6.3-7,16.7-18.3,22.3-16S322.3,134.7,322.3,134.7z"/>
</g>
</svg>
