<?xml version="1.0" encoding="utf-8"?>
<!-- Generator: Adobe Illustrator 22.1.0, SVG Export Plug-In . SVG Version: 6.00 Build 0)  -->
<svg version="1.1" id="objects" xmlns="http://www.w3.org/2000/svg" xmlns:xlink="http://www.w3.org/1999/xlink" x="0px" y="0px"
	 viewBox="0 0 800 800" style="enable-background:new 0 0 800 800;" xml:space="preserve">
<style type="text/css">
	.st0{fill-rule:evenodd;clip-rule:evenodd;fill:#806049;}
	.st1{fill-rule:evenodd;clip-rule:evenodd;fill:#268085;}
	.st2{fill-rule:evenodd;clip-rule:evenodd;fill:#F5D5C1;}
	.st3{opacity:0.2;fill-rule:evenodd;clip-rule:evenodd;}
	.st4{fill-rule:evenodd;clip-rule:evenodd;fill:#80604A;}
	.st5{fill-rule:evenodd;clip-rule:evenodd;fill:#FFFFFF;}
	.st6{opacity:5.000000e-02;fill-rule:evenodd;clip-rule:evenodd;}
</style>
<g>
	<path class="st0" d="M506.7,349.2c4.5-7.9,40.8-14.9,55.5,13.2c14.8,28.1,7.3,37.9,15.5,47.8c8.2,9.9,0.5,32.6-5.2,34.6
		c-5.7,2-3.4,9.9-0.6,13.2c11.8,14.4-5.3,38.7-50.8,38.5c-48.7-0.3-58.2-28.5-45.7-37.4c4.1-2.9,5.6-8.4,1.2-13.3
		c-4.5-4.9-14.7-23-5-37.9C481.3,393.3,472.8,349.2,506.7,349.2z"/>
	<path class="st1" d="M541.1,464.8c-0.4,0.6-35.6,1.1-35.9,1.7c-11.1,15.8-34.9,22.7-53.9,26.9c-18.9,4.2-19.6,28.2-19.7,44.2h184.2
		c0-16-0.4-39.9-19.7-44.2C576.8,489.1,551.6,481.3,541.1,464.8z"/>
	<path class="st2" d="M505.2,431.1v30.3v14.9c9.2,18.9,25.9,19.4,36.9,0v-14.9v-30.3C542.1,406.7,505.2,406.7,505.2,431.1z"/>
	<path class="st2" d="M572.4,410c-3.7-1.7-8.9,2.4-11.6,9.1c-2.7,6.7-2,13.5,1.7,15.1c3.7,1.7,8.9-2.4,11.6-9.1
		C576.8,418.5,576,411.7,572.4,410z"/>
	<path class="st2" d="M475,410c3.7-1.7,8.9,2.4,11.6,9.1c2.7,6.7,2,13.5-1.7,15.1c-3.7,1.7-8.9-2.4-11.6-9.1
		C470.6,418.5,471.3,411.7,475,410z"/>
	<path class="st3" d="M505.2,453.6v1.3c0,0,11.6,11.6,18.3,11.6c6.7,0,18.6-11.7,18.6-11.7v-1.1H505.2z"/>
	<path class="st2" d="M523.7,462.4c-11.5,0-35.7-18.9-43.2-46c-7.6-27.3,6.7-66.5,43.2-66.5c36.5,0,50.7,39.2,43.2,66.5
		C559.4,443.5,535.2,462.4,523.7,462.4z"/>
	<path class="st4" d="M515.1,383.8c-9,18.8-12.6,24.3-24.5,19.4c-11.9-5-9.6,8.9-7.5,18.8c-10.5-13.4-9.3-26.1-6-39
		c3.6-14.2,21.7-35.7,38.7-35.3c9.2-1,23.2,0.2,38.1,10.9c26,18.7,17.3,60.8,10.3,65.7c6.8-38.9-9.8-31-21.3-51.4
		C539.2,364,524.8,363.4,515.1,383.8z"/>
	<rect x="521.3" y="490.9" class="st5" width="3.8" height="46.7"/>
	<g>
		<polygon class="st5" points="505.2,466.5 492,478.5 508.8,504.5 523.2,490.8 		"/>
		<polygon class="st5" points="542.1,466.4 555.3,478.9 537.7,504.5 523.2,490.8 		"/>
	</g>
	<path class="st1" d="M543.7,430.6c0.4,0,0.7,0,1.1-0.1c10.5-0.9,13.1-5.6,14.2-11.5c1.3-6.5,1.4-8.8,3.1-9.4
		c1.2-0.4,1.5-1.9,1.5-3.6c0-1.7-0.1-1.9-2.1-2.6c-1.6-0.6-10.6-1.4-17.3-1l0,1.8c5.3-0.3,10.4,0.3,11.9,1.3
		c3.4,2.2,2.4,12.7-0.5,17.9c-2,3.6-7.2,5.5-11.9,5.5L543.7,430.6z M524.1,405.9c-2.3,0.1-11.8-2.7-18.5-3.3c-0.5,0-1-0.1-1.5-0.1
		l0,1.8c5.5,0.2,11.1,1.5,13.1,4.4c3.2,4.8-2.5,16.5-7.7,19.1c-1.6,0.8-3.6,1.2-5.8,1.2l0,1.7c9.1,0,12.4-6.5,13.5-8.7
		c2.1-4.1,1.7-9.8,6.9-9.8c5.2,0,4.5,5.5,6.4,9.6c1,2.2,3.9,9,13.3,8.7l0-1.7c-2.3,0-4.5-0.4-6.1-1.2c-5-2.6-10-14.3-6.5-19.1
		c2.1-2.9,7.7-4.2,13.1-4.5l0-1.8c-0.4,0-0.8,0.1-1.2,0.1C536.9,403.1,529.6,405.7,524.1,405.9z M504.2,402.5
		c-6.6-0.4-15.4,0.5-17.1,1c-2.1,0.7-2.2,0.9-2.3,2.6c-0.1,1.7,0.1,3.2,1.3,3.6c1.7,0.6,1.6,2.9,2.5,9.4c0.8,5.9,3.1,10.6,13.5,11.5
		c0.5,0,1,0.1,1.6,0.1l0-1.7c-4.8,0-10.1-1.8-11.9-5.5c-2.5-5.2-2.9-15.7,0.6-17.9c1.5-0.9,6.5-1.6,11.7-1.4L504.2,402.5z"/>
	<polygon class="st6" points="505.2,466.5 523.2,490.8 542.1,466.4 542.1,465.9 523.2,490.1 505.2,465.9 	"/>
</g>
</svg>
