<?xml version="1.0" encoding="utf-8"?>
<!-- Generator: Adobe Illustrator 22.1.0, SVG Export Plug-In . SVG Version: 6.00 Build 0)  -->
<svg version="1.1" id="Objects" xmlns="http://www.w3.org/2000/svg" xmlns:xlink="http://www.w3.org/1999/xlink" x="0px" y="0px"
	 viewBox="0 0 168.6 133.2" style="enable-background:new 0 0 168.6 133.2;" xml:space="preserve">
<style type="text/css">
	.st0{fill:#335E59;}
	.st1{fill:#71B8B0;}
	.st2{fill:#D6FFFA;}
	.st3{fill:#FFDC8F;}
	.st4{fill:none;stroke:#FFFFFF;stroke-width:1.1999;stroke-miterlimit:22.9256;}
	.st5{fill:#FFFFFF;stroke:#FFDC8F;stroke-width:0.5669;stroke-miterlimit:22.9256;}
	.st6{fill:#FFAE00;stroke:#FFDC8F;stroke-width:0.5669;stroke-miterlimit:22.9256;}
	.st7{fill:#FFAE00;}
	.st8{fill:#FFCD60;}
	.st9{fill:#FFEBBF;}
	.st10{fill:#FFFFFF;}
	.st11{fill:#FFD5C9;}
	.st12{fill:#FC6E4B;}
	.st13{fill:#666666;}
</style>
<g>
	<g>
		<polygon class="st0" points="81.4,113.7 104.3,113.7 115.1,133.2 70.6,133.2 		"/>
		<path class="st0" d="M38.8,29.7h108.1c3,0,5.5,2.5,5.5,5.5v77.9c0,3-2.5,5.5-5.5,5.5H38.8c-3,0-5.5-2.5-5.5-5.5V35.2
			C33.3,32.2,35.8,29.7,38.8,29.7z"/>
		<g>
			<path class="st1" d="M145.7,113c0.4,0,0.7,0.3,0.7,0.7c0,0.4-0.3,0.7-0.7,0.7s-0.7-0.3-0.7-0.7S145.3,113,145.7,113z"/>
			<path class="st1" d="M142.9,113c0.4,0,0.7,0.3,0.7,0.7c0,0.4-0.3,0.7-0.7,0.7s-0.7-0.3-0.7-0.7S142.5,113,142.9,113z"/>
			<path class="st1" d="M140.1,113c0.4,0,0.7,0.3,0.7,0.7c0,0.4-0.3,0.7-0.7,0.7s-0.7-0.3-0.7-0.7S139.7,113,140.1,113z"/>
		</g>
		<path class="st1" d="M26.9,127.3h131.9c1.6,0,2.9,1.3,2.9,2.9l0,0c0,1.6-1.3,2.9-2.9,2.9H26.9c-1.6,0-2.9-1.3-2.9-2.9l0,0
			C23.9,128.6,25.3,127.3,26.9,127.3z"/>
		<path class="st0" d="M161.8,130.2c0,1.6-1.3,2.9-2.9,2.9h-132c-1.6,0-2.9-1.3-2.9-2.9H161.8z"/>
		<rect x="36.9" y="32.9" class="st2" width="111.8" height="75.8"/>
	</g>
	<g>
		<polygon class="st3" points="54.4,0 120.3,0 131.3,11 131.3,0 131.3,108.8 54.4,108.8 		"/>
		<path class="st4" d="M117.6,77.1v13.6 M101.1,77.1v6.8 M67.7,77.1v21.3"/>
		<g>
			<path class="st5" d="M116.1,46.9c4.5,0,8.1,3.6,8.1,8.1s-3.6,8.1-8.1,8.1S108,59.5,108,55S111.6,46.9,116.1,46.9z"/>
			<path class="st5" d="M111.6,61.8c-1.2-0.8-2.1-1.8-2.8-3.1l7.3-3.7L111.6,61.8z"/>
			<path class="st5" d="M108.9,58.7c-0.6-1.1-0.9-2.4-0.9-3.7c0-2.6,1.2-4.9,3.1-6.4l5,6.4L108.9,58.7z"/>
			<path class="st5" d="M111.1,48.6c1.4-1.1,3.1-1.7,5-1.7V55L111.1,48.6z"/>
			<path class="st5" d="M116.1,46.9V55l5.8-5.7C120.4,47.8,118.4,46.9,116.1,46.9z"/>
		</g>
		<g>
			<rect x="61.5" y="64.5" class="st6" width="37.4" height="3.5"/>
			<rect x="61.5" y="44.5" class="st5" width="6.6" height="20"/>
			<rect x="69.1" y="52.1" class="st5" width="6.6" height="12.5"/>
			<rect x="76.8" y="56.3" class="st5" width="6.6" height="8.2"/>
			<rect x="84.5" y="52.4" class="st5" width="6.6" height="12.1"/>
			<rect x="92.2" y="55.9" class="st5" width="6.6" height="8.7"/>
		</g>
		<rect x="108.5" y="64.5" class="st7" width="3.4" height="3.5"/>
		<rect x="113.4" y="64.5" class="st7" width="10" height="3.5"/>
		<g>
			<rect x="74.2" y="11.6" class="st7" width="37.3" height="2.7"/>
			<rect x="61.5" y="18.3" class="st7" width="62.8" height="2.7"/>
			<rect x="61.5" y="22.9" class="st7" width="62.8" height="2.7"/>
			<rect x="61.5" y="27.6" class="st7" width="62.8" height="2.7"/>
			<rect x="61.5" y="32.2" class="st7" width="29.4" height="2.7"/>
			<polygon class="st7" points="120.3,11 131.3,11 120.3,0 			"/>
		</g>
		<rect x="61.5" y="75.1" class="st7" width="13.2" height="4"/>
		<rect x="78" y="75.1" class="st7" width="13.2" height="4"/>
		<rect x="94.5" y="75.1" class="st7" width="13.2" height="4"/>
		<rect x="111" y="75.1" class="st7" width="13.2" height="4"/>
		<rect x="61.5" y="81.9" class="st8" width="13.2" height="4"/>
		<rect x="61.5" y="88.7" class="st9" width="13.2" height="4"/>
		<rect x="61.5" y="95.5" class="st10" width="13.2" height="4"/>
		<rect x="94.5" y="81.9" class="st8" width="13.2" height="4"/>
		<rect x="111" y="81.9" class="st8" width="13.2" height="4"/>
		<rect x="111" y="88.7" class="st3" width="13.2" height="4"/>
	</g>
	<g>
		<path class="st1" d="M129.4,98.5l-6.8,2.4l2.8-6.6l38.8-36.9c0.6-0.6,1.6-0.6,2.2,0.1l1.8,1.9c0.6,0.6,0.6,1.6-0.1,2.2L129.4,98.5
			z"/>
		<path class="st0" d="M129.4,98.5l-6.8,2.4l4.9-4.7l39.8-37.8l0.9,1c0.6,0.6,0.6,1.6-0.1,2.2L129.4,98.5z"/>
		<path class="st2" d="M129.4,98.5l-6.8,2.4l2.8-6.6L162.5,59c1.7,1.2,3,2.6,4,4.2L129.4,98.5z"/>
		<path class="st1" d="M129.4,98.5l-6.8,2.4l4.9-4.7l37.1-35.3c0.7,0.7,1.3,1.5,1.8,2.3L129.4,98.5z"/>
		<path class="st11" d="M129.4,98.5l-6.8,2.4l2.8-6.6l35.8-34c1.7,1.2,3,2.6,4,4.2L129.4,98.5z"/>
		<path class="st12" d="M129.4,98.5l-6.8,2.4l4.9-4.7l35.8-34c0.7,0.7,1.3,1.5,1.8,2.3L129.4,98.5z"/>
		<path class="st2" d="M129.4,98.5l-6.8,2.4l2.8-6.6c0.8,0.5,1.5,1.2,2.2,1.9C128.2,96.9,128.8,97.7,129.4,98.5z"/>
		<path class="st1" d="M129.4,98.5l-6.8,2.4l4.9-4.7C128.2,96.9,128.8,97.7,129.4,98.5z"/>
		<path class="st13" d="M124.8,100.1l-2.2,0.8l0.9-2.2c0.2,0.2,0.5,0.4,0.7,0.6C124.5,99.6,124.7,99.8,124.8,100.1z"/>
	</g>
	<g>
		<rect y="129.1" class="st12" width="39.5" height="4"/>
		<path class="st12" d="M20.1,129.1h2V125h-2h0.4v4.1H20.1z M18.1,129.1h2h-0.4V125h0.4h-2V129.1z"/>
		<path class="st12" d="M26.1,102.4l7.2-34.6L29.4,67l-3.2,15.7v7.5l4.7-22.9l0.9,0.2l-5.7,27.4V102.4z M18.9,117.3l3.9,0.8
			l3.2-15.7v-7.5l-4.7,22.9l-0.9-0.2l5.7-27.4v-7.5L18.9,117.3z"/>
		<path class="st12" d="M87,44.1l-1.5-3.7l-24.8,10V52l25.4-10.2l0.4,0.9L60.8,53v1.6L87,44.1z M60.7,50.4L34.4,60.9l1.5,3.7
			l24.8-10V53L35.3,63.2l-0.4-0.9L60.6,52v-1.6H60.7z"/>
		<path class="st12" d="M80.6,29.1c1.3-0.8,2.6-1.3,4-1.7l5.2,6.4c5.2-0.2,10.9,3,14.3,8.5c-3.8,1.9-7.7,4.1-11.6,6.5
			c-3.9,2.4-7.7,4.8-11.1,7.3C78.1,50.4,78,44,80.6,39.4l-3.2-7.6C78.3,30.8,79.4,29.9,80.6,29.1z"/>
		<path class="st12" d="M32,59.9c1.1,0,2.1,0.4,2.9,1.2c1.7,1.6,1.7,4.3,0.1,6c-0.8,0.8-1.9,1.3-3,1.3v-1c0.9,0,1.8-0.3,2.4-1
			c1.3-1.3,1.3-3.5,0-4.8c-0.7-0.6-1.5-1-2.4-1V59.9z M29,61.1c0.8-0.8,1.9-1.3,3-1.3v0.8c-0.9,0-1.8,0.3-2.4,1
			c-1.3,1.3-1.3,3.5,0,4.8c0.7,0.6,1.5,1,2.4,1v0.8c-1.1,0-2.1-0.4-2.9-1.2C27.4,65.4,27.3,62.8,29,61.1z"/>
		<path class="st12" d="M20.1,117.1c2.3,0,4.2,1.9,4.2,4.2c0,2.3-1.9,4.2-4.2,4.2l0,0v-0.8l0,0c1.9,0,3.4-1.5,3.4-3.4
			s-1.5-3.4-3.4-3.4l0,0V117.1L20.1,117.1z M20.1,125.6c-2.3,0-4.2-1.9-4.2-4.2c0-2.3,1.9-4.2,4.2-4.2v0.8c-1.9,0-3.4,1.5-3.4,3.4
			s1.5,3.4,3.4,3.4V125.6z"/>
	</g>
</g>
</svg>
