<?xml version="1.0" encoding="utf-8"?>
<!-- Generator: Adobe Illustrator 22.1.0, SVG Export Plug-In . SVG Version: 6.00 Build 0)  -->
<svg version="1.1" id="Objects" xmlns="http://www.w3.org/2000/svg" xmlns:xlink="http://www.w3.org/1999/xlink" x="0px" y="0px"
	 viewBox="0 0 799.9 799.9" style="enable-background:new 0 0 799.9 799.9;" xml:space="preserve">
<style type="text/css">
	.st0{fill-rule:evenodd;clip-rule:evenodd;fill:#335E59;}
	.st1{fill-rule:evenodd;clip-rule:evenodd;fill:#71B8B0;}
	.st2{fill-rule:evenodd;clip-rule:evenodd;fill:#D6FFFA;}
	.st3{fill-rule:evenodd;clip-rule:evenodd;fill:#FFDC8F;}
	.st4{fill-rule:evenodd;clip-rule:evenodd;fill:none;stroke:#FFFFFF;stroke-width:1.1999;stroke-miterlimit:22.9256;}
	.st5{fill-rule:evenodd;clip-rule:evenodd;fill:#FFFFFF;stroke:#FFDC8F;stroke-width:0.5669;stroke-miterlimit:22.9256;}
	.st6{fill-rule:evenodd;clip-rule:evenodd;fill:#FFAE00;stroke:#FFDC8F;stroke-width:0.5669;stroke-miterlimit:22.9256;}
	.st7{fill-rule:evenodd;clip-rule:evenodd;fill:#FFAE00;}
	.st8{fill-rule:evenodd;clip-rule:evenodd;fill:#FFCD60;}
	.st9{fill-rule:evenodd;clip-rule:evenodd;fill:#FFEBBF;}
	.st10{fill-rule:evenodd;clip-rule:evenodd;fill:#FFFFFF;}
	.st11{fill-rule:evenodd;clip-rule:evenodd;fill:#FFD5C9;}
	.st12{fill-rule:evenodd;clip-rule:evenodd;fill:#FC6E4B;}
	.st13{fill-rule:evenodd;clip-rule:evenodd;fill:#666666;}
</style>
<g>
	<g>
		<polygon class="st0" points="689.5,334.3 712.4,334.3 723.2,353.8 678.7,353.8 		"/>
		<path class="st0" d="M646.9,250.3H755c3,0,5.5,2.5,5.5,5.5v77.9c0,3-2.5,5.5-5.5,5.5H646.9c-3,0-5.5-2.5-5.5-5.5v-77.9
			C641.4,252.8,643.9,250.3,646.9,250.3z"/>
		<g>
			<path class="st1" d="M753.8,333.6c0.4,0,0.7,0.3,0.7,0.7c0,0.4-0.3,0.7-0.7,0.7s-0.7-0.3-0.7-0.7
				C753.1,333.9,753.4,333.6,753.8,333.6z"/>
			<path class="st1" d="M751,333.6c0.4,0,0.7,0.3,0.7,0.7c0,0.4-0.3,0.7-0.7,0.7c-0.4,0-0.7-0.3-0.7-0.7
				C750.3,333.9,750.6,333.6,751,333.6z"/>
			<path class="st1" d="M748.2,333.6c0.4,0,0.7,0.3,0.7,0.7c0,0.4-0.3,0.7-0.7,0.7s-0.7-0.3-0.7-0.7
				C747.5,333.9,747.8,333.6,748.2,333.6z"/>
		</g>
		<path class="st1" d="M635,347.9h131.9c1.6,0,2.9,1.3,2.9,2.9l0,0c0,1.6-1.3,2.9-2.9,2.9H635c-1.6,0-2.9-1.3-2.9-2.9l0,0
			C632,349.2,633.4,347.9,635,347.9z"/>
		<path class="st0" d="M769.9,350.8c0,1.6-1.3,2.9-2.9,2.9H635c-1.6,0-2.9-1.3-2.9-2.9H769.9z"/>
		<rect x="645" y="253.5" class="st2" width="111.8" height="75.8"/>
	</g>
	<g>
		<polygon class="st3" points="662.5,220.6 728.4,220.6 739.4,231.6 739.4,220.6 739.4,329.4 662.5,329.4 		"/>
		<path class="st4" d="M725.7,297.7v13.6 M709.2,297.7v6.8 M675.8,297.7v21.3"/>
		<g>
			<path class="st5" d="M724.2,267.5c4.5,0,8.1,3.6,8.1,8.1s-3.6,8.1-8.1,8.1c-4.5,0-8.1-3.6-8.1-8.1S719.7,267.5,724.2,267.5z"/>
			<path class="st5" d="M719.7,282.4c-1.2-0.8-2.1-1.8-2.8-3.1l7.3-3.7L719.7,282.4z"/>
			<path class="st5" d="M717,279.3c-0.6-1.1-0.9-2.4-0.9-3.7c0-2.6,1.2-4.9,3.1-6.4l5,6.4L717,279.3z"/>
			<path class="st5" d="M719.2,269.2c1.4-1.1,3.1-1.7,5-1.7v8.1L719.2,269.2z"/>
			<path class="st5" d="M724.2,267.5v8.1l5.8-5.7C728.5,268.4,726.5,267.5,724.2,267.5z"/>
		</g>
		<g>
			<rect x="669.6" y="285.1" class="st6" width="37.4" height="3.5"/>
			<rect x="669.6" y="265.1" class="st5" width="6.6" height="20"/>
			<rect x="677.2" y="272.7" class="st5" width="6.6" height="12.5"/>
			<rect x="684.9" y="276.9" class="st5" width="6.6" height="8.2"/>
			<rect x="692.6" y="273" class="st5" width="6.6" height="12.1"/>
			<rect x="700.3" y="276.5" class="st5" width="6.6" height="8.7"/>
		</g>
		<rect x="716.6" y="285.1" class="st7" width="3.4" height="3.5"/>
		<rect x="721.5" y="285.1" class="st7" width="10" height="3.5"/>
		<g>
			<rect x="682.3" y="232.2" class="st7" width="37.3" height="2.7"/>
			<rect x="669.6" y="238.9" class="st7" width="62.8" height="2.7"/>
			<rect x="669.6" y="243.5" class="st7" width="62.8" height="2.7"/>
			<rect x="669.6" y="248.2" class="st7" width="62.8" height="2.7"/>
			<rect x="669.6" y="252.8" class="st7" width="29.4" height="2.7"/>
			<polygon class="st7" points="728.4,231.6 739.4,231.6 728.4,220.6 			"/>
		</g>
		<rect x="669.6" y="295.7" class="st7" width="13.2" height="4"/>
		<rect x="686.1" y="295.7" class="st7" width="13.2" height="4"/>
		<rect x="702.6" y="295.7" class="st7" width="13.2" height="4"/>
		<rect x="719.1" y="295.7" class="st7" width="13.2" height="4"/>
		<rect x="669.6" y="302.5" class="st8" width="13.2" height="4"/>
		<rect x="669.6" y="309.3" class="st9" width="13.2" height="4"/>
		<rect x="669.6" y="316.1" class="st10" width="13.2" height="4"/>
		<rect x="702.6" y="302.5" class="st8" width="13.2" height="4"/>
		<rect x="719.1" y="302.5" class="st8" width="13.2" height="4"/>
		<rect x="719.1" y="309.3" class="st3" width="13.2" height="4"/>
	</g>
	<g>
		<path class="st1" d="M737.5,319.1l-6.8,2.4l2.8-6.6l38.8-36.9c0.6-0.6,1.6-0.6,2.2,0.1l1.8,1.9c0.6,0.6,0.6,1.6-0.1,2.2
			L737.5,319.1z"/>
		<path class="st0" d="M737.5,319.1l-6.8,2.4l4.9-4.7l39.8-37.8l0.9,1c0.6,0.6,0.6,1.6-0.1,2.2L737.5,319.1z"/>
		<path class="st2" d="M737.5,319.1l-6.8,2.4l2.8-6.6l37.1-35.3c1.7,1.2,3,2.6,4,4.2L737.5,319.1z"/>
		<path class="st1" d="M737.5,319.1l-6.8,2.4l4.9-4.7l37.1-35.3c0.7,0.7,1.3,1.5,1.8,2.3L737.5,319.1z"/>
		<path class="st11" d="M737.5,319.1l-6.8,2.4l2.8-6.6l35.8-34c1.7,1.2,3,2.6,4,4.2L737.5,319.1z"/>
		<path class="st12" d="M737.5,319.1l-6.8,2.4l4.9-4.7l35.8-34c0.7,0.7,1.3,1.5,1.8,2.3L737.5,319.1z"/>
		<path class="st2" d="M737.5,319.1l-6.8,2.4l2.8-6.6c0.8,0.5,1.5,1.2,2.2,1.9C736.3,317.5,736.9,318.3,737.5,319.1z"/>
		<path class="st1" d="M737.5,319.1l-6.8,2.4l4.9-4.7C736.3,317.5,736.9,318.3,737.5,319.1z"/>
		<path class="st13" d="M732.9,320.7l-2.2,0.8l0.9-2.2c0.2,0.2,0.5,0.4,0.7,0.6C732.6,320.2,732.8,320.4,732.9,320.7z"/>
	</g>
	<g>
		<rect x="608.1" y="349.7" class="st12" width="39.5" height="4"/>
		<path class="st12" d="M628.2,349.7h2v-4.1h-2h0.4v4.1H628.2z M626.2,349.7h2h-0.4v-4.1h0.4h-2V349.7z"/>
		<path class="st12" d="M634.2,323l7.2-34.6l-3.9-0.8l-3.2,15.7v7.5l4.7-22.9l0.9,0.2l-5.7,27.4V323z M627,337.9l3.9,0.8l3.2-15.7
			v-7.5l-4.7,22.9l-0.9-0.2l5.7-27.4v-7.5L627,337.9z"/>
		<path class="st12" d="M695.1,264.7l-1.5-3.7l-24.8,10v1.6l25.4-10.2l0.4,0.9l-25.7,10.3v1.6L695.1,264.7z M668.8,271l-26.3,10.5
			l1.5,3.7l24.8-10v-1.6l-25.4,10.2l-0.4-0.9l25.7-10.3V271z"/>
		<path class="st12" d="M688.7,249.7c1.3-0.8,2.6-1.3,4-1.7l5.2,6.4c5.2-0.2,10.9,3,14.3,8.5c-3.8,1.9-7.7,4.1-11.6,6.5
			c-3.9,2.4-7.7,4.8-11.1,7.3c-3.3-5.7-3.4-12.1-0.8-16.7l-3.2-7.6C686.4,251.4,687.5,250.5,688.7,249.7z"/>
		<path class="st12" d="M640.1,280.5c1.1,0,2.1,0.4,2.9,1.2c1.7,1.6,1.7,4.3,0.1,6c-0.8,0.8-1.9,1.3-3,1.3V288c0.9,0,1.8-0.3,2.4-1
			c1.3-1.3,1.3-3.5,0-4.8c-0.7-0.6-1.5-1-2.4-1V280.5z M637.1,281.7c0.8-0.8,1.9-1.3,3-1.3v0.8c-0.9,0-1.8,0.3-2.4,1
			c-1.3,1.3-1.3,3.5,0,4.8c0.7,0.6,1.5,1,2.4,1v0.8c-1.1,0-2.1-0.4-2.9-1.2C635.5,286,635.4,283.4,637.1,281.7z"/>
		<path class="st12" d="M628.2,337.7c2.3,0,4.2,1.9,4.2,4.2c0,2.3-1.9,4.2-4.2,4.2l0,0v-0.8l0,0c1.9,0,3.4-1.5,3.4-3.4
			c0-1.9-1.5-3.4-3.4-3.4l0,0V337.7L628.2,337.7z M628.2,346.2c-2.3,0-4.2-1.9-4.2-4.2c0-2.3,1.9-4.2,4.2-4.2v0.8
			c-1.9,0-3.4,1.5-3.4,3.4c0,1.9,1.5,3.4,3.4,3.4V346.2z"/>
	</g>
</g>
</svg>
