<?xml version="1.0" encoding="utf-8"?>
<!-- Generator: Adobe Illustrator 22.1.0, SVG Export Plug-In . SVG Version: 6.00 Build 0)  -->
<svg version="1.1" id="Objects" xmlns="http://www.w3.org/2000/svg" xmlns:xlink="http://www.w3.org/1999/xlink" x="0px" y="0px"
	 viewBox="0 0 150.4 109.8" style="enable-background:new 0 0 150.4 109.8;" xml:space="preserve">
<style type="text/css">
	.st0{fill:#335E59;}
	.st1{fill:#FFAE00;}
	.st2{fill:#D6FFFA;}
	.st3{fill:#71B8B0;}
	.st4{fill:#FFEBBF;}
	.st5{fill:#FFFFFF;}
	.st6{fill:#FC6E4B;}
	.st7{fill:#FFC1B2;}
</style>
<g>
	<g>
		<path class="st0" d="M23.2,16.6h104c2.1,0,3.9,1.7,3.9,3.9v65.6c0,2.1-1.7,3.9-3.9,3.9h-104c-2.1,0-3.9-1.7-3.9-3.9V20.5
			C19.4,18.4,21.1,16.6,23.2,16.6z"/>
		<rect x="25.2" y="24.3" class="st1" width="100.1" height="53.7"/>
		<path class="st2" d="M75.2,22c0.8,0,1.4-0.6,1.4-1.4s-0.6-1.4-1.4-1.4s-1.4,0.6-1.4,1.4S74.4,22,75.2,22z"/>
		<rect x="72.8" y="81.4" class="st2" width="4.7" height="4.7"/>
		<polygon class="st2" points="19.4,90 131,90 150.4,102.7 0,102.7 		"/>
		<path class="st0" d="M0,102.7h150.4v4.3c0,1.5-1.3,2.8-2.8,2.8H2.8c-1.5,0-2.8-1.3-2.8-2.8V102.7z"/>
		<rect x="60" y="106.4" class="st2" width="30.4" height="1.9"/>
		<rect y="102.7" class="st2" width="150.4" height="2.2"/>
	</g>
	<g>
		<polygon class="st3" points="22.2,92 128.2,92 141.2,100.6 9.2,100.6 		"/>
		<g>
			<rect x="74.3" y="91.2" class="st2" width="1.4" height="10.2"/>
			<polygon class="st2" points="89.3,91 91.9,101.2 90.5,101.6 87.9,91.4 			"/>
			
				<rect x="103.2" y="90.6" transform="matrix(0.8943 -0.4475 0.4475 0.8943 -32.1072 56.6861)" class="st2" width="1.4" height="11.4"/>
			<polygon class="st2" points="114.7,90.8 122.6,100.9 121.5,101.8 113.5,91.7 			"/>
			<rect x="15.3" y="93.5" class="st2" width="119.4" height="1.4"/>
			<polygon class="st2" points="62.1,91.4 59.5,101.6 58.1,101.2 60.7,91 			"/>
			
				<rect x="40.4" y="95.5" transform="matrix(0.4474 -0.8943 0.8943 0.4474 -60.6204 94.377)" class="st2" width="11.4" height="1.4"/>
			
				<rect x="25.4" y="95.6" transform="matrix(0.6172 -0.7868 0.7868 0.6172 -63.5838 61.9561)" class="st2" width="12.9" height="1.4"/>
			<rect x="11" y="97" class="st2" width="130" height="1.4"/>
		</g>
	</g>
	<g>
		<g>
			<path class="st4" d="M49.8,32.4c11.7,0,10.1,20.3,0,20.3C39.7,52.7,38.1,32.4,49.8,32.4z"/>
			<path class="st4" d="M56.2,52c7.3,2.5,11.1,9.5,11.9,18.2H31.4C32.3,61.6,36,54.6,43.3,52c1.6,1.8,3.8,2.9,6.4,2.9
				C52.4,54.9,54.6,53.8,56.2,52z"/>
		</g>
		<path class="st5" d="M74.8,61.8h42c0.5,0,0.9,0.4,0.9,0.9v6.4c0,0.5-0.4,0.9-0.9,0.9h-42c-0.5,0-0.9-0.4-0.9-0.9v-6.4
			C73.8,62.3,74.3,61.8,74.8,61.8z"/>
		<path class="st4" d="M74.2,56.3h16.2c0.2,0,0.4,0.2,0.4,0.4v2.5c0,0.2-0.2,0.4-0.4,0.4H74.2c-0.2,0-0.4-0.2-0.4-0.4v-2.5
			C73.8,56.5,74,56.3,74.2,56.3z"/>
		<path class="st5" d="M74.8,43.5h42c0.5,0,0.9,0.4,0.9,0.9v6.4c0,0.5-0.4,0.9-0.9,0.9h-42c-0.5,0-0.9-0.4-0.9-0.9v-6.3
			C73.8,43.9,74.3,43.5,74.8,43.5z"/>
		<path class="st4" d="M74.2,38h16.2c0.2,0,0.4,0.2,0.4,0.4v2.5c0,0.2-0.2,0.4-0.4,0.4H74.2c-0.2,0-0.4-0.2-0.4-0.4v-2.5
			C73.8,38.2,74,38,74.2,38z"/>
	</g>
	<g>
		<path class="st6" d="M93.1,0h48.5c0.9,0,1.7,0.8,1.7,1.7v29.5c0,0.9-0.8,1.7-1.7,1.7H93.1c-0.9,0-1.7-0.8-1.7-1.7V1.7
			C91.4,0.8,92.2,0,93.1,0z"/>
		<rect x="91.4" y="23.1" class="st7" width="51.9" height="6.1"/>
		<path class="st7" d="M95.6,3h9.9c0.5,0,0.9,0.4,0.9,0.9v6.5c0,0.5-0.4,0.9-0.9,0.9h-9.9c-0.5,0-0.9-0.4-0.9-0.9V3.9
			C94.6,3.5,95,3,95.6,3z"/>
	</g>
</g>
</svg>
