<?xml version="1.0" encoding="utf-8"?>
<!-- Generator: Adobe Illustrator 22.1.0, SVG Export Plug-In . SVG Version: 6.00 Build 0)  -->
<svg version="1.1" id="Objects" xmlns="http://www.w3.org/2000/svg" xmlns:xlink="http://www.w3.org/1999/xlink" x="0px" y="0px"
	 viewBox="0 0 799.9 799.9" style="enable-background:new 0 0 799.9 799.9;" xml:space="preserve">
<style type="text/css">
	.st0{fill:#71B8B0;}
	.st1{fill-rule:evenodd;clip-rule:evenodd;fill:#A0DED7;}
	.st2{fill-rule:evenodd;clip-rule:evenodd;fill:#ED5C1B;}
	.st3{fill-rule:evenodd;clip-rule:evenodd;fill:#FFFDFA;}
	.st4{fill-rule:evenodd;clip-rule:evenodd;fill:#FFAE00;}
</style>
<g>
	<g>
		<path class="st0" d="M51.2,289.7c-0.2,0.8-0.3,1.7-0.4,2.5c-0.1,0.8-0.2,1.7-0.3,2.5c-0.2,1.7-0.3,3.4-0.3,5.2
			c0,1.8,0.1,3.5,0.3,5.2c0.1,0.9,0.2,1.7,0.3,2.5c0.1,0.8,0.3,1.7,0.4,2.5c0.2,0.8,0.4,1.6,0.6,2.5c0.4,1.6,0.9,3.2,1.5,4.8
			c0.3,0.8,0.6,1.5,0.9,2.3c0.3,0.8,0.7,1.5,1,2.3c0.2,0.4,0.4,0.7,0.5,1.1c0.4,0.7,0.8,1.5,1.2,2.2c1.2,2.1,2.6,4.2,4.1,6.1
			c0.8,1,1.5,1.9,2.4,2.8c0.5,0.6,1.1,1.2,1.7,1.8c0.6,0.6,1.2,1.1,1.8,1.7c2.7,2.5,5.7,4.6,8.9,6.5c0.7,0.4,1.4,0.8,2.2,1.2
			c1.5,0.7,3,1.4,4.5,2c0.8,0.3,1.5,0.6,2.3,0.9c5.1,1.7,10.6,2.7,16.3,2.7c3.9,0,7.7-0.4,11.3-1.3c1.7-0.4,3.4-0.9,5-1.4
			c0.8-0.3,1.6-0.6,2.3-0.9c1.5-0.6,3-1.3,4.5-2c0.7-0.4,1.5-0.8,2.2-1.2c3.2-1.8,6.2-4,8.9-6.5c0.6-0.5,1.2-1.1,1.8-1.7
			c0.6-0.6,1.1-1.2,1.7-1.8c0.8-0.9,1.6-1.8,2.4-2.8c1.2-1.5,2.3-3.1,3.3-4.8c0.3-0.4,0.5-0.9,0.8-1.3c0.4-0.7,0.8-1.4,1.2-2.2
			c0.2-0.4,0.4-0.7,0.6-1.1c0.4-0.7,0.7-1.5,1-2.3c0.3-0.8,0.6-1.5,0.9-2.3c0.6-1.6,1.1-3.2,1.5-4.8c0.2-0.8,0.4-1.6,0.6-2.5
			c0.2-0.8,0.3-1.7,0.5-2.5c0.1-0.8,0.2-1.7,0.3-2.5c0.2-1.7,0.3-3.4,0.3-5.2s-0.1-3.5-0.3-5.2c-0.1-0.9-0.2-1.7-0.3-2.5
			c-0.1-0.8-0.3-1.7-0.5-2.5c-0.2-0.8-0.4-1.6-0.6-2.5c-0.4-1.6-0.9-3.2-1.5-4.8c-0.1-0.4-0.3-0.8-0.4-1.2c-0.5-1.2-0.9-2.3-1.5-3.4
			c-0.2-0.4-0.4-0.7-0.5-1.1c-0.4-0.7-0.8-1.5-1.2-2.2c-1.2-2.1-2.6-4.2-4.1-6.1c-0.8-1-1.5-1.9-2.4-2.8c-0.5-0.6-1.1-1.2-1.7-1.8
			c-0.6-0.6-1.2-1.1-1.8-1.7c-1.2-1.1-2.4-2.1-3.6-3c-1.7-1.3-3.4-2.4-5.2-3.5c-0.7-0.4-1.4-0.8-2.2-1.2c-0.3-0.2-0.7-0.3-1-0.5
			c-0.4-0.2-0.8-0.4-1.2-0.6c-0.2-0.1-0.3-0.2-0.5-0.2c-0.6-0.3-1.2-0.5-1.8-0.7c0,0,0,0,0,0c-0.6-0.2-1.3-0.5-1.9-0.7
			c-0.1,0-0.3-0.1-0.4-0.1c-1.5-0.5-3-0.9-4.6-1.3c-0.5-0.1-1-0.2-1.5-0.3c-0.4-0.1-0.7-0.1-1.1-0.2c-2.7-0.5-5.4-0.8-8.2-0.8
			c-0.3,0-0.6,0-0.9,0c-0.5,0-1,0-1.6,0c-5.1,0.2-10.1,1.1-14.7,2.6c-0.8,0.3-1.6,0.6-2.3,0.9c-0.2,0.1-0.5,0.2-0.7,0.3
			c-0.5,0.2-1.1,0.4-1.6,0.7c-0.8,0.3-1.5,0.7-2.2,1.1c-0.7,0.4-1.5,0.8-2.2,1.2c-2.9,1.6-5.5,3.6-8,5.7c-0.3,0.3-0.6,0.5-0.9,0.8
			c-0.6,0.5-1.2,1.1-1.8,1.7c-0.6,0.6-1.1,1.2-1.7,1.8c-0.8,0.9-1.6,1.8-2.4,2.8c-1.5,1.9-2.9,4-4.1,6.1c-0.4,0.7-0.8,1.4-1.2,2.2
			c-0.2,0.4-0.4,0.7-0.5,1.1c-0.5,1.1-1,2.2-1.5,3.4c-0.2,0.4-0.3,0.8-0.4,1.2c-0.6,1.6-1.1,3.2-1.5,4.8
			C51.5,288.1,51.3,288.9,51.2,289.7z"/>
		<path class="st1" d="M129.1,341.3V296c0.2,0.1,0.4,0.2,0.6,0.3c1.3,0.8,3.1,1.8,3.6,0.6s2.2-0.8,3.6-0.5c1.4,0.3,3.9,0.8,5.2,0.6
			c1.3-0.1,2.6-1.3,2.7-2.5c0.1-1.2-1.7-1.4-3.9-1.4c-2.2,0-3.1-0.4-2.7-1.7c0.4-1.3,1-2.5,2.2-3c1.2-0.5,2.2-0.8,3.4-0.8
			c1.2,0,2.7,0.9,4.2,0.8c1.4-0.1,0.9-1.4-0.5-2.2c-1.4-0.8-1.7-1.9-1-2.6c0.6-0.6,0.3-1.3-0.9-0.6c-1.2,0.6-2.9,2.3-3.2,1.3
			c-0.4-1-3.2-0.1-3.2,1.4c0,1.6,0.4,1.8-0.1,2.9c-0.5,1-1.7,1.8-2.7,1.7c-1-0.1,0.1,1.8-0.9,2.3c-1,0.5-1.6-0.8-2.2-2.1
			c-0.6-1.3-1.2-2.1-1.8-2.9c-0.6-0.8-1-1.2-1.9-1.9c-0.1-0.1-0.2-0.1-0.2-0.2V275c0.3-0.1,0.6-0.1,1-0.1c1.4,0,2.5,1.2,3.5,0.3
			c1-0.9-0.8-2.5,0.8-2.5c1.6,0,2.9,0.1,1.7-1c-1.2-1.2,0.4-0.5,1.7-1.2c1.3-0.6,1.2-1.7-0.4-1.4c-1.6,0.3-2.9,1.2-3.5-0.4
			c-0.6-1.6,1.3-3.4,2.3-4.5c0.2-0.3,0.3-0.5,0.2-0.7c0.2,0.2,0.4,0.4,0.6,0.6c0.6,0.6,1.1,1.2,1.7,1.8c0.8,0.9,1.6,1.8,2.4,2.8
			c1.5,1.9,2.9,4,4.1,6.1c0.4,0.7,0.8,1.4,1.2,2.2c0.2,0.4,0.4,0.7,0.5,1.1c0.5,1.1,1,2.2,1.5,3.4c0.2,0.4,0.3,0.8,0.4,1.2
			c0.6,1.6,1.1,3.2,1.5,4.8c0.2,0.8,0.4,1.6,0.6,2.5c0.2,0.8,0.3,1.7,0.5,2.5c0.1,0.8,0.2,1.7,0.3,2.5c0.2,1.7,0.3,3.4,0.3,5.2
			s-0.1,3.5-0.3,5.2c-0.1,0.9-0.2,1.7-0.3,2.5c-0.1,0.8-0.3,1.7-0.5,2.5c-0.1,0.3-0.1,0.7-0.2,1l0-0.1c-1.2-2.7-3.8-5.7-4.7-8.2
			c-0.9-2.5-1.8-4-2.7-3.9c-0.9,0.1,1.2,4.8,2.1,6.5c0.9,1.7,1.9,4.4,3.5,6c0.5,0.5,1,0.9,1.5,1.2c-0.4,1.6-0.9,3.2-1.5,4.7
			c-0.3,0.8-0.6,1.5-0.9,2.3c-0.3,0.8-0.7,1.5-1,2.3c-0.2,0.4-0.4,0.7-0.6,1.1c-0.4,0.7-0.8,1.5-1.2,2.2c-0.3,0.4-0.5,0.9-0.8,1.3
			c-1,1.7-2.1,3.2-3.3,4.8c-0.8,1-1.5,1.9-2.4,2.8c-0.5,0.6-1.1,1.2-1.7,1.8c-0.6,0.6-1.2,1.1-1.8,1.7c-1.9,1.7-3.8,3.2-5.9,4.6
			C129.2,341.9,129.1,341.6,129.1,341.3L129.1,341.3z M129.1,289.5c0.2,0.6,0.2,1.4,0.2,2.3c0,1.8,1.4-0.6,1.7-1.4
			c0.3-0.8,0.8-2.6-0.3-2.6c-0.8,0-1.1-0.2-1.7-0.8V289.5L129.1,289.5z M129.1,273.5c0.2-0.2,0.4-0.3,0.6-0.3c0.9,0,1.3-1.2,2.3-2.2
			c1-1-0.9-2.3-0.4-3.8c0.5-1.4,2.1-2.1,2.5-3.5c0.2-0.9,1.3-1,1.9-0.7c-0.3-0.3-0.6-0.5-0.8-0.8c-1.2-1.1-2.4-2.1-3.6-3
			c-0.3-0.2-0.6-0.4-0.9-0.6c-0.5,0.4-1.1,1-1.6,1.6V273.5z M129.1,260.2v13.3c-0.6,0.5-1.2,1.4-1.4,0.4c-0.4-1.3-1.2-2.7-2.1-2.1
			c-0.9,0.6-0.8,2.9-1.9,1c-1.2-1.8-2.2-4.4-0.9-5.8c1.3-1.4,3.1-2.6,4.2-4C127.4,262.3,128.2,261.2,129.1,260.2L129.1,260.2z
			 M129.1,275c-0.7,0.2-1.3,0.5-2.5,0.5c-1.7,0-1-1.2-2.1-1.2c-1,0-0.8,1.9-1.7,2.9c-0.8,0.8-2.1,1.8-3.4,2.3v10.4
			c0.6-0.2,0.8-1.4,0.4-2.7c-0.4-1.4,2.1-0.9,4.2-0.9c2.1,0,2.3,1.4,3.8,1.9c0.7,0.3,1.1,0.7,1.3,1.3V287c-0.2-0.2-0.3-0.3-0.5-0.5
			c-0.8-0.8-0.3-1.3,0.5-0.8V275L129.1,275z M129.1,296v45.2c-0.1-0.9-0.2-1.8-0.8-2.7c-1.2-1.7-2.3-4.7-1.2-6.2
			c1.2-1.6,1.7-2.7,0.6-3.1c-1-0.4,0.5-2.2-0.9-3.1c-1.4-0.9-2.3-3.4-1.8-4.5c0.5-1.2,0.6-3.1-1-3.1c-1.2,0-3.1-0.7-4.6-0.9v-24.7
			c0.8-0.3,1.5-0.6,2.8-0.6c2.5,0,4.3-0.9,4,1C126,294.9,127.8,295.4,129.1,296L129.1,296z M119.4,278.4v-1.1
			c0.3-0.1,0.6,0.1,0.5,0.4C119.9,278.1,119.7,278.4,119.4,278.4z M119.4,277.3v1.1c-0.1,0-0.2-0.1-0.3-0.2
			c-0.4-0.4-0.3-0.7,0.1-0.9C119.3,277.3,119.4,277.3,119.4,277.3L119.4,277.3z M119.4,279.4v10.4c-0.1,0-0.1,0-0.2,0
			c-0.2,0-0.4,0-0.7,0v-10.2c0.1,0,0.2,0,0.3-0.1C119,279.6,119.2,279.5,119.4,279.4L119.4,279.4z M119.4,292.8v24.7
			c-0.3,0-0.6,0-0.9,0v-24.4C118.9,293,119.1,292.9,119.4,292.8L119.4,292.8z M118.6,274.1V273c0.3-0.1,0.6,0.1,0.5,0.4
			C119,273.7,118.8,274.1,118.6,274.1z M118.6,273v1.1c-0.1,0-0.2-0.1-0.3-0.2c-0.4-0.4-0.3-0.7,0.1-0.9
			C118.5,273,118.5,273,118.6,273L118.6,273z M118.6,279.7v10.2c-0.6,0.1-1,0.3-0.9,1c0.1,0.9-0.3,0.8-0.9,1.3
			c-0.3,0.2-0.7,0.5-1.1,0.7v-6.2c1.1-0.3,1.7-1.5,0.8-2.4c-1.2-1-0.8-2.5-0.1-3.6C116.8,279.6,117.2,280,118.6,279.7L118.6,279.7z
			 M118.6,293.1v24.4c-0.2,0-0.4,0.1-0.6,0.1c-0.9,0.3-1.6,0.5-2.3,0.7v-24.9c0.3-0.1,0.7-0.1,1.1-0.1
			C117.5,293.4,118,293.3,118.6,293.1L118.6,293.1z M115.6,279.7c0.5-0.2,1-0.4,1.5-0.4c1.9,0-0.1-3.2,0.1-4.3
			c0.3-1,0.2-3.4-1.7-3.4V279.7z M115.6,271.7v8c-1.1,0.5-1.9,1.1-2.2-0.2c-0.3-1.9-0.4-1.8,1.3-2.5c1.8-0.7-0.7-5.4,0.6-5.3
			C115.4,271.7,115.5,271.7,115.6,271.7L115.6,271.7z M115.6,286.7v6.2c-0.5,0.2-1,0.2-1.6-0.2c-0.5-0.3-1.3-0.2-1.9-0.2v-6
			c1.2,0,1.5,0.3,2.9,0.3C115.2,286.8,115.4,286.7,115.6,286.7L115.6,286.7z M115.6,293.5v24.9c-0.7,0.2-1.3,0.4-1.8,0.6
			c-0.5,0.2-1-0.1-1.7-0.6v-23.5c0.2-0.1,0.5-0.2,0.8-0.3C113.9,294.3,114.3,293.7,115.6,293.5L115.6,293.5z M112.1,279.1
			c0.3-0.1,0.6-0.3,0.8-0.8c0.6-1.3,0.6-3.7-0.6-3.5c-0.1,0-0.1,0-0.2,0V279.1L112.1,279.1z M112.1,256.8v-1.5c0.1,0,0.2,0,0.3,0
			c1,0,1.8,1.8,0.4,1.8C112.6,257.1,112.3,257,112.1,256.8z M112.1,255.3v1.5C111.4,256.4,111.1,255.4,112.1,255.3L112.1,255.3z
			 M112.1,274.8v4.3c-0.6,0.2-1.3-0.3-1.1-1.2C111.2,276.6,110.3,274.6,112.1,274.8L112.1,274.8z M112.1,286.5v6
			c-0.7,0-1.2,0-1.2-0.7c0-1.3-0.9-1.8-0.3-3c0.6-1.2,0-2.3,1.3-2.3L112.1,286.5L112.1,286.5z M112.1,294.8v23.5
			c-1-0.7-2.2-2-3.2-3.1c-0.8-0.8-1.8-1.7-2.6-2.6v-9c0.6-1.1,1-3.8,2.2-4c1.3-0.1,2.2-1.6,2.2-2.7
			C110.6,296.1,111.2,295.3,112.1,294.8L112.1,294.8z M106.2,296.4c0.2,0,0.5-0.3,0.5-0.6c0.1-0.4-0.2-0.6-0.5-0.4V296.4
			L106.2,296.4z M106.2,265.8v-3.1c1.3,0,1.9,1.2,1.1,2.2C107,265.2,106.6,265.5,106.2,265.8z M106.2,262.7v3.1
			c-0.2,0.2-0.5,0.3-0.8,0.4v-3.4C105.7,262.7,106,262.6,106.2,262.7L106.2,262.7z M106.2,295.3v1.1c-0.1,0-0.2-0.1-0.3-0.2
			c-0.4-0.4-0.3-0.7,0.1-0.9C106.1,295.4,106.2,295.3,106.2,295.3L106.2,295.3z M106.2,303.7v9c-0.3-0.4-0.6-0.7-0.8-1v-1.9
			c1-1,0.6-1.3,0-1.9V305c0.2-0.4,0.5-0.9,0.7-1.2C106.1,303.8,106.2,303.8,106.2,303.7L106.2,303.7z M105.4,299.6v-1.1
			c0.3-0.1,0.5,0.1,0.4,0.5C105.8,299.2,105.6,299.5,105.4,299.6z M105.4,262.8v3.4c-1,0.4-2.2,0.5-3.4-0.5l-0.1-0.1v-3.5
			c0.2-0.1,0.4-0.1,0.7,0C103.9,262.8,104.4,262.6,105.4,262.8L105.4,262.8L105.4,262.8z M105.4,298.5v1.1c-0.1,0-0.2,0-0.4-0.2
			c-0.4-0.4-0.3-0.7,0.1-0.9C105.3,298.5,105.4,298.5,105.4,298.5L105.4,298.5z M105.4,305v2.8c-0.1-0.1-0.2-0.2-0.2-0.3
			C104.8,306.9,105,305.9,105.4,305L105.4,305z M105.4,309.8v1.9c-0.5-0.7-0.6-1.4-0.1-1.8L105.4,309.8L105.4,309.8z M101.9,250.8
			v-1.7l0,0c0.3,0,0.6,0,0.9,0c0,0.3-0.1,0.7-0.5,1.1C102.2,250.4,102,250.6,101.9,250.8L101.9,250.8z M103.8,296
			c0.4-0.2,0.7,0,0.7,0.4c-0.1,0.4-0.4,0.9-0.8,0.5C103.3,296.4,103.3,296.1,103.8,296z M75.8,279c0.1,0,0.2,0,0.3,0
			c1.5,0,0.4-1-0.3-1.9V279L75.8,279z M101.9,249.1v1.7c-0.7,0.9-0.7,1.5-2.1,1.5c-1.7,0,2.1,2.7,0.1,2.7c-2,0-2.6,2.5-0.6,2.2
			c2-0.2,1.8,0.6-0.2,1.6c-2.1,1-5.4,1-6.4,2.6c-1,1.6-4.7,1.5-4.7,3s-0.6,6.9-3.4,5.9c-2.8-1-3.4-3.8-4.6-5.5
			c-1.1-1.7,0.6-3.6-0.5-4.2c-1.1-0.6,2.5-3.4,1.2-2.6c-1.2,0.9-3.2-0.4-1.5-0.7c1.7-0.4,1.1-2.1-0.1-1.7c-0.9,0.3-1.9,0-1.7-0.7
			l0.4-0.2c0.7-0.4,1.5-0.7,2.2-1.1c0.5-0.2,1-0.5,1.6-0.7c0.2-0.1,0.5-0.2,0.7-0.3c0.8-0.3,1.5-0.6,2.3-0.9
			c4.7-1.6,9.6-2.5,14.7-2.6c0.5,0,1,0,1.6,0C101.3,249.1,101.6,249.1,101.9,249.1L101.9,249.1z M101.9,262.2c-1,0.3-1.6,2.2,0,3.5
			V262.2L101.9,262.2z M75.8,344.2v-28.1c1.4,0.9,2.6,1.8,3.7,1.8c1.6,0,1.4,1.6,1.4,3.2c0,1.6,2.1,1.6,4.3,2.3
			c2.2,0.7,3.2,0.6,5.4,2c2.2,1.4,2.7,2.1,1.6,3.7c-1.1,1.6-3.4,4.1-3.6,6.4c-0.1,2.3-1.6,4.6-3.2,4.8c-1.6,0.2-3.1,1.5-3.1,2.6
			c0,1.1-1.5,0.6-1.6,2.7c0,0.3-0.1,0.7-0.2,1c-0.9-0.4-1.8-0.8-2.7-1.3C77.2,344.9,76.5,344.6,75.8,344.2L75.8,344.2z M75.8,283.2
			v-3.6c0.1,0,0.2,0,0.3,0c1.9-0.1,2.2,1.4,2.8,2.6c0.6,1.2,0.2,2.4-1.7,1.6C76.7,283.5,76.2,283.3,75.8,283.2z M71.6,280.6
			c0.3,0.3,0.6,0.4,0.9-0.1c0.5-0.8,1.4-1.4,3.3-1.5v-1.9c-0.3-0.4-0.5-0.8-0.4-1c0.4-0.9-1.5-1.2-2.5-2.2c-0.7-0.7-0.8-2.5-1.4-3.4
			V280.6L71.6,280.6z M75.8,279.6v3.6c-0.9-0.4-1.3-0.8-0.7-2C75.7,279.6,75,279.5,75.8,279.6L75.8,279.6z M75.8,316.1v28.1
			l-0.1-0.1c-1.4-0.8-2.7-1.7-4.1-2.6v-27.4c0.8,0.1,1.6,0.3,2.5,0.9C74.7,315.3,75.3,315.7,75.8,316.1L75.8,316.1z M71.6,286.2
			v-1.6c1-0.1,1.2,1.6,0.2,1.6C71.8,286.2,71.7,286.2,71.6,286.2L71.6,286.2z M71.6,263.2v-1.5C72.1,262.3,72.1,263,71.6,263.2z
			 M70,284.7c0.1-0.1,0.1-0.1,0.1-0.2c0.7-0.9,0.4-1.8-0.1-2.4V284.7L70,284.7z M70,279.9c0.4,0,0.7,0,0.9,0.1
			c0.3,0.2,0.5,0.4,0.7,0.6v-10.2c-0.2-0.4-0.5-0.6-1-0.6c-0.3,0-0.5,0-0.6,0.1V279.9L70,279.9z M71.6,261.6v1.5c-0.1,0-0.3,0-0.6,0
			c-0.4-0.1-0.7-0.2-1-0.2v-2.6c0,0,0.1,0,0.1,0.1C70.8,260.7,71.3,261.1,71.6,261.6L71.6,261.6z M71.6,284.6v1.6
			c-0.9-0.2-1.3-1.4-0.2-1.5C71.5,284.6,71.5,284.6,71.6,284.6L71.6,284.6z M71.6,314.1v27.4c-0.5-0.4-1.1-0.8-1.6-1.2V314
			C70.5,314,71,314,71.6,314.1L71.6,314.1z M70,308.7v-0.3C70.1,308.5,70.2,308.7,70,308.7L70,308.7z M70,286.8c0.1,0,0.1,0,0.2,0
			c0.7,0,0.6-1.2-0.2-1.2V286.8L70,286.8z M70,267.4v-2.3C70.7,266,70.5,267,70,267.4z M67.7,286.4c0.7-0.3,1.6-0.7,2.4-1.7v-2.6
			c-0.6-0.7-1.5-1.1-2.1-1.1c-1,0,0.8-1,2.1-1.1v-10c-0.6,0.2-0.1,1.1-1.1,1.4c-0.5,0.2-1,0.1-1.3,0V286.4L67.7,286.4z M70,260.4
			v2.6c-1.1,0-1.6,0.6-0.3,1.8c0.1,0.1,0.2,0.2,0.3,0.4v2.3c-0.3,0.2-0.7,0.3-1.1,0.2c-0.3-0.1-0.7-0.3-1.3-0.5v-5.6
			c0.6-0.5,1.2-1,1.9-1.5C69.7,260.1,69.8,260.3,70,260.4L70,260.4z M70,285.6v1.2c-0.6-0.1-0.9-1-0.2-1.1
			C69.9,285.6,70,285.6,70,285.6L70,285.6z M70,308.4v0.3c-0.1,0.1-0.3,0.1-0.6,0.1c-1.5-0.1-2.4-1-0.6-0.8
			C69.3,308,69.8,308.2,70,308.4L70,308.4z M70,314v26.3c-0.8-0.6-1.6-1.3-2.4-1.9v-24.3c0.5,0,1-0.1,1.4-0.1
			C69.4,314.1,69.7,314.1,70,314z M65.7,288.3c0.2-0.4,0.5-0.8,0.8-1.2c0.3-0.3,0.7-0.5,1.2-0.7v-15.2c-0.4-0.2-0.6-0.7-0.6-1.3
			c0-0.5-0.6-1.1-1.4-1.7V288.3L65.7,288.3z M67.7,261.5v5.6c-0.6-0.2-1.3-0.5-2-0.7v-3c0.4-0.4,0.7-0.7,1.1-1
			C67.1,262,67.4,261.8,67.7,261.5L67.7,261.5L67.7,261.5z M67.7,314.2v24.3c-0.3-0.3-0.6-0.5-0.9-0.8c-0.4-0.3-0.7-0.7-1.1-1v-22.8
			C66.1,314.2,66.9,314.2,67.7,314.2L67.7,314.2z M65.7,308.6v-1.7c0.1,0,0.3,0,0.4,0c1.1-0.1,1,1.7-0.2,1.7
			C65.8,308.6,65.8,308.6,65.7,308.6z M61.5,294.6c0.3-0.3,0.6-0.6,0.6-0.9c0-1.1,0.7-4.2,2.1-4.2c0.8,0,1.2-0.5,1.5-1.2v-20.1
			c-1-0.7-2.2-1.3-3.3-1.4c-0.3,0.4-0.6,0.7-0.9,1.1V294.6L61.5,294.6z M65.7,263.3v3c-0.8-0.3-1.6-0.5-2.3-0.7
			c0.5-0.6,1.1-1.2,1.7-1.7C65.2,263.8,65.5,263.5,65.7,263.3L65.7,263.3z M65.7,306.9v1.7C64.7,308.4,63.7,307.1,65.7,306.9
			L65.7,306.9z M65.7,313.8v22.8c-0.1-0.1-0.3-0.3-0.4-0.4c-0.5-0.6-1.2-1.5-1.9-1.9l-0.1-0.1c-0.6-0.7-1.3-1.4-1.9-2.1v-17.8
			c0.5,0,1,0,1.4-0.2c1-0.6,2-1.8,2.5-0.6C65.4,313.5,65.6,313.7,65.7,313.8L65.7,313.8z M61.5,306.4v-1c1,0.2,1.6,1,0.5,1
			C61.8,306.5,61.7,306.4,61.5,306.4L61.5,306.4z M61.5,303.4V302c1.1,0.6,1.8,2.1,1,1.6C62.1,303.4,61.8,303.3,61.5,303.4z
			 M58.4,301.3c0.4,0.2,0.6-0.1,0.6-1.1c0-1.7-0.5-2.7,0.1-3.7c0.4-0.7,1.7-1.2,2.4-1.9v-26.7c-0.2,0.2-0.3,0.4-0.5,0.6
			c-0.4,0.5-0.7,1-1.1,1.5c0.1,0.4,0.1,0.9,0.2,1.3c0.4,1.7,1.2,3,0.2,3c-1,0-1,1.5-1.1,3.8c-0.1,1.2-0.5,1-0.9,0.4V301.3
			L58.4,301.3z M61.5,302v1.4c-0.6,0.1-1,0.5-1.5,0.2c-0.7-0.4-0.5-1.6,0.6-1.8C61,301.8,61.2,301.9,61.5,302L61.5,302z M61.5,305.4
			v1c-1-0.2-1.6-1-0.5-1C61.2,305.4,61.3,305.4,61.5,305.4L61.5,305.4z M61.5,314.2V332l-0.1-0.1c0-0.1,0-0.3,0-0.4
			c0-1-2.1-2.6-3.1-4v-5.2c0,0,0.1,0,0.1-0.1c1.4-0.6,0.7-2.5,2.1-2.8c1.4-0.4,0.5-1.8,0-2.8c-0.3-0.5-1.2-0.5-2.2-0.5v-1.9
			c0.3,0.1,0.6,0.1,0.9,0C59.8,314,60.7,314.2,61.5,314.2L61.5,314.2z M58.4,305.2v-1.3c1.1,0.2,1.7,1.5,0.4,1.4
			C58.7,305.2,58.5,305.2,58.4,305.2z M51.2,289.7c-0.2,0.8-0.3,1.7-0.4,2.5c-0.1,0.8-0.2,1.7-0.3,2.5c-0.1,1.4-0.2,2.8-0.3,4.2
			c0.6,0,1.2,0.1,1.7-0.1c1.2-0.5,3.6-1.1,5,0.9c0.7,0.9,1.1,1.4,1.5,1.6v-22.8c-0.4-0.6-0.7-1.6-0.7-2.1c0-0.5-0.4-0.8-1.1-1.1
			c-0.3,0.5-0.6,1.1-0.9,1.6c-0.2,0.4-0.4,0.7-0.5,1.1c-0.5,1.1-1,2.2-1.5,3.4c-0.2,0.4-0.3,0.8-0.4,1.2c-0.6,1.6-1.1,3.2-1.5,4.8
			C51.5,288.1,51.3,288.9,51.2,289.7L51.2,289.7z M58.4,303.9v1.3c-1.1-0.3-1.7-1.5-0.4-1.3C58.1,303.8,58.2,303.9,58.4,303.9
			L58.4,303.9z M58.4,314.2c-0.8-0.2-1.6-0.9-2.1-1.8c-0.7-1.2,0.5-2.6-1.4-2.6c-1.8,0-0.6-4.1-0.6-5.4c0-1.2-2.5,0.9-3.8,2.2
			c0,0.3,0.1,0.7,0.1,1c0.1,0.8,0.3,1.7,0.4,2.5c0.1,0.3,0.1,0.6,0.2,0.9c0.7,0.4,1.4,0.7,2.2,0.7c2.1,0,2.2,2.8,2.8,3.8
			c0.3,0.5,1.1,0.5,2,0.5V314.2L58.4,314.2z M58.4,322.4v5.2c-0.2-0.2-0.3-0.4-0.4-0.6C57.3,325.6,57.1,323.1,58.4,322.4z"/>
	</g>
	<g>
		<path class="st2" d="M113.1,227.7c-11.3,0-20.5,9.2-20.5,20.5c0,2.4,0.6,5.7,1.6,7.8l18.9,43.9l19-44.1c0.8-1.9,1.5-5.2,1.5-7.6
			C133.6,236.8,124.4,227.7,113.1,227.7z"/>
		<path class="st3" d="M113.1,264.9c9.3,0,16.8-7.5,16.8-16.8c0-9.3-7.5-16.8-16.8-16.8c-9.3,0-16.8,7.5-16.8,16.8
			C96.3,257.4,103.9,264.9,113.1,264.9z"/>
	</g>
	<g>
		<path class="st4" d="M68.6,277.9c-6.6,0-11.9,5.3-11.9,11.9c0,1.4,0.4,3.3,0.9,4.6l11,25.5l11-25.6c0.5-1.1,0.9-3,0.9-4.4
			C80.5,283.2,75.2,277.9,68.6,277.9z"/>
		<path class="st3" d="M68.6,299.5c5.4,0,9.8-4.4,9.8-9.8c0-5.4-4.4-9.8-9.8-9.8c-5.4,0-9.8,4.4-9.8,9.8
			C58.9,295.2,63.2,299.5,68.6,299.5z"/>
	</g>
</g>
</svg>
