<?xml version="1.0" encoding="utf-8"?>
<!-- Generator: Adobe Illustrator 22.1.0, SVG Export Plug-In . SVG Version: 6.00 Build 0)  -->
<svg version="1.1" id="Objects" xmlns="http://www.w3.org/2000/svg" xmlns:xlink="http://www.w3.org/1999/xlink" x="0px" y="0px"
	 viewBox="0 0 799.9 799.9" style="enable-background:new 0 0 799.9 799.9;" xml:space="preserve">
<style type="text/css">
	.st0{fill-rule:evenodd;clip-rule:evenodd;fill:#335E59;}
	.st1{fill-rule:evenodd;clip-rule:evenodd;fill:#71B8B0;}
	.st2{fill-rule:evenodd;clip-rule:evenodd;fill:#FFFDFA;}
	.st3{fill:#71B8B0;}
	.st4{fill-rule:evenodd;clip-rule:evenodd;fill:#FFAE00;}
	.st5{fill-rule:evenodd;clip-rule:evenodd;fill:#FFEBBF;}
	.st6{fill:#D6FFFA;}
	.st7{fill:#FC6E4B;}
</style>
<g>
	<g>
		<polygon class="st0" points="86.4,537.4 109.4,537.4 120.1,556.9 75.7,556.9 		"/>
		<path class="st0" d="M43.9,453.4H152c3,0,5.5,2.5,5.5,5.5v77.9c0,3-2.5,5.5-5.5,5.5H43.9c-3,0-5.5-2.5-5.5-5.5v-77.9
			C38.3,455.9,40.8,453.4,43.9,453.4z"/>
		<g>
			<path class="st1" d="M150.8,536.7c0.4,0,0.7,0.3,0.7,0.7s-0.3,0.7-0.7,0.7s-0.7-0.3-0.7-0.7S150.4,536.7,150.8,536.7z"/>
			<path class="st1" d="M148,536.7c0.4,0,0.7,0.3,0.7,0.7s-0.3,0.7-0.7,0.7s-0.7-0.3-0.7-0.7S147.6,536.7,148,536.7z"/>
			<path class="st1" d="M145.2,536.7c0.4,0,0.7,0.3,0.7,0.7s-0.3,0.7-0.7,0.7c-0.4,0-0.7-0.3-0.7-0.7S144.8,536.7,145.2,536.7z"/>
		</g>
		<path class="st1" d="M31.9,551h131.9c1.6,0,2.9,1.3,2.9,2.9l0,0c0,1.6-1.3,2.9-2.9,2.9H31.9c-1.6,0-2.9-1.3-2.9-2.9l0,0
			C29,552.3,30.3,551,31.9,551z"/>
		<path class="st0" d="M166.8,553.9c0,1.6-1.3,2.9-2.9,2.9H31.9c-1.6,0-2.9-1.3-2.9-2.9H166.8z"/>
		<rect x="42" y="456.6" class="st2" width="111.8" height="75.8"/>
	</g>
	<path class="st3" d="M96.9,467.5c0.9,0,1.7,0,2.6,0.1l1.2-3.8l8.1,2.5l-1.2,3.8c2.9,1.5,5.4,3.6,7.4,6.1l3.5-1.9l4,7.4l-3.5,1.9
		c1,3,1.3,6.3,0.9,9.6l3.8,1.2l-2.5,8.1l-3.8-1.2c-1.5,2.9-3.6,5.4-6.1,7.4l1.9,3.5l-7.4,4l-1.9-3.5c-2.2,0.7-4.6,1.1-7,1.1v-6
		c7.3,0,14.1-4.7,16.3-12.1c2.7-9-2.3-18.6-11.4-21.3c-1.7-0.5-3.3-0.7-5-0.7V467.5z M82.4,472.6l-1.9-3.5l7.4-4l1.9,3.5
		c2.2-0.7,4.6-1.1,7-1.1v6c-7.3,0-14.1,4.7-16.3,12.1c-2.7,9,2.3,18.6,11.4,21.3l0,0c1.7,0.5,3.3,0.7,5,0.7v6c-0.9,0-1.7,0-2.6-0.1
		l-1.2,3.8L85,515l1.2-3.8c-2.9-1.5-5.4-3.6-7.4-6.1l-3.5,1.9l-4-7.4l3.5-1.9c-1-3-1.3-6.3-0.9-9.6l-3.8-1.2l2.5-8.1l3.8,1.2
		C77.9,477.1,79.9,474.6,82.4,472.6z"/>
	<g>
		
			<rect x="57.3" y="436.2" transform="matrix(0.5626 -0.8268 0.8268 0.5626 -359.2856 258.7416)" class="st4" width="15.1" height="65.5"/>
		
			<rect x="60.3" y="439.1" transform="matrix(0.5626 -0.8267 0.8267 0.5626 -359.2803 258.7312)" class="st5" width="9.2" height="59.6"/>
		<path class="st4" d="M25.6,430.6c5.6-2.5,12.3-2.2,17.8,1.5c8.3,5.7,10.5,17,4.8,25.3c-5.7,8.3-17,10.5-25.3,4.8
			c-5.4-3.7-8.2-9.8-8-16l8.5,5.8l4.5,3.1l4.9-2.4l4.9-2.4l0.4-5.5l0.4-5.5l-4.5-3.1L25.6,430.6z"/>
		<path class="st4" d="M114.9,491.4c0.3-6.1-2.5-12.3-8-16c-8.3-5.7-19.7-3.5-25.3,4.8c-5.7,8.3-3.5,19.7,4.8,25.3
			c5.4,3.7,12.2,4.1,17.8,1.5l-8.5-5.8l-4.5-3.1l0.4-5.5l0.4-5.5l4.9-2.4l4.9-2.4l4.5,3.1L114.9,491.4z"/>
		<path class="st5" d="M111,485.2c-1.1-2.9-3.1-5.5-5.8-7.4c-7-4.8-16.5-2.9-21.2,4c-4.8,7-2.9,16.5,4,21.2c2.7,1.8,5.8,2.7,9,2.6
			l-9-6.1l1.1-14.3l12.9-6.2L111,485.2z"/>
		<path class="st5" d="M18.6,452.5c1.1,2.9,3.1,5.5,5.8,7.4c7,4.8,16.5,2.9,21.2-4c4.8-7,2.9-16.5-4-21.2c-2.7-1.8-5.8-2.7-9-2.6
			l9,6.1l-1.1,14.3l-12.9,6.2L18.6,452.5z"/>
	</g>
	<path class="st6" d="M132.6,496.9l-2.1-5l10.5-4.5l2.1,5c3.4-0.8,7-1,10.6-0.6v8.3c-10.5-1.7-21.2,4-25.3,14.3
		c-2.4,6.1-2.1,12.5,0.4,18.1h-14.3l-0.2-0.4l5-2.1c-1-4.2-1-8.6-0.2-13l-5-2l4.2-10.6l5,2C125.9,502.4,129.1,499.3,132.6,496.9z"/>
	<path class="st6" d="M42,506.4L42,506.4l0-4.5l5.6-3l1.9,3.5c3-1,6.3-1.3,9.6-0.9l1.2-3.8l8.1,2.5l-1.2,3.8
		c2.9,1.5,5.4,3.6,7.4,6.1l3.5-1.9l4,7.4l-3.5,1.9c1,3,1.3,6.3,0.9,9.6l3.8,1.2l-1.3,4.2H71.6c0.5-0.9,0.9-2,1.2-3
		c2.7-9-2.3-18.6-11.4-21.3c-7.5-2.3-15.4,0.9-19.4,7.3L42,506.4L42,506.4z"/>
	<path class="st7" d="M124.4,490.4c2.4,0,4.8,0.5,7.2,1.5l1.7-2.6l5.5,3.7l-1.7,2.6c1.9,1.8,3.3,3.9,4.2,6.3l3.1-0.6l1.3,6.5
		l-3.1,0.6c0,2.5-0.4,5-1.5,7.4l2.6,1.7L140,523l-2.6-1.7c-1.8,1.9-3.9,3.3-6.3,4.2l0.6,3.1l-6.5,1.3l-0.6-3.1l-0.2,0V522
		c4.3,0,8.6-2.1,11.1-6c4.1-6.2,2.5-14.5-3.7-18.6c-2.3-1.5-4.9-2.3-7.4-2.3V490.4z M117.7,491.7l-0.6-3.1l6.5-1.3l0.6,3.1l0.2,0
		v4.7c-4.3,0-8.6,2.1-11.1,6c-4.1,6.2-2.5,14.5,3.7,18.6l0,0c2.3,1.5,4.9,2.3,7.4,2.3v4.7c-2.4,0-4.9-0.5-7.2-1.5l-1.7,2.6l-5.5-3.7
		l1.7-2.6c-1.9-1.8-3.3-3.9-4.2-6.3l-3.1,0.6l-1.3-6.5l3.1-0.6c0-2.5,0.4-5,1.5-7.4l-2.6-1.7l3.7-5.5l2.6,1.7
		C113.2,494,115.3,492.6,117.7,491.7z"/>
</g>
</svg>
