<?xml version="1.0" encoding="utf-8"?>
<!-- Generator: Adobe Illustrator 22.1.0, SVG Export Plug-In . SVG Version: 6.00 Build 0)  -->
<svg version="1.1" id="Objects" xmlns="http://www.w3.org/2000/svg" xmlns:xlink="http://www.w3.org/1999/xlink" x="0px" y="0px"
	 viewBox="0 0 160.9 134.6" style="enable-background:new 0 0 160.9 134.6;" xml:space="preserve">
<style type="text/css">
	.st0{fill:#FC6E4B;}
	.st1{fill:#FFFDFA;}
	.st2{fill:#FFB8A6;}
	.st3{fill:#71B8B0;}
	.st4{fill:#49807A;}
	.st5{fill:#335E59;}
	.st6{fill:#FFAE00;}
	.st7{fill:#FFEBBF;}
	.st8{fill:#45706B;}
</style>
<g>
	<g>
		<path class="st0" d="M53.8,0h45c6,0,10.9,4.9,10.9,10.9v101.3c0,6-4.9,10.9-10.9,10.9h-45c-6,0-10.9-4.9-10.9-10.9V10.9
			C42.8,4.9,47.8,0,53.8,0z"/>
		<rect x="44.9" y="10.9" class="st1" width="62.8" height="103.2"/>
		<rect x="69.8" y="7" class="st2" width="12.9" height="1.3"/>
		<path class="st2" d="M76.3,3c0.7,0,1.2,0.5,1.2,1.2S77,5.4,76.3,5.4s-1.2-0.5-1.2-1.2C75.1,3.6,75.6,3,76.3,3z"/>
		<path class="st2" d="M76.3,115.8c1.5,0,2.8,1.2,2.8,2.8c0,1.5-1.2,2.8-2.8,2.8c-1.5,0-2.8-1.2-2.8-2.8
			C73.5,117,74.7,115.8,76.3,115.8z"/>
	</g>
	<g>
		<path class="st3" d="M91.8,48h1.3c3.8,0,3.9-4.3,0-4.3h-1.3V44c1,0,1.8,0.8,1.8,1.8s-0.8,1.8-1.8,1.8V48z M60.8,48h31v-0.4
			c-1,0-1.8-0.8-1.8-1.8s0.8-1.8,1.8-1.8v-0.3c-10.3,0-20.7,0-31,0V44c1,0,1.8,0.8,1.8,1.8s-0.8,1.8-1.8,1.8V48z M59.4,48h1.3v-0.4
			c-1,0-1.8-0.8-1.8-1.8s0.8-1.8,1.8-1.8v-0.3h-1.3C55.5,43.8,55.7,48,59.4,48z"/>
		<path class="st3" d="M78.7,29.2c-1,0-1.8,0.8-1.8,1.8s0.8,1.8,1.8,1.8s1.8-0.8,1.8-1.8C80.4,30,79.6,29.2,78.7,29.2z"/>
		<path class="st3" d="M92.5,45.4L80.3,31.8c-0.3-0.3-0.8-0.3-1.1-0.1l0,0c-0.3,0.3-0.3,0.8-0.1,1.1l12.2,13.7
			c0.3,0.3,0.8,0.3,1.1,0.1l0,0C92.7,46.2,92.8,45.7,92.5,45.4z"/>
		<path class="st3" d="M73.9,29.2c1,0,1.8,0.8,1.8,1.8s-0.8,1.8-1.8,1.8S72.1,32,72.1,31C72.1,30,72.9,29.2,73.9,29.2z"/>
		<path class="st3" d="M60.1,45.4l13.3-14.9c0.3-0.3,0.8-0.3,1.1-0.1l0,0c0.3,0.3,0.3,0.8,0.1,1.1L61.3,46.4
			c-0.3,0.3-0.8,0.3-1.1,0.1l0,0C59.8,46.2,59.8,45.7,60.1,45.4z"/>
		<path class="st3" d="M86.6,49.3h6.3l-1.6,9.4c-0.4,2-1.3,3.6-4.5,3.6h-0.2v-2.8c0.4-0.2,0.8-0.7,0.9-1.2c0.1-1.1,0.3-2.2,0.4-3.2
			c0.1-1.1,0.3-2.2,0.4-3.2c0.1-0.7-0.5-1.3-1.2-1.3l0,0c-0.2,0-0.3,0-0.5,0.1L86.6,49.3L86.6,49.3z M81.5,49.3h5.2v1.3
			c-0.6,0.2-1,0.7-1.1,1.2c-0.1,1.1-0.2,2.2-0.3,3.2c-0.1,1.1-0.2,2.2-0.3,3.2c-0.1,0.7,0.4,1.3,1.1,1.3l0,0c0.2,0,0.4-0.1,0.6-0.1
			v2.8h-5.2v-2.6c0.6-0.1,1-0.7,1.1-1.3c0.1-1.1,0.2-2.2,0.2-3.2c0.1-1.1,0.2-2.2,0.2-3.2c0.1-0.7-0.5-1.3-1.3-1.3l0,0
			c-0.1,0-0.2,0-0.2,0L81.5,49.3L81.5,49.3z M76.3,49.3h5.2v1.2c-0.7,0.1-1.2,0.6-1.3,1.3c0,1.1-0.1,2.2-0.1,3.2
			c0,1.1-0.1,2.2-0.1,3.2c0,0.7,0.5,1.3,1.2,1.3l0,0c0.1,0,0.2,0,0.3,0v2.7h-5.2v-2.6c0.7,0,1.3-0.6,1.3-1.3c0-1.1,0-2.2,0.1-3.2
			c0-1.1,0-2.2,0.1-3.2c0-0.7-0.6-1.3-1.4-1.3l0,0l0,0v-1.3H76.3z M71.1,49.3h5.2v1.2c-0.8,0-1.4,0.6-1.4,1.3c0,1.1,0,2.2,0.1,3.2
			c0,1.1,0,2.2,0,3.2c0,0.7,0.6,1.3,1.3,1.3l0,0l0,0v2.7h-5.2v-2.6c0.1,0,0.2,0,0.3,0l0,0c0.7,0,1.3-0.6,1.2-1.3
			c0-1.1-0.1-2.2-0.1-3.2c0-1.1-0.1-2.2-0.1-3.2c0-0.7-0.6-1.2-1.3-1.3V49.3z M65.9,49.3H71v1.2c-0.1,0-0.1,0-0.2,0l0,0
			c-0.8,0-1.4,0.6-1.3,1.3c0.1,1.1,0.2,2.2,0.2,3.2c0.1,1.1,0.2,2.2,0.2,3.2c0,0.6,0.5,1.1,1.1,1.3v2.7h-5.1v-2.8
			c0.2,0.1,0.4,0.1,0.6,0.1l0,0c0.7,0,1.2-0.6,1.1-1.3c-0.1-1.1-0.2-2.2-0.3-3.2c-0.1-1.1-0.2-2.2-0.3-3.2c-0.1-0.6-0.5-1.1-1.1-1.2
			L65.9,49.3L65.9,49.3z M65.8,62.3c-3.1,0-4.1-1.5-4.5-3.6l-1.6-9.4H66v1.3c-0.2-0.1-0.3-0.1-0.5-0.1l0,0c-0.8,0-1.3,0.6-1.2,1.3
			c0.1,1.1,0.3,2.2,0.4,3.2c0.1,1.1,0.3,2.2,0.4,3.2c0.1,0.5,0.4,1,0.9,1.2v2.8h-0.2V62.3z"/>
	</g>
	<g>
		<polygon class="st4" points="11.8,80.8 17.4,80.8 17.4,64.4 11.8,70 		"/>
		<polygon class="st4" points="46.7,80.8 41.1,80.8 41.1,64.4 46.7,70 		"/>
		<polygon class="st5" points="11.8,70 17.4,64.4 41.1,64.4 46.7,70 		"/>
		<rect y="78.3" class="st5" width="58.5" height="56.3"/>
	</g>
	<g>
		<path class="st6" d="M96.8,16.7h61.9c1.2,0,2.2,1,2.2,2.2v37.7c0,1.2-1,2.2-2.2,2.2H96.8c-1.2,0-2.2-1-2.2-2.2V18.9
			C94.6,17.7,95.6,16.7,96.8,16.7z"/>
		<rect x="94.6" y="46.2" class="st7" width="66.3" height="7.8"/>
		<path class="st7" d="M99.9,20.6h12.6c0.7,0,1.2,0.5,1.2,1.2v8.4c0,0.7-0.5,1.2-1.2,1.2H99.9c-0.7,0-1.2-0.5-1.2-1.2v-8.4
			C98.7,21.1,99.3,20.6,99.9,20.6z"/>
	</g>
	<path class="st8" d="M66.7,68h19.2c0.4,0,0.7,0.3,0.7,0.7v5c0,0.4-0.3,0.7-0.7,0.7H66.7c-0.4,0-0.7-0.3-0.7-0.7v-5
		C66,68.3,66.3,68,66.7,68z"/>
	<g>
		<rect x="72.7" y="77.4" class="st3" width="7.1" height="18.3"/>
		<polygon class="st3" points="76.3,103 84.8,91.8 67.7,91.8 		"/>
	</g>
</g>
</svg>
