<?xml version="1.0" encoding="utf-8"?>
<!-- Generator: Adobe Illustrator 22.1.0, SVG Export Plug-In . SVG Version: 6.00 Build 0)  -->
<svg version="1.1" id="Objects" xmlns="http://www.w3.org/2000/svg" xmlns:xlink="http://www.w3.org/1999/xlink" x="0px" y="0px"
	 viewBox="0 0 151.9 127.9" style="enable-background:new 0 0 151.9 127.9;" xml:space="preserve">
<style type="text/css">
	.st0{fill:#335E59;}
	.st1{fill:#71B8B0;}
	.st2{fill:#FFFDFA;}
	.st3{fill:#FFAE00;}
	.st4{fill:#FFEBBF;}
	.st5{fill:#D6FFFA;}
	.st6{fill:#FC6E4B;}
</style>
<g>
	<g>
		<polygon class="st0" points="71.5,108.4 94.5,108.4 105.2,127.9 60.8,127.9 		"/>
		<path class="st0" d="M29,24.4h108.1c3,0,5.5,2.5,5.5,5.5v77.9c0,3-2.5,5.5-5.5,5.5H29c-3,0-5.5-2.5-5.5-5.5V29.9
			C23.4,26.9,25.9,24.4,29,24.4z"/>
		<g>
			<path class="st1" d="M135.9,107.7c0.4,0,0.7,0.3,0.7,0.7s-0.3,0.7-0.7,0.7s-0.7-0.3-0.7-0.7S135.5,107.7,135.9,107.7z"/>
			<path class="st1" d="M133.1,107.7c0.4,0,0.7,0.3,0.7,0.7s-0.3,0.7-0.7,0.7s-0.7-0.3-0.7-0.7S132.7,107.7,133.1,107.7z"/>
			<path class="st1" d="M130.3,107.7c0.4,0,0.7,0.3,0.7,0.7s-0.3,0.7-0.7,0.7s-0.7-0.3-0.7-0.7S129.9,107.7,130.3,107.7z"/>
		</g>
		<path class="st1" d="M17,122h131.9c1.6,0,2.9,1.3,2.9,2.9l0,0c0,1.6-1.3,2.9-2.9,2.9H17c-1.6,0-2.9-1.3-2.9-2.9l0,0
			C14.1,123.3,15.4,122,17,122z"/>
		<path class="st0" d="M151.9,124.9c0,1.6-1.3,2.9-2.9,2.9H17c-1.6,0-2.9-1.3-2.9-2.9H151.9z"/>
		<rect x="27.1" y="27.6" class="st2" width="111.8" height="75.8"/>
	</g>
	<path class="st1" d="M82,38.5c0.9,0,1.7,0,2.6,0.1l1.2-3.8l8.1,2.5l-1.2,3.8c2.9,1.5,5.4,3.6,7.4,6.1l3.5-1.9l4,7.4l-3.5,1.9
		c1,3,1.3,6.3,0.9,9.6l3.8,1.2l-2.5,8.1l-3.8-1.2c-1.5,2.9-3.6,5.4-6.1,7.4l1.9,3.5l-7.4,4L89,83.7c-2.2,0.7-4.6,1.1-7,1.1v-6
		c7.3,0,14.1-4.7,16.3-12.1c2.7-9-2.3-18.6-11.4-21.3c-1.7-0.5-3.3-0.7-5-0.7v-6.2H82z M67.5,43.6l-1.9-3.5l7.4-4l1.9,3.5
		c2.2-0.7,4.6-1.1,7-1.1v6c-7.3,0-14.1,4.7-16.3,12.1c-2.7,9,2.3,18.6,11.4,21.3l0,0c1.7,0.5,3.3,0.7,5,0.7v6c-0.9,0-1.7,0-2.6-0.1
		l-1.2,3.8L70.1,86l1.2-3.8c-2.9-1.5-5.4-3.6-7.4-6.1L60.4,78l-4-7.4l3.5-1.9c-1-3-1.3-6.3-0.9-9.6l-3.8-1.2l2.5-8.1l3.8,1.2
		C63,48.1,65,45.6,67.5,43.6z"/>
	<g>
		
			<rect x="42.5" y="7.2" transform="matrix(0.5626 -0.8268 0.8268 0.5626 -11.165 58.8563)" class="st3" width="15.1" height="65.5"/>
		
			<rect x="45.4" y="10.1" transform="matrix(0.5626 -0.8267 0.8267 0.5626 -11.1294 58.7754)" class="st4" width="9.2" height="59.6"/>
		<path class="st3" d="M10.7,1.6C16.3-0.9,23-0.6,28.5,3.1c8.3,5.7,10.5,17,4.8,25.3S16.3,38.9,8,33.2c-5.4-3.7-8.2-9.8-8-16L8.5,23
			l4.5,3.1l4.9-2.4l4.9-2.4l0.4-5.5l0.4-5.5l-4.5-3.1L10.7,1.6z"/>
		<path class="st3" d="M100,62.4c0.3-6.1-2.5-12.3-8-16c-8.3-5.7-19.7-3.5-25.3,4.8c-5.7,8.3-3.5,19.7,4.8,25.3
			c5.4,3.7,12.2,4.1,17.8,1.5l-8.5-5.8l-4.5-3.1l0.4-5.5l0.4-5.5l4.9-2.4l4.9-2.4l4.5,3.1L100,62.4z"/>
		<path class="st4" d="M96.1,56.2c-1.1-2.9-3.1-5.5-5.8-7.4c-7-4.8-16.5-2.9-21.2,4c-4.8,7-2.9,16.5,4,21.2c2.7,1.8,5.8,2.7,9,2.6
			l-9-6.1l1.1-14.3L87.1,50L96.1,56.2z"/>
		<path class="st4" d="M3.7,23.5c1.1,2.9,3.1,5.5,5.8,7.4c7,4.8,16.5,2.9,21.2-4c4.8-7,2.9-16.5-4-21.2c-2.7-1.8-5.8-2.7-9-2.6
			l9,6.1l-1.1,14.3l-12.9,6.2L3.7,23.5z"/>
	</g>
	<path class="st5" d="M117.7,67.9l-2.1-5l10.5-4.5l2.1,5c3.4-0.8,7-1,10.6-0.6v8.3c-10.5-1.7-21.2,4-25.3,14.3
		c-2.4,6.1-2.1,12.5,0.4,18.1H99.6l-0.2-0.4l5-2.1c-1-4.2-1-8.6-0.2-13l-5-2l4.2-10.6l5,2C111,73.4,114.2,70.3,117.7,67.9z"/>
	<path class="st5" d="M27.1,77.4L27.1,77.4v-4.5l5.6-3l1.9,3.5c3-1,6.3-1.3,9.6-0.9l1.2-3.8l8.1,2.5L52.3,75
		c2.9,1.5,5.4,3.6,7.4,6.1l3.5-1.9l4,7.4l-3.5,1.9c1,3,1.3,6.3,0.9,9.6l3.8,1.2l-1.3,4.2H56.7c0.5-0.9,0.9-2,1.2-3
		c2.7-9-2.3-18.6-11.4-21.3c-7.5-2.3-15.4,0.9-19.4,7.3L27.1,77.4L27.1,77.4z"/>
	<path class="st6" d="M109.5,61.4c2.4,0,4.8,0.5,7.2,1.5l1.7-2.6l5.5,3.7l-1.7,2.6c1.9,1.8,3.3,3.9,4.2,6.3l3.1-0.6l1.3,6.5
		l-3.1,0.6c0,2.5-0.4,5-1.5,7.4l2.6,1.7l-3.7,5.5l-2.6-1.7c-1.8,1.9-3.9,3.3-6.3,4.2l0.6,3.1l-6.5,1.3l-0.6-3.1h-0.2V93
		c4.3,0,8.6-2.1,11.1-6c4.1-6.2,2.5-14.5-3.7-18.6c-2.3-1.5-4.9-2.3-7.4-2.3V61.4z M102.8,62.7l-0.6-3.1l6.5-1.3l0.6,3.1h0.2v4.7
		c-4.3,0-8.6,2.1-11.1,6c-4.1,6.2-2.5,14.5,3.7,18.6l0,0c2.3,1.5,4.9,2.3,7.4,2.3v4.7c-2.4,0-4.9-0.5-7.2-1.5l-1.7,2.6l-5.5-3.7
		l1.7-2.6c-1.9-1.8-3.3-3.9-4.2-6.3l-3.1,0.6l-1.3-6.5l3.1-0.6c0-2.5,0.4-5,1.5-7.4l-2.6-1.7l3.7-5.5l2.6,1.7
		C98.3,65,100.4,63.6,102.8,62.7z"/>
</g>
</svg>
