<?xml version="1.0" encoding="utf-8"?>
<!-- Generator: Adobe Illustrator 22.1.0, SVG Export Plug-In . SVG Version: 6.00 Build 0)  -->
<svg version="1.1" id="Objects" xmlns="http://www.w3.org/2000/svg" xmlns:xlink="http://www.w3.org/1999/xlink" x="0px" y="0px"
	 viewBox="0 0 77.9 82.2" style="enable-background:new 0 0 77.9 82.2;" xml:space="preserve">
<style type="text/css">
	.st0{fill:#F4992C;}
	.st1{fill:#FCC83B;}
	.st2{fill:#EFEEEE;}
	.st3{fill:#BBBBBA;}
	.st4{fill:#ADADAD;}
	.st5{fill:#8D8C8C;}
	.st6{opacity:0.5;}
	.st7{fill:#1A1A1A;}
	.st8{fill:#31333A;}
	.st9{font-family:'OpenSans';}
	.st10{font-size:12.9852px;}
</style>
<g>
	<g>
		<g>
			<g>
				<path class="st0" d="M36.7,0c0.2,0,0.4,0,0.7,0l-1,31l-5.1-0.2v-4c-0.7-3.8-6.6-9.9-6.7-14.6C24.5,5.5,29.9,0.1,36.7,0z"/>
				<path class="st1" d="M38,0.1c-0.2,0-0.4,0-0.7,0l-1,31l5.1,0.2l0.3-4c0.9-3.7,7.3-9.4,7.6-14.2C49.8,6.4,44.7,0.6,38,0.1z"/>
			</g>
			<path class="st2" d="M31,31.9l10.5,0.4c0.3,0,0.6-0.2,0.6-0.5l0,0c0-0.3-0.2-0.6-0.5-0.6l-10.5-0.4c-0.3,0-0.6,0.2-0.6,0.5l0,0
				C30.5,31.7,30.7,31.9,31,31.9z"/>
			<path class="st3" d="M41.4,32.3c0,0.2,0,0.4,0,0.6l-0.1,4.4c-0.1,1.7-1.5,3-3.1,2.9L33.8,40c-1.7-0.1-3-1.5-2.9-3.1l0.1-4.4
				c0-0.2,0-0.4,0.1-0.6L41.4,32.3z"/>
			<path class="st4" d="M38.1,40.2c-0.4,0.4-1.2,0.6-2.1,0.6s-1.7-0.3-2.1-0.7L38.1,40.2z"/>
			<path class="st5" d="M30.9,34.7l10.1,3c0.4,0.1,0.7-0.1,0.8-0.5l0,0c0.1-0.4-0.1-0.7-0.5-0.8l-10.1-3c-0.4-0.1-0.7,0.1-0.8,0.5
				l0,0C30.3,34.2,30.5,34.6,30.9,34.7z"/>
			<path class="st5" d="M30.8,37.2l9.5,2.8c0.4,0.1,0.7-0.1,0.8-0.5l0,0c0.1-0.4-0.1-0.7-0.5-0.8l-9.5-2.8c-0.4-0.1-0.7,0.1-0.8,0.5
				l0,0C30.3,36.7,30.5,37.1,30.8,37.2z"/>
			<path class="st5" d="M35.6,32.1l5.9,1.8c0.4,0.1,0.6,0.5,0.5,0.8c-0.1,0.4-0.5,0.6-0.8,0.5l-10.1-3c-0.1,0-0.2-0.1-0.3-0.2
				L35.6,32.1z"/>
		</g>
		<g class="st6">
			<g>
				<polygon class="st7" points="34,31 29.3,12 31,12.9 31.4,11.9 33,12.4 33,11.4 34.6,12.6 35.4,11.6 37,12.7 38.1,11.7 40,13 
					41,11.7 42.1,12.9 44.1,11.6 38.6,31.1 38.2,31 43.4,12.6 42,13.5 41,12.4 40.1,13.6 38.2,12.2 37,13.2 35.5,12.2 34.7,13.2 
					33.4,12.3 33.4,13 31.7,12.5 31.3,13.6 30,12.9 34.4,30.9 				"/>
			</g>
		</g>
	</g>
	<text transform="matrix(1 0 0 1 0 63.1162)" class="st8 st9 st10">YOU HAVE A </text>
	<text transform="matrix(1 0 0 1 0 78.7162)" class="st8 st9 st10">GREAT IDEA!</text>
</g>
</svg>
