<?xml version="1.0" encoding="utf-8"?>
<!-- Generator: Adobe Illustrator 22.1.0, SVG Export Plug-In . SVG Version: 6.00 Build 0)  -->
<svg version="1.1" id="Objects" xmlns="http://www.w3.org/2000/svg" xmlns:xlink="http://www.w3.org/1999/xlink" x="0px" y="0px"
	 viewBox="0 0 66 54.5" style="enable-background:new 0 0 66 54.5;" xml:space="preserve">
<style type="text/css">
	.st0{fill:#31333A;}
	.st1{font-family:'OpenSans';}
	.st2{font-size:10.8714px;}
	.st3{fill:#34B2E4;}
</style>
<g>
	<text transform="matrix(1 0 0 1 0 51.5046)" class="st0 st1 st2">CONTACT US</text>
	<path class="st3" d="M34.9,3.1C30.7-1,23.8-1,19.6,3.1s-4.2,11.1,0,15.3c3.9,3.9,10,4.2,14.3,0.9l4.9,4.9c-0.3,0.9-0.2,1.8,0.4,2.4
		l10.3,10.3c0.9,0.9,2.6,0.8,3.7-0.3c1.1-1.1,1.3-2.7,0.3-3.7L43.2,22.6c-0.6-0.6-1.5-0.7-2.4-0.4l-4.9-4.9
		C39.1,13.1,38.8,7,34.9,3.1z M22.1,16c-2.9-2.9-2.9-7.5,0-10.3c2.9-2.9,7.5-2.9,10.3,0c2.9,2.9,2.9,7.5,0,10.3S24.9,18.8,22.1,16z"
		/>
</g>
</svg>
