<?xml version="1.0" encoding="utf-8"?>
<!-- Generator: Adobe Illustrator 22.1.0, SVG Export Plug-In . SVG Version: 6.00 Build 0)  -->
<svg version="1.1" id="Objects" xmlns="http://www.w3.org/2000/svg" xmlns:xlink="http://www.w3.org/1999/xlink" x="0px" y="0px"
	 viewBox="0 0 169.2 135.6" style="enable-background:new 0 0 169.2 135.6;" xml:space="preserve">
<style type="text/css">
	.st0{fill:#F4992C;}
	.st1{fill:#FCC83B;}
	.st2{fill:#EFEEEE;}
	.st3{fill:#BBBBBA;}
	.st4{fill:#ADADAD;}
	.st5{fill:#8D8C8C;}
	.st6{opacity:0.5;}
	.st7{fill:#1A1A1A;}
	.st8{fill:#E9AE97;}
	.st9{fill:#3F3A39;}
	.st10{fill:#F8C3AA;}
	.st11{fill:#D83B45;}
	.st12{fill:#DFDFDF;}
	.st13{fill:#7A7D82;}
	.st14{fill:#157AAD;}
	.st15{fill:#045382;}
	.st16{fill:#2D2725;}
	.st17{fill:#31333A;}
	.st18{fill:#404349;}
</style>
<g>
	<g>
		<g>
			<path class="st0" d="M84.3,41.5c0.2,0,0.5,0,0.7,0v31h-5.1l-0.2-4c-0.8-3.8-7-9.7-7.2-14.4C72.3,47.5,77.5,41.8,84.3,41.5z"/>
			<path class="st1" d="M85.6,41.5c-0.2,0-0.4,0-0.7,0v31H90l0.1-4c0.8-3.8,7-9.7,7.2-14.4C97.6,47.4,92.3,41.8,85.6,41.5z"/>
		</g>
		<path class="st2" d="M79.7,73.6h10.5c0.3,0,0.6-0.3,0.6-0.6l0,0c0-0.3-0.3-0.6-0.6-0.6H79.7c-0.3,0-0.6,0.3-0.6,0.6l0,0
			C79.1,73.4,79.4,73.6,79.7,73.6z"/>
		<path class="st3" d="M90.1,73.6c0,0.2,0.1,0.4,0.1,0.6v4.4c0,1.7-1.4,3-3,3h-4.4c-1.7,0-3-1.4-3-3v-4.4c0-0.2,0-0.4,0.1-0.6H90.1z
			"/>
		<path class="st4" d="M87,81.6c-0.4,0.4-1.2,0.6-2.1,0.6c-0.9,0-1.7-0.3-2.1-0.6H87z"/>
		<path class="st5" d="M79.7,76.4l10.2,2.7c0.4,0.1,0.7-0.1,0.8-0.5l0,0c0.1-0.4-0.1-0.7-0.5-0.8L80,75.1c-0.4-0.1-0.7,0.1-0.8,0.5
			l0,0C79.1,75.9,79.3,76.3,79.7,76.4z"/>
		<path class="st5" d="M79.7,78.9l9.6,2.5c0.4,0.1,0.7-0.1,0.8-0.5l0,0c0.1-0.4-0.1-0.7-0.5-0.8L80,77.6c-0.4-0.1-0.7,0.1-0.8,0.5
			l0,0C79.1,78.4,79.3,78.8,79.7,78.9z"/>
		<path class="st5" d="M84.2,73.6l6,1.6c0.4,0.1,0.6,0.5,0.5,0.8c-0.1,0.4-0.5,0.6-0.8,0.5l-10.2-2.7c-0.1,0-0.2-0.1-0.3-0.2
			L84.2,73.6z"/>
	</g>
	<g class="st6">
		<g>
			<polygon class="st7" points="82.6,72.6 77.3,53.7 79.1,54.6 79.4,53.6 81,54.1 81,53 82.6,54.1 83.3,53.1 85,54.2 86.1,53.1 
				88,54.3 89,53 90.1,54.2 92.1,52.9 87.3,72.5 86.8,72.4 91.4,53.9 90,54.8 89,53.7 88.1,55 86.2,53.7 85,54.7 83.4,53.7 
				82.7,54.8 81.4,53.9 81.4,54.7 79.7,54.2 79.3,55.3 78,54.6 83.1,72.4 			"/>
		</g>
	</g>
</g>
<g>
	<g>
		<polygon class="st8" points="21.9,35.2 21.9,37.3 34.2,45.2 39.9,35.8 25.9,22.4 		"/>
		<path class="st9" d="M43.8,1.1c-3-0.6-5.6-0.8-7.8-0.9c-1.7-0.3-3.5-0.2-5.4,0.2c-1.4,0.3-2.7,0.7-3.8,1.2c-0.1,0-0.1,0-0.1,0.1
			l0,0l0,0l0,0c-7.1,3.3-8.4,10.5-9,15.5c-0.7,5.7,3.7,18.5,4.4,18.1c0.6-0.5,6.4-5.7,6.4-5.7l4.7-6.7l1.7,2c0,0,0.4-6.5,0.5-7.3
			s3.8-4.5,4.8-5c1.1-0.5,2.9,0.8,2.9,0.8c3.8,2.1,5.7,2.1,6.6,1.8l0,0c2.7-0.3,4.1-8.7,4.1-8.7C52.5,6.7,43.8,1.1,43.8,1.1z"/>
		<path class="st10" d="M27.4,23.1L27.4,23.1c0-0.6,0.1-1.2,0.2-1.6c0.7-3.8,2.4-3.3,2.4-3.3l0,0c0.6,0,1.3,0.4,2.2,1.4
			c0,0,0.6,2.9,0.8,3.2c0.2,0.3,0.4-3.1,0.4-3.1s1.6-1.8,1.8-2.2c0.2-0.4,3.1-5.1,5.3-5.1s8.2,2.8,8.2,2.8s0.2,4.8,0,5.9
			s1.3,8.6,1.2,9.2c-0.2,0.6-1.6,1-1.6,1s-0.1,0.2-0.2,0.4c-0.4,1-1,2.8-1,2.9c0,0.2-0.6,0.2-0.6,0.2c0.1,0.5,0.3,1,0,1.2
			c-0.6,0.3-0.5,2.3-0.6,2.9c-0.2,0.6-2.4,1.3-4,1.2l0,0c-0.5-0.1-1.6-0.6-2.9-1.3c-2.3-1.2-5.4-3-6.8-4.6l-0.1-0.1
			c-2.3-2.6-2.4-7.1-2.4-7.1C28,25.8,27.4,24.4,27.4,23.1L27.4,23.1z"/>
		<polygon class="st11" points="36.2,44.7 38.9,49.7 38,51 		"/>
		<polygon class="st12" points="20.8,35.6 37.2,44.5 38,51 20,36.8 		"/>
		<g>
			<path class="st13" d="M12.8,57c0,4.3,3.5,7.8,7.8,7.8s7.8-3.5,7.8-7.8s-3.5-7.8-7.8-7.8S12.8,52.7,12.8,57z"/>
			<g>
				<path class="st14" d="M40.1,88l8.6-7.6c1-0.9,1.1-2.4,0.2-3.5l-22-25.1c-3-3.4-8.2-3.7-11.5-0.8l0,0c-3.4,3-3.7,8.2-0.8,11.5
					l22,25.1C37.5,88.8,39.1,88.9,40.1,88z"/>
				<path class="st14" d="M38,87l4.1-11.2c0.4-1.1,1.6-1.7,2.8-1.3l34.3,15.4l-3.9,10.9L39.4,89.7C38.1,89.4,37.6,88.1,38,87z"/>
				<path class="st14" d="M36.6,87.8c2.9,3.3,7.9,3.5,11.3,0.5c3.4-3,3.8-8,1-11.3c-2.9-3.3-7.9-3.5-11.3-0.5
					C34.2,79.5,33.8,84.5,36.6,87.8z"/>
			</g>
			<path class="st8" d="M75.4,100.3c0,0,13.1,2.8,15.3,1.9s7.4-2.8,7.5-3.5s-3.5-4.6-8.5-5.1c-10.6-1-1.1-1.9-1.1-1.9
				s1.9-1.2-0.1-1.3c-2-0.2-9.5,0-9.5,0L75.4,100.3z"/>
		</g>
		<path class="st15" d="M20,36.8c0,0-6,2.5-10.9,9.9C2.5,56.8,0.1,75.1,0,86.1c-0.1,8.6,0,27,0,27.1h38c0,0,7-56.7,0-62.2
			C31,45.4,20,36.8,20,36.8z"/>
		<path class="st13" d="M12.8,57c0,4.3,3.5,7.8,7.8,7.8s7.8-3.5,7.8-7.8s-3.5-7.8-7.8-7.8S12.8,52.7,12.8,57z"/>
		<path class="st10" d="M30.4,125.1c1.1,5.1-0.2,9.7-2.9,10.4c-2.7,0.6-5.9-3-7-8.1s0.2-9.7,2.9-10.4
			C26.1,116.4,29.2,120,30.4,125.1z"/>
		<g>
			<path class="st14" d="M7.9,90.5l11.2,2.3c1.3,0.3,2.6-0.6,2.9-1.9l6.8-32.7c0.9-4.4-1.9-8.8-6.3-9.7l0,0
				c-4.4-0.9-8.8,1.9-9.7,6.3L6,87.5C5.7,88.9,6.5,90.2,7.9,90.5z"/>
			<path class="st14" d="M7.4,88.2l11.4-3.4c1.1-0.3,2.3,0.3,2.7,1.4l8.3,36.6l-11.1,3.5L5.9,90.9C5.6,89.7,6.2,88.5,7.4,88.2z"/>
			<path class="st14" d="M6,87.6c-0.9,4.2,2,8.4,6.4,9.3s8.7-1.8,9.6-6c0.9-4.2-2-8.4-6.4-9.3C11.1,80.6,6.8,83.3,6,87.6z"/>
		</g>
	</g>
	<g>
		<polygon class="st8" points="147.2,35.2 147.2,37.3 134.9,45.2 129.3,35.8 143.2,22.4 		"/>
		<path class="st16" d="M126.1,13.3c0,0,1.9-1.3,2.9-0.8c1.1,0.5,4.7,4.2,4.8,5s0.5,7.3,0.5,7.3l1.7-2l4.7,6.7c0,0,5.8,5.2,6.4,5.7
			c0.6,0.5,5-12.3,4.4-18.1c-0.7-5.8-2.4-14.6-13-16.8C127.5-2,121,8.2,121,8.2s-2.2,5.7-2.4,5.9C118.7,14.2,119.1,17,126.1,13.3z"
			/>
		<path class="st10" d="M141.7,23.1L141.7,23.1c0-0.6-0.1-1.2-0.2-1.6c-0.7-3.8-2.4-3.3-2.4-3.3l0,0c-0.6,0-1.3,0.4-2.2,1.4
			c0,0-0.6,2.9-0.8,3.2c-0.2,0.3-1.9-0.3-1.9-0.3s-0.2-4.6-0.4-5s-3.1-5.1-5.3-5.1s-8.2,2.8-8.2,2.8s-0.2,4.8,0,5.9
			s-1.3,8.6-1.2,9.2c0.2,0.6,1.6,1,1.6,1s0.1,0.2,0.2,0.4c0.4,1,1,2.8,1,2.9c0,0.2,0.6,0.2,0.6,0.2c-0.1,0.5-0.3,1,0,1.2
			c0.6,0.3,0.5,2.3,0.6,2.9c0.2,0.6,2.4,1.3,4,1.2l0,0c0.5-0.1,1.6-0.6,2.9-1.3c2.3-1.2,5.4-3,6.8-4.6l0.1-0.1
			c2.3-2.6,2.4-7.1,2.4-7.1C141.1,25.8,141.7,24.4,141.7,23.1L141.7,23.1z"/>
		<polygon class="st11" points="132.9,44.7 130.3,49.7 131.1,51 		"/>
		<polygon class="st12" points="148.3,35.6 131.9,44.5 131.1,51 149.1,36.8 		"/>
		<path class="st17" d="M149.1,36.8c0,0,6,2.5,10.9,9.9c6.6,10.1,9,28.4,9.1,39.4c0.1,8.6,0,27,0,27.1h-38c0,0-7-56.7,0-62.2
			C138.1,45.4,149.1,36.8,149.1,36.8z"/>
		<path class="st13" d="M156.3,57c0,4.3-3.5,7.8-7.8,7.8s-7.8-3.5-7.8-7.8s3.5-7.8,7.8-7.8C152.9,49.2,156.3,52.7,156.3,57z"/>
		<g>
			<path class="st18" d="M129.1,88l-8.6-7.6c-1-0.9-1.1-2.4-0.2-3.5l22-25.1c3-3.4,8.2-3.7,11.5-0.8l0,0c3.4,3,3.7,8.2,0.8,11.5
				l-22,25.1C131.6,88.8,130.1,88.9,129.1,88z"/>
			<path class="st18" d="M131.2,87l-4.1-11.2c-0.4-1.1-1.6-1.7-2.8-1.3L90,89.9l3.9,10.9l35.9-11.1C131,89.4,131.6,88.1,131.2,87z"
				/>
			<path class="st18" d="M132.5,87.8c-2.9,3.3-7.9,3.5-11.3,0.5c-3.4-3-3.8-8-1-11.3c2.9-3.3,7.9-3.5,11.3-0.5
				C134.9,79.5,135.4,84.5,132.5,87.8z"/>
		</g>
		<path class="st10" d="M93.7,100.3c0,0-13.1,2.8-15.3,1.9s-7.4-2.8-7.5-3.5s3.5-4.6,8.5-5.1c10.6-1,1.1-1.9,1.1-1.9
			s-1.9-1.2,0.1-1.3c2-0.2,9.5,0,9.5,0L93.7,100.3z"/>
	</g>
</g>
</svg>
