<?xml version="1.0" encoding="utf-8"?>
<!-- Generator: Adobe Illustrator 22.1.0, SVG Export Plug-In . SVG Version: 6.00 Build 0)  -->
<svg version="1.1" id="Objects" xmlns="http://www.w3.org/2000/svg" xmlns:xlink="http://www.w3.org/1999/xlink" x="0px" y="0px"
	 viewBox="0 0 58.9 62.4" style="enable-background:new 0 0 58.9 62.4;" xml:space="preserve">
<style type="text/css">
	.st0{fill:#31333A;}
	.st1{font-family:'OpenSans';}
	.st2{font-size:10.8714px;}
	.st3{fill:#F28F32;}
</style>
<g>
	<text transform="matrix(1 0 0 1 5.6508 46.4393)" class="st0 st1 st2">WE WILL </text>
	<text transform="matrix(1 0 0 1 5.7508 59.4393)" class="st0 st1 st2">TEAM UP</text>
	<g>
		<g>
			<path class="st3" d="M42.4,25.8L42.4,25.8c0-0.1,0-0.2-0.1-0.4c-0.3-1.1-0.9-3.1-1.2-4c0-0.2-0.1-0.3-0.1-0.4
				c0,0-0.5-0.7-0.8-0.9L40,20c-0.7-0.3-2.9-1.2-2.9-1.2c-1.1-0.5-2.2-0.9-3.4-1.3c-0.2,0.9-2.2,6.6-2.5,7.4L31,19.6
				c0.1-0.1,0.1-0.3,0.2-0.4l0.8-1.6c-0.6,0.5-1.4,0.8-2.4,0.8c-0.9,0-1.8-0.3-2.4-0.8l0.8,1.6c0.1,0.1,0.1,0.3,0.2,0.4L28,24.9
				c-0.3-0.8-2.3-6.5-2.5-7.4c-1.2,0.4-2.3,0.8-3.4,1.3c0,0-2.2,0.9-2.9,1.2L19,20.1c0,0-0.7,0.5-0.8,0.9c0,0-0.1,0.3-0.1,0.4
				c-0.3,0.9-0.9,2.9-1.2,4c0,0.1-0.1,0.2-0.1,0.4c0,0.1,0,0.2,0,0.3c0,1.2,0.9,2.1,2.1,2.1h21.6c1.2,0,2.1-0.9,2.1-2.1
				C42.4,26,42.4,25.9,42.4,25.8L42.4,25.8z"/>
			<g>
				<path class="st3" d="M35,7.7c0-0.4,0.1-1.7,0.1-2c0-3-2.5-5.5-5.5-5.5h-0.2c-3,0-5.5,2.5-5.5,5.5c0,0.3,0.1,1.7,0.1,2
					c-0.1,0-1.4-0.3-1.2,1.2c0.3,3.1,1.5,2.5,1.5,2.5c0.6,1.9,1.5,3.1,2.4,3.8c1.4,1.2,2.7,1.3,2.8,1.3h0.2c0,0,1.4-0.1,2.7-1.3
					c0.9-0.8,1.8-2,2.4-3.9c0,0,1.2,0.6,1.5-2.5C36.4,7.4,35.1,7.7,35,7.7L35,7.7z"/>
				<path class="st3" d="M16.4,20.4L16.4,20.4L16.4,20.4c0.2-0.4,0.5-0.8,0.9-1.2c0.1-0.1,0.4-0.4,0.6-0.5l0,0l0,0
					c0.1-0.1,0.3-0.2,0.4-0.2c0.5-0.2,1.5-0.7,2.3-1c0,0,0,0-0.1,0c0,0,0,0-0.1,0c-0.6-0.3-2.5-1.1-2.5-1.1c-1-0.4-1.9-0.8-3-1.1
					c-0.2,0.8-1.9,5.7-2.2,6.4l-0.2-4.6c0.1-0.1,0.1-0.2,0.2-0.4l0.7-1.4c-0.5,0.4-1.3,0.7-2.1,0.7c-0.8,0-1.6-0.3-2.1-0.7l0.7,1.4
					c0.1,0.1,0.1,0.2,0.2,0.4l-0.2,4.6c-0.3-0.7-2-5.7-2.2-6.4c-1,0.4-2,0.7-3,1.1c0,0-1.9,0.8-2.5,1.1c0,0,0,0-0.1,0S2,17.5,2,17.6
					c-0.3,0.2-0.6,0.5-0.7,0.8l0,0c-0.1,0.1-0.1,0.3-0.1,0.4c-0.3,0.8-0.8,2.5-1.1,3.5c0,0.1-0.1,0.2-0.1,0.3c0,0.1,0,0.2,0,0.3
					c0,1,0.8,1.8,1.8,1.8h13.1c0.3-1.1,0.8-2.7,1.1-3.6C16.3,20.8,16.4,20.5,16.4,20.4L16.4,20.4z"/>
			</g>
			<path class="st3" d="M6.8,9.9c0.5,1.6,1.3,2.7,2.1,3.3c1.2,1,2.4,1.1,2.4,1.1h0.2c0,0,1.2-0.1,2.4-1.1c0.8-0.7,1.6-1.7,2.1-3.4
				c0,0,1.1,0.5,1.3-2.2c0.1-1.3-1-1-1.1-1c0-0.3,0.1-1.5,0.1-1.8c0-2.6-2.1-4.8-4.8-4.8h-0.2C8.7,0,6.5,2.1,6.5,4.8
				c0,0.3,0.1,1.5,0.1,1.8c-0.1,0-1.2-0.3-1.1,1C5.7,10.4,6.8,9.9,6.8,9.9L6.8,9.9z"/>
			<path class="st3" d="M58.8,20.9c0-0.2,0-0.3-0.1-0.5l-0.1-0.6c-0.2-1-0.8-1.7-1.6-2.2c-0.2-0.1-0.3-0.2-0.5-0.3
				c-0.2-0.1-3.4-1.2-3.5-1.2c0,0.1,0,0.2,0,0.4c0.4,0.3,1.8,1.4,1.2,3.6c0,0-0.9-1.1-1.9-1.3c-0.9,1.6-2.5,3.6-3.3,4.2
				c-0.8-0.5-2.4-2.6-3.3-4.2c-1,0.1-1.9,1.3-1.9,1.3c-0.6-2.1,0.7-3.2,1.2-3.6c0-0.1,0-0.3,0-0.4c-0.1,0-3.3,1.1-3.5,1.2
				s-0.3,0.2-0.5,0.3c-0.3,0.2-0.6,0.5-0.8,0.7c0.2,0.1,0.4,0.2,0.5,0.2s0.2,0.1,0.4,0.2c0.3,0.2,0.7,0.5,1,1
				c0.4,0.5,0.5,0.7,0.5,0.8c0.1,0.2,0.2,0.4,0.2,0.6c0.3,0.9,0.8,2.5,1.1,3.6h12.5c0.7,0,1.4-0.2,1.9-0.8c0.4-0.4,0.5-0.9,0.6-1.5
				c0-0.1,0-0.5,0-0.5L58.8,20.9L58.8,20.9z"/>
			<path class="st3" d="M43.2,10.8c0.1,0.3,0.1,0.5,0.1,0.8c0,0.1,0,0.2,0,0.2c-0.1,0.2-0.6,1-0.6,1.2c0.9,0.9,2,1.2,3.2,1.4
				c0.3,0.1,0.7,0.1,1,0.2l0.4,0.1l-0.6,1.7c0,0,0,2.5,2.4,4l0,0c2.4-1.5,2.4-4,2.4-4l-0.6-1.7l0.4-0.1c0.4,0,0.7-0.1,1-0.2
				c1.1-0.2,2.3-0.5,3.2-1.4c-0.1-0.1-0.6-0.9-0.6-1.2c0-0.1,0-0.2,0-0.2c0-0.2,0-0.5,0.1-0.8s0.2-0.5,0.2-0.8
				c0.4-0.9,0.6-1.8,0.6-2.8c0-3.7-3-6.8-6.6-6.8l0,0c-3.7,0.1-6.6,3.1-6.6,6.8c0,1,0.2,2,0.6,2.8C43,10.3,43.1,10.5,43.2,10.8
				L43.2,10.8z"/>
		</g>
	</g>
</g>
</svg>
