<?xml version="1.0" encoding="utf-8"?>
<!-- Generator: Adobe Illustrator 22.1.0, SVG Export Plug-In . SVG Version: 6.00 Build 0)  -->
<svg version="1.1" id="Objects" xmlns="http://www.w3.org/2000/svg" xmlns:xlink="http://www.w3.org/1999/xlink" x="0px" y="0px"
	 viewBox="0 0 64.6 126.1" style="enable-background:new 0 0 64.6 126.1;" xml:space="preserve">
<style type="text/css">
	.st0{fill:#31333A;}
	.st1{font-family:'OpenSans';}
	.st2{font-size:10.8714px;}
	.st3{fill:#F4992C;}
	.st4{fill:#FCC83B;}
	.st5{fill:#8D8C8C;}
	.st6{fill:#BBBBBA;}
	.st7{fill:#ADADAD;}
</style>
<g>
	<text transform="matrix(1 0 0 1 14.6135 110.2037)" class="st0 st1 st2">WORK</text>
	<text transform="matrix(1 0 0 1 2.9135 123.2037)" class="st0 st1 st2">TOGHETER</text>
	<g>
		<g>
			<g>
				<path class="st3" d="M31.1,1.8C30.1,1.3,29,1,27.8,1c-3.2,0-5.9,2-7,4.9c0.1,0.5,0.3,1.1,0.5,1.6c0.7,1.7,2.1,3.7,4,4
					c0.1-0.3,0.2-0.5,0.3-0.8c0.6-1,1.6-1.5,2.7-1.3c0.5,0.1,0.3,0.8-0.2,0.8c-0.9-0.1-1.9,0.6-2.1,1.5c-0.2,0.9,0,1.7,0.5,2.5
					c0.2,0.5-0.4,0.9-0.7,0.4c-0.4-0.7-0.7-1.5-0.7-2.3H25C22.9,12,21.3,9.8,20.5,8c-0.3-0.7-0.5-1.4-0.7-2.1
					c-0.7-0.3-1.6-0.5-2.5-0.5c-3.2,0-5.8,2.6-5.8,5.8v0.1C7.8,11.6,5,14.6,5,18.4c0,0.4,0,0.7,0.1,1.1c1.8,1.5,3.8,2.6,6.1,2.9
					c0.8,0.1,1.6,0.1,2.5,0c-1.5-0.8-2.5-2.5-2.4-4.3c-0.7-0.5-1.2-1.4-1.4-2.3c-0.1-0.5,0.6-0.7,0.8-0.2c0.2,0.6,0.4,1.3,0.9,1.8
					c0.2,0,0.4,0.1,0.5,0.3c0.6,0.3,1.3,0.2,1.8-0.4c0.3-0.4,0.9,0.2,0.6,0.6c-0.6,0.7-1.5,0.9-2.4,0.6c0.1,1.7,1.4,3.3,3.1,3.6
					c0,0,0,0,0.1,0c1.6-0.5,3.1-1.4,4.2-2.8c-0.1-0.6-0.1-1.1-0.2-1.7c0-0.5,0.8-0.5,0.8,0c0.1,1.5,0.6,4.7,2.9,3.9
					c0.5-0.2,0.7,0.6,0.2,0.8c-1,0.3-2.2-0.1-2.9-0.9c-0.3-0.4-0.5-0.7-0.6-1.1c-2,2.2-5.1,3.3-8.1,3C9.2,23,6.9,22,5,20.5
					c-2.2,1.2-3.7,3.5-3.7,6.1c0,1.4,0.4,2.7,1.1,3.8l0,0c1.1,1.2,2.6,2,4.2,2.3c2.4,0.5,5.1,0,6.3-2.2c-0.6-0.6-1-1.4-1.5-2.1
					c-0.3-0.4,0.4-0.8,0.7-0.4c0.4,0.6,0.8,1.3,1.2,1.9c0.2,0,0.5,0.2,0.5,0.5c0.2,0.2,0.4,0.3,0.6,0.5c0.9,0.6,2.2,0.8,3.1,0
					c0.4-0.3,0.9,0.2,0.6,0.6c-0.9,0.9-2.3,1-3.5,0.5c-0.4-0.2-0.8-0.4-1.1-0.7c-0.7,1.2-1.9,2-3.3,2.4c0.6,2.6,3.1,4.3,5.8,3.9
					c0.1-0.5,0.3-1,0.5-1.4c0.2-0.5,0.9-0.3,0.8,0.2c-0.3,0.9-0.8,2-0.5,3c0.2,0.8,1,1.6,1.9,1.3c0.5-0.2,0.7,0.6,0.2,0.8
					c-1,0.3-2.1-0.2-2.6-1.2c-0.3-0.6-0.4-1.2-0.3-1.9c-3,0.3-5.7-1.6-6.4-4.5C8.7,34,7.7,34,6.8,33.8c-1.8-0.4-3.6-1.3-4.9-2.6
					C0.7,32.4,0,34.1,0,35.9c0,2,0.9,3.8,2.3,5.1c1.7-0.6,3.6-0.9,5.1,0.4c0.1,0.1,0.1,0.1,0.1,0.2c0.4-0.6,1-1,1.6-1.3
					c0.5-0.2,0.9,0.5,0.4,0.7c-1.1,0.5-1.9,1.5-2.1,2.8c-0.1,0.5-0.8,0.3-0.8-0.2c0.1-0.5,0.3-1,0.5-1.4c-0.1,0-0.3,0-0.4-0.1
					c-1.5-1.2-3.4-0.7-5,0c-0.2,0.6-0.3,1.3-0.3,2c0,2.7,1.8,5,4.3,5.7c1.7-2.9,5.2-5.1,8.3-3.2l0,0c0.6-0.5,1.4-0.8,2.3-0.6
					c0.5,0.1,0.3,0.8-0.2,0.8c-1.6-0.2-2.7,1.2-2.3,2.7c0.1,0.5-0.6,0.7-0.8,0.2c-0.3-0.9-0.1-1.8,0.4-2.4c-2.5-1.5-5.4,0.4-7,2.8
					h0.1c-0.2,0.6-0.2,1.2-0.2,1.9c0,3.9,3.1,7.1,6.9,7.3c0.5-1,1.2-2,2.2-2.6c-0.2-1.1-0.2-2.2,0-3.2c-0.3-0.4-0.6-0.8-0.7-1.3
					c-0.2-0.5,0.6-0.7,0.8-0.2c0.2,0.8,0.8,1.3,1.6,1.6c0.1-0.1,0.2-0.1,0.3-0.2c0.4-0.3,0.8,0.4,0.4,0.7c-0.4,0.2-0.6,0.4-1.1,0.3
					c-0.2-0.1-0.4-0.2-0.6-0.3c-0.1,0.8-0.1,1.5,0,2.3c0.4-0.2,0.7-0.3,1.1-0.3c0.1,0,0.2,0,0.2,0c0.3-0.4,0.6-0.7,0.9-1
					c0.4-0.3,1,0.2,0.6,0.6c-0.9,0.7-2,2.1-0.9,3.1c0.4,0.3-0.2,0.9-0.6,0.6c-0.8-0.7-0.9-1.6-0.5-2.4c-1.4,0.4-2.6,1.4-3.1,2.8
					c1.8,2.8,4.9,4.6,8.4,4.6s6.7-1.8,8.4-4.6v-58H31.1z M18.8,10.2c-1.4-0.2-2.8,0.7-3.1,2.1c-0.1,0.5-0.9,0.3-0.8-0.2
					c0.5-1.8,2.3-2.9,4.1-2.7C19.5,9.5,19.3,10.2,18.8,10.2z M7.3,25.3c-0.7,1-0.9,2.2-0.4,3.3c0.2,0.5-0.6,0.7-0.8,0.2
					c-0.5-1.3-0.3-2.8,0.5-4C6.9,24.4,7.6,24.8,7.3,25.3z M24.6,28.7c0.2-0.5,0.9-0.1,0.7,0.4c-0.8,1.5-0.6,3.3,0.3,4.7
					c0.3,0.4-0.4,0.8-0.7,0.4C23.8,32.5,23.7,30.4,24.6,28.7z M27.9,52.6c-2.5,1-5.3-0.5-6-3.1c-0.1-0.5,0.6-0.7,0.8-0.2
					c0.6,2.2,2.9,3.3,5,2.5C28.2,51.7,28.4,52.4,27.9,52.6z"/>
				<path class="st4" d="M34,58.8c1.8,2.8,4.9,4.6,8.4,4.6s6.6-1.8,8.4-4.6c-0.6-1.3-1.7-2.4-3.1-2.8c0.3,0.8,0.3,1.7-0.5,2.4
					c-0.4,0.3-1-0.2-0.6-0.6c1.2-1,0-2.4-0.9-3.1c-0.4-0.3,0.2-0.9,0.6-0.6c0.3,0.3,0.7,0.6,0.9,1c0.1,0,0.1,0,0.2,0
					c0.4,0.1,0.8,0.2,1.1,0.3c0.1-0.8,0.1-1.5,0-2.3c-0.2,0.1-0.4,0.2-0.6,0.3c-0.5,0.2-0.7,0-1.1-0.3c-0.4-0.3,0-1,0.4-0.7
					c0.1,0.1,0.2,0.1,0.3,0.2c0.8-0.2,1.4-0.8,1.6-1.6c0.2-0.5,0.9-0.3,0.8,0.2c-0.2,0.5-0.4,0.9-0.7,1.3c0.2,1.1,0.2,2.2,0,3.2
					c1,0.6,1.8,1.5,2.2,2.6c3.9-0.2,6.9-3.4,6.9-7.3c0-0.6-0.1-1.3-0.2-1.9h0.1c-1.5-2.4-4.4-4.2-7-2.8c0.5,0.7,0.6,1.5,0.4,2.4
					c-0.1,0.5-0.9,0.3-0.8-0.2c0.4-1.5-0.8-2.9-2.3-2.7c-0.5,0.1-0.7-0.7-0.2-0.8c0.9-0.1,1.7,0.1,2.3,0.6l0,0
					c3-1.9,6.6,0.3,8.3,3.2c2.5-0.7,4.3-3,4.3-5.7c0-0.7-0.1-1.3-0.3-2c-1.6-0.7-3.5-1.2-5,0c-0.1,0.1-0.3,0.1-0.4,0.1
					c0.2,0.4,0.4,0.9,0.5,1.4s-0.7,0.7-0.8,0.2c-0.2-1.2-0.9-2.2-2.1-2.8c-0.5-0.2-0.1-0.9,0.4-0.7c0.6,0.3,1.2,0.8,1.6,1.3
					c0-0.1,0.1-0.1,0.1-0.2c1.6-1.3,3.4-1,5.1-0.4c1.4-1.2,2.3-3,2.3-5.1c0-1.8-0.7-3.5-1.9-4.7c-1.3,1.3-3,2.2-4.9,2.6
					C56.9,33,55.9,33,55,32.9c-0.7,3-3.4,4.8-6.4,4.5c0.1,0.6,0,1.3-0.3,1.9c-0.5,0.9-1.6,1.5-2.6,1.2c-0.5-0.2-0.3-0.9,0.2-0.8
					c0.9,0.3,1.7-0.5,1.9-1.3c0.3-1-0.2-2.1-0.5-3c-0.2-0.5,0.6-0.7,0.8-0.2s0.3,0.9,0.5,1.4c2.7,0.4,5.1-1.3,5.8-3.9
					c-1.3-0.4-2.5-1.1-3.3-2.4c-0.3,0.3-0.7,0.5-1.1,0.7c-1.2,0.5-2.5,0.4-3.5-0.5c-0.4-0.3,0.2-0.9,0.6-0.6c0.9,0.8,2.1,0.6,3.1,0
					c0.2-0.1,0.4-0.3,0.6-0.5c0-0.3,0.2-0.5,0.5-0.5c0.5-0.6,0.9-1.2,1.2-1.9c0.3-0.4,1,0,0.7,0.4c-0.4,0.7-0.9,1.5-1.5,2.1
					c1.2,2.2,4,2.7,6.3,2.2c1.6-0.4,3.1-1.2,4.2-2.3l0,0c0.7-1.1,1.1-2.4,1.1-3.8c0-2.6-1.5-4.9-3.7-6.1C57.7,21,55.5,22,53,22.3
					c-3,0.3-6.1-0.8-8.1-3c-0.1,0.4-0.3,0.8-0.6,1.1c-0.7,0.9-1.9,1.3-2.9,0.9c-0.5-0.2-0.3-0.9,0.2-0.8c2.3,0.8,2.8-2.4,2.9-3.9
					c0-0.5,0.8-0.5,0.8,0c0,0.6-0.1,1.2-0.2,1.7c1.1,1.4,2.5,2.3,4.2,2.8c0,0,0,0,0.1,0c1.7-0.3,3.1-1.9,3.1-3.6
					c-0.8,0.3-1.8,0-2.4-0.6c-0.3-0.4,0.2-1,0.6-0.6c0.5,0.6,1.2,0.6,1.8,0.4c0.1-0.2,0.3-0.3,0.5-0.3c0.5-0.4,0.8-1.2,0.9-1.8
					c0.1-0.5,0.9-0.3,0.8,0.2c-0.2,0.9-0.7,1.8-1.4,2.3c0.1,1.8-0.9,3.5-2.4,4.3c0.8,0.1,1.6,0.1,2.5,0c2.3-0.3,4.4-1.4,6.1-2.9
					c0.1-0.3,0.1-0.7,0.1-1.1c0-3.7-2.9-6.8-6.5-7.1v-0.1c0-3.2-2.6-5.8-5.8-5.8c-0.9,0-1.7,0.2-2.5,0.5c-0.1,0.7-0.4,1.4-0.7,2.1
					c-0.8,1.8-2.4,4-4.5,4.3h-0.1c0,0.8-0.3,1.6-0.7,2.3c-0.2,0.5-0.9,0-0.7-0.4c0.4-0.8,0.7-1.6,0.5-2.5S37.5,9,36.5,9.2
					c-0.5,0.1-0.7-0.7-0.2-0.8c1.1-0.2,2.1,0.4,2.7,1.3c0.2,0.2,0.3,0.5,0.3,0.8c1.9-0.3,3.3-2.4,4-4c0.2-0.5,0.4-1,0.5-1.6
					C42.7,2.1,40,0,36.8,0c-1.2,0-2.3,0.3-3.3,0.8v58H34z M46.2,9.4c1.8-0.3,3.6,0.8,4.1,2.7c0.1,0.5-0.6,0.7-0.8,0.2
					c-0.4-1.4-1.7-2.3-3.1-2.1C45.9,10.2,45.7,9.5,46.2,9.4z M58.6,24.8c0.8,1.2,1,2.6,0.5,4c-0.2,0.5-1,0.3-0.8-0.2
					c0.5-1.1,0.3-2.3-0.4-3.3C57.6,24.8,58.3,24.4,58.6,24.8z M40.2,34.2c-0.3,0.4-1,0-0.7-0.4c1-1.4,1.1-3.2,0.3-4.7
					c-0.2-0.5,0.5-0.9,0.7-0.4C41.5,30.4,41.4,32.5,40.2,34.2z M37.4,51.8c2.1,0.8,4.4-0.3,5-2.5c0.1-0.5,0.9-0.3,0.8,0.2
					c-0.7,2.6-3.4,4-6,3.1C36.7,52.4,36.9,51.7,37.4,51.8z"/>
			</g>
		</g>
		<g>
			<g>
				<path class="st5" d="M20.8,69.7h23.6c0.3,0,0.6-0.3,0.6-0.6v-1.3c0-0.3-0.3-0.6-0.6-0.6H20.8c-0.3,0-0.6,0.3-0.6,0.6v1.3
					C20.3,69.4,20.5,69.7,20.8,69.7z"/>
				<path class="st6" d="M43.6,69.6c0.1,0.4,0.1,0.8,0.1,1.2v9.4c0,3.5-2.9,6.4-6.4,6.4h-9.4c-3.5,0-6.4-2.9-6.4-6.4v-9.4
					c0-0.4,0-0.8,0.1-1.2H43.6z"/>
				<path class="st7" d="M37.1,86.6c-0.8,0.8-2.5,1.3-4.5,1.3s-3.7-0.5-4.5-1.3H37.1z"/>
				<path class="st5" d="M20.7,75.2l23.2,6.1c0.4,0.1,0.7-0.1,0.8-0.5l0.4-1.5c0.1-0.4-0.1-0.7-0.5-0.8l-23.2-6.1
					c-0.4-0.1-0.7,0.1-0.8,0.5l-0.4,1.5C20.1,74.8,20.3,75.1,20.7,75.2z"/>
				<path class="st5" d="M20.3,80.5L43,86.4c0.1,0,0.3,0,0.3-0.2l0.6-2.3c0-0.1,0-0.3-0.2-0.3L21,77.7c-0.1,0-0.3,0-0.3,0.2
					l-0.6,2.3C20.1,80.3,20.1,80.5,20.3,80.5z"/>
				<path class="st5" d="M31.2,69.6l12.7,3.3c0.8,0.2,1.2,1,1,1.8s-1,1.2-1.8,1L21.4,70c-0.3-0.1-0.5-0.2-0.7-0.4L31.2,69.6z"/>
			</g>
		</g>
	</g>
</g>
</svg>
