<?xml version="1.0" encoding="utf-8"?>
<!-- Generator: Adobe Illustrator 22.1.0, SVG Export Plug-In . SVG Version: 6.00 Build 0)  -->
<svg version="1.1" id="Objects" xmlns="http://www.w3.org/2000/svg" xmlns:xlink="http://www.w3.org/1999/xlink" x="0px" y="0px"
	 viewBox="0 0 149.9 83.1" style="enable-background:new 0 0 149.9 83.1;" xml:space="preserve">
<style type="text/css">
	.st0{fill:#31333A;}
	.st1{font-family:'OpenSans';}
	.st2{font-size:10.8714px;}
	.st3{fill:#045382;}
	.st4{fill:none;stroke:#8D8C8C;stroke-miterlimit:10;}
</style>
<g>
	<text transform="matrix(1 0 0 1 18.2633 67.1928)" class="st0 st1 st2">PRESENT THE PROJECT</text>
	<text transform="matrix(1 0 0 1 74.2633 80.1928)" class="st0 st1 st2"> </text>
	<g>
		<g>
			<path class="st3" d="M85.3,35.2c-9.9,3.4-20.2-7.6-29.6-1.4c-1.2,0.8-4.3,4.1-5.7,0.6c-0.5-1.3-0.7-2.7-1-4
				c-0.4-1.4-0.7-2.9-1.1-4.3c0.7-6.9-3.4-14.4-5.3-20.9c-0.2-0.6-0.3-1.3-0.5-1.9c-0.2-0.7-1.3-0.4-1.2,0.3
				c0.2,0.8,0.4,1.6,0.6,2.3c1.5,6.1,3.1,12.2,4.6,18.3c0.1,0.4,0.2,0.9,0.3,1.3c-0.2,3.7-1.9,7.3-5.3,9.2c-2.4,1.4-5.7,1.6-8.2,0.5
				C31.8,30,31,24.8,30.6,19.6c1.2-5.1,1.4-10.3,0-15.6c-0.2-0.7-1.2-0.5-1.2,0.2c-0.4,5.1-0.3,10.3,0,15.4
				c-1.4,6.1-4.2,11.9-7.1,17.5c-0.3,0.7,0.7,1.2,1.1,0.6c2.5-4.7,4.8-9.5,6.4-14.6c0.4,3.8,1,7.6,1.8,11.3c-0.4-0.3-0.7-0.6-1-1
				c-0.4-0.5-1.1-0.3-1.1,0.3c-0.2,2,1.1,3.3,3.2,3.4c0.3,0,0.5-0.2,0.6-0.4c4.4,1.6,10-0.7,12.6-4.6c0.7-1,1.2-2.1,1.5-3.2
				c0.4,1.7,0.9,3.4,1.3,5.2c0.3,1.2,1.1,3.4,2.9,3.3c2.3-0.1,3.7-1.7,5.5-2.9c3.1-2,7.5-1.2,10.8-0.4c5.9,1.5,11.6,4.6,17.8,2.4
				C86.4,36.1,86,35,85.3,35.2z"/>
			<path class="st3" d="M128.3,30.5c-2.1,2.7-5.3,4.1-8.9,4.2c-3.5,0.1-5.3-2.1-8.2-3.2c-4.2-1.6-6.9,1.5-8.7,4.7
				c-2.4-4.9-4.4-10-5.8-15.3C96.2,14,95,7.2,93.3,0.4c-0.2-0.6-1.2-0.5-1.2,0.2c0.3,7.2,1.6,14.3,3.6,21.2
				c0.6,5.1,0.9,11.7-4.1,13.1c-0.8,0.2-0.4,1.3,0.3,1.1c4.8-1.3,5.2-6,5-10.1c1.4,4.1,3,8.1,5,11.9c0.2,0.4,0.9,0.4,1.1,0
				c1.6-3.3,4.1-7.2,8.5-4.9c2.1,1.1,3.8,2.5,6.3,2.7c4.5,0.5,8.9-1.1,11.6-4.6C129.8,30.5,128.7,29.9,128.3,30.5z"/>
		</g>
		<line class="st4" x1="0" y1="38.2" x2="149.9" y2="38.2"/>
	</g>
</g>
</svg>
