<?xml version="1.0" encoding="utf-8"?>
<!-- Generator: Adobe Illustrator 22.1.0, SVG Export Plug-In . SVG Version: 6.00 Build 0)  -->
<svg version="1.1" id="Objects" xmlns="http://www.w3.org/2000/svg" xmlns:xlink="http://www.w3.org/1999/xlink" x="0px" y="0px"
	 viewBox="0 0 146.6 97.9" style="enable-background:new 0 0 146.6 97.9;" xml:space="preserve">
<style type="text/css">
	.st0{fill:#EFE3BF;}
	.st1{fill:#8D8C8C;}
	.st2{fill:#34B2E4;}
	.st3{fill:#566E6F;}
	.st4{fill:#FCAF38;}
	.st5{fill:#518780;}
	.st6{fill:#5D5C54;}
</style>
<g>
	<g>
		<rect x="8.8" y="6.9" transform="matrix(0.973 -0.2307 0.2307 0.973 -10.119 11.3932)" class="st0" width="69.8" height="84.1"/>
		<rect x="4.7" y="12.2" transform="matrix(0.973 -0.2307 0.2307 0.973 -2.2833 8.5234)" class="st1" width="61.3" height="3.6"/>
		<rect x="6.2" y="20.2" transform="matrix(0.973 -0.2306 0.2306 0.973 -3.7858 9.0574)" class="st1" width="61.3" height="1.1"/>
		<rect x="7" y="23.7" transform="matrix(0.973 -0.2306 0.2306 0.973 -4.5715 9.3399)" class="st1" width="61.3" height="1.1"/>
		<rect x="8.1" y="29.2" transform="matrix(0.973 -0.2306 0.2306 0.973 -6.055 7.6059)" class="st1" width="42.8" height="1.1"/>
		<rect x="8.9" y="32.7" transform="matrix(0.973 -0.2306 0.2306 0.973 -6.8413 7.8882)" class="st1" width="42.8" height="1.1"/>
		<rect x="9.4" y="34" transform="matrix(0.973 -0.2306 0.2306 0.973 -6.8834 10.1721)" class="st1" width="61.3" height="1.1"/>
		<rect x="10.6" y="40" transform="matrix(0.973 -0.2306 0.2306 0.973 -8.5613 7.9375)" class="st1" width="38.1" height="1.1"/>
		
			<rect x="17.4" y="67.6" transform="matrix(0.973 -0.2306 0.2306 0.973 -14.4148 12.9212)" class="st1" width="61.3" height="1.1"/>
		
			<rect x="21.7" y="85.4" transform="matrix(0.973 -0.2307 0.2307 0.973 -18.3644 14.3807)" class="st1" width="61.3" height="0.6"/>
		<rect x="12.2" y="46.8" transform="matrix(0.973 -0.2307 0.2307 0.973 -10.0865 8.4749)" class="st1" width="37.9" height="1.1"/>
		<rect x="13.1" y="50.3" transform="matrix(0.973 -0.2307 0.2307 0.973 -10.8747 8.7569)" class="st1" width="37.9" height="1.1"/>
		<rect x="13.8" y="53.8" transform="matrix(0.973 -0.2306 0.2306 0.973 -11.6441 9.0192)" class="st1" width="37.9" height="1.1"/>
		<polygon class="st1" points="52.2,53.9 15.4,62.7 15.1,61.6 52,52.9 		"/>
		
			<rect x="15.2" y="57.9" transform="matrix(0.973 -0.2307 0.2307 0.973 -12.2552 12.1477)" class="st1" width="61.3" height="1.1"/>
		<rect x="16" y="61.3" transform="matrix(0.973 -0.2307 0.2307 0.973 -13.0198 12.4223)" class="st1" width="61.3" height="1.1"/>
		<g>
			<g>
				<path class="st2" d="M30.3,82.1c-2.2,0.5-3.6,2.7-3.1,5c0.5,2.2,2.7,3.6,5,3.1c2.2-0.5,3.6-2.7,3.1-5
					C34.7,82.9,32.5,81.6,30.3,82.1z M32,89.5c-1.8,0.4-3.7-0.7-4.1-2.6c-0.4-1.8,0.7-3.7,2.6-4.1c1.8-0.4,3.7,0.7,4.1,2.6
					C35,87.2,33.9,89,32,89.5z"/>
				<path class="st2" d="M33.8,85.5c0.3,1.4-0.5,2.8-2,3.2c-1.4,0.3-2.8-0.5-3.2-2c-0.3-1.4,0.5-2.8,2-3.2
					C32,83.2,33.5,84.1,33.8,85.5z"/>
				<path class="st2" d="M38.1,85.7L37,85.4c0-0.1,0-0.2,0-0.3l0.9-0.6l-1.1-0.1c0-0.1-0.1-0.2-0.1-0.3l0.8-0.8l-1.1,0.1
					c0-0.1-0.1-0.2-0.1-0.2l0.7-0.9l-1.1,0.3c-0.1-0.1-0.1-0.1-0.2-0.2l0.5-1l-1,0.4c-0.1-0.1-0.1-0.1-0.2-0.2l0.3-1.1l-0.9,0.6
					c-0.1,0-0.2-0.1-0.2-0.1l0.1-1.1l-0.8,0.8c-0.1,0-0.2-0.1-0.3-0.1l-0.1-1.1l-0.7,0.9c-0.1,0-0.2,0-0.3-0.1l-0.3-1.1l-0.5,1
					c-0.1,0-0.2,0-0.3,0l-0.4-1l-0.3,1.1c-0.1,0-0.2,0-0.3,0l-0.6-0.9l-0.1,1.1c-0.1,0-0.2,0.1-0.3,0.1l-0.5-0.8l0.1,1.1
					c-0.1,0-0.2,0.1-0.2,0.1l-0.9-0.7l0.3,1.1c-0.1,0.1-0.1,0.1-0.2,0.2l-1-0.5l0.4,1c-0.1,0.1-0.1,0.1-0.2,0.2L25.7,82l0.6,0.9
					c0,0.1-0.1,0.2-0.1,0.2L25.1,83l0.8,0.8c0,0.1-0.1,0.2-0.1,0.3l-1.1,0.1l0.9,0.7c0,0.1,0,0.2-0.1,0.3l-1.1,0.2l1,0.5
					c0,0.1,0,0.2,0,0.3l-1,0.4l1.1,0.3c0,0.1,0,0.2,0,0.3l-0.9,0.6l1.1,0.1c0,0.1,0.1,0.2,0.1,0.3L25,89l1.1-0.1
					c0,0.1,0.1,0.2,0.1,0.2L25.5,90l1.1-0.3c0.1,0.1,0.1,0.1,0.2,0.2l-0.5,1l1-0.4c0.1,0.1,0.1,0.1,0.2,0.2l-0.3,1.1l0.9-0.6
					c0.1,0.1,0.2,0.1,0.2,0.1l-0.1,1.1l0.8-0.8c0.1,0,0.2,0.1,0.3,0.1l0.1,1.1l0.7-0.9c0.1,0,0.2,0,0.3,0.1l0.2,1.1l0.5-1
					c0.1,0,0.2,0,0.3,0l0.4,1l0.3-1.1c0.1,0,0.2,0,0.3,0l0.6,0.9l0.1-1.1c0.1,0,0.2-0.1,0.3-0.1l0.8,0.8l-0.1-1.1
					c0.1,0,0.2-0.1,0.2-0.1l0.9,0.7l-0.3-1.1c0.1-0.1,0.1-0.1,0.2-0.2l1,0.5l-0.4-1c0.1-0.1,0.1-0.1,0.2-0.2l1.1,0.3l-0.6-0.9
					c0.1-0.1,0.1-0.2,0.1-0.2l1.1,0.1l-0.8-0.8c0-0.1,0.1-0.2,0.1-0.3l1.1-0.1l-0.9-0.7c0-0.1,0-0.2,0.1-0.3l1.1-0.3l-1-0.5
					c0-0.1,0-0.2,0-0.3L38.1,85.7z M32.4,90.9c-2.7,0.6-5.3-1-6-3.7c-0.6-2.7,1-5.3,3.7-6c2.7-0.6,5.3,1,6,3.7
					C36.7,87.6,35,90.3,32.4,90.9z"/>
				<path class="st2" d="M30.3,81.6c0,0.1,0,0.2-0.1,0.2s-0.2,0-0.2-0.1s0-0.2,0.1-0.2C30.2,81.5,30.3,81.5,30.3,81.6z"/>
				<path class="st2" d="M29.6,81.9c0,0.1,0,0.2-0.1,0.2s-0.2,0-0.2-0.1s0-0.2,0.1-0.2C29.4,81.7,29.5,81.8,29.6,81.9z"/>
				<path class="st2" d="M28.8,82.2c0,0.1,0,0.2,0,0.2c-0.1,0-0.2,0-0.2,0c0-0.1,0-0.2,0-0.2C28.7,82.1,28.8,82.1,28.8,82.2z"/>
				<path class="st2" d="M28.2,82.7c0.1,0.1,0.1,0.2,0,0.2C28.1,83,28,83,28,82.9c-0.1-0.1-0.1-0.2,0-0.2
					C28.1,82.6,28.1,82.6,28.2,82.7z"/>
				<path class="st2" d="M27.6,83.3c0.1,0,0.1,0.1,0,0.2c0,0.1-0.1,0.1-0.2,0c-0.1,0-0.1-0.1,0-0.2C27.5,83.2,27.6,83.2,27.6,83.3z"
					/>
				<path class="st2" d="M27.2,83.9c0.1,0,0.1,0.1,0.1,0.2c0,0.1-0.1,0.1-0.2,0.1C27,84.2,27,84.1,27,84
					C27.1,83.9,27.1,83.9,27.2,83.9z"/>
				<path class="st2" d="M26.9,84.7c0.1,0,0.1,0.1,0.1,0.2c0,0.1-0.1,0.1-0.2,0.1c-0.1,0-0.1-0.1-0.1-0.2
					C26.7,84.7,26.8,84.6,26.9,84.7z"/>
				<path class="st2" d="M26.7,85.4c0.1,0,0.1,0.1,0.1,0.2c0,0.1-0.1,0.1-0.2,0.1c-0.1,0-0.1-0.1-0.1-0.2
					C26.6,85.5,26.6,85.4,26.7,85.4z"/>
				<path class="st2" d="M26.7,86.2c0.1,0,0.1,0.1,0.2,0.1c0,0.1-0.1,0.1-0.1,0.2c-0.1,0-0.1-0.1-0.2-0.1
					C26.5,86.3,26.6,86.2,26.7,86.2z"/>
				<path class="st2" d="M26.7,87c0.1,0,0.2,0,0.2,0.1s0,0.2-0.1,0.2s-0.2,0-0.2-0.1C26.6,87.1,26.7,87,26.7,87z"/>
				<path class="st2" d="M27,87.8c0.1,0,0.2,0,0.2,0.1s0,0.2-0.1,0.2s-0.2,0-0.2-0.1C26.9,87.9,26.9,87.8,27,87.8z"/>
				<path class="st2" d="M27.3,88.5c0.1,0,0.2,0,0.2,0c0,0.1,0,0.2,0,0.2c-0.1,0-0.2,0-0.2,0C27.2,88.6,27.3,88.5,27.3,88.5z"/>
				<path class="st2" d="M27.8,89.1c0.1-0.1,0.2-0.1,0.2,0c0.1,0.1,0.1,0.2,0,0.2c-0.1,0.1-0.2,0.1-0.2,0
					C27.7,89.3,27.7,89.2,27.8,89.1z"/>
				<path class="st2" d="M28.4,89.7c0-0.1,0.1-0.1,0.2,0c0.1,0,0.1,0.1,0,0.2c0,0.1-0.1,0.1-0.2,0C28.3,89.8,28.3,89.8,28.4,89.7z"
					/>
				<path class="st2" d="M29,90.1c0-0.1,0.1-0.1,0.2-0.1c0.1,0,0.1,0.1,0.1,0.2c0,0.1-0.1,0.1-0.2,0.1C29,90.3,29,90.2,29,90.1z"/>
				<path class="st2" d="M29.8,90.4c0-0.1,0.1-0.1,0.2-0.1c0.1,0,0.1,0.1,0.1,0.2c0,0.1-0.1,0.1-0.2,0.1
					C29.8,90.6,29.8,90.5,29.8,90.4z"/>
				<path class="st2" d="M30.6,90.6c0-0.1,0.1-0.1,0.2-0.1c0.1,0,0.1,0.1,0.1,0.2c0,0.1-0.1,0.1-0.2,0.1
					C30.6,90.8,30.5,90.7,30.6,90.6z"/>
				<path class="st2" d="M31.4,90.7c0-0.1,0.1-0.2,0.1-0.2c0.1,0,0.1,0.1,0.2,0.1c0,0.1-0.1,0.1-0.1,0.2
					C31.4,90.8,31.4,90.8,31.4,90.7z"/>
				<path class="st2" d="M32.1,90.6c0-0.1,0-0.2,0.1-0.2s0.2,0,0.2,0.1s0,0.2-0.1,0.2C32.2,90.7,32.2,90.7,32.1,90.6z"/>
				<path class="st2" d="M32.9,90.4c0-0.1,0-0.2,0.1-0.2s0.2,0,0.2,0.1s0,0.2-0.1,0.2C33,90.5,32.9,90.4,32.9,90.4z"/>
				<path class="st2" d="M33.6,90c0-0.1,0-0.2,0-0.2c0.1,0,0.2,0,0.2,0c0,0.1,0,0.2,0,0.2C33.8,90.1,33.7,90.1,33.6,90z"/>
				<path class="st2" d="M34.3,89.5c-0.1-0.1-0.1-0.2,0-0.2c0.1-0.1,0.1-0.1,0.2,0c0.1,0.1,0.1,0.2,0,0.2
					C34.4,89.6,34.3,89.6,34.3,89.5z"/>
				<path class="st2" d="M34.8,89c-0.1,0-0.1-0.1,0-0.2c0-0.1,0.1-0.1,0.2,0c0.1,0,0.1,0.1,0,0.2C35,89,34.9,89,34.8,89z"/>
				<path class="st2" d="M35.3,88.3c-0.1,0-0.1-0.1-0.1-0.2c0-0.1,0.1-0.1,0.2-0.1c0.1,0,0.1,0.1,0.1,0.2
					C35.4,88.3,35.3,88.3,35.3,88.3z"/>
				<path class="st2" d="M35.6,87.6c-0.1,0-0.1-0.1-0.1-0.2c0-0.1,0.1-0.1,0.2-0.1c0.1,0,0.1,0.1,0.1,0.2
					C35.7,87.5,35.6,87.6,35.6,87.6z"/>
				<path class="st2" d="M35.8,86.8c-0.1,0-0.1-0.1-0.1-0.2c0-0.1,0.1-0.1,0.2-0.1c0.1,0,0.1,0.1,0.1,0.2
					C35.9,86.7,35.8,86.8,35.8,86.8z"/>
				<path class="st2" d="M35.8,86c-0.1,0-0.1-0.1-0.2-0.1c0-0.1,0.1-0.1,0.1-0.2c0.1,0,0.1,0.1,0.2,0.1C35.9,85.9,35.9,86,35.8,86z"
					/>
				<path class="st2" d="M35.7,85.2c-0.1,0-0.2,0-0.2-0.1s0-0.2,0.1-0.2s0.2,0,0.2,0.1S35.8,85.2,35.7,85.2z"/>
				<path class="st2" d="M35.5,84.4c-0.1,0-0.2,0-0.2-0.1s0-0.2,0.1-0.2s0.2,0,0.2,0.1C35.6,84.3,35.6,84.4,35.5,84.4z"/>
				<path class="st2" d="M35.1,83.7c-0.1,0-0.2,0-0.2,0c0-0.1,0-0.2,0-0.2c0.1,0,0.2,0,0.2,0C35.2,83.6,35.2,83.7,35.1,83.7z"/>
				<path class="st2" d="M34.7,83.1c-0.1,0.1-0.2,0.1-0.2,0c-0.1-0.1-0.1-0.2,0-0.2c0.1-0.1,0.2-0.1,0.2,0
					C34.7,82.9,34.7,83,34.7,83.1z"/>
				<path class="st2" d="M34.1,82.5c0,0.1-0.1,0.1-0.2,0c-0.1,0-0.1-0.1,0-0.2c0-0.1,0.1-0.1,0.2,0C34.1,82.4,34.1,82.5,34.1,82.5z"
					/>
				<path class="st2" d="M33.4,82.1c0,0.1-0.1,0.1-0.2,0.1c-0.1,0-0.1-0.1-0.1-0.2c0-0.1,0.1-0.1,0.2-0.1
					C33.4,81.9,33.4,82,33.4,82.1z"/>
				<path class="st2" d="M32.7,81.8c0,0.1-0.1,0.1-0.2,0.1c-0.1,0-0.1-0.1-0.1-0.2c0-0.1,0.1-0.1,0.2-0.1
					C32.7,81.6,32.7,81.7,32.7,81.8z"/>
				<path class="st2" d="M31.9,81.6c0,0.1-0.1,0.1-0.2,0.1c-0.1,0-0.1-0.1-0.1-0.2c0-0.1,0.1-0.1,0.2-0.1
					C31.9,81.4,31.9,81.5,31.9,81.6z"/>
				<path class="st2" d="M31.1,81.5c0,0.1-0.1,0.1-0.1,0.2c-0.1,0-0.1-0.1-0.2-0.1c0-0.1,0.1-0.1,0.1-0.2
					C31,81.4,31.1,81.5,31.1,81.5z"/>
			</g>
		</g>
		<path class="st2" d="M76,80.8c-1.8,0.5-3.7,0.1-5.2-1.1c-0.1-0.1-0.3,0.1-0.2,0.2c0,0.1,0.1,0.2,0.1,0.3c-1-0.7-2-1.6-2.9-2.5
			c-0.6-1-1.5-1.8-2.3-2.6c-0.2-0.2-0.4,0.1-0.3,0.2c0.7,0.8,1.4,1.6,2.1,2.4c0.8,1.2,1.2,2.6,0.3,3.9c-0.6,0.9-1.7,1.3-2.6,0.9
			c0.6-0.9,0.1-2.2-1.2-2.4c-0.1,0-0.2,0.1-0.2,0.1c-0.2,0.9,0.1,1.9,0.8,2.4c-0.1,0-0.1,0.1-0.2,0.1c-0.2,0.1,0,0.4,0.2,0.3
			c0.1-0.1,0.2-0.2,0.3-0.2c0.9,0.5,1.9,0.2,2.6-0.4c1-0.8,1.1-2.1,0.9-3.3c0-0.2-0.1-0.3-0.1-0.5c0.9,0.8,1.8,1.6,2.8,2.3
			c0.2,0.1,0.3-0.1,0.2-0.2c0-0.1-0.1-0.2-0.1-0.3c1.5,0.9,3.2,1.2,4.9,0.8C76.3,81.1,76.2,80.8,76,80.8z M64.5,82.2
			c-0.4-0.4-0.5-0.9-0.5-1.4c0.1,0,0.3,0,0.4-0.1c0.3,0.2,0.5,0.5,0.6,0.8s0,0.7-0.2,0.9C64.7,82.3,64.6,82.2,64.5,82.2z"/>
		<path class="st2" d="M83.8,78c-3.3,1.6-6.5-0.3-9-2.6c-0.4-0.5-0.9-1-1.4-1.4c-0.2-0.1-0.4,0.1-0.3,0.2c0.4,0.5,0.9,0.9,1.4,1.4
			c0.4,0.4,0.7,0.9,1,1.4c0.4,0.6,0.7,1.2,0.8,1.8c0.1,0.8-0.6,0.9-1.1,0.8c0.2-0.3,0.3-0.7,0-1.2c-0.5-0.8-2,0.2-1.3,0.9
			c0.1,0.1,0.3,0.2,0.4,0.3c-0.1,0.1-0.3,0.1-0.6-0.2c-0.2-0.1-0.4,0.2-0.2,0.3c0.4,0.3,0.9,0.3,1.3,0.1c0.8,0.2,1.7-0.1,1.8-1.1
			c0.1-0.7-0.5-1.5-0.9-2.1c2.4,1.9,5.2,3.1,8.2,1.6C84.2,78.2,84,77.9,83.8,78z"/>
	</g>
	<g>
		<path class="st3" d="M145.9,65.8l-0.3,1.4c-0.4,1.9-2.3,3-4.2,2.6l-4.7-1.1c-1.9-0.4-3-2.3-2.6-4.2l0.3-1.4c0.4-1.9,2.3-3,4.2-2.6
			l4.7,1.1C145.2,62.1,146.4,64,145.9,65.8z"/>
		<path class="st4" d="M71.1,47.4L71.1,47.4l-2.2,1l6.8,0.9c0.4-0.3,1-0.4,1.5-0.2c0.9,0.2,1.6,1,1.4,1.6c-0.2,0.7-1.1,1.1-2,0.8
			c-0.6-0.1-1-0.4-1.2-0.8l-6.6-2.2l1.6,1.8c2.2,0.5,6.1,3.7,6.1,3.7l6.7-0.7l0.3-1.5l0.3-1.5l-5.7-3.6
			C78.2,46.8,73.3,47.9,71.1,47.4z"/>
		<rect x="108.1" y="30" transform="matrix(0.229 -0.9734 0.9734 0.229 29.5797 154.5247)" class="st3" width="8.5" height="57.2"/>
		
			<rect x="111" y="27.8" transform="matrix(0.2291 -0.9734 0.9734 0.2291 32.1382 153.3535)" class="st5" width="3.7" height="57.2"/>
		
			<rect x="79.2" y="50.8" transform="matrix(0.2289 -0.9734 0.9734 0.2289 13.8077 121.2439)" class="st6" width="8.4" height="2.2"/>
		<polygon class="st4" points="118.5,55.2 116.3,64.5 115.5,64.3 117.7,55 		"/>
		
			<rect x="135.5" y="64.8" transform="matrix(0.2292 -0.9734 0.9734 0.2292 44.6178 186.816)" class="st4" width="9.5" height="0.9"/>
		<path class="st4" d="M146.6,63.1L145,70c-0.1,0.6-0.8,1-1.4,0.9l-0.5-0.1c-0.6-0.1-1-0.8-0.9-1.4l1.6-6.9c0.1-0.6,0.8-1,1.4-0.9
			l0.5,0.1C146.3,61.8,146.7,62.5,146.6,63.1z"/>
		<path class="st4" d="M145,63.8l-0.1,0.2c-0.1,0.3-0.4,0.5-0.7,0.4l-19.1-4.5c-0.3-0.1-0.5-0.4-0.4-0.7l0.1-0.2
			c0.1-0.3,0.4-0.5,0.7-0.4l19.1,4.5C144.8,63.2,145,63.5,145,63.8z"/>
	</g>
</g>
</svg>
